<?xml version="1.0" encoding="utf-8"?>
<!-- Generator: Adobe Illustrator 24.0.0, SVG Export Plug-In . SVG Version: 6.00 Build 0)  -->
<svg version="1.1" id="Livello_1" xmlns="http://www.w3.org/2000/svg" xmlns:xlink="http://www.w3.org/1999/xlink" x="0px" y="0px"
	 viewBox="0 0 803 320" style="enable-background:new 0 0 803 320;" xml:space="preserve">
<style type="text/css">
	.st0{opacity:0.2;fill:#C0C0C0;enable-background:new    ;}
	.st1{fill:#FFFFFF;}
	.st2{fill:none;stroke:#000000;stroke-miterlimit:10;}
	.st3{font-family:'Arial-BoldMT';}
	.st4{font-size:13px;}
	.st5{font-family:'ArialMT';}
	.st6{fill:none;stroke:#000000;stroke-miterlimit:10;stroke-dasharray:3;}
	.st7{font-family:'MyriadPro-Regular';}
	.st8{font-size:14px;}
</style>
<g>
	<g transform="translate(-134,-38) scale(1,1)">
		<rect x="151" y="79" class="st0" width="154.6" height="72"/>
	</g>
	<g transform="translate(-134,-38) scale(1,1)">
		<rect x="144" y="72" class="st1" width="154.6" height="72"/>
	</g>
	<g transform="translate(-134,-38) scale(1,1)">
		<path class="st2" d="M144,72h154.6v72H144V72z"/>
	</g>
	<g transform="translate(-134,-38) scale(1,1)">
		<path class="st2" d="M144,97h154.6"/>
	</g>
	<g transform="translate(-134,-38) scale(1,1)">
		<path class="st2" d="M144,120h154.6"/>
	</g>
	<g transform="translate(-134,-38) scale(1,1)">
		<g>
			<path class="st2" d="M0,0"/>
			<text transform="matrix(1 0 0 1 208.679 90)" class="st3 st4">App</text>
		</g>
	</g>
	<g transform="translate(-134,-38) scale(1,1)">
		<g>
			<path d="M0,0"/>
			<text transform="matrix(1 0 0 1 149 113)" class="st5 st4">~keyboardInput: Scanner</text>
			<path class="st2" d="M149,114.5h145.6"/>
		</g>
	</g>
	<g transform="translate(-134,-38) scale(1,1)">
		<g>
			<path class="st2" d="M0,0"/>
			<text transform="matrix(1 0 0 1 149 136)" class="st5 st4">+executeStart()</text>
			<path class="st2" d="M149,137.5h89.2"/>
		</g>
	</g>
	<g transform="translate(-134,-38) scale(1,1)">
		<rect x="175" y="239" class="st0" width="112" height="44"/>
	</g>
	<g transform="translate(-134,-38) scale(1,1)">
		<rect x="168" y="232" class="st1" width="112" height="44"/>
	</g>
	<g transform="translate(-134,-38) scale(1,1)">
		<path class="st2" d="M168,232h112v44H168V232z"/>
	</g>
	<g transform="translate(-134,-38) scale(1,1)">
		<path class="st2" d="M168,257h112"/>
	</g>
	<g transform="translate(-134,-38) scale(1,1)">
		<path class="st2" d="M168,267h112"/>
	</g>
	<g transform="translate(-134,-38) scale(1,1)">
		<g>
			<path class="st2" d="M0,0"/>
			<text transform="matrix(1 0 0 1 203.7605 250)" class="st3 st4">Parser</text>
		</g>
	</g>
	<g transform="translate(-134,-38) scale(1,1)">
		<rect x="423" y="55" class="st0" width="124" height="115"/>
	</g>
	<g transform="translate(-134,-38) scale(1,1)">
		<rect x="416" y="48" class="st1" width="124" height="115"/>
	</g>
	<g transform="translate(-134,-38) scale(1,1)">
		<path class="st2" d="M416,48h124v115H416V48z"/>
	</g>
	<g transform="translate(-134,-38) scale(1,1)">
		<path class="st2" d="M416,73h124"/>
	</g>
	<g transform="translate(-134,-38) scale(1,1)">
		<path class="st2" d="M416,126h124"/>
	</g>
	<g transform="translate(-134,-38) scale(1,1)">
		<g>
			<path class="st2" d="M0,0"/>
			<text transform="matrix(1 0 0 1 456.0913 66)" class="st3 st4">Wordle</text>
		</g>
	</g>
	<g transform="translate(-134,-38) scale(1,1)">
		<g>
			<path d="M0,0"/>
			<text transform="matrix(1 0 0 1 421 89)" class="st5 st4">-secretWord: String</text>
			<path class="st2" d="M421,90.5h111.7"/>
		</g>
	</g>
	<g transform="translate(-134,-38) scale(1,1)">
		<g>
			<path class="st2" d="M0,0"/>
			<text transform="matrix(1 0 0 1 421 104)" class="st5 st4">-wordLength: int</text>
			<path class="st2" d="M421,105.5h93.2"/>
		</g>
	</g>
	<g transform="translate(-134,-38) scale(1,1)">
		<g>
			<path class="st2" d="M0,0"/>
			<text transform="matrix(1 0 0 1 421 119)" class="st5 st4">-nMaxGuess: int</text>
			<path class="st2" d="M421,120.5h94.6"/>
		</g>
	</g>
	<g transform="translate(-134,-38) scale(1,1)">
		<g>
			<path class="st2" d="M0,0"/>
			<text transform="matrix(1 0 0 1 421 142)" class="st5 st4">+isGameRunning()</text>
			<path class="st2" d="M421,143.5h109.5"/>
		</g>
	</g>
	<g transform="translate(-134,-38) scale(1,1)">
		<g>
			<path class="st2" d="M0,0"/>
			<text transform="matrix(1 0 0 1 421 157)" class="st5 st4">+startGame()</text>
			<path class="st2" d="M421,158.5h76.9"/>
		</g>
	</g>
	<g transform="translate(-134,-38) scale(1,1)">
		<rect x="679" y="87" class="st0" width="120.7" height="57"/>
	</g>
	<g transform="translate(-134,-38) scale(1,1)">
		<rect x="672" y="80" class="st1" width="120.7" height="57"/>
	</g>
	<g transform="translate(-134,-38) scale(1,1)">
		<path class="st2" d="M672,80h120.7v57H672V80z"/>
	</g>
	<g transform="translate(-134,-38) scale(1,1)">
		<path class="st2" d="M672,105h120.7"/>
	</g>
	<g transform="translate(-134,-38) scale(1,1)">
		<path class="st2" d="M672,128h120.7"/>
	</g>
	<g transform="translate(-134,-38) scale(1,1)">
		<g>
			<path class="st2" d="M0,0"/>
			<text transform="matrix(1 0 0 1 692.3945 98)" class="st3 st4">WordleGame</text>
		</g>
	</g>
	<g transform="translate(-134,-38) scale(1,1)">
		<g>
			<path d="M0,0"/>
			<text transform="matrix(1 0 0 1 677 121)" class="st5 st4">-secretWord: String</text>
		</g>
	</g>
	<g transform="translate(-134,-38) scale(1,1)">
		<rect x="671" y="191" class="st0" width="128" height="72"/>
	</g>
	<g transform="translate(-134,-38) scale(1,1)">
		<rect x="664" y="184" class="st1" width="128" height="72"/>
	</g>
	<g transform="translate(-134,-38) scale(1,1)">
		<path class="st2" d="M664,184h128v72H664V184z"/>
	</g>
	<g transform="translate(-134,-38) scale(1,1)">
		<path class="st2" d="M664,209h128"/>
	</g>
	<g transform="translate(-134,-38) scale(1,1)">
		<path class="st2" d="M664,247h128"/>
	</g>
	<g transform="translate(-134,-38) scale(1,1)">
		<g>
			<path class="st2" d="M0,0"/>
			<text transform="matrix(1 0 0 1 709.2205 202)" class="st3 st4">Board</text>
		</g>
	</g>
	<g transform="translate(-134,-38) scale(1,1)">
		<g>
			<path d="M0,0"/>
			<text transform="matrix(1 0 0 1 669 225)" class="st5 st4">-firstEmptyIndex: int</text>
		</g>
	</g>
	<g transform="translate(-134,-38) scale(1,1)">
		<g>
			<path d="M0,0"/>
			<text transform="matrix(1 0 0 1 669 240)" class="st5 st4">-wordleLength</text>
		</g>
	</g>
	<g transform="translate(-134,-38) scale(1,1)">
		<rect x="375" y="223" class="st0" width="113.4" height="57"/>
	</g>
	<g transform="translate(-134,-38) scale(1,1)">
		<rect x="368" y="216" class="st1" width="113.4" height="57"/>
	</g>
	<g transform="translate(-134,-38) scale(1,1)">
		<path class="st2" d="M368,216h113.4v57H368V216z"/>
	</g>
	<g transform="translate(-134,-38) scale(1,1)">
		<path class="st2" d="M368,241h113.4"/>
	</g>
	<g transform="translate(-134,-38) scale(1,1)">
		<path class="st2" d="M368,251h113.4"/>
	</g>
	<g transform="translate(-134,-38) scale(1,1)">
		<g>
			<path class="st2" d="M0,0"/>
			<text transform="matrix(1 0 0 1 403.7463 234)" class="st3 st4">Printer</text>
		</g>
	</g>
	<g transform="translate(-134,-38) scale(1,1)">
		<g>
			<path d="M0,0"/>
			<text transform="matrix(1 0 0 1 373 267)" class="st5 st4">+printBoard()</text>
		</g>
	</g>
	<g transform="translate(-134,-38) scale(1,1)">
		<rect x="687" y="311" class="st0" width="88" height="44"/>
	</g>
	<g transform="translate(-134,-38) scale(1,1)">
		<rect x="680" y="304" class="st1" width="88" height="44"/>
	</g>
	<g transform="translate(-134,-38) scale(1,1)">
		<path class="st2" d="M680,304h88v44h-88V304z"/>
	</g>
	<g transform="translate(-134,-38) scale(1,1)">
		<path class="st2" d="M680,329h88"/>
	</g>
	<g transform="translate(-134,-38) scale(1,1)">
		<path class="st2" d="M680,339h88"/>
	</g>
	<g transform="translate(-134,-38) scale(1,1)">
		<g>
			<path class="st2" d="M0,0"/>
			<text transform="matrix(1 0 0 1 704.1287 322)" class="st3 st4">Guess</text>
		</g>
	</g>
	<g transform="translate(-134,-38) scale(1,1)">
		<path class="st6" d="M300,107l115-1"/>
	</g>
	<g transform="translate(-134,-38) scale(1,1)">
		<path class="st2" d="M404.9,110.3L415,106l-10.2-4.1"/>
	</g>
	<g transform="translate(-134,-38) scale(1,1)">
		<g>
			<path class="st2" d="M0,0"/>
			<text transform="matrix(1 0 0 1 340.5 81)" class="st5 st4">«call»</text>
		</g>
	</g>
	<g transform="translate(-134,-38) scale(1,1)">
		<path class="st2" d="M276,145l105,70"/>
	</g>
	<g transform="translate(-134,-38) scale(1,1)">
		<path class="st2" d="M370.2,212.9L381,215l-6.1-9.1"/>
	</g>
	<g transform="translate(-134,-38) scale(1,1)">
		<g>
			<path class="st2" d="M0,0"/>
			<text transform="matrix(1 0 0 1 375.5 195)" class="st5 st4">~consoleOutput</text>
		</g>
	</g>
	<g transform="translate(-134,-38) scale(1,1)">
		<g>
			<path d="M0,0"/>
			<text transform="matrix(1 0 0 1 343.5 210)" class="st5 st4">1</text>
		</g>
	</g>
	<g transform="translate(-134,-38) scale(1,1)">
		<path class="st2" d="M222,145l2,86"/>
	</g>
	<g transform="translate(-134,-38) scale(1,1)">
		<path class="st2" d="M219.6,220.9L224,231l4-10.3"/>
	</g>
	<g transform="translate(-134,-38) scale(1,1)">
		<g>
			<path class="st2" d="M0,0"/>
			<text transform="matrix(1 0 0 1 207.5 214)" class="st5 st4">1</text>
		</g>
	</g>
	<g transform="translate(-134,-38) scale(1,1)">
		<path class="st2" d="M541,106l130,1"/>
	</g>
	<g transform="translate(-134,-38) scale(1,1)">
		<path class="st2" d="M660.8,111.1L671,107l-10.1-4.3"/>
	</g>
	<g transform="translate(-134,-38) scale(1,1)">
		<g>
			<path class="st2" d="M0,0"/>
			<text transform="matrix(1 0 0 1 575.5 98)" class="st5 st4">-currentGame</text>
		</g>
	</g>
	<g transform="translate(-134,-38) scale(1,1)">
		<g>
			<path d="M0,0"/>
			<text transform="matrix(1 0 0 1 638.5 124)" class="st5 st4">0..1</text>
		</g>
	</g>
	<g transform="translate(-134,-38) scale(1,1)">
		<path class="st2" d="M731,138l-2,45"/>
	</g>
	<g transform="translate(-134,-38) scale(1,1)">
		<path class="st2" d="M725.2,172.7L729,183l4.7-10"/>
	</g>
	<g transform="translate(-134,-38) scale(1,1)">
		<g>
			<path class="st2" d="M0,0"/>
			<text transform="matrix(1 0 0 1 712.5 179)" class="st5 st4">1</text>
		</g>
	</g>
	<g transform="translate(-134,-38) scale(1,1)">
		<path class="st1" d="M784,272h132l10,10v65H784V272"/>
	</g>
	<g transform="translate(-134,-38) scale(1,1)">
		<path class="st2" d="M784,272h132l10,10v65H784V272L784,272"/>
	</g>
	<g transform="translate(-134,-38) scale(1,1)">
		<path class="st2" d="M916,272v10h10L916,272"/>
	</g>
	<g transform="translate(-134,-38) scale(1,1)">
		<g>
			<path class="st2" d="M0,0"/>
			<text transform="matrix(1 0 0 1 789 287)" class="st5 st4">Viene creato un Array</text>
			<text transform="matrix(1 0 0 1 789 300)" class="st5 st4">di Guess vuoto (non</text>
			<text transform="matrix(1 0 0 1 789 313)" class="st5 st4">sono creati gli oggetti</text>
			<text transform="matrix(1 0 0 1 789 326)" class="st5 st4">di classe Guess)</text>
		</g>
	</g>
	<g transform="translate(-134,-38) scale(1,1)">
		<path class="st2" d="M727,257l-2,46"/>
	</g>
	<g transform="translate(-134,-38) scale(1,1)">
		<path class="st2" d="M721.2,292.7L725,303l4.6-10"/>
	</g>
</g>
<text transform="matrix(1 0 0 1 605.35 134.7)" class="st7 st8">-gameBoard</text>
</svg>
