<?xml version="1.0" encoding="utf-8"?>
<!-- Generator: Adobe Illustrator 24.0.0, SVG Export Plug-In . SVG Version: 6.00 Build 0)  -->
<svg version="1.1" id="Livello_1" xmlns="http://www.w3.org/2000/svg" xmlns:xlink="http://www.w3.org/1999/xlink" x="0px" y="0px"
	 viewBox="0 0 596.5 337" style="enable-background:new 0 0 596.5 337;" xml:space="preserve">
<style type="text/css">
	.st0{opacity:0.2;fill:#C0C0C0;enable-background:new    ;}
	.st1{fill:#FFFFFF;}
	.st2{fill:none;stroke:#000000;stroke-miterlimit:10;}
	.st3{font-family:'ArialMT';}
	.st4{font-size:13px;}
	.st5{font-family:'Arial-BoldMT';}
	.st6{fill:none;stroke:#000000;stroke-miterlimit:10;stroke-dasharray:3;}
</style>
<g>
	<g transform="translate(-142,-102) scale(1,1)">
		<rect x="159" y="151" class="st0" width="202.7" height="83"/>
	</g>
	<g transform="translate(-142,-102) scale(1,1)">
		<rect x="152" y="144" class="st1" width="202.7" height="83"/>
	</g>
	<g transform="translate(-142,-102) scale(1,1)">
		<path class="st2" d="M152,144h202.7v83H152V144z"/>
	</g>
	<g transform="translate(-142,-102) scale(1,1)">
		<path class="st2" d="M152,182h202.7"/>
	</g>
	<g transform="translate(-142,-102) scale(1,1)">
		<path class="st2" d="M152,205h202.7"/>
	</g>
	<g transform="translate(-142,-102) scale(1,1)">
		<g>
			<path class="st2" d="M0,0"/>
			<text transform="matrix(1 0 0 1 219.0149 160)" class="st3 st4">«boundary»</text>
		</g>
	</g>
	<g transform="translate(-142,-102) scale(1,1)">
		<g>
			<path d="M0,0"/>
			<text transform="matrix(1 0 0 1 240.7144 175)" class="st5 st4">App</text>
		</g>
	</g>
	<g transform="translate(-142,-102) scale(1,1)">
		<g>
			<path d="M0,0"/>
			<text transform="matrix(1 0 0 1 157 198)" class="st3 st4">~keyboardInput: Scanner</text>
			<path class="st2" d="M157,199.5h145.6"/>
		</g>
	</g>
	<g transform="translate(-142,-102) scale(1,1)">
		<g>
			<path class="st2" d="M0,0"/>
			<text transform="matrix(1 0 0 1 157 221)" class="st3 st4">+executeQuitGame()</text>
			<path class="st2" d="M157,222.5h121"/>
		</g>
	</g>
	<g transform="translate(-142,-102) scale(1,1)">
		<rect x="191" y="343" class="st0" width="137.6" height="57"/>
	</g>
	<g transform="translate(-142,-102) scale(1,1)">
		<rect x="184" y="336" class="st1" width="137.6" height="57"/>
	</g>
	<g transform="translate(-142,-102) scale(1,1)">
		<path class="st2" d="M184,336h137.6v57H184V336z"/>
	</g>
	<g transform="translate(-142,-102) scale(1,1)">
		<path class="st2" d="M184,374h137.6"/>
	</g>
	<g transform="translate(-142,-102) scale(1,1)">
		<path class="st2" d="M184,384h137.6"/>
	</g>
	<g transform="translate(-142,-102) scale(1,1)">
		<g>
			<path class="st2" d="M0,0"/>
			<text transform="matrix(1 0 0 1 218.4641 352)" class="st3 st4">«boundary»</text>
		</g>
	</g>
	<g transform="translate(-142,-102) scale(1,1)">
		<g>
			<path d="M0,0"/>
			<text transform="matrix(1 0 0 1 232.5591 367)" class="st5 st4">Parser</text>
		</g>
	</g>
	<g transform="translate(-142,-102) scale(1,1)">
		<rect x="359" y="303" class="st0" width="138" height="57"/>
	</g>
	<g transform="translate(-142,-102) scale(1,1)">
		<rect x="352" y="296" class="st1" width="138" height="57"/>
	</g>
	<g transform="translate(-142,-102) scale(1,1)">
		<path class="st2" d="M352,296h138v57H352V296z"/>
	</g>
	<g transform="translate(-142,-102) scale(1,1)">
		<path class="st2" d="M352,334h138"/>
	</g>
	<g transform="translate(-142,-102) scale(1,1)">
		<path class="st2" d="M352,344h138"/>
	</g>
	<g transform="translate(-142,-102) scale(1,1)">
		<g>
			<path class="st2" d="M0,0"/>
			<text transform="matrix(1 0 0 1 386.6609 312)" class="st3 st4">«boundary»</text>
		</g>
	</g>
	<g transform="translate(-142,-102) scale(1,1)">
		<g>
			<path d="M0,0"/>
			<text transform="matrix(1 0 0 1 400.0449 327)" class="st5 st4">Printer</text>
		</g>
	</g>
	<g transform="translate(-142,-102) scale(1,1)">
		<rect x="551" y="119" class="st0" width="184.2" height="152"/>
	</g>
	<g transform="translate(-142,-102) scale(1,1)">
		<rect x="544" y="112" class="st1" width="184.2" height="152"/>
	</g>
	<g transform="translate(-142,-102) scale(1,1)">
		<path class="st2" d="M544,112h184.2v152H544V112z"/>
	</g>
	<g transform="translate(-142,-102) scale(1,1)">
		<path class="st2" d="M544,150h184.2"/>
	</g>
	<g transform="translate(-142,-102) scale(1,1)">
		<path class="st2" d="M544,203h184.2"/>
	</g>
	<g transform="translate(-142,-102) scale(1,1)">
		<g>
			<path class="st2" d="M0,0"/>
			<text transform="matrix(1 0 0 1 609.3677 128)" class="st3 st4">«control»</text>
		</g>
	</g>
	<g transform="translate(-142,-102) scale(1,1)">
		<g>
			<path d="M0,0"/>
			<text transform="matrix(1 0 0 1 614.1982 143)" class="st5 st4">Wordle</text>
		</g>
	</g>
	<g transform="translate(-142,-102) scale(1,1)">
		<g>
			<path d="M0,0"/>
			<text transform="matrix(1 0 0 1 549 166)" class="st3 st4">-secretWord: String</text>
			<path class="st2" d="M549,167.5h111.7"/>
		</g>
	</g>
	<g transform="translate(-142,-102) scale(1,1)">
		<g>
			<path class="st2" d="M0,0"/>
			<text transform="matrix(1 0 0 1 549 181)" class="st3 st4">-nMaxGuesses: int</text>
			<path class="st2" d="M549,182.5h108.4"/>
		</g>
	</g>
	<g transform="translate(-142,-102) scale(1,1)">
		<g>
			<path class="st2" d="M0,0"/>
			<text transform="matrix(1 0 0 1 549 196)" class="st3 st4">-wordLength: int</text>
			<path class="st2" d="M549,197.5h93.2"/>
		</g>
	</g>
	<g transform="translate(-142,-102) scale(1,1)">
		<g>
			<path class="st2" d="M0,0"/>
			<text transform="matrix(1 0 0 1 549 219)" class="st3 st4">+endGame()</text>
			<path class="st2" d="M549,220.5h73.3"/>
		</g>
	</g>
	<g transform="translate(-142,-102) scale(1,1)">
		<g>
			<path class="st2" d="M0,0"/>
			<text transform="matrix(1 0 0 1 549 234)" class="st3 st4">+isGameRunning()</text>
			<path class="st2" d="M549,235.5h109.5"/>
		</g>
	</g>
	<g transform="translate(-142,-102) scale(1,1)">
		<rect x="551" y="351" class="st0" width="184.2" height="85"/>
	</g>
	<g transform="translate(-142,-102) scale(1,1)">
		<rect x="544" y="344" class="st1" width="184.2" height="85"/>
	</g>
	<g transform="translate(-142,-102) scale(1,1)">
		<path class="st2" d="M544,344h184.2v85H544V344z"/>
	</g>
	<g transform="translate(-142,-102) scale(1,1)">
		<path class="st2" d="M544,382h184.2"/>
	</g>
	<g transform="translate(-142,-102) scale(1,1)">
		<path class="st2" d="M544,420h184.2"/>
	</g>
	<g transform="translate(-142,-102) scale(1,1)">
		<g>
			<path class="st2" d="M0,0"/>
			<text transform="matrix(1 0 0 1 613.3413 360)" class="st3 st4">«entity»</text>
		</g>
	</g>
	<g transform="translate(-142,-102) scale(1,1)">
		<g>
			<path d="M0,0"/>
			<text transform="matrix(1 0 0 1 596.1328 375)" class="st5 st4">WordleGame</text>
		</g>
	</g>
	<g transform="translate(-142,-102) scale(1,1)">
		<g>
			<path d="M0,0"/>
			<text transform="matrix(1 0 0 1 549 398)" class="st3 st4">-secretWord : String</text>
		</g>
	</g>
	<g transform="translate(-142,-102) scale(1,1)">
		<g>
			<path d="M0,0"/>
			<text transform="matrix(1 0 0 1 549 413)" class="st3 st4">-gameBoard : Board</text>
		</g>
	</g>
	<g transform="translate(-142,-102) scale(1,1)">
		<path class="st2" d="M636,265v78"/>
	</g>
	<g transform="translate(-142,-102) scale(1,1)">
		<path class="st2" d="M631.8,332.8L636,343l4.2-10.2"/>
	</g>
	<g transform="translate(-142,-102) scale(1,1)">
		<g>
			<path class="st2" d="M0,0"/>
			<text transform="matrix(1 0 0 1 647.1313 330)" class="st3 st4">-currentGame</text>
		</g>
	</g>
	<g transform="translate(-142,-102) scale(1,1)">
		<g>
			<path d="M0,0"/>
			<text transform="matrix(1 0 0 1 607.5 330)" class="st3 st4">0..1</text>
		</g>
	</g>
	<g transform="translate(-142,-102) scale(1,1)">
		<path class="st6" d="M356,186l187,1"/>
	</g>
	<g transform="translate(-142,-102) scale(1,1)">
		<path class="st2" d="M532.8,191.2L543,187l-10.1-4.3"/>
	</g>
	<g transform="translate(-142,-102) scale(1,1)">
		<g>
			<path class="st2" d="M0,0"/>
			<text transform="matrix(1 0 0 1 432.5 177)" class="st3 st4">«call»</text>
		</g>
	</g>
	<g transform="translate(-142,-102) scale(1,1)">
		<path class="st2" d="M305,228l80,67"/>
	</g>
	<g transform="translate(-142,-102) scale(1,1)">
		<path class="st2" d="M374.5,291.7L385,295l-5.1-9.8"/>
	</g>
	<g transform="translate(-142,-102) scale(1,1)">
		<g>
			<path class="st2" d="M0,0"/>
			<text transform="matrix(1 0 0 1 375.5 282)" class="st3 st4">~consoleOutput</text>
		</g>
	</g>
	<g transform="translate(-142,-102) scale(1,1)">
		<g>
			<path d="M0,0"/>
			<text transform="matrix(1 0 0 1 343.5 282)" class="st3 st4">1</text>
		</g>
	</g>
	<g transform="translate(-142,-102) scale(1,1)">
		<path class="st2" d="M253,228l-1,107"/>
	</g>
	<g transform="translate(-142,-102) scale(1,1)">
		<path class="st2" d="M247.9,324.8L252,335l4.3-10.1"/>
	</g>
	<g transform="translate(-142,-102) scale(1,1)">
		<g>
			<path class="st2" d="M0,0"/>
			<text transform="matrix(1 0 0 1 236.5 323)" class="st3 st4">1</text>
		</g>
	</g>
</g>
</svg>
