<?xml version="1.0" encoding="utf-8"?>
<!-- Generator: Adobe Illustrator 24.0.0, SVG Export Plug-In . SVG Version: 6.00 Build 0)  -->
<svg version="1.1" id="Livello_1" xmlns="http://www.w3.org/2000/svg" xmlns:xlink="http://www.w3.org/1999/xlink" x="0px" y="0px"
	 viewBox="0 0 699 491" style="enable-background:new 0 0 699 491;" xml:space="preserve">
<style type="text/css">
	.st0{opacity:0.2;fill:#C0C0C0;enable-background:new    ;}
	.st1{fill:#FFFFFF;}
	.st2{fill:none;stroke:#000000;stroke-miterlimit:10;}
	.st3{font-family:'Arial-BoldMT';}
	.st4{font-size:13px;}
	.st5{fill:none;stroke:#000000;stroke-miterlimit:10;stroke-dasharray:3;}
	.st6{font-family:'ArialMT';}
</style>
<g>
	<g transform="translate(-46,2) scale(1,1)">
		<rect x="231" y="47" class="st0" width="87.7" height="39"/>
	</g>
	<g transform="translate(-46,2) scale(1,1)">
		<rect x="224" y="40" class="st1" width="87.7" height="39"/>
	</g>
	<g transform="translate(-46,2) scale(1,1)">
		<path class="st2" d="M224,40h87.7v39H224V40z"/>
	</g>
	<g transform="translate(-46,2) scale(1,1)">
		<g>
			<path class="st2" d="M0,0"/>
			<text transform="matrix(1 0 0 1 255.1995 58)" class="st3 st4">App</text>
		</g>
	</g>
	<g transform="translate(-46,2) scale(1,1)">
		<path class="st5" d="M268.5,80v384"/>
	</g>
	<g transform="translate(-46,2) scale(1,1)">
		<path class="st1" d="M133,47.3c0-3.5,2.9-6.3,6.4-6.3s6.4,2.8,6.4,6.3c0,3.5-2.9,6.3-6.4,6.3S133,50.8,133,47.3z"/>
	</g>
	<g transform="translate(-46,2) scale(1,1)">
		<path class="st2" d="M133,47.3c0-3.5,2.9-6.3,6.4-6.3s6.4,2.8,6.4,6.3c0,3.5-2.9,6.3-6.4,6.3S133,50.8,133,47.3z"/>
	</g>
	<g transform="translate(-46,2) scale(1,1)">
		<path class="st2" d="M139.4,53.6v12.8"/>
	</g>
	<g transform="translate(-46,2) scale(1,1)">
		<path class="st2" d="M132.6,58.4h13.6"/>
	</g>
	<g transform="translate(-46,2) scale(1,1)">
		<path class="st2" d="M139.4,66.4L129.9,79"/>
	</g>
	<g transform="translate(-46,2) scale(1,1)">
		<path class="st2" d="M139.4,66.4l9.5,12.6"/>
	</g>
	<g transform="translate(-46,2) scale(1,1)">
		<g>
			<path class="st2" d="M0,0"/>
			<text transform="matrix(1 0 0 1 111.5791 98)" class="st3 st4">Paroliere</text>
		</g>
	</g>
	<g transform="translate(-46,2) scale(1,1)">
		<path class="st5" d="M140.5,105v359"/>
	</g>
	<g transform="translate(-46,2) scale(1,1)">
		<rect x="647" y="47" class="st0" width="71.7" height="39"/>
	</g>
	<g transform="translate(-46,2) scale(1,1)">
		<rect x="640" y="40" class="st1" width="71.7" height="39"/>
	</g>
	<g transform="translate(-46,2) scale(1,1)">
		<path class="st2" d="M640,40h71.7v39H640V40z"/>
	</g>
	<g transform="translate(-46,2) scale(1,1)">
		<g>
			<path class="st2" d="M0,0"/>
			<text transform="matrix(1 0 0 1 653.9592 58)" class="st3 st4">Wordle</text>
		</g>
	</g>
	<g transform="translate(-46,2) scale(1,1)">
		<path class="st5" d="M676.5,80v384"/>
	</g>
	<g transform="translate(-46,2) scale(1,1)">
		<rect x="567" y="47" class="st0" width="71.7" height="39"/>
	</g>
	<g transform="translate(-46,2) scale(1,1)">
		<rect x="560" y="40" class="st1" width="71.7" height="39"/>
	</g>
	<g transform="translate(-46,2) scale(1,1)">
		<path class="st2" d="M560,40h71.7v39H560V40z"/>
	</g>
	<g transform="translate(-46,2) scale(1,1)">
		<g>
			<path class="st2" d="M0,0"/>
			<text transform="matrix(1 0 0 1 572.7532 58)" class="st3 st4">:Printer</text>
		</g>
	</g>
	<g transform="translate(-46,2) scale(1,1)">
		<path class="st5" d="M596.5,80v384"/>
	</g>
	<g transform="translate(-46,2) scale(1,1)">
		<rect x="471" y="47" class="st0" width="87.7" height="39"/>
	</g>
	<g transform="translate(-46,2) scale(1,1)">
		<rect x="464" y="40" class="st1" width="87.7" height="39"/>
	</g>
	<g transform="translate(-46,2) scale(1,1)">
		<path class="st2" d="M464,40h87.7v39H464V40z"/>
	</g>
	<g transform="translate(-46,2) scale(1,1)">
		<g>
			<path class="st2" d="M0,0"/>
			<text transform="matrix(1 0 0 1 485.4304 58)" class="st3 st4">:Parser</text>
		</g>
	</g>
	<g transform="translate(-46,2) scale(1,1)">
		<path class="st5" d="M508.5,80v384"/>
	</g>
	<g transform="translate(-46,2) scale(1,1)">
		<path class="st2" d="M140,136h121"/>
	</g>
	<g transform="translate(-46,2) scale(1,1)">
		<path d="M250.8,140.2L261,136l-10.2-4.2"/>
	</g>
	<g transform="translate(-46,2) scale(1,1)">
		<path class="st2" d="M250.8,140.2L261,136l-10.2-4.2V140.2"/>
	</g>
	<g transform="translate(-46,2) scale(1,1)">
		<g>
			<path class="st2" d="M0,0"/>
			<text transform="matrix(1 0 0 1 143.6677 131)" class="st6 st4">1 : /nuova &lt;parola&gt;</text>
		</g>
	</g>
	<g transform="translate(-46,2) scale(1,1)">
		<rect x="261" y="136" class="st1" width="13" height="296"/>
	</g>
	<g transform="translate(-46,2) scale(1,1)">
		<path class="st2" d="M261,136h13v296h-13V136z"/>
	</g>
	<g transform="translate(-46,2) scale(1,1)">
		<path class="st2" d="M274,153h227"/>
	</g>
	<g transform="translate(-46,2) scale(1,1)">
		<path d="M490.8,157.2L501,153l-10.2-4.2"/>
	</g>
	<g transform="translate(-46,2) scale(1,1)">
		<path class="st2" d="M490.8,157.2L501,153l-10.2-4.2V157.2"/>
	</g>
	<g transform="translate(-46,2) scale(1,1)">
		<g>
			<path class="st2" d="M0,0"/>
			<text transform="matrix(1 0 0 1 360.5095 148)" class="st6 st4">2 : feed()</text>
		</g>
	</g>
	<g transform="translate(-46,2) scale(1,1)">
		<rect x="501" y="153" class="st1" width="13" height="28"/>
	</g>
	<g transform="translate(-46,2) scale(1,1)">
		<path class="st2" d="M501,153h13v28h-13V153z"/>
	</g>
	<g transform="translate(-46,2) scale(1,1)">
		<path class="st2" d="M274,200h227"/>
	</g>
	<g transform="translate(-46,2) scale(1,1)">
		<path d="M490.8,204.2L501,200l-10.2-4.2"/>
	</g>
	<g transform="translate(-46,2) scale(1,1)">
		<path class="st2" d="M490.8,204.2L501,200l-10.2-4.2V204.2"/>
	</g>
	<g transform="translate(-46,2) scale(1,1)">
		<g>
			<path class="st2" d="M0,0"/>
			<text transform="matrix(1 0 0 1 334.5 195)" class="st6 st4">3 : getCommand()</text>
		</g>
	</g>
	<g transform="translate(-46,2) scale(1,1)">
		<rect x="501" y="200" class="st1" width="13" height="28"/>
	</g>
	<g transform="translate(-46,2) scale(1,1)">
		<path class="st2" d="M501,200h13v28h-13V200z"/>
	</g>
	<g transform="translate(-46,2) scale(1,1)">
		<path class="st2" d="M274,257h227"/>
	</g>
	<g transform="translate(-46,2) scale(1,1)">
		<path d="M490.8,261.2L501,257l-10.2-4.2"/>
	</g>
	<g transform="translate(-46,2) scale(1,1)">
		<path class="st2" d="M490.8,261.2L501,257l-10.2-4.2V261.2"/>
	</g>
	<g transform="translate(-46,2) scale(1,1)">
		<g>
			<path class="st2" d="M0,0"/>
			<text transform="matrix(1 0 0 1 339.5 252)" class="st6 st4">4 : w = getArgs()</text>
		</g>
	</g>
	<g transform="translate(-46,2) scale(1,1)">
		<rect x="501" y="257" class="st1" width="13" height="28"/>
	</g>
	<g transform="translate(-46,2) scale(1,1)">
		<path class="st2" d="M501,257h13v28h-13V257z"/>
	</g>
	<g transform="translate(-46,2) scale(1,1)">
		<path class="st2" d="M274,304h30v20h-23"/>
	</g>
	<g transform="translate(-46,2) scale(1,1)">
		<path d="M291.2,319.8L281,324l10.2,4.2"/>
	</g>
	<g transform="translate(-46,2) scale(1,1)">
		<path class="st2" d="M291.2,319.8L281,324l10.2,4.2V319.8"/>
	</g>
	<g transform="translate(-46,2) scale(1,1)">
		<g>
			<path class="st2" d="M0,0"/>
			<text transform="matrix(1 0 0 1 278.5 299)" class="st6 st4">5 : executeSetSecretWord(w)</text>
		</g>
	</g>
	<g transform="translate(-46,2) scale(1,1)">
		<rect x="268" y="324" class="st1" width="13" height="92"/>
	</g>
	<g transform="translate(-46,2) scale(1,1)">
		<path class="st2" d="M268,324h13v92h-13V324z"/>
	</g>
	<g transform="translate(-46,2) scale(1,1)">
		<path class="st2" d="M281,336h388"/>
	</g>
	<g transform="translate(-46,2) scale(1,1)">
		<path d="M658.8,340.2L669,336l-10.2-4.2"/>
	</g>
	<g transform="translate(-46,2) scale(1,1)">
		<path class="st2" d="M658.8,340.2L669,336l-10.2-4.2V340.2"/>
	</g>
	<g transform="translate(-46,2) scale(1,1)">
		<g>
			<path class="st2" d="M0,0"/>
			<text transform="matrix(1 0 0 1 326.9185 330)" class="st6 st4">6 : setSecretWord(w)</text>
		</g>
	</g>
	<g transform="translate(-46,2) scale(1,1)">
		<rect x="669" y="336" class="st1" width="13" height="28"/>
	</g>
	<g transform="translate(-46,2) scale(1,1)">
		<path class="st2" d="M669,336h13v28h-13V336z"/>
	</g>
	<g transform="translate(-46,2) scale(1,1)">
		<path class="st2" d="M281,376h308"/>
	</g>
	<g transform="translate(-46,2) scale(1,1)">
		<path d="M578.8,380.2L589,376l-10.2-4.2"/>
	</g>
	<g transform="translate(-46,2) scale(1,1)">
		<path class="st2" d="M578.8,380.2L589,376l-10.2-4.2V380.2"/>
	</g>
	<g transform="translate(-46,2) scale(1,1)">
		<g>
			<path class="st2" d="M0,0"/>
			<text transform="matrix(1 0 0 1 345.8828 370)" class="st6 st4">7 : // stampa &quot;OK&quot;</text>
		</g>
	</g>
	<g transform="translate(-46,2) scale(1,1)">
		<rect x="589" y="376" class="st1" width="13" height="28"/>
	</g>
	<g transform="translate(-46,2) scale(1,1)">
		<path class="st2" d="M589,376h13v28h-13V376z"/>
	</g>
	<g transform="translate(-46,2) scale(1,1)">
		<path class="st2" d="M56,8h679v471H56V8"/>
	</g>
	<g transform="translate(-46,2) scale(1,1)">
		<path class="st1" d="M56,8v22h254.5l11-11V8H56"/>
	</g>
	<g transform="translate(-46,2) scale(1,1)">
		<path class="st2" d="M56,8v22h254.5l11-11V8H56L56,8"/>
	</g>
	<g transform="translate(-46,2) scale(1,1)">
		<g>
			<path class="st2" d="M0,0"/>
			<text transform="matrix(1 0 0 1 87.96 24)" class="st6 st4">Impostazione manuale parola segreta</text>
		</g>
	</g>
	<g transform="translate(-46,2) scale(1,1)">
		<g>
			<path d="M0,0"/>
			<text transform="matrix(1 0 0 1 60.2795 22.5)" class="st3 st4">sd</text>
		</g>
	</g>
</g>
</svg>
