<?xml version="1.0" encoding="utf-8"?>
<!-- Generator: Adobe Illustrator 24.0.0, SVG Export Plug-In . SVG Version: 6.00 Build 0)  -->
<svg version="1.1" id="Livello_1" xmlns="http://www.w3.org/2000/svg" xmlns:xlink="http://www.w3.org/1999/xlink" x="0px" y="0px"
	 viewBox="0 0 828 651" style="enable-background:new 0 0 828 651;" xml:space="preserve">
<style type="text/css">
	.st0{opacity:0.2;fill:#C0C0C0;enable-background:new    ;}
	.st1{fill:#FFFFFF;}
	.st2{fill:none;stroke:#000000;stroke-miterlimit:10;}
	.st3{font-family:'Arial-BoldMT';}
	.st4{font-size:13px;}
	.st5{fill:none;stroke:#000000;stroke-miterlimit:10;stroke-dasharray:3;}
	.st6{font-family:'ArialMT';}
</style>
<g>
	<g transform="translate(-70,2) scale(1,1)">
		<rect x="271" y="47" class="st0" width="87.7" height="39"/>
	</g>
	<g transform="translate(-70,2) scale(1,1)">
		<rect x="264" y="40" class="st1" width="87.7" height="39"/>
	</g>
	<g transform="translate(-70,2) scale(1,1)">
		<path class="st2" d="M264,40h87.7v39H264V40z"/>
	</g>
	<g transform="translate(-70,2) scale(1,1)">
		<g>
			<path class="st2" d="M0,0"/>
			<text transform="matrix(1 0 0 1 295.1995 58)" class="st3 st4">App</text>
		</g>
	</g>
	<g transform="translate(-70,2) scale(1,1)">
		<path class="st5" d="M308.5,80v552"/>
	</g>
	<g transform="translate(-70,2) scale(1,1)">
		<path class="st1" d="M165,47.3c0-3.5,2.9-6.3,6.4-6.3s6.4,2.8,6.4,6.3c0,3.5-2.9,6.3-6.4,6.3S165,50.8,165,47.3z"/>
	</g>
	<g transform="translate(-70,2) scale(1,1)">
		<path class="st2" d="M165,47.3c0-3.5,2.9-6.3,6.4-6.3s6.4,2.8,6.4,6.3c0,3.5-2.9,6.3-6.4,6.3S165,50.8,165,47.3z"/>
	</g>
	<g transform="translate(-70,2) scale(1,1)">
		<path class="st2" d="M171.4,53.6v12.8"/>
	</g>
	<g transform="translate(-70,2) scale(1,1)">
		<path class="st2" d="M164.6,58.4h13.6"/>
	</g>
	<g transform="translate(-70,2) scale(1,1)">
		<path class="st2" d="M171.4,66.4L161.9,79"/>
	</g>
	<g transform="translate(-70,2) scale(1,1)">
		<path class="st2" d="M171.4,66.4l9.5,12.6"/>
	</g>
	<g transform="translate(-70,2) scale(1,1)">
		<g>
			<path class="st2" d="M0,0"/>
			<text transform="matrix(1 0 0 1 141.0591 98)" class="st3 st4">Giocatore</text>
		</g>
	</g>
	<g transform="translate(-70,2) scale(1,1)">
		<path class="st5" d="M172.5,105v527"/>
	</g>
	<g transform="translate(-70,2) scale(1,1)">
		<rect x="775" y="47" class="st0" width="71.7" height="39"/>
	</g>
	<g transform="translate(-70,2) scale(1,1)">
		<rect x="768" y="40" class="st1" width="71.7" height="39"/>
	</g>
	<g transform="translate(-70,2) scale(1,1)">
		<path class="st2" d="M768,40h71.7v39H768V40z"/>
	</g>
	<g transform="translate(-70,2) scale(1,1)">
		<g>
			<path class="st2" d="M0,0"/>
			<text transform="matrix(1 0 0 1 781.9592 58)" class="st3 st4">Wordle</text>
		</g>
	</g>
	<g transform="translate(-70,2) scale(1,1)">
		<path class="st5" d="M804.5,80v552"/>
	</g>
	<g transform="translate(-70,2) scale(1,1)">
		<rect x="535" y="47" class="st0" width="81.8" height="39"/>
	</g>
	<g transform="translate(-70,2) scale(1,1)">
		<rect x="528" y="40" class="st1" width="81.8" height="39"/>
	</g>
	<g transform="translate(-70,2) scale(1,1)">
		<path class="st2" d="M528,40h81.8v39H528V40z"/>
	</g>
	<g transform="translate(-70,2) scale(1,1)">
		<g>
			<path class="st2" d="M0,0"/>
			<text transform="matrix(1 0 0 1 544 58)" class="st3 st4">: Printer</text>
		</g>
	</g>
	<g transform="translate(-70,2) scale(1,1)">
		<path class="st5" d="M569.5,80v552"/>
	</g>
	<g transform="translate(-70,2) scale(1,1)">
		<rect x="431" y="47" class="st0" width="87.7" height="39"/>
	</g>
	<g transform="translate(-70,2) scale(1,1)">
		<rect x="424" y="40" class="st1" width="87.7" height="39"/>
	</g>
	<g transform="translate(-70,2) scale(1,1)">
		<path class="st2" d="M424,40h87.7v39H424V40z"/>
	</g>
	<g transform="translate(-70,2) scale(1,1)">
		<g>
			<path class="st2" d="M0,0"/>
			<text transform="matrix(1 0 0 1 443.6245 58)" class="st3 st4">: Parser</text>
		</g>
	</g>
	<g transform="translate(-70,2) scale(1,1)">
		<path class="st5" d="M468.5,80v552"/>
	</g>
	<g transform="translate(-70,2) scale(1,1)">
		<path class="st1" d="M704,240h77l10,10v52h-87V240"/>
	</g>
	<g transform="translate(-70,2) scale(1,1)">
		<path class="st2" d="M704,240h77l10,10v52h-87V240L704,240"/>
	</g>
	<g transform="translate(-70,2) scale(1,1)">
		<path class="st2" d="M781,240v10h10L781,240"/>
	</g>
	<g transform="translate(-70,2) scale(1,1)">
		<g>
			<path class="st2" d="M0,0"/>
			<text transform="matrix(1 0 0 1 709 255)" class="st6 st4">consultare il</text>
			<text transform="matrix(1 0 0 1 709 268)" class="st6 st4">diagramma</text>
			<text transform="matrix(1 0 0 1 709 281)" class="st6 st4">&quot;guess&quot;</text>
		</g>
	</g>
	<g transform="translate(-70,2) scale(1,1)">
		<path class="st1" d="M584,328h77.2l10,10v52H584V328"/>
	</g>
	<g transform="translate(-70,2) scale(1,1)">
		<path class="st2" d="M584,328h77.2l10,10v52H584V328L584,328"/>
	</g>
	<g transform="translate(-70,2) scale(1,1)">
		<path class="st2" d="M661.2,328v10h10L661.2,328"/>
	</g>
	<g transform="translate(-70,2) scale(1,1)">
		<g>
			<path class="st2" d="M0,0"/>
			<text transform="matrix(1 0 0 1 589 343)" class="st6 st4">consultare il</text>
			<text transform="matrix(1 0 0 1 589 356)" class="st6 st4">diagramma</text>
			<text transform="matrix(1 0 0 1 589 369)" class="st6 st4">&quot;printBoard&quot;</text>
		</g>
	</g>
	<g transform="translate(-70,2) scale(1,1)">
		<path class="st2" d="M172,105h129"/>
	</g>
	<g transform="translate(-70,2) scale(1,1)">
		<path d="M290.8,109.2L301,105l-10.2-4.2"/>
	</g>
	<g transform="translate(-70,2) scale(1,1)">
		<path class="st2" d="M290.8,109.2L301,105l-10.2-4.2V109.2"/>
	</g>
	<g transform="translate(-70,2) scale(1,1)">
		<g>
			<path class="st2" d="M0,0"/>
			<text transform="matrix(1 0 0 1 210.9895 100)" class="st6 st4">1 : &lt;parola&gt;</text>
		</g>
	</g>
	<g transform="translate(-70,2) scale(1,1)">
		<rect x="301" y="105" class="st1" width="13" height="495"/>
	</g>
	<g transform="translate(-70,2) scale(1,1)">
		<path class="st2" d="M301,105h13v495h-13V105z"/>
	</g>
	<g transform="translate(-70,2) scale(1,1)">
		<path class="st2" d="M314,136h147"/>
	</g>
	<g transform="translate(-70,2) scale(1,1)">
		<path d="M450.8,140.2L461,136l-10.2-4.2"/>
	</g>
	<g transform="translate(-70,2) scale(1,1)">
		<path class="st2" d="M450.8,140.2L461,136l-10.2-4.2V140.2"/>
	</g>
	<g transform="translate(-70,2) scale(1,1)">
		<g>
			<path class="st2" d="M0,0"/>
			<text transform="matrix(1 0 0 1 361.1245 131)" class="st6 st4">2 : feed()</text>
		</g>
	</g>
	<g transform="translate(-70,2) scale(1,1)">
		<rect x="461" y="136" class="st1" width="13" height="28"/>
	</g>
	<g transform="translate(-70,2) scale(1,1)">
		<path class="st2" d="M461,136h13v28h-13V136z"/>
	</g>
	<g transform="translate(-70,2) scale(1,1)">
		<path class="st2" d="M314,176h147"/>
	</g>
	<g transform="translate(-70,2) scale(1,1)">
		<path d="M450.8,180.2L461,176l-10.2-4.2"/>
	</g>
	<g transform="translate(-70,2) scale(1,1)">
		<path class="st2" d="M450.8,180.2L461,176l-10.2-4.2V180.2"/>
	</g>
	<g transform="translate(-70,2) scale(1,1)">
		<g>
			<path class="st2" d="M0,0"/>
			<text transform="matrix(1 0 0 1 334.5 171)" class="st6 st4">3 : getCommand()</text>
		</g>
	</g>
	<g transform="translate(-70,2) scale(1,1)">
		<rect x="461" y="176" class="st1" width="13" height="28"/>
	</g>
	<g transform="translate(-70,2) scale(1,1)">
		<path class="st2" d="M461,176h13v28h-13V176z"/>
	</g>
	<g transform="translate(-70,2) scale(1,1)">
		<path class="st2" d="M314,224h147"/>
	</g>
	<g transform="translate(-70,2) scale(1,1)">
		<path d="M450.8,228.2L461,224l-10.2-4.2"/>
	</g>
	<g transform="translate(-70,2) scale(1,1)">
		<path class="st2" d="M450.8,228.2L461,224l-10.2-4.2V228.2"/>
	</g>
	<g transform="translate(-70,2) scale(1,1)">
		<g>
			<path class="st2" d="M0,0"/>
			<text transform="matrix(1 0 0 1 339.5 219)" class="st6 st4">4 : w = getArgs()</text>
		</g>
	</g>
	<g transform="translate(-70,2) scale(1,1)">
		<rect x="461" y="224" class="st1" width="13" height="28"/>
	</g>
	<g transform="translate(-70,2) scale(1,1)">
		<path class="st2" d="M461,224h13v28h-13V224z"/>
	</g>
	<g transform="translate(-70,2) scale(1,1)">
		<path class="st2" d="M314,266h30v20h-23"/>
	</g>
	<g transform="translate(-70,2) scale(1,1)">
		<path d="M331.2,281.8L321,286l10.2,4.2"/>
	</g>
	<g transform="translate(-70,2) scale(1,1)">
		<path class="st2" d="M331.2,281.8L321,286l10.2,4.2V281.8"/>
	</g>
	<g transform="translate(-70,2) scale(1,1)">
		<g>
			<path class="st2" d="M0,0"/>
			<text transform="matrix(1 0 0 1 347.5 277)" class="st6 st4">5 : executeGuess()</text>
		</g>
	</g>
	<g transform="translate(-70,2) scale(1,1)">
		<rect x="308" y="286" class="st1" width="13" height="306"/>
	</g>
	<g transform="translate(-70,2) scale(1,1)">
		<path class="st2" d="M308,286h13v306h-13V286z"/>
	</g>
	<g transform="translate(-70,2) scale(1,1)">
		<path class="st2" d="M321,312h476"/>
	</g>
	<g transform="translate(-70,2) scale(1,1)">
		<path d="M786.8,316.2L797,312l-10.2-4.2"/>
	</g>
	<g transform="translate(-70,2) scale(1,1)">
		<path class="st2" d="M786.8,316.2L797,312l-10.2-4.2V316.2"/>
	</g>
	<g transform="translate(-70,2) scale(1,1)">
		<g>
			<path class="st2" d="M0,0"/>
			<text transform="matrix(1 0 0 1 356.4424 306)" class="st6 st4">6 : guess(w)</text>
		</g>
	</g>
	<g transform="translate(-70,2) scale(1,1)">
		<rect x="797" y="312" class="st1" width="13" height="28"/>
	</g>
	<g transform="translate(-70,2) scale(1,1)">
		<path class="st2" d="M797,312h13v28h-13V312z"/>
	</g>
	<g transform="translate(-70,2) scale(1,1)">
		<path class="st2" d="M321,344h241"/>
	</g>
	<g transform="translate(-70,2) scale(1,1)">
		<path d="M551.8,348.2L562,344l-10.2-4.2"/>
	</g>
	<g transform="translate(-70,2) scale(1,1)">
		<path class="st2" d="M551.8,348.2L562,344l-10.2-4.2V348.2"/>
	</g>
	<g transform="translate(-70,2) scale(1,1)">
		<g>
			<path class="st2" d="M0,0"/>
			<text transform="matrix(1 0 0 1 349.7803 338)" class="st6 st4">7 : printBoard()</text>
		</g>
	</g>
	<g transform="translate(-70,2) scale(1,1)">
		<rect x="562" y="344" class="st1" width="13" height="28"/>
	</g>
	<g transform="translate(-70,2) scale(1,1)">
		<path class="st2" d="M562,344h13v28h-13V344z"/>
	</g>
	<g transform="translate(-70,2) scale(1,1)">
		<path class="st2" d="M321,408h241"/>
	</g>
	<g transform="translate(-70,2) scale(1,1)">
		<path d="M551.8,412.2L562,408l-10.2-4.2"/>
	</g>
	<g transform="translate(-70,2) scale(1,1)">
		<path class="st2" d="M551.8,412.2L562,408l-10.2-4.2V412.2"/>
	</g>
	<g transform="translate(-70,2) scale(1,1)">
		<g>
			<path class="st2" d="M0,0"/>
			<text transform="matrix(1 0 0 1 331.115 402)" class="st6 st4">8 : printGuessResult()</text>
		</g>
	</g>
	<g transform="translate(-70,2) scale(1,1)">
		<rect x="562" y="408" class="st1" width="13" height="88"/>
	</g>
	<g transform="translate(-70,2) scale(1,1)">
		<path class="st2" d="M562,408h13v88h-13V408z"/>
	</g>
	<g transform="translate(-70,2) scale(1,1)">
		<path class="st2" d="M575,416h222"/>
	</g>
	<g transform="translate(-70,2) scale(1,1)">
		<path d="M786.8,420.2L797,416l-10.2-4.2"/>
	</g>
	<g transform="translate(-70,2) scale(1,1)">
		<path class="st2" d="M786.8,420.2L797,416l-10.2-4.2V420.2"/>
	</g>
	<g transform="translate(-70,2) scale(1,1)">
		<g>
			<path class="st2" d="M0,0"/>
			<text transform="matrix(1 0 0 1 626.115 411)" class="st6 st4">9 : getGuessResult()</text>
		</g>
	</g>
	<g transform="translate(-70,2) scale(1,1)">
		<rect x="797" y="416" class="st1" width="13" height="28"/>
	</g>
	<g transform="translate(-70,2) scale(1,1)">
		<path class="st2" d="M797,416h13v28h-13V416z"/>
	</g>
	<g transform="translate(-70,2) scale(1,1)">
		<path class="st2" d="M575,456h222"/>
	</g>
	<g transform="translate(-70,2) scale(1,1)">
		<path d="M786.8,460.2L797,456l-10.2-4.2"/>
	</g>
	<g transform="translate(-70,2) scale(1,1)">
		<path class="st2" d="M786.8,460.2L797,456l-10.2-4.2V460.2"/>
	</g>
	<g transform="translate(-70,2) scale(1,1)">
		<g>
			<path class="st2" d="M0,0"/>
			<text transform="matrix(1 0 0 1 589.5 451)" class="st6 st4">10 : getNumRemainingGuesses()</text>
		</g>
	</g>
	<g transform="translate(-70,2) scale(1,1)">
		<rect x="797" y="456" class="st1" width="13" height="28"/>
	</g>
	<g transform="translate(-70,2) scale(1,1)">
		<path class="st2" d="M797,456h13v28h-13V456z"/>
	</g>
	<g transform="translate(-70,2) scale(1,1)">
		<path class="st2" d="M321,536h476"/>
	</g>
	<g transform="translate(-70,2) scale(1,1)">
		<path d="M786.8,540.2L797,536l-10.2-4.2"/>
	</g>
	<g transform="translate(-70,2) scale(1,1)">
		<path class="st2" d="M786.8,540.2L797,536l-10.2-4.2V540.2"/>
	</g>
	<g transform="translate(-70,2) scale(1,1)">
		<g>
			<path class="st2" d="M0,0"/>
			<text transform="matrix(1 0 0 1 604.9824 531)" class="st6 st4">11 : endGame()</text>
		</g>
	</g>
	<g transform="translate(-70,2) scale(1,1)">
		<rect x="797" y="536" class="st1" width="13" height="28"/>
	</g>
	<g transform="translate(-70,2) scale(1,1)">
		<path class="st2" d="M797,536h13v28h-13V536z"/>
	</g>
	<g transform="translate(-70,2) scale(1,1)">
		<path class="st2" d="M304,504h520v65H304V504"/>
	</g>
	<g transform="translate(-70,2) scale(1,1)">
		<path class="st1" d="M304,504v22h257.4l11-11v-11H304"/>
	</g>
	<g transform="translate(-70,2) scale(1,1)">
		<path class="st2" d="M304,504v22h257.4l11-11v-11H304L304,504"/>
	</g>
	<g transform="translate(-70,2) scale(1,1)">
		<g>
			<path class="st2" d="M0,0"/>
			<text transform="matrix(1 0 0 1 333.0718 520)" class="st6 st4">[tentativi esauriti OR parola indovinata]</text>
		</g>
	</g>
	<g transform="translate(-70,2) scale(1,1)">
		<g>
			<path d="M0,0"/>
			<text transform="matrix(1 0 0 1 307.9304 519.5)" class="st3 st4">opt</text>
		</g>
	</g>
	<g transform="translate(-70,2) scale(1,1)">
		<path class="st2" d="M80,8h808v631H80V8"/>
	</g>
	<g transform="translate(-70,2) scale(1,1)">
		<path class="st1" d="M80,8v22h175.7l11-11V8H80"/>
	</g>
	<g transform="translate(-70,2) scale(1,1)">
		<path class="st2" d="M80,8v22h175.7l11-11V8H80L80,8"/>
	</g>
	<g transform="translate(-70,2) scale(1,1)">
		<g>
			<path class="st2" d="M0,0"/>
			<text transform="matrix(1 0 0 1 111.96 24)" class="st6 st4">Tentativo parola segreta</text>
		</g>
	</g>
	<g transform="translate(-70,2) scale(1,1)">
		<g>
			<path d="M0,0"/>
			<text transform="matrix(1 0 0 1 84.2795 22.5)" class="st3 st4">sd</text>
		</g>
	</g>
</g>
</svg>
