<?xml version="1.0" encoding="utf-8"?>
<!-- Generator: Adobe Illustrator 24.0.0, SVG Export Plug-In . SVG Version: 6.00 Build 0)  -->
<svg version="1.1" id="Livello_1" xmlns="http://www.w3.org/2000/svg" xmlns:xlink="http://www.w3.org/1999/xlink" x="0px" y="0px"
	 viewBox="0 0 788 596" style="enable-background:new 0 0 788 596;" xml:space="preserve">
<style type="text/css">
	.st0{fill:none;stroke:#000000;stroke-miterlimit:10;}
	.st1{fill:#FFFFFF;}
	.st2{font-family:'ArialMT';}
	.st3{font-size:13px;}
	.st4{font-family:'Arial-BoldMT';}
	.st5{fill:none;stroke:#000000;stroke-miterlimit:10;stroke-dasharray:3;}
	.st6{opacity:0.2;fill:#C0C0C0;enable-background:new    ;}
</style>
<g>
	<g transform="translate(2,2) scale(1,1)">
		<path class="st0" d="M8,8h768v576H8V8"/>
	</g>
	<g transform="translate(2,2) scale(1,1)">
		<path class="st1" d="M8,8v22h136l11-11V8H8"/>
	</g>
	<g transform="translate(2,2) scale(1,1)">
		<path class="st0" d="M8,8v22h136l11-11V8H8L8,8"/>
	</g>
	<g transform="translate(2,2) scale(1,1)">
		<g>
			<path class="st0" d="M0,0"/>
			<text transform="matrix(1 0 0 1 32.73 24)" class="st2 st3">Abbandono partita</text>
		</g>
	</g>
	<g transform="translate(2,2) scale(1,1)">
		<g>
			<path d="M0,0"/>
			<text transform="matrix(1 0 0 1 12.2795 24)" class="st4 st3">sd</text>
		</g>
	</g>
	<g transform="translate(2,2) scale(1,1)">
		<path class="st1" d="M81.7,47.3c0-3.5,2.9-6.3,6.4-6.3s6.4,2.8,6.4,6.3s-2.9,6.3-6.4,6.3S81.7,50.8,81.7,47.3z"/>
	</g>
	<g transform="translate(2,2) scale(1,1)">
		<path class="st0" d="M81.7,47.3c0-3.5,2.9-6.3,6.4-6.3s6.4,2.8,6.4,6.3s-2.9,6.3-6.4,6.3S81.7,50.8,81.7,47.3z"/>
	</g>
	<g transform="translate(2,2) scale(1,1)">
		<path class="st0" d="M88.1,53.6v12.8"/>
	</g>
	<g transform="translate(2,2) scale(1,1)">
		<path class="st0" d="M81.3,58.4h13.6"/>
	</g>
	<g transform="translate(2,2) scale(1,1)">
		<path class="st0" d="M88.1,66.4L78.6,79"/>
	</g>
	<g transform="translate(2,2) scale(1,1)">
		<path class="st0" d="M88.1,66.4L97.5,79"/>
	</g>
	<g transform="translate(2,2) scale(1,1)">
		<g>
			<path class="st0" d="M0,0"/>
			<text transform="matrix(1 0 0 1 58.8386 98)" class="st4 st3">Giocatore</text>
		</g>
	</g>
	<g transform="translate(2,2) scale(1,1)">
		<path class="st5" d="M89.5,105v455"/>
	</g>
	<g transform="translate(2,2) scale(1,1)">
		<rect x="231" y="47" class="st6" width="71.7" height="39"/>
	</g>
	<g transform="translate(2,2) scale(1,1)">
		<rect x="224" y="40" class="st1" width="71.7" height="39"/>
	</g>
	<g transform="translate(2,2) scale(1,1)">
		<path class="st0" d="M224,40h71.7v39H224V40z"/>
	</g>
	<g transform="translate(2,2) scale(1,1)">
		<g>
			<path class="st0" d="M0,0"/>
			<text transform="matrix(1 0 0 1 247.2332 58)" class="st4 st3">App</text>
		</g>
	</g>
	<g transform="translate(2,2) scale(1,1)">
		<path class="st5" d="M260.5,80v480"/>
	</g>
	<g transform="translate(2,2) scale(1,1)">
		<rect x="463" y="47" class="st6" width="71.7" height="39"/>
	</g>
	<g transform="translate(2,2) scale(1,1)">
		<rect x="456" y="40" class="st1" width="71.7" height="39"/>
	</g>
	<g transform="translate(2,2) scale(1,1)">
		<path class="st0" d="M456,40h71.7v39H456V40z"/>
	</g>
	<g transform="translate(2,2) scale(1,1)">
		<g>
			<path class="st0" d="M0,0"/>
			<text transform="matrix(1 0 0 1 469.4641 58)" class="st4 st3">:Parser</text>
		</g>
	</g>
	<g transform="translate(2,2) scale(1,1)">
		<path class="st5" d="M492.5,80v480"/>
	</g>
	<g transform="translate(2,2) scale(1,1)">
		<rect x="575" y="47" class="st6" width="71.7" height="39"/>
	</g>
	<g transform="translate(2,2) scale(1,1)">
		<rect x="568" y="40" class="st1" width="71.7" height="39"/>
	</g>
	<g transform="translate(2,2) scale(1,1)">
		<path class="st0" d="M568,40h71.7v39H568V40z"/>
	</g>
	<g transform="translate(2,2) scale(1,1)">
		<g>
			<path class="st0" d="M0,0"/>
			<text transform="matrix(1 0 0 1 581.9592 58)" class="st4 st3">Wordle</text>
		</g>
	</g>
	<g transform="translate(2,2) scale(1,1)">
		<path class="st5" d="M604.5,80v480"/>
	</g>
	<g transform="translate(2,2) scale(1,1)">
		<rect x="679" y="47" class="st6" width="71.7" height="39"/>
	</g>
	<g transform="translate(2,2) scale(1,1)">
		<rect x="672" y="40" class="st1" width="71.7" height="39"/>
	</g>
	<g transform="translate(2,2) scale(1,1)">
		<path class="st0" d="M672,40h71.7v39H672V40z"/>
	</g>
	<g transform="translate(2,2) scale(1,1)">
		<g>
			<path class="st0" d="M0,0"/>
			<text transform="matrix(1 0 0 1 684.7532 58)" class="st4 st3">:Printer</text>
		</g>
	</g>
	<g transform="translate(2,2) scale(1,1)">
		<path class="st5" d="M708.5,80v480"/>
	</g>
	<g transform="translate(2,2) scale(1,1)">
		<path class="st0" d="M89,137h164"/>
	</g>
	<g transform="translate(2,2) scale(1,1)">
		<path d="M242.8,141.2L253,137l-10.2-4.2"/>
	</g>
	<g transform="translate(2,2) scale(1,1)">
		<path class="st0" d="M242.8,141.2L253,137l-10.2-4.2V141.2"/>
	</g>
	<g transform="translate(2,2) scale(1,1)">
		<g>
			<path class="st0" d="M0,0"/>
			<text transform="matrix(1 0 0 1 127.5 132)" class="st2 st3">1 : /abbandona</text>
		</g>
	</g>
	<g transform="translate(2,2) scale(1,1)">
		<rect x="253" y="137" class="st1" width="13" height="399"/>
	</g>
	<g transform="translate(2,2) scale(1,1)">
		<path class="st0" d="M253,137h13v399h-13V137z"/>
	</g>
	<g transform="translate(2,2) scale(1,1)">
		<path class="st0" d="M266,160h219"/>
	</g>
	<g transform="translate(2,2) scale(1,1)">
		<path d="M474.8,164.2L485,160l-10.2-4.2"/>
	</g>
	<g transform="translate(2,2) scale(1,1)">
		<path class="st0" d="M474.8,164.2L485,160l-10.2-4.2V164.2"/>
	</g>
	<g transform="translate(2,2) scale(1,1)">
		<g>
			<path class="st0" d="M0,0"/>
			<text transform="matrix(1 0 0 1 348.5095 155)" class="st2 st3">2 : feed()</text>
		</g>
	</g>
	<g transform="translate(2,2) scale(1,1)">
		<rect x="485" y="160" class="st1" width="13" height="28"/>
	</g>
	<g transform="translate(2,2) scale(1,1)">
		<path class="st0" d="M485,160h13v28h-13V160z"/>
	</g>
	<g transform="translate(2,2) scale(1,1)">
		<path class="st0" d="M266,224h219"/>
	</g>
	<g transform="translate(2,2) scale(1,1)">
		<path d="M474.8,228.2L485,224l-10.2-4.2"/>
	</g>
	<g transform="translate(2,2) scale(1,1)">
		<path class="st0" d="M474.8,228.2L485,224l-10.2-4.2V228.2"/>
	</g>
	<g transform="translate(2,2) scale(1,1)">
		<g>
			<path class="st0" d="M0,0"/>
			<text transform="matrix(1 0 0 1 322.5 219)" class="st2 st3">3 : getCommand()</text>
		</g>
	</g>
	<g transform="translate(2,2) scale(1,1)">
		<rect x="485" y="224" class="st1" width="13" height="28"/>
	</g>
	<g transform="translate(2,2) scale(1,1)">
		<path class="st0" d="M485,224h13v28h-13V224z"/>
	</g>
	<g transform="translate(2,2) scale(1,1)">
		<path class="st0" d="M266,280h30v20h-23"/>
	</g>
	<g transform="translate(2,2) scale(1,1)">
		<path d="M283.2,295.8L273,300l10.2,4.2"/>
	</g>
	<g transform="translate(2,2) scale(1,1)">
		<path class="st0" d="M283.2,295.8L273,300l10.2,4.2V295.8"/>
	</g>
	<g transform="translate(2,2) scale(1,1)">
		<g>
			<path class="st0" d="M0,0"/>
			<text transform="matrix(1 0 0 1 271.5 275)" class="st2 st3">4 : executeQuitGame()</text>
		</g>
	</g>
	<g transform="translate(2,2) scale(1,1)">
		<rect x="260" y="300" class="st1" width="13" height="212"/>
	</g>
	<g transform="translate(2,2) scale(1,1)">
		<path class="st0" d="M260,300h13v212h-13V300z"/>
	</g>
	<g transform="translate(2,2) scale(1,1)">
		<path class="st0" d="M260,336H95"/>
	</g>
	<g transform="translate(2,2) scale(1,1)">
		<path d="M105.2,331.8L95,336l10.2,4.2"/>
	</g>
	<g transform="translate(2,2) scale(1,1)">
		<path class="st0" d="M105.2,331.8L95,336l10.2,4.2V331.8"/>
	</g>
	<g transform="translate(2,2) scale(1,1)">
		<g>
			<path class="st0" d="M0,0"/>
			<text transform="matrix(1 0 0 1 108.5 351)" class="st2 st3">5 : // richiesta conferma</text>
		</g>
	</g>
	<g transform="translate(2,2) scale(1,1)">
		<rect x="82" y="336" class="st1" width="13" height="56"/>
	</g>
	<g transform="translate(2,2) scale(1,1)">
		<path class="st0" d="M82,336h13v56H82V336z"/>
	</g>
	<g transform="translate(2,2) scale(1,1)">
		<path class="st5" d="M95,387h165"/>
	</g>
	<g transform="translate(2,2) scale(1,1)">
		<path class="st0" d="M249.8,391.2L260,387l-10.2-4.2"/>
	</g>
	<g transform="translate(2,2) scale(1,1)">
		<g>
			<path class="st0" d="M0,0"/>
			<text transform="matrix(1 0 0 1 125.5 378)" class="st2 st3">6 : //invio risposta</text>
		</g>
	</g>
	<g transform="translate(2,2) scale(1,1)">
		<path class="st0" d="M273,448h324"/>
	</g>
	<g transform="translate(2,2) scale(1,1)">
		<path d="M586.8,452.2L597,448l-10.2-4.2"/>
	</g>
	<g transform="translate(2,2) scale(1,1)">
		<path class="st0" d="M586.8,452.2L597,448l-10.2-4.2V452.2"/>
	</g>
	<g transform="translate(2,2) scale(1,1)">
		<g>
			<path class="st0" d="M0,0"/>
			<text transform="matrix(1 0 0 1 323.5 442)" class="st2 st3">7 : endGame()</text>
		</g>
	</g>
	<g transform="translate(2,2) scale(1,1)">
		<rect x="597" y="448" class="st1" width="13" height="28"/>
	</g>
	<g transform="translate(2,2) scale(1,1)">
		<path class="st0" d="M597,448h13v28h-13V448z"/>
	</g>
	<g transform="translate(2,2) scale(1,1)">
		<path class="st0" d="M168,416h464v65H168V416"/>
	</g>
	<g transform="translate(2,2) scale(1,1)">
		<path class="st1" d="M168,416v22h111l11-11v-11H168"/>
	</g>
	<g transform="translate(2,2) scale(1,1)">
		<path class="st0" d="M168,416v22h111l11-11v-11H168L168,416"/>
	</g>
	<g transform="translate(2,2) scale(1,1)">
		<g>
			<path class="st0" d="M0,0"/>
			<text transform="matrix(1 0 0 1 197.0718 432)" class="st2 st3">[risposta = si]</text>
		</g>
	</g>
	<g transform="translate(2,2) scale(1,1)">
		<g>
			<path d="M0,0"/>
			<text transform="matrix(1 0 0 1 171.9304 431.5)" class="st4 st3">opt</text>
		</g>
	</g>
</g>
</svg>
