<?xml version="1.0" encoding="utf-8"?>
<!-- Generator: Adobe Illustrator 24.0.0, SVG Export Plug-In . SVG Version: 6.00 Build 0)  -->
<svg version="1.1" id="Livello_1" xmlns="http://www.w3.org/2000/svg" xmlns:xlink="http://www.w3.org/1999/xlink" x="0px" y="0px"
	 viewBox="0 0 710 497" style="enable-background:new 0 0 710 497;" xml:space="preserve">
<style type="text/css">
	.st0{opacity:0.2;fill:#C0C0C0;enable-background:new    ;}
	.st1{fill:#FFFFFF;}
	.st2{fill:none;stroke:#000000;stroke-miterlimit:10;}
	.st3{font-family:'ArialMT';}
	.st4{font-size:13px;}
	.st5{font-family:'Arial-BoldMT';}
	.st6{fill:none;stroke:#000000;stroke-miterlimit:10;stroke-dasharray:3;}
</style>
<g>
	<g transform="translate(-54,-6) scale(1,1)">
		<rect x="159" y="143" class="st0" width="210.3" height="70"/>
	</g>
	<g transform="translate(-54,-6) scale(1,1)">
		<rect x="152" y="136" class="st1" width="210.3" height="70"/>
	</g>
	<g transform="translate(-54,-6) scale(1,1)">
		<path class="st2" d="M152,136h210.3v70H152V136z"/>
	</g>
	<g transform="translate(-54,-6) scale(1,1)">
		<path class="st2" d="M152,174h210.3"/>
	</g>
	<g transform="translate(-54,-6) scale(1,1)">
		<path class="st2" d="M152,197h210.3"/>
	</g>
	<g transform="translate(-54,-6) scale(1,1)">
		<g>
			<path class="st2" d="M0,0"/>
			<text transform="matrix(1 0 0 1 222.8013 152)" class="st3 st4">«boundary»</text>
		</g>
	</g>
	<g transform="translate(-54,-6) scale(1,1)">
		<g>
			<path d="M0,0"/>
			<text transform="matrix(1 0 0 1 244.5007 167)" class="st5 st4">App</text>
		</g>
	</g>
	<g transform="translate(-54,-6) scale(1,1)">
		<g>
			<path d="M0,0"/>
			<text transform="matrix(1 0 0 1 157 190)" class="st3 st4">-keyboard: Scanner</text>
			<path class="st2" d="M157,191.5h113.5"/>
		</g>
	</g>
	<g transform="translate(-54,-6) scale(1,1)">
		<rect x="71" y="295" class="st0" width="112" height="57"/>
	</g>
	<g transform="translate(-54,-6) scale(1,1)">
		<rect x="64" y="288" class="st1" width="112" height="57"/>
	</g>
	<g transform="translate(-54,-6) scale(1,1)">
		<path class="st2" d="M64,288h112v57H64V288z"/>
	</g>
	<g transform="translate(-54,-6) scale(1,1)">
		<path class="st2" d="M64,326h112"/>
	</g>
	<g transform="translate(-54,-6) scale(1,1)">
		<path class="st2" d="M64,336h112"/>
	</g>
	<g transform="translate(-54,-6) scale(1,1)">
		<g>
			<path class="st2" d="M0,0"/>
			<text transform="matrix(1 0 0 1 85.6655 304)" class="st3 st4">«boundary»</text>
		</g>
	</g>
	<g transform="translate(-54,-6) scale(1,1)">
		<g>
			<path d="M0,0"/>
			<text transform="matrix(1 0 0 1 99.7605 319)" class="st5 st4">Parser</text>
		</g>
	</g>
	<g transform="translate(-54,-6) scale(1,1)">
		<rect x="607" y="135" class="st0" width="154" height="88"/>
	</g>
	<g transform="translate(-54,-6) scale(1,1)">
		<rect x="600" y="128" class="st1" width="154" height="88"/>
	</g>
	<g transform="translate(-54,-6) scale(1,1)">
		<path class="st2" d="M600,128h154v88H600V128z"/>
	</g>
	<g transform="translate(-54,-6) scale(1,1)">
		<path class="st2" d="M600,166h154"/>
	</g>
	<g transform="translate(-54,-6) scale(1,1)">
		<path class="st2" d="M600,176h154"/>
	</g>
	<g transform="translate(-54,-6) scale(1,1)">
		<g>
			<path class="st2" d="M0,0"/>
			<text transform="matrix(1 0 0 1 650.2412 144)" class="st3 st4">«control»</text>
		</g>
	</g>
	<g transform="translate(-54,-6) scale(1,1)">
		<g>
			<path d="M0,0"/>
			<text transform="matrix(1 0 0 1 604.5 159)" class="st5 st4">WordlePlayerController</text>
		</g>
	</g>
	<g transform="translate(-54,-6) scale(1,1)">
		<g>
			<path d="M0,0"/>
			<text transform="matrix(1 0 0 1 605 192)" class="st3 st4">+isGameRunning()</text>
			<path class="st2" d="M605,193.5h109.5"/>
		</g>
	</g>
	<g transform="translate(-54,-6) scale(1,1)">
		<g>
			<path class="st2" d="M0,0"/>
			<text transform="matrix(1 0 0 1 605 207)" class="st3 st4">+startGame()</text>
			<path class="st2" d="M605,208.5h76.9"/>
		</g>
	</g>
	<g transform="translate(-54,-6) scale(1,1)">
		<rect x="399" y="279" class="st0" width="120.7" height="70"/>
	</g>
	<g transform="translate(-54,-6) scale(1,1)">
		<rect x="392" y="272" class="st1" width="120.7" height="70"/>
	</g>
	<g transform="translate(-54,-6) scale(1,1)">
		<path class="st2" d="M392,272h120.7v70H392V272z"/>
	</g>
	<g transform="translate(-54,-6) scale(1,1)">
		<path class="st2" d="M392,310h120.7"/>
	</g>
	<g transform="translate(-54,-6) scale(1,1)">
		<path class="st2" d="M392,333h120.7"/>
	</g>
	<g transform="translate(-54,-6) scale(1,1)">
		<g>
			<path class="st2" d="M0,0"/>
			<text transform="matrix(1 0 0 1 429.603 288)" class="st3 st4">«entity»</text>
		</g>
	</g>
	<g transform="translate(-54,-6) scale(1,1)">
		<g>
			<path d="M0,0"/>
			<text transform="matrix(1 0 0 1 412.3945 303)" class="st5 st4">WordleGame</text>
		</g>
	</g>
	<g transform="translate(-54,-6) scale(1,1)">
		<g>
			<path d="M0,0"/>
			<text transform="matrix(1 0 0 1 397 326)" class="st3 st4">-secretWord: String</text>
		</g>
	</g>
	<g transform="translate(-54,-6) scale(1,1)">
		<rect x="391" y="415" class="st0" width="136" height="85"/>
	</g>
	<g transform="translate(-54,-6) scale(1,1)">
		<rect x="384" y="408" class="st1" width="136" height="85"/>
	</g>
	<g transform="translate(-54,-6) scale(1,1)">
		<path class="st2" d="M384,408h136v85H384V408z"/>
	</g>
	<g transform="translate(-54,-6) scale(1,1)">
		<path class="st2" d="M384,446h136"/>
	</g>
	<g transform="translate(-54,-6) scale(1,1)">
		<path class="st2" d="M384,484h136"/>
	</g>
	<g transform="translate(-54,-6) scale(1,1)">
		<g>
			<path class="st2" d="M0,0"/>
			<text transform="matrix(1 0 0 1 429.2341 424)" class="st3 st4">«entity»</text>
		</g>
	</g>
	<g transform="translate(-54,-6) scale(1,1)">
		<g>
			<path d="M0,0"/>
			<text transform="matrix(1 0 0 1 433.2205 439)" class="st5 st4">Board</text>
		</g>
	</g>
	<g transform="translate(-54,-6) scale(1,1)">
		<g>
			<path d="M0,0"/>
			<text transform="matrix(1 0 0 1 389 462)" class="st3 st4">-firstEmptyIndex: int</text>
		</g>
	</g>
	<g transform="translate(-54,-6) scale(1,1)">
		<g>
			<path d="M0,0"/>
			<text transform="matrix(1 0 0 1 389 477)" class="st3 st4">-wordleLentgh: int</text>
		</g>
	</g>
	<g transform="translate(-54,-6) scale(1,1)">
		<rect x="207" y="359" class="st0" width="113.4" height="70"/>
	</g>
	<g transform="translate(-54,-6) scale(1,1)">
		<rect x="200" y="352" class="st1" width="113.4" height="70"/>
	</g>
	<g transform="translate(-54,-6) scale(1,1)">
		<path class="st2" d="M200,352h113.4v70H200V352z"/>
	</g>
	<g transform="translate(-54,-6) scale(1,1)">
		<path class="st2" d="M200,390h113.4"/>
	</g>
	<g transform="translate(-54,-6) scale(1,1)">
		<path class="st2" d="M200,400h113.4"/>
	</g>
	<g transform="translate(-54,-6) scale(1,1)">
		<g>
			<path class="st2" d="M0,0"/>
			<text transform="matrix(1 0 0 1 222.3623 368)" class="st3 st4">«boundary»</text>
		</g>
	</g>
	<g transform="translate(-54,-6) scale(1,1)">
		<g>
			<path d="M0,0"/>
			<text transform="matrix(1 0 0 1 213.8374 383)" class="st5 st4">WordlePrinter</text>
		</g>
	</g>
	<g transform="translate(-54,-6) scale(1,1)">
		<g>
			<path d="M0,0"/>
			<text transform="matrix(1 0 0 1 205 416)" class="st3 st4">+printBoard()</text>
		</g>
	</g>
	<g transform="translate(-54,-6) scale(1,1)">
		<path class="st2" d="M257,207l-1,144"/>
	</g>
	<g transform="translate(-54,-6) scale(1,1)">
		<path class="st2" d="M251.9,340.8L256,351l4.3-10.1"/>
	</g>
	<g transform="translate(-54,-6) scale(1,1)">
		<g>
			<path class="st2" d="M0,0"/>
			<text transform="matrix(1 0 0 1 261.644 340)" class="st3 st4">-console</text>
		</g>
	</g>
	<g transform="translate(-54,-6) scale(1,1)">
		<g>
			<path d="M0,0"/>
			<text transform="matrix(1 0 0 1 242.5 333)" class="st3 st4">1</text>
		</g>
	</g>
	<g transform="translate(-54,-6) scale(1,1)">
		<path class="st2" d="M223,207l-76,80"/>
	</g>
	<g transform="translate(-54,-6) scale(1,1)">
		<path class="st2" d="M150.9,276.7L147,287l10.1-4.5"/>
	</g>
	<g transform="translate(-54,-6) scale(1,1)">
		<g>
			<path class="st2" d="M0,0"/>
			<text transform="matrix(1 0 0 1 165.1313 278)" class="st3 st4">-PARSER</text>
		</g>
	</g>
	<g transform="translate(-54,-6) scale(1,1)">
		<g>
			<path d="M0,0"/>
			<text transform="matrix(1 0 0 1 137.5 283)" class="st3 st4">1</text>
		</g>
	</g>
	<g transform="translate(-54,-6) scale(1,1)">
		<path class="st2" d="M615,306l-101,1"/>
	</g>
	<g transform="translate(-54,-6) scale(1,1)">
		<path class="st2" d="M524.1,302.7L514,307l10.2,4.1"/>
	</g>
	<g transform="translate(-54,-6) scale(1,1)">
		<g>
			<path class="st2" d="M0,0"/>
			<text transform="matrix(1 0 0 1 520.1313 326)" class="st3 st4">-currentGame</text>
		</g>
	</g>
	<g transform="translate(-54,-6) scale(1,1)">
		<g>
			<path d="M0,0"/>
			<text transform="matrix(1 0 0 1 524.5 299)" class="st3 st4">0..1</text>
		</g>
	</g>
	<g transform="translate(-54,-6) scale(1,1)">
		<path class="st2" d="M452,343v64"/>
	</g>
	<g transform="translate(-54,-6) scale(1,1)">
		<path class="st2" d="M447.8,396.8L452,407l4.2-10.2"/>
	</g>
	<g transform="translate(-54,-6) scale(1,1)">
		<g>
			<path class="st2" d="M0,0"/>
			<text transform="matrix(1 0 0 1 435.5 403)" class="st3 st4">1</text>
		</g>
	</g>
	<g transform="translate(-54,-6) scale(1,1)">
		<path class="st2" d="M452,343v64"/>
	</g>
	<g transform="translate(-54,-6) scale(1,1)">
		<path class="st2" d="M447.8,396.8L452,407l4.2-10.2"/>
	</g>
	<g transform="translate(-54,-6) scale(1,1)">
		<g>
			<path class="st2" d="M0,0"/>
			<text transform="matrix(1 0 0 1 462.1313 401)" class="st3 st4">-gameBoard</text>
		</g>
	</g>
	<g transform="translate(-54,-6) scale(1,1)">
		<path class="st2" d="M363,171l236,1"/>
	</g>
	<g transform="translate(-54,-6) scale(1,1)">
		<path class="st2" d="M588.8,176.2L599,172l-10.1-4.3"/>
	</g>
	<g transform="translate(-54,-6) scale(1,1)">
		<g>
			<path class="st2" d="M0,0"/>
			<text transform="matrix(1 0 0 1 428.1313 162)" class="st3 st4">-PLAYER_CONTROLLER</text>
		</g>
	</g>
	<g transform="translate(-54,-6) scale(1,1)">
		<g>
			<path d="M0,0"/>
			<text transform="matrix(1 0 0 1 573.5 189)" class="st3 st4">1</text>
		</g>
	</g>
	<g transform="translate(-54,-6) scale(1,1)">
		<rect x="215" y="23" class="st0" width="101.4" height="70"/>
	</g>
	<g transform="translate(-54,-6) scale(1,1)">
		<rect x="208" y="16" class="st1" width="101.4" height="70"/>
	</g>
	<g transform="translate(-54,-6) scale(1,1)">
		<path class="st2" d="M208,16h101.4v70H208V16z"/>
	</g>
	<g transform="translate(-54,-6) scale(1,1)">
		<path class="st2" d="M208,54h101.4"/>
	</g>
	<g transform="translate(-54,-6) scale(1,1)">
		<path class="st2" d="M208,64h101.4"/>
	</g>
	<g transform="translate(-54,-6) scale(1,1)">
		<g>
			<path class="st2" d="M0,0"/>
			<text transform="matrix(1 0 0 1 224.386 32)" class="st3 st4">«boundary»</text>
		</g>
	</g>
	<g transform="translate(-54,-6) scale(1,1)">
		<g>
			<path d="M0,0"/>
			<text transform="matrix(1 0 0 1 212.5 47)" class="st5 st4">App.Command</text>
		</g>
	</g>
	<g transform="translate(-54,-6) scale(1,1)">
		<g>
			<path d="M0,0"/>
			<text transform="matrix(1 0 0 1 213 80)" class="st3 st4">+execute()</text>
		</g>
	</g>
	<g transform="translate(-54,-6) scale(1,1)">
		<path class="st6" d="M257,135l1-48"/>
	</g>
	<g transform="translate(-54,-6) scale(1,1)">
		<path class="st2" d="M262,97.2L258,87l-4.4,10.1"/>
	</g>
	<g transform="translate(-54,-6) scale(1,1)">
		<g>
			<path class="st2" d="M0,0"/>
			<text transform="matrix(1 0 0 1 206.5 115)" class="st3 st4">«call»</text>
		</g>
	</g>
	<g transform="translate(-54,-6) scale(1,1)">
		<path class="st0" d="M674.6,74.5c0-6.4,5.1-11.5,11.5-11.5s11.5,5.1,11.5,11.5S692.4,86,686.1,86S674.6,80.9,674.6,74.5z"/>
	</g>
	<g transform="translate(-54,-6) scale(1,1)">
		<path class="st1" d="M667.6,67.5c0-6.4,5.1-11.5,11.5-11.5s11.5,5.1,11.5,11.5S685.4,79,679.1,79S667.6,73.9,667.6,67.5z"/>
	</g>
	<g transform="translate(-54,-6) scale(1,1)">
		<path class="st2" d="M667.6,67.5c0-6.4,5.1-11.5,11.5-11.5s11.5,5.1,11.5,11.5S685.4,79,679.1,79S667.6,73.9,667.6,67.5z"/>
	</g>
	<g transform="translate(-54,-6) scale(1,1)">
		<g>
			<path class="st2" d="M0,0"/>
			<text transform="matrix(1 0 0 1 628.5 97)" class="st5 st4">PlayerController</text>
		</g>
	</g>
	<g transform="translate(-54,-6) scale(1,1)">
		<path class="st2" d="M677,127l1.7-48"/>
	</g>
	<g transform="translate(-54,-6) scale(1,1)">
		<rect x="623" y="263" class="st0" width="124" height="100"/>
	</g>
	<g transform="translate(-54,-6) scale(1,1)">
		<rect x="616" y="256" class="st1" width="124" height="100"/>
	</g>
	<g transform="translate(-54,-6) scale(1,1)">
		<path class="st2" d="M616,256h124v100H616V256z"/>
	</g>
	<g transform="translate(-54,-6) scale(1,1)">
		<path class="st2" d="M616,294h124"/>
	</g>
	<g transform="translate(-54,-6) scale(1,1)">
		<path class="st2" d="M616,347h124"/>
	</g>
	<g transform="translate(-54,-6) scale(1,1)">
		<g>
			<path class="st2" d="M0,0"/>
			<text transform="matrix(1 0 0 1 655.2344 272)" class="st3 st4">«entity»</text>
		</g>
	</g>
	<g transform="translate(-54,-6) scale(1,1)">
		<g>
			<path d="M0,0"/>
			<text transform="matrix(1 0 0 1 631.1641 287)" class="st5 st4">WordleSession</text>
		</g>
	</g>
	<g transform="translate(-54,-6) scale(1,1)">
		<g>
			<path d="M0,0"/>
			<text transform="matrix(1 0 0 1 621 310)" class="st3 st4">-secretWord: String</text>
		</g>
	</g>
	<g transform="translate(-54,-6) scale(1,1)">
		<g>
			<path d="M0,0"/>
			<text transform="matrix(1 0 0 1 621 325)" class="st3 st4">-wordLength: int</text>
		</g>
	</g>
	<g transform="translate(-54,-6) scale(1,1)">
		<g>
			<path d="M0,0"/>
			<text transform="matrix(1 0 0 1 621 340)" class="st3 st4">-nMaxGuesses: int</text>
		</g>
	</g>
	<g transform="translate(-54,-6) scale(1,1)">
		<path class="st2" d="M677,217v38"/>
	</g>
	<g transform="translate(-54,-6) scale(1,1)">
		<path class="st2" d="M672.8,244.8L677,255l4.2-10.2"/>
	</g>
	<g transform="translate(-54,-6) scale(1,1)">
		<rect x="79" y="391" class="st0" width="86.8" height="57"/>
	</g>
	<g transform="translate(-54,-6) scale(1,1)">
		<rect x="72" y="384" class="st1" width="86.8" height="57"/>
	</g>
	<g transform="translate(-54,-6) scale(1,1)">
		<path class="st2" d="M72,384h86.8v57H72V384z"/>
	</g>
	<g transform="translate(-54,-6) scale(1,1)">
		<path class="st2" d="M72,422h86.8"/>
	</g>
	<g transform="translate(-54,-6) scale(1,1)">
		<path class="st2" d="M72,432h86.8"/>
	</g>
	<g transform="translate(-54,-6) scale(1,1)">
		<g>
			<path class="st2" d="M0,0"/>
			<text transform="matrix(1 0 0 1 81.064 400)" class="st3 st4">«boundary»</text>
		</g>
	</g>
	<g transform="translate(-54,-6) scale(1,1)">
		<g>
			<path d="M0,0"/>
			<text transform="matrix(1 0 0 1 76.5 415)" class="st5 st4">ParserToken</text>
		</g>
	</g>
	<g transform="translate(-54,-6) scale(1,1)">
		<path class="st6" d="M118,346l-1,37"/>
	</g>
	<g transform="translate(-54,-6) scale(1,1)">
		<path class="st2" d="M113.1,372.7L117,383l4.5-10"/>
	</g>
</g>
</svg>
