<svg version="1.1" xmlns="http://www.w3.org/2000/svg" xmlns:xlink="http://www.w3.org/1999/xlink" width="628.21435546875" height="341"><defs/><g><text fill="#eeeeee" stroke="none" font-family="Arial" font-size="24px" font-style="normal" font-weight="normal" text-decoration="none" x="0" y="0">UNREGISTERED</text><text fill="#eeeeee" stroke="none" font-family="Arial" font-size="24px" font-style="normal" font-weight="normal" text-decoration="none" x="0" y="30">UNREGISTERED</text><text fill="#eeeeee" stroke="none" font-family="Arial" font-size="24px" font-style="normal" font-weight="normal" text-decoration="none" x="0" y="60">UNREGISTERED</text><text fill="#eeeeee" stroke="none" font-family="Arial" font-size="24px" font-style="normal" font-weight="normal" text-decoration="none" x="0" y="90">UNREGISTERED</text><text fill="#eeeeee" stroke="none" font-family="Arial" font-size="24px" font-style="normal" font-weight="normal" text-decoration="none" x="0" y="120">UNREGISTERED</text><text fill="#eeeeee" stroke="none" font-family="Arial" font-size="24px" font-style="normal" font-weight="normal" text-decoration="none" x="0" y="150">UNREGISTERED</text><text fill="#eeeeee" stroke="none" font-family="Arial" font-size="24px" font-style="normal" font-weight="normal" text-decoration="none" x="0" y="180">UNREGISTERED</text><text fill="#eeeeee" stroke="none" font-family="Arial" font-size="24px" font-style="normal" font-weight="normal" text-decoration="none" x="0" y="210">UNREGISTERED</text><text fill="#eeeeee" stroke="none" font-family="Arial" font-size="24px" font-style="normal" font-weight="normal" text-decoration="none" x="0" y="240">UNREGISTERED</text><text fill="#eeeeee" stroke="none" font-family="Arial" font-size="24px" font-style="normal" font-weight="normal" text-decoration="none" x="0" y="270">UNREGISTERED</text><text fill="#eeeeee" stroke="none" font-family="Arial" font-size="24px" font-style="normal" font-weight="normal" text-decoration="none" x="0" y="300">UNREGISTERED</text><text fill="#eeeeee" stroke="none" font-family="Arial" font-size="24px" font-style="normal" font-weight="normal" text-decoration="none" x="0" y="330">UNREGISTERED</text><text fill="#eeeeee" stroke="none" font-family="Arial" font-size="24px" font-style="normal" font-weight="normal" text-decoration="none" x="200" y="0">UNREGISTERED</text><text fill="#eeeeee" stroke="none" font-family="Arial" font-size="24px" font-style="normal" font-weight="normal" text-decoration="none" x="200" y="30">UNREGISTERED</text><text fill="#eeeeee" stroke="none" font-family="Arial" font-size="24px" font-style="normal" font-weight="normal" text-decoration="none" x="200" y="60">UNREGISTERED</text><text fill="#eeeeee" stroke="none" font-family="Arial" font-size="24px" font-style="normal" font-weight="normal" text-decoration="none" x="200" y="90">UNREGISTERED</text><text fill="#eeeeee" stroke="none" font-family="Arial" font-size="24px" font-style="normal" font-weight="normal" text-decoration="none" x="200" y="120">UNREGISTERED</text><text fill="#eeeeee" stroke="none" font-family="Arial" font-size="24px" font-style="normal" font-weight="normal" text-decoration="none" x="200" y="150">UNREGISTERED</text><text fill="#eeeeee" stroke="none" font-family="Arial" font-size="24px" font-style="normal" font-weight="normal" text-decoration="none" x="200" y="180">UNREGISTERED</text><text fill="#eeeeee" stroke="none" font-family="Arial" font-size="24px" font-style="normal" font-weight="normal" text-decoration="none" x="200" y="210">UNREGISTERED</text><text fill="#eeeeee" stroke="none" font-family="Arial" font-size="24px" font-style="normal" font-weight="normal" text-decoration="none" x="200" y="240">UNREGISTERED</text><text fill="#eeeeee" stroke="none" font-family="Arial" font-size="24px" font-style="normal" font-weight="normal" text-decoration="none" x="200" y="270">UNREGISTERED</text><text fill="#eeeeee" stroke="none" font-family="Arial" font-size="24px" font-style="normal" font-weight="normal" text-decoration="none" x="200" y="300">UNREGISTERED</text><text fill="#eeeeee" stroke="none" font-family="Arial" font-size="24px" font-style="normal" font-weight="normal" text-decoration="none" x="200" y="330">UNREGISTERED</text><text fill="#eeeeee" stroke="none" font-family="Arial" font-size="24px" font-style="normal" font-weight="normal" text-decoration="none" x="400" y="0">UNREGISTERED</text><text fill="#eeeeee" stroke="none" font-family="Arial" font-size="24px" font-style="normal" font-weight="normal" text-decoration="none" x="400" y="30">UNREGISTERED</text><text fill="#eeeeee" stroke="none" font-family="Arial" font-size="24px" font-style="normal" font-weight="normal" text-decoration="none" x="400" y="60">UNREGISTERED</text><text fill="#eeeeee" stroke="none" font-family="Arial" font-size="24px" font-style="normal" font-weight="normal" text-decoration="none" x="400" y="90">UNREGISTERED</text><text fill="#eeeeee" stroke="none" font-family="Arial" font-size="24px" font-style="normal" font-weight="normal" text-decoration="none" x="400" y="120">UNREGISTERED</text><text fill="#eeeeee" stroke="none" font-family="Arial" font-size="24px" font-style="normal" font-weight="normal" text-decoration="none" x="400" y="150">UNREGISTERED</text><text fill="#eeeeee" stroke="none" font-family="Arial" font-size="24px" font-style="normal" font-weight="normal" text-decoration="none" x="400" y="180">UNREGISTERED</text><text fill="#eeeeee" stroke="none" font-family="Arial" font-size="24px" font-style="normal" font-weight="normal" text-decoration="none" x="400" y="210">UNREGISTERED</text><text fill="#eeeeee" stroke="none" font-family="Arial" font-size="24px" font-style="normal" font-weight="normal" text-decoration="none" x="400" y="240">UNREGISTERED</text><text fill="#eeeeee" stroke="none" font-family="Arial" font-size="24px" font-style="normal" font-weight="normal" text-decoration="none" x="400" y="270">UNREGISTERED</text><text fill="#eeeeee" stroke="none" font-family="Arial" font-size="24px" font-style="normal" font-weight="normal" text-decoration="none" x="400" y="300">UNREGISTERED</text><text fill="#eeeeee" stroke="none" font-family="Arial" font-size="24px" font-style="normal" font-weight="normal" text-decoration="none" x="400" y="330">UNREGISTERED</text><text fill="#eeeeee" stroke="none" font-family="Arial" font-size="24px" font-style="normal" font-weight="normal" text-decoration="none" x="600" y="0">UNREGISTERED</text><text fill="#eeeeee" stroke="none" font-family="Arial" font-size="24px" font-style="normal" font-weight="normal" text-decoration="none" x="600" y="30">UNREGISTERED</text><text fill="#eeeeee" stroke="none" font-family="Arial" font-size="24px" font-style="normal" font-weight="normal" text-decoration="none" x="600" y="60">UNREGISTERED</text><text fill="#eeeeee" stroke="none" font-family="Arial" font-size="24px" font-style="normal" font-weight="normal" text-decoration="none" x="600" y="90">UNREGISTERED</text><text fill="#eeeeee" stroke="none" font-family="Arial" font-size="24px" font-style="normal" font-weight="normal" text-decoration="none" x="600" y="120">UNREGISTERED</text><text fill="#eeeeee" stroke="none" font-family="Arial" font-size="24px" font-style="normal" font-weight="normal" text-decoration="none" x="600" y="150">UNREGISTERED</text><text fill="#eeeeee" stroke="none" font-family="Arial" font-size="24px" font-style="normal" font-weight="normal" text-decoration="none" x="600" y="180">UNREGISTERED</text><text fill="#eeeeee" stroke="none" font-family="Arial" font-size="24px" font-style="normal" font-weight="normal" text-decoration="none" x="600" y="210">UNREGISTERED</text><text fill="#eeeeee" stroke="none" font-family="Arial" font-size="24px" font-style="normal" font-weight="normal" text-decoration="none" x="600" y="240">UNREGISTERED</text><text fill="#eeeeee" stroke="none" font-family="Arial" font-size="24px" font-style="normal" font-weight="normal" text-decoration="none" x="600" y="270">UNREGISTERED</text><text fill="#eeeeee" stroke="none" font-family="Arial" font-size="24px" font-style="normal" font-weight="normal" text-decoration="none" x="600" y="300">UNREGISTERED</text><text fill="#eeeeee" stroke="none" font-family="Arial" font-size="24px" font-style="normal" font-weight="normal" text-decoration="none" x="600" y="330">UNREGISTERED</text><g transform="translate(-198,-30) scale(1,1)"><rect fill="#C0C0C0" stroke="none" x="215" y="167" width="202.69873046875" height="83" opacity="0.2"/></g><g transform="translate(-198,-30) scale(1,1)"><rect fill="#ffffff" stroke="none" x="208" y="160" width="202.69873046875" height="83"/></g><g transform="translate(-198,-30) scale(1,1)"><path fill="none" stroke="#000000" d="M 208 160 L 410.69873046875 160 L 410.69873046875 243 L 208 243 L 208 160 Z Z" stroke-miterlimit="10"/></g><g transform="translate(-198,-30) scale(1,1)"><path fill="none" stroke="#000000" d="M 208 198 L 410.69873046875 198" stroke-miterlimit="10"/></g><g transform="translate(-198,-30) scale(1,1)"><path fill="none" stroke="#000000" d="M 208 221 L 410.69873046875 221" stroke-miterlimit="10"/></g><g transform="translate(-198,-30) scale(1,1)"><g><path fill="none" stroke="none"/><text fill="#000000" stroke="none" font-family="Arial" font-size="13px" font-style="normal" font-weight="normal" text-decoration="none" x="275.014892578125" y="176">«boundary»</text></g></g><g transform="translate(-198,-30) scale(1,1)"><g><path fill="none" stroke="none"/><text fill="#000000" stroke="none" font-family="Arial" font-size="13px" font-style="normal" font-weight="bold" text-decoration="none" x="296.71435546875" y="191">App</text></g></g><g transform="translate(-198,-30) scale(1,1)"><g><path fill="none" stroke="none"/><text fill="#000000" stroke="none" font-family="Arial" font-size="13px" font-style="normal" font-weight="normal" text-decoration="none" x="213" y="214">-keyboard: Scanner</text><path fill="none" stroke="#000000" d="M 213 215.5 L 326.45166015625 215.5" stroke-miterlimit="10"/></g></g><g transform="translate(-198,-30) scale(1,1)"><rect fill="#C0C0C0" stroke="none" x="247" y="311" width="137.59716796875" height="57" opacity="0.2"/></g><g transform="translate(-198,-30) scale(1,1)"><rect fill="#ffffff" stroke="none" x="240" y="304" width="137.59716796875" height="57"/></g><g transform="translate(-198,-30) scale(1,1)"><path fill="none" stroke="#000000" d="M 240 304 L 377.59716796875 304 L 377.59716796875 361 L 240 361 L 240 304 Z Z" stroke-miterlimit="10"/></g><g transform="translate(-198,-30) scale(1,1)"><path fill="none" stroke="#000000" d="M 240 342 L 377.59716796875 342" stroke-miterlimit="10"/></g><g transform="translate(-198,-30) scale(1,1)"><path fill="none" stroke="#000000" d="M 240 352 L 377.59716796875 352" stroke-miterlimit="10"/></g><g transform="translate(-198,-30) scale(1,1)"><g><path fill="none" stroke="none"/><text fill="#000000" stroke="none" font-family="Arial" font-size="13px" font-style="normal" font-weight="normal" text-decoration="none" x="274.464111328125" y="320">«boundary»</text></g></g><g transform="translate(-198,-30) scale(1,1)"><g><path fill="none" stroke="none"/><text fill="#000000" stroke="none" font-family="Arial" font-size="13px" font-style="normal" font-weight="bold" text-decoration="none" x="288.55908203125" y="335">Parser</text></g></g><g transform="translate(-198,-30) scale(1,1)"><rect fill="#C0C0C0" stroke="none" x="639" y="159" width="184.21435546875" height="104" opacity="0.2"/></g><g transform="translate(-198,-30) scale(1,1)"><rect fill="#ffffff" stroke="none" x="632" y="152" width="184.21435546875" height="104"/></g><g transform="translate(-198,-30) scale(1,1)"><path fill="none" stroke="#000000" d="M 632 152 L 816.21435546875 152 L 816.21435546875 256 L 632 256 L 632 152 Z Z" stroke-miterlimit="10"/></g><g transform="translate(-198,-30) scale(1,1)"><path fill="none" stroke="#000000" d="M 632 190 L 816.21435546875 190" stroke-miterlimit="10"/></g><g transform="translate(-198,-30) scale(1,1)"><path fill="none" stroke="#000000" d="M 632 213 L 816.21435546875 213" stroke-miterlimit="10"/></g><g transform="translate(-198,-30) scale(1,1)"><g><path fill="none" stroke="none"/><text fill="#000000" stroke="none" font-family="Arial" font-size="13px" font-style="normal" font-weight="normal" text-decoration="none" x="697.36767578125" y="168">«control»</text></g></g><g transform="translate(-198,-30) scale(1,1)"><g><path fill="none" stroke="none"/><text fill="#000000" stroke="none" font-family="Arial" font-size="13px" font-style="normal" font-weight="bold" text-decoration="none" x="636.598388671875" y="183">WordleWordSmithController</text></g></g><g transform="translate(-198,-30) scale(1,1)"><g><path fill="none" stroke="none"/><text fill="#000000" stroke="none" font-family="Arial" font-size="13px" font-style="normal" font-weight="normal" text-decoration="none" x="637" y="206">-session: WordleSession</text></g></g><g transform="translate(-198,-30) scale(1,1)"><g><path fill="none" stroke="none"/><text fill="#000000" stroke="none" font-family="Arial" font-size="13px" font-style="normal" font-weight="normal" text-decoration="none" x="637" y="229">+setSecretWord()</text></g></g><g transform="translate(-198,-30) scale(1,1)"><path fill="none" stroke="#000000" d="M 309 244 L 308 303" stroke-miterlimit="10"/></g><g transform="translate(-198,-30) scale(1,1)"><path fill="none" stroke="#000000" d="M 303.96331074622276 292.76744705029876 L 308 303 L 312.3811372346954 292.9101220755271" stroke-miterlimit="10"/></g><g transform="translate(-198,-30) scale(1,1)"><g><path fill="none" stroke="none"/><text fill="#000000" stroke="none" font-family="Arial" font-size="13px" font-style="normal" font-weight="normal" text-decoration="none" x="319.13134765625" y="299">-PARSER</text></g></g><g transform="translate(-198,-30) scale(1,1)"><g><path fill="none" stroke="none"/><text fill="#000000" stroke="none" font-family="Arial" font-size="13px" font-style="normal" font-weight="normal" text-decoration="none" x="291.5" y="298">1</text></g></g><g transform="translate(-198,-30) scale(1,1)"><rect fill="#C0C0C0" stroke="none" x="439" y="311" width="134.72802734375" height="57" opacity="0.2"/></g><g transform="translate(-198,-30) scale(1,1)"><rect fill="#ffffff" stroke="none" x="432" y="304" width="134.72802734375" height="57"/></g><g transform="translate(-198,-30) scale(1,1)"><path fill="none" stroke="#000000" d="M 432 304 L 566.72802734375 304 L 566.72802734375 361 L 432 361 L 432 304 Z Z" stroke-miterlimit="10"/></g><g transform="translate(-198,-30) scale(1,1)"><path fill="none" stroke="#000000" d="M 432 342 L 566.72802734375 342" stroke-miterlimit="10"/></g><g transform="translate(-198,-30) scale(1,1)"><path fill="none" stroke="#000000" d="M 432 352 L 566.72802734375 352" stroke-miterlimit="10"/></g><g transform="translate(-198,-30) scale(1,1)"><g><path fill="none" stroke="none"/><text fill="#000000" stroke="none" font-family="Arial" font-size="13px" font-style="normal" font-weight="normal" text-decoration="none" x="465.029541015625" y="320">«boundary»</text></g></g><g transform="translate(-198,-30) scale(1,1)"><g><path fill="none" stroke="none"/><text fill="#000000" stroke="none" font-family="Arial" font-size="13px" font-style="normal" font-weight="bold" text-decoration="none" x="478.41357421875" y="335">Printer</text></g></g><g transform="translate(-198,-30) scale(1,1)"><path fill="none" stroke="#000000" d="M 371 244 L 457 303" stroke-miterlimit="10"/></g><g transform="translate(-198,-30) scale(1,1)"><path fill="none" stroke="#000000" d="M 446.23846159037004 300.7219984508218 L 457 303 L 451.0012335575285 293.7796528715738" stroke-miterlimit="10"/></g><g transform="translate(-198,-30) scale(1,1)"><g><path fill="none" stroke="none"/><text fill="#000000" stroke="none" font-family="Arial" font-size="13px" font-style="normal" font-weight="normal" text-decoration="none" x="460.64404296875" y="299">-console</text></g></g><g transform="translate(-198,-30) scale(1,1)"><g><path fill="none" stroke="none"/><text fill="#000000" stroke="none" font-family="Arial" font-size="13px" font-style="normal" font-weight="normal" text-decoration="none" x="423.5" y="298">1</text></g></g><g transform="translate(-198,-30) scale(1,1)"><path fill="none" stroke="#000000" d="M 412 202 L 631 203" stroke-miterlimit="10"/></g><g transform="translate(-198,-30) scale(1,1)"><path fill="none" stroke="#000000" d="M 620.8182097461168 207.16306944764682 L 631 203 L 620.8566524298785 198.74412170384173" stroke-miterlimit="10"/></g><g transform="translate(-198,-30) scale(1,1)"><g><path fill="none" stroke="none"/><text fill="#000000" stroke="none" font-family="Arial" font-size="13px" font-style="normal" font-weight="normal" text-decoration="none" x="425.13134765625" y="194">-WORDSMITH_CONTROLLER</text></g></g><g transform="translate(-198,-30) scale(1,1)"><g><path fill="none" stroke="none"/><text fill="#000000" stroke="none" font-family="Arial" font-size="13px" font-style="normal" font-weight="normal" text-decoration="none" x="605.5" y="220">1</text></g></g><g transform="translate(-198,-30) scale(1,1)"><rect fill="#C0C0C0" stroke="none" x="463" y="47" width="105.052734375" height="57" opacity="0.2"/></g><g transform="translate(-198,-30) scale(1,1)"><rect fill="#ffffff" stroke="none" x="456" y="40" width="105.052734375" height="57"/></g><g transform="translate(-198,-30) scale(1,1)"><path fill="none" stroke="#000000" d="M 456 40 L 561.052734375 40 L 561.052734375 97 L 456 97 L 456 40 Z Z" stroke-miterlimit="10"/></g><g transform="translate(-198,-30) scale(1,1)"><path fill="none" stroke="#000000" d="M 456 65 L 561.052734375 65" stroke-miterlimit="10"/></g><g transform="translate(-198,-30) scale(1,1)"><path fill="none" stroke="#000000" d="M 456 75 L 561.052734375 75" stroke-miterlimit="10"/></g><g transform="translate(-198,-30) scale(1,1)"><g><path fill="none" stroke="none"/><text fill="#000000" stroke="none" font-family="Arial" font-size="13px" font-style="normal" font-weight="bold" text-decoration="none" x="462.305908203125" y="58">App.Command</text></g></g><g transform="translate(-198,-30) scale(1,1)"><g><path fill="none" stroke="none"/><text fill="#000000" stroke="none" font-family="Arial" font-size="13px" font-style="normal" font-weight="normal" text-decoration="none" x="461" y="91">+execute()</text></g></g><g transform="translate(-198,-30) scale(1,1)"><path fill="none" stroke="#000000" d="M 372 159 L 463 98" stroke-miterlimit="10" stroke-dasharray="3"/></g><g transform="translate(-198,-30) scale(1,1)"><path fill="none" stroke="#000000" d="M 456.9023219131426 107.15523467471255 L 463 98 L 452.21456195344706 100.16201899713397" stroke-miterlimit="10"/></g><g transform="translate(-198,-30) scale(1,1)"><g><path fill="none" stroke="none"/><text fill="#000000" stroke="none" font-family="Arial" font-size="13px" font-style="normal" font-weight="normal" text-decoration="none" x="383.5" y="107">«call»</text></g></g></g></svg>