<?xml version="1.0" encoding="utf-8"?>
<!-- Generator: Adobe Illustrator 24.0.0, SVG Export Plug-In . SVG Version: 6.00 Build 0)  -->
<svg version="1.1" id="Livello_1" xmlns="http://www.w3.org/2000/svg" xmlns:xlink="http://www.w3.org/1999/xlink" x="0px" y="0px"
	 viewBox="0 0 828.2 561" style="enable-background:new 0 0 828.2 561;" xml:space="preserve">
<style type="text/css">
	.st0{opacity:0.2;fill:#C0C0C0;enable-background:new    ;}
	.st1{fill:#FFFFFF;}
	.st2{fill:none;stroke:#000000;stroke-miterlimit:10;}
	.st3{font-family:'ArialMT';}
	.st4{font-size:13px;}
	.st5{font-family:'Arial-BoldMT';}
	.st6{fill:none;stroke:#000000;stroke-miterlimit:10;stroke-dasharray:3;}
</style>
<g>
	<g transform="translate(-222,-86) scale(1,1)">
		<rect x="239" y="167" class="st0" width="202.7" height="83"/>
	</g>
	<g transform="translate(-222,-86) scale(1,1)">
		<rect x="232" y="160" class="st1" width="202.7" height="83"/>
	</g>
	<g transform="translate(-222,-86) scale(1,1)">
		<path class="st2" d="M232,160h202.7v83H232V160z"/>
	</g>
	<g transform="translate(-222,-86) scale(1,1)">
		<path class="st2" d="M232,198h202.7"/>
	</g>
	<g transform="translate(-222,-86) scale(1,1)">
		<path class="st2" d="M232,221h202.7"/>
	</g>
	<g transform="translate(-222,-86) scale(1,1)">
		<g>
			<path class="st2" d="M0,0"/>
			<text transform="matrix(1 0 0 1 299.0149 176)" class="st3 st4">«boundary»</text>
		</g>
	</g>
	<g transform="translate(-222,-86) scale(1,1)">
		<g>
			<path d="M0,0"/>
			<text transform="matrix(1 0 0 1 320.7144 191)" class="st5 st4">App</text>
		</g>
	</g>
	<g transform="translate(-222,-86) scale(1,1)">
		<g>
			<path d="M0,0"/>
			<text transform="matrix(1 0 0 1 237 214)" class="st3 st4">~keyboardInput: Scanner</text>
			<path class="st2" d="M237,215.5h145.6"/>
		</g>
	</g>
	<g transform="translate(-222,-86) scale(1,1)">
		<g>
			<path class="st2" d="M0,0"/>
			<text transform="matrix(1 0 0 1 237 237)" class="st3 st4">+executeGuess()</text>
			<path class="st2" d="M237,238.5h99.4"/>
		</g>
	</g>
	<g transform="translate(-222,-86) scale(1,1)">
		<rect x="271" y="343" class="st0" width="137.6" height="57"/>
	</g>
	<g transform="translate(-222,-86) scale(1,1)">
		<rect x="264" y="336" class="st1" width="137.6" height="57"/>
	</g>
	<g transform="translate(-222,-86) scale(1,1)">
		<path class="st2" d="M264,336h137.6v57H264V336z"/>
	</g>
	<g transform="translate(-222,-86) scale(1,1)">
		<path class="st2" d="M264,374h137.6"/>
	</g>
	<g transform="translate(-222,-86) scale(1,1)">
		<path class="st2" d="M264,384h137.6"/>
	</g>
	<g transform="translate(-222,-86) scale(1,1)">
		<g>
			<path class="st2" d="M0,0"/>
			<text transform="matrix(1 0 0 1 298.4641 352)" class="st3 st4">«boundary»</text>
		</g>
	</g>
	<g transform="translate(-222,-86) scale(1,1)">
		<g>
			<path d="M0,0"/>
			<text transform="matrix(1 0 0 1 312.5591 367)" class="st5 st4">Parser</text>
		</g>
	</g>
	<g transform="translate(-222,-86) scale(1,1)">
		<rect x="551" y="391" class="st0" width="138" height="96"/>
	</g>
	<g transform="translate(-222,-86) scale(1,1)">
		<rect x="544" y="384" class="st1" width="138" height="96"/>
	</g>
	<g transform="translate(-222,-86) scale(1,1)">
		<path class="st2" d="M544,384h138v96H544V384z"/>
	</g>
	<g transform="translate(-222,-86) scale(1,1)">
		<path class="st2" d="M544,422h138"/>
	</g>
	<g transform="translate(-222,-86) scale(1,1)">
		<path class="st2" d="M544,432h138"/>
	</g>
	<g transform="translate(-222,-86) scale(1,1)">
		<g>
			<path class="st2" d="M0,0"/>
			<text transform="matrix(1 0 0 1 578.6609 400)" class="st3 st4">«boundary»</text>
		</g>
	</g>
	<g transform="translate(-222,-86) scale(1,1)">
		<g>
			<path d="M0,0"/>
			<text transform="matrix(1 0 0 1 592.0449 415)" class="st5 st4">Printer</text>
		</g>
	</g>
	<g transform="translate(-222,-86) scale(1,1)">
		<g>
			<path d="M0,0"/>
			<text transform="matrix(1 0 0 1 549 448)" class="st3 st4">+printBoard()</text>
		</g>
	</g>
	<g transform="translate(-222,-86) scale(1,1)">
		<g>
			<path d="M0,0"/>
			<text transform="matrix(1 0 0 1 549 463)" class="st3 st4">+printGuessResult()</text>
		</g>
	</g>
	<g transform="translate(-222,-86) scale(1,1)">
		<rect x="559" y="103" class="st0" width="184.2" height="208"/>
	</g>
	<g transform="translate(-222,-86) scale(1,1)">
		<rect x="552" y="96" class="st1" width="184.2" height="208"/>
	</g>
	<g transform="translate(-222,-86) scale(1,1)">
		<path class="st2" d="M552,96h184.2v208H552V96z"/>
	</g>
	<g transform="translate(-222,-86) scale(1,1)">
		<path class="st2" d="M552,134h184.2"/>
	</g>
	<g transform="translate(-222,-86) scale(1,1)">
		<path class="st2" d="M552,187h184.2"/>
	</g>
	<g transform="translate(-222,-86) scale(1,1)">
		<g>
			<path class="st2" d="M0,0"/>
			<text transform="matrix(1 0 0 1 617.3677 112)" class="st3 st4">«control»</text>
		</g>
	</g>
	<g transform="translate(-222,-86) scale(1,1)">
		<g>
			<path d="M0,0"/>
			<text transform="matrix(1 0 0 1 622.1982 127)" class="st5 st4">Wordle</text>
		</g>
	</g>
	<g transform="translate(-222,-86) scale(1,1)">
		<g>
			<path d="M0,0"/>
			<text transform="matrix(1 0 0 1 557 150)" class="st3 st4">-secretWord: String</text>
			<path class="st2" d="M557,151.5h111.7"/>
		</g>
	</g>
	<g transform="translate(-222,-86) scale(1,1)">
		<g>
			<path class="st2" d="M0,0"/>
			<text transform="matrix(1 0 0 1 557 165)" class="st3 st4">-nMaxGuesses: int</text>
			<path class="st2" d="M557,166.5h108.4"/>
		</g>
	</g>
	<g transform="translate(-222,-86) scale(1,1)">
		<g>
			<path class="st2" d="M0,0"/>
			<text transform="matrix(1 0 0 1 557 180)" class="st3 st4">-wordLength: int</text>
			<path class="st2" d="M557,181.5h93.2"/>
		</g>
	</g>
	<g transform="translate(-222,-86) scale(1,1)">
		<g>
			<path class="st2" d="M0,0"/>
			<text transform="matrix(1 0 0 1 557 205)" class="st3 st4">+guess()</text>
			<path class="st2" d="M557,206.5h50.9"/>
		</g>
	</g>
	<g transform="translate(-222,-86) scale(1,1)">
		<g>
			<path class="st2" d="M0,0"/>
			<text transform="matrix(1 0 0 1 557 220)" class="st3 st4">+getGuessResult()</text>
			<path class="st2" d="M557,221.5h108.7"/>
		</g>
	</g>
	<g transform="translate(-222,-86) scale(1,1)">
		<g>
			<path class="st2" d="M0,0"/>
			<text transform="matrix(1 0 0 1 557 235)" class="st3 st4">+getNumRemainingGuesses()</text>
			<path class="st2" d="M557,236.5h175.2"/>
		</g>
	</g>
	<g transform="translate(-222,-86) scale(1,1)">
		<g>
			<path class="st2" d="M0,0"/>
			<text transform="matrix(1 0 0 1 557 250)" class="st3 st4">+getMaxGuesses()</text>
			<path class="st2" d="M557,251.5h110.2"/>
		</g>
	</g>
	<g transform="translate(-222,-86) scale(1,1)">
		<g>
			<path class="st2" d="M0,0"/>
			<text transform="matrix(1 0 0 1 557 265)" class="st3 st4">+getWordLength()</text>
			<path class="st2" d="M557,266.5h104.9"/>
		</g>
	</g>
	<g transform="translate(-222,-86) scale(1,1)">
		<g>
			<path class="st2" d="M0,0"/>
			<text transform="matrix(1 0 0 1 557 280)" class="st3 st4">+getLetter()</text>
			<path class="st2" d="M557,281.5h67.6"/>
		</g>
	</g>
	<g transform="translate(-222,-86) scale(1,1)">
		<g>
			<path class="st2" d="M0,0"/>
			<text transform="matrix(1 0 0 1 557 295)" class="st3 st4">+getColor()</text>
			<path class="st2" d="M557,296.5h65.4"/>
		</g>
	</g>
	<g transform="translate(-222,-86) scale(1,1)">
		<rect x="863" y="167" class="st0" width="184.2" height="70"/>
	</g>
	<g transform="translate(-222,-86) scale(1,1)">
		<rect x="856" y="160" class="st1" width="184.2" height="70"/>
	</g>
	<g transform="translate(-222,-86) scale(1,1)">
		<path class="st2" d="M856,160h184.2v70H856V160z"/>
	</g>
	<g transform="translate(-222,-86) scale(1,1)">
		<path class="st2" d="M856,198h184.2"/>
	</g>
	<g transform="translate(-222,-86) scale(1,1)">
		<path class="st2" d="M856,221h184.2"/>
	</g>
	<g transform="translate(-222,-86) scale(1,1)">
		<g>
			<path class="st2" d="M0,0"/>
			<text transform="matrix(1 0 0 1 925.3413 176)" class="st3 st4">«entity»</text>
		</g>
	</g>
	<g transform="translate(-222,-86) scale(1,1)">
		<g>
			<path d="M0,0"/>
			<text transform="matrix(1 0 0 1 908.1328 191)" class="st5 st4">WordleGame</text>
		</g>
	</g>
	<g transform="translate(-222,-86) scale(1,1)">
		<g>
			<path d="M0,0"/>
			<text transform="matrix(1 0 0 1 861 214)" class="st3 st4">-secretWord: String</text>
		</g>
	</g>
	<g transform="translate(-222,-86) scale(1,1)">
		<rect x="887" y="295" class="st0" width="134.3" height="104"/>
	</g>
	<g transform="translate(-222,-86) scale(1,1)">
		<rect x="880" y="288" class="st1" width="134.3" height="104"/>
	</g>
	<g transform="translate(-222,-86) scale(1,1)">
		<path class="st2" d="M880,288h134.3v104H880V288z"/>
	</g>
	<g transform="translate(-222,-86) scale(1,1)">
		<path class="st2" d="M880,326h134.3"/>
	</g>
	<g transform="translate(-222,-86) scale(1,1)">
		<path class="st2" d="M880,364h134.3"/>
	</g>
	<g transform="translate(-222,-86) scale(1,1)">
		<g>
			<path class="st2" d="M0,0"/>
			<text transform="matrix(1 0 0 1 924.4045 304)" class="st3 st4">«entity»</text>
		</g>
	</g>
	<g transform="translate(-222,-86) scale(1,1)">
		<g>
			<path d="M0,0"/>
			<text transform="matrix(1 0 0 1 928.3909 319)" class="st5 st4">Board</text>
		</g>
	</g>
	<g transform="translate(-222,-86) scale(1,1)">
		<g>
			<path d="M0,0"/>
			<text transform="matrix(1 0 0 1 885 342)" class="st3 st4">-firstEmptyIndex: int</text>
		</g>
	</g>
	<g transform="translate(-222,-86) scale(1,1)">
		<g>
			<path d="M0,0"/>
			<text transform="matrix(1 0 0 1 885 357)" class="st3 st4">-wordLength: int</text>
		</g>
	</g>
	<g transform="translate(-222,-86) scale(1,1)">
		<g>
			<path d="M0,0"/>
			<text transform="matrix(1 0 0 1 885 380)" class="st3 st4">+acceptNewGuess()</text>
		</g>
	</g>
	<g transform="translate(-222,-86) scale(1,1)">
		<rect x="911" y="455" class="st0" width="89.6" height="57"/>
	</g>
	<g transform="translate(-222,-86) scale(1,1)">
		<rect x="904" y="448" class="st1" width="89.6" height="57"/>
	</g>
	<g transform="translate(-222,-86) scale(1,1)">
		<path class="st2" d="M904,448h89.6v57H904V448z"/>
	</g>
	<g transform="translate(-222,-86) scale(1,1)">
		<path class="st2" d="M904,486h89.6"/>
	</g>
	<g transform="translate(-222,-86) scale(1,1)">
		<path class="st2" d="M904,496h89.6"/>
	</g>
	<g transform="translate(-222,-86) scale(1,1)">
		<g>
			<path class="st2" d="M0,0"/>
			<text transform="matrix(1 0 0 1 926.0195 464)" class="st3 st4">«entity»</text>
		</g>
	</g>
	<g transform="translate(-222,-86) scale(1,1)">
		<g>
			<path d="M0,0"/>
			<text transform="matrix(1 0 0 1 928.9141 479)" class="st5 st4">Guess</text>
		</g>
	</g>
	<g transform="translate(-222,-86) scale(1,1)">
		<path class="st2" d="M737,198l118-1"/>
	</g>
	<g transform="translate(-222,-86) scale(1,1)">
		<path class="st2" d="M844.9,201.3L855,197l-10.2-4.1"/>
	</g>
	<g transform="translate(-222,-86) scale(1,1)">
		<g>
			<path class="st2" d="M0,0"/>
			<text transform="matrix(1 0 0 1 768.1313 187)" class="st3 st4">-currentGame</text>
		</g>
	</g>
	<g transform="translate(-222,-86) scale(1,1)">
		<g>
			<path d="M0,0"/>
			<text transform="matrix(1 0 0 1 822.5 214)" class="st3 st4">0..1</text>
		</g>
	</g>
	<g transform="translate(-222,-86) scale(1,1)">
		<path class="st2" d="M948,231l-1,56"/>
	</g>
	<g transform="translate(-222,-86) scale(1,1)">
		<path class="st2" d="M943,276.8l4,10.2l4.4-10.1"/>
	</g>
	<g transform="translate(-222,-86) scale(1,1)">
		<g>
			<path class="st2" d="M0,0"/>
			<text transform="matrix(1 0 0 1 951.1313 274)" class="st3 st4">-gameBoard</text>
		</g>
	</g>
	<g transform="translate(-222,-86) scale(1,1)">
		<g>
			<path d="M0,0"/>
			<text transform="matrix(1 0 0 1 930.5 282)" class="st3 st4">1</text>
		</g>
	</g>
	<g transform="translate(-222,-86) scale(1,1)">
		<path class="st2" d="M947,393l1,54"/>
	</g>
	<g transform="translate(-222,-86) scale(1,1)">
		<path class="st2" d="M943.6,436.9L948,447l4-10.2"/>
	</g>
	<g transform="translate(-222,-86) scale(1,1)">
		<g>
			<path class="st2" d="M0,0"/>
			<text transform="matrix(1 0 0 1 919.5 435)" class="st3 st4">0..6</text>
		</g>
	</g>
	<g transform="translate(-222,-86) scale(1,1)">
		<path class="st6" d="M436,201l115-1"/>
	</g>
	<g transform="translate(-222,-86) scale(1,1)">
		<path class="st2" d="M540.9,204.3L551,200l-10.2-4.1"/>
	</g>
	<g transform="translate(-222,-86) scale(1,1)">
		<g>
			<path class="st2" d="M0,0"/>
			<text transform="matrix(1 0 0 1 476.5 191)" class="st3 st4">«call»</text>
		</g>
	</g>
	<g transform="translate(-222,-86) scale(1,1)">
		<path class="st2" d="M385,244l168,139"/>
	</g>
	<g transform="translate(-222,-86) scale(1,1)">
		<path class="st2" d="M542.5,379.8L553,383l-5.1-9.7"/>
	</g>
	<g transform="translate(-222,-86) scale(1,1)">
		<g>
			<path class="st2" d="M0,0"/>
			<text transform="matrix(1 0 0 1 543.5 363)" class="st3 st4">~consoleOutput</text>
		</g>
	</g>
	<g transform="translate(-222,-86) scale(1,1)">
		<g>
			<path d="M0,0"/>
			<text transform="matrix(1 0 0 1 510.5 387)" class="st3 st4">1</text>
		</g>
	</g>
	<g transform="translate(-222,-86) scale(1,1)">
		<path class="st2" d="M333,244l-1,91"/>
	</g>
	<g transform="translate(-222,-86) scale(1,1)">
		<path class="st2" d="M327.9,324.8L332,335l4.3-10.1"/>
	</g>
	<g transform="translate(-222,-86) scale(1,1)">
		<g>
			<path class="st2" d="M0,0"/>
			<text transform="matrix(1 0 0 1 315.5 318)" class="st3 st4">1</text>
		</g>
	</g>
	<g transform="translate(-222,-86) scale(1,1)">
		<rect x="903" y="559" class="st0" width="109.8" height="85"/>
	</g>
	<g transform="translate(-222,-86) scale(1,1)">
		<rect x="896" y="552" class="st1" width="109.8" height="85"/>
	</g>
	<g transform="translate(-222,-86) scale(1,1)">
		<path class="st2" d="M896,552h109.8v85H896V552z"/>
	</g>
	<g transform="translate(-222,-86) scale(1,1)">
		<path class="st2" d="M896,590h109.8"/>
	</g>
	<g transform="translate(-222,-86) scale(1,1)">
		<path class="st2" d="M896,628h109.8"/>
	</g>
	<g transform="translate(-222,-86) scale(1,1)">
		<g>
			<path class="st2" d="M0,0"/>
			<text transform="matrix(1 0 0 1 928.1313 568)" class="st3 st4">«entity»</text>
		</g>
	</g>
	<g transform="translate(-222,-86) scale(1,1)">
		<g>
			<path d="M0,0"/>
			<text transform="matrix(1 0 0 1 920.5586 583)" class="st5 st4">LetterBox</text>
		</g>
	</g>
	<g transform="translate(-222,-86) scale(1,1)">
		<g>
			<path d="M0,0"/>
			<text transform="matrix(1 0 0 1 901 606)" class="st3 st4">-letter: Character</text>
		</g>
	</g>
	<g transform="translate(-222,-86) scale(1,1)">
		<g>
			<path d="M0,0"/>
			<text transform="matrix(1 0 0 1 901 621)" class="st3 st4">-color: Color</text>
		</g>
	</g>
	<g transform="translate(-222,-86) scale(1,1)">
		<path class="st2" d="M949,506v45"/>
	</g>
	<g transform="translate(-222,-86) scale(1,1)">
		<path class="st2" d="M944.8,540.8L949,551l4.2-10.2"/>
	</g>
	<g transform="translate(-222,-86) scale(1,1)">
		<g>
			<path class="st2" d="M0,0"/>
			<text transform="matrix(1 0 0 1 932.5 543)" class="st3 st4">5</text>
		</g>
	</g>
</g>
</svg>
