<?xml version="1.0" encoding="utf-8"?>
<!-- Generator: Adobe Illustrator 24.0.0, SVG Export Plug-In . SVG Version: 6.00 Build 0)  -->
<svg version="1.1" id="Livello_1" xmlns="http://www.w3.org/2000/svg" xmlns:xlink="http://www.w3.org/1999/xlink" x="0px" y="0px"
	 viewBox="0 0 668 777" style="enable-background:new 0 0 668 777;" xml:space="preserve">
<style type="text/css">
	.st0{opacity:0.2;fill:#C0C0C0;enable-background:new    ;}
	.st1{fill:#FFFFFF;}
	.st2{fill:none;stroke:#000000;stroke-miterlimit:10;}
	.st3{font-family:'ArialMT';}
	.st4{font-size:13px;}
	.st5{font-family:'Arial-BoldMT';}
	.st6{fill:none;stroke:#000000;stroke-miterlimit:10;stroke-dasharray:3;}
</style>
<g>
	<g transform="translate(-134,-46) scale(1,1)">
		<rect x="199" y="191" class="st0" width="202.7" height="83"/>
	</g>
	<g transform="translate(-134,-46) scale(1,1)">
		<rect x="192" y="184" class="st1" width="202.7" height="83"/>
	</g>
	<g transform="translate(-134,-46) scale(1,1)">
		<path class="st2" d="M192,184h202.7v83H192V184z"/>
	</g>
	<g transform="translate(-134,-46) scale(1,1)">
		<path class="st2" d="M192,222h202.7"/>
	</g>
	<g transform="translate(-134,-46) scale(1,1)">
		<path class="st2" d="M192,245h202.7"/>
	</g>
	<g transform="translate(-134,-46) scale(1,1)">
		<g>
			<path class="st2" d="M0,0"/>
			<text transform="matrix(1 0 0 1 259.0149 200)" class="st3 st4">«boundary»</text>
		</g>
	</g>
	<g transform="translate(-134,-46) scale(1,1)">
		<g>
			<path d="M0,0"/>
			<text transform="matrix(1 0 0 1 280.7144 215)" class="st5 st4">App</text>
		</g>
	</g>
	<g transform="translate(-134,-46) scale(1,1)">
		<g>
			<path d="M0,0"/>
			<text transform="matrix(1 0 0 1 197 238)" class="st3 st4">-keyboard: Scanner</text>
			<path class="st2" d="M197,239.5h113.5"/>
		</g>
	</g>
	<g transform="translate(-134,-46) scale(1,1)">
		<rect x="151" y="327" class="st0" width="137.6" height="57"/>
	</g>
	<g transform="translate(-134,-46) scale(1,1)">
		<rect x="144" y="320" class="st1" width="137.6" height="57"/>
	</g>
	<g transform="translate(-134,-46) scale(1,1)">
		<path class="st2" d="M144,320h137.6v57H144V320z"/>
	</g>
	<g transform="translate(-134,-46) scale(1,1)">
		<path class="st2" d="M144,358h137.6"/>
	</g>
	<g transform="translate(-134,-46) scale(1,1)">
		<path class="st2" d="M144,368h137.6"/>
	</g>
	<g transform="translate(-134,-46) scale(1,1)">
		<g>
			<path class="st2" d="M0,0"/>
			<text transform="matrix(1 0 0 1 178.4641 336)" class="st3 st4">«boundary»</text>
		</g>
	</g>
	<g transform="translate(-134,-46) scale(1,1)">
		<g>
			<path d="M0,0"/>
			<text transform="matrix(1 0 0 1 192.5591 351)" class="st5 st4">Parser</text>
		</g>
	</g>
	<g transform="translate(-134,-46) scale(1,1)">
		<rect x="383" y="311" class="st0" width="138" height="96"/>
	</g>
	<g transform="translate(-134,-46) scale(1,1)">
		<rect x="376" y="304" class="st1" width="138" height="96"/>
	</g>
	<g transform="translate(-134,-46) scale(1,1)">
		<path class="st2" d="M376,304h138v96H376V304z"/>
	</g>
	<g transform="translate(-134,-46) scale(1,1)">
		<path class="st2" d="M376,342h138"/>
	</g>
	<g transform="translate(-134,-46) scale(1,1)">
		<path class="st2" d="M376,352h138"/>
	</g>
	<g transform="translate(-134,-46) scale(1,1)">
		<g>
			<path class="st2" d="M0,0"/>
			<text transform="matrix(1 0 0 1 410.6609 320)" class="st3 st4">«boundary»</text>
		</g>
	</g>
	<g transform="translate(-134,-46) scale(1,1)">
		<g>
			<path d="M0,0"/>
			<text transform="matrix(1 0 0 1 402.136 335)" class="st5 st4">WordlePrinter</text>
		</g>
	</g>
	<g transform="translate(-134,-46) scale(1,1)">
		<g>
			<path d="M0,0"/>
			<text transform="matrix(1 0 0 1 381 368)" class="st3 st4">+printBoard()</text>
		</g>
	</g>
	<g transform="translate(-134,-46) scale(1,1)">
		<g>
			<path d="M0,0"/>
			<text transform="matrix(1 0 0 1 381 383)" class="st3 st4">+printGuessResult()</text>
		</g>
	</g>
	<g transform="translate(-134,-46) scale(1,1)">
		<rect x="591" y="151" class="st0" width="208" height="162"/>
	</g>
	<g transform="translate(-134,-46) scale(1,1)">
		<rect x="584" y="144" class="st1" width="208" height="162"/>
	</g>
	<g transform="translate(-134,-46) scale(1,1)">
		<path class="st2" d="M584,144h208v162H584V144z"/>
	</g>
	<g transform="translate(-134,-46) scale(1,1)">
		<path class="st2" d="M584,182h208"/>
	</g>
	<g transform="translate(-134,-46) scale(1,1)">
		<path class="st2" d="M584,192h208"/>
	</g>
	<g transform="translate(-134,-46) scale(1,1)">
		<g>
			<path class="st2" d="M0,0"/>
			<text transform="matrix(1 0 0 1 661.2605 160)" class="st3 st4">«control»</text>
		</g>
	</g>
	<g transform="translate(-134,-46) scale(1,1)">
		<g>
			<path d="M0,0"/>
			<text transform="matrix(1 0 0 1 615.5193 175)" class="st5 st4">WordlePlayerController</text>
		</g>
	</g>
	<g transform="translate(-134,-46) scale(1,1)">
		<g>
			<path d="M0,0"/>
			<text transform="matrix(1 0 0 1 589 210)" class="st3 st4">+guess()</text>
		</g>
	</g>
	<g transform="translate(-134,-46) scale(1,1)">
		<g>
			<path d="M0,0"/>
			<text transform="matrix(1 0 0 1 589 225)" class="st3 st4">+getGuessResult()</text>
		</g>
	</g>
	<g transform="translate(-134,-46) scale(1,1)">
		<g>
			<path d="M0,0"/>
			<text transform="matrix(1 0 0 1 589 240)" class="st3 st4">+getNumRemainingGuesses()</text>
		</g>
	</g>
	<g transform="translate(-134,-46) scale(1,1)">
		<g>
			<path d="M0,0"/>
			<text transform="matrix(1 0 0 1 589 255)" class="st3 st4">+getMaxGuesses()</text>
		</g>
	</g>
	<g transform="translate(-134,-46) scale(1,1)">
		<g>
			<path d="M0,0"/>
			<text transform="matrix(1 0 0 1 589 270)" class="st3 st4">+getWordLength()</text>
		</g>
	</g>
	<g transform="translate(-134,-46) scale(1,1)">
		<g>
			<path d="M0,0"/>
			<text transform="matrix(1 0 0 1 589 285)" class="st3 st4">+getLetter()</text>
		</g>
	</g>
	<g transform="translate(-134,-46) scale(1,1)">
		<g>
			<path d="M0,0"/>
			<text transform="matrix(1 0 0 1 589 300)" class="st3 st4">+getColor()</text>
		</g>
	</g>
	<g transform="translate(-134,-46) scale(1,1)">
		<rect x="607" y="503" class="st0" width="184.2" height="72"/>
	</g>
	<g transform="translate(-134,-46) scale(1,1)">
		<rect x="600" y="496" class="st1" width="184.2" height="72"/>
	</g>
	<g transform="translate(-134,-46) scale(1,1)">
		<path class="st2" d="M600,496h184.2v72H600V496z"/>
	</g>
	<g transform="translate(-134,-46) scale(1,1)">
		<path class="st2" d="M600,534h184.2"/>
	</g>
	<g transform="translate(-134,-46) scale(1,1)">
		<path class="st2" d="M600,557h184.2"/>
	</g>
	<g transform="translate(-134,-46) scale(1,1)">
		<g>
			<path class="st2" d="M0,0"/>
			<text transform="matrix(1 0 0 1 669.3413 512)" class="st3 st4">«entity»</text>
		</g>
	</g>
	<g transform="translate(-134,-46) scale(1,1)">
		<g>
			<path d="M0,0"/>
			<text transform="matrix(1 0 0 1 652.1328 527)" class="st5 st4">WordleGame</text>
		</g>
	</g>
	<g transform="translate(-134,-46) scale(1,1)">
		<g>
			<path d="M0,0"/>
			<text transform="matrix(1 0 0 1 605 550)" class="st3 st4">-secretWord: String</text>
		</g>
	</g>
	<g transform="translate(-134,-46) scale(1,1)">
		<rect x="383" y="487" class="st0" width="134.3" height="104"/>
	</g>
	<g transform="translate(-134,-46) scale(1,1)">
		<rect x="376" y="480" class="st1" width="134.3" height="104"/>
	</g>
	<g transform="translate(-134,-46) scale(1,1)">
		<path class="st2" d="M376,480h134.3v104H376V480z"/>
	</g>
	<g transform="translate(-134,-46) scale(1,1)">
		<path class="st2" d="M376,518h134.3"/>
	</g>
	<g transform="translate(-134,-46) scale(1,1)">
		<path class="st2" d="M376,556h134.3"/>
	</g>
	<g transform="translate(-134,-46) scale(1,1)">
		<g>
			<path class="st2" d="M0,0"/>
			<text transform="matrix(1 0 0 1 420.4045 496)" class="st3 st4">«entity»</text>
		</g>
	</g>
	<g transform="translate(-134,-46) scale(1,1)">
		<g>
			<path d="M0,0"/>
			<text transform="matrix(1 0 0 1 424.3909 511)" class="st5 st4">Board</text>
		</g>
	</g>
	<g transform="translate(-134,-46) scale(1,1)">
		<g>
			<path d="M0,0"/>
			<text transform="matrix(1 0 0 1 381 534)" class="st3 st4">-firstEmptyIndex: int</text>
		</g>
	</g>
	<g transform="translate(-134,-46) scale(1,1)">
		<g>
			<path d="M0,0"/>
			<text transform="matrix(1 0 0 1 381 549)" class="st3 st4">-wordLength: int</text>
		</g>
	</g>
	<g transform="translate(-134,-46) scale(1,1)">
		<g>
			<path d="M0,0"/>
			<text transform="matrix(1 0 0 1 381 572)" class="st3 st4">+acceptNewGuess()</text>
		</g>
	</g>
	<g transform="translate(-134,-46) scale(1,1)">
		<rect x="407" y="639" class="st0" width="89.6" height="57"/>
	</g>
	<g transform="translate(-134,-46) scale(1,1)">
		<rect x="400" y="632" class="st1" width="89.6" height="57"/>
	</g>
	<g transform="translate(-134,-46) scale(1,1)">
		<path class="st2" d="M400,632h89.6v57H400V632z"/>
	</g>
	<g transform="translate(-134,-46) scale(1,1)">
		<path class="st2" d="M400,670h89.6"/>
	</g>
	<g transform="translate(-134,-46) scale(1,1)">
		<path class="st2" d="M400,680h89.6"/>
	</g>
	<g transform="translate(-134,-46) scale(1,1)">
		<g>
			<path class="st2" d="M0,0"/>
			<text transform="matrix(1 0 0 1 422.0195 648)" class="st3 st4">«entity»</text>
		</g>
	</g>
	<g transform="translate(-134,-46) scale(1,1)">
		<g>
			<path d="M0,0"/>
			<text transform="matrix(1 0 0 1 424.9141 663)" class="st5 st4">Guess</text>
		</g>
	</g>
	<g transform="translate(-134,-46) scale(1,1)">
		<path class="st2" d="M690,307l1,44"/>
	</g>
	<g transform="translate(-134,-46) scale(1,1)">
		<path class="st2" d="M686.6,340.9L691,351l4-10.3"/>
	</g>
	<g transform="translate(-134,-46) scale(1,1)">
		<g>
			<path class="st2" d="M0,0"/>
			<text transform="matrix(1 0 0 1 705.0227 345)" class="st3 st4">-session</text>
		</g>
	</g>
	<g transform="translate(-134,-46) scale(1,1)">
		<g>
			<path d="M0,0"/>
			<text transform="matrix(1 0 0 1 670.7268 347)" class="st3 st4">1</text>
		</g>
	</g>
	<g transform="translate(-134,-46) scale(1,1)">
		<path class="st2" d="M599,532h-88"/>
	</g>
	<g transform="translate(-134,-46) scale(1,1)">
		<path class="st2" d="M521.2,527.8L511,532l10.2,4.2"/>
	</g>
	<g transform="translate(-134,-46) scale(1,1)">
		<g>
			<path class="st2" d="M0,0"/>
			<text transform="matrix(1 0 0 1 519.1313 555)" class="st3 st4">-gameBoard</text>
		</g>
	</g>
	<g transform="translate(-134,-46) scale(1,1)">
		<g>
			<path d="M0,0"/>
			<text transform="matrix(1 0 0 1 519.5 523)" class="st3 st4">1</text>
		</g>
	</g>
	<g transform="translate(-134,-46) scale(1,1)">
		<path class="st2" d="M443,585l1,46"/>
	</g>
	<g transform="translate(-134,-46) scale(1,1)">
		<path class="st2" d="M439.6,620.9L444,631l4-10.3"/>
	</g>
	<g transform="translate(-134,-46) scale(1,1)">
		<g>
			<path class="st2" d="M0,0"/>
			<text transform="matrix(1 0 0 1 458.7432 627)" class="st3 st4">-guessArray</text>
		</g>
	</g>
	<g transform="translate(-134,-46) scale(1,1)">
		<g>
			<path d="M0,0"/>
			<text transform="matrix(1 0 0 1 406.5 626)" class="st3 st4">0..6</text>
		</g>
	</g>
	<g transform="translate(-134,-46) scale(1,1)">
		<path class="st2" d="M344,268l42,35"/>
	</g>
	<g transform="translate(-134,-46) scale(1,1)">
		<path class="st2" d="M375.5,299.7L386,303l-5.1-9.7"/>
	</g>
	<g transform="translate(-134,-46) scale(1,1)">
		<g>
			<path class="st2" d="M0,0"/>
			<text transform="matrix(1 0 0 1 387.644 298)" class="st3 st4">-console</text>
		</g>
	</g>
	<g transform="translate(-134,-46) scale(1,1)">
		<g>
			<path d="M0,0"/>
			<text transform="matrix(1 0 0 1 348.885 300)" class="st3 st4">1</text>
		</g>
	</g>
	<g transform="translate(-134,-46) scale(1,1)">
		<path class="st2" d="M265,268l-34,51"/>
	</g>
	<g transform="translate(-134,-46) scale(1,1)">
		<path class="st2" d="M233.1,308.2L231,319l9.1-6.1"/>
	</g>
	<g transform="translate(-134,-46) scale(1,1)">
		<g>
			<path class="st2" d="M0,0"/>
			<text transform="matrix(1 0 0 1 254.1313 300)" class="st3 st4">-PARSER</text>
		</g>
	</g>
	<g transform="translate(-134,-46) scale(1,1)">
		<g>
			<path d="M0,0"/>
			<text transform="matrix(1 0 0 1 221.5 309)" class="st3 st4">1</text>
		</g>
	</g>
	<g transform="translate(-134,-46) scale(1,1)">
		<rect x="399" y="735" class="st0" width="109.8" height="85"/>
	</g>
	<g transform="translate(-134,-46) scale(1,1)">
		<rect x="392" y="728" class="st1" width="109.8" height="85"/>
	</g>
	<g transform="translate(-134,-46) scale(1,1)">
		<path class="st2" d="M392,728h109.8v85H392V728z"/>
	</g>
	<g transform="translate(-134,-46) scale(1,1)">
		<path class="st2" d="M392,766h109.8"/>
	</g>
	<g transform="translate(-134,-46) scale(1,1)">
		<path class="st2" d="M392,804h109.8"/>
	</g>
	<g transform="translate(-134,-46) scale(1,1)">
		<g>
			<path class="st2" d="M0,0"/>
			<text transform="matrix(1 0 0 1 424.1313 744)" class="st3 st4">«entity»</text>
		</g>
	</g>
	<g transform="translate(-134,-46) scale(1,1)">
		<g>
			<path d="M0,0"/>
			<text transform="matrix(1 0 0 1 416.5586 759)" class="st5 st4">LetterBox</text>
		</g>
	</g>
	<g transform="translate(-134,-46) scale(1,1)">
		<g>
			<path d="M0,0"/>
			<text transform="matrix(1 0 0 1 397 782)" class="st3 st4">-letter: Character</text>
		</g>
	</g>
	<g transform="translate(-134,-46) scale(1,1)">
		<g>
			<path d="M0,0"/>
			<text transform="matrix(1 0 0 1 397 797)" class="st3 st4">-color: Color</text>
		</g>
	</g>
	<g transform="translate(-134,-46) scale(1,1)">
		<path class="st2" d="M445,690v37"/>
	</g>
	<g transform="translate(-134,-46) scale(1,1)">
		<path class="st2" d="M440.8,716.8L445,727l4.2-10.2"/>
	</g>
	<g transform="translate(-134,-46) scale(1,1)">
		<g>
			<path class="st2" d="M0,0"/>
			<text transform="matrix(1 0 0 1 455.1313 723)" class="st3 st4">-cellArray</text>
		</g>
	</g>
	<g transform="translate(-134,-46) scale(1,1)">
		<g>
			<path d="M0,0"/>
			<text transform="matrix(1 0 0 1 423.5 722)" class="st3 st4">5</text>
		</g>
	</g>
	<g transform="translate(-134,-46) scale(1,1)">
		<rect x="247" y="63" class="st0" width="101.4" height="70"/>
	</g>
	<g transform="translate(-134,-46) scale(1,1)">
		<rect x="240" y="56" class="st1" width="101.4" height="70"/>
	</g>
	<g transform="translate(-134,-46) scale(1,1)">
		<path class="st2" d="M240,56h101.4v70H240V56z"/>
	</g>
	<g transform="translate(-134,-46) scale(1,1)">
		<path class="st2" d="M240,94h101.4"/>
	</g>
	<g transform="translate(-134,-46) scale(1,1)">
		<path class="st2" d="M240,104h101.4"/>
	</g>
	<g transform="translate(-134,-46) scale(1,1)">
		<g>
			<path class="st2" d="M0,0"/>
			<text transform="matrix(1 0 0 1 256.386 72)" class="st3 st4">«boundary»</text>
		</g>
	</g>
	<g transform="translate(-134,-46) scale(1,1)">
		<g>
			<path d="M0,0"/>
			<text transform="matrix(1 0 0 1 244.5 87)" class="st5 st4">App.Command</text>
		</g>
	</g>
	<g transform="translate(-134,-46) scale(1,1)">
		<g>
			<path d="M0,0"/>
			<text transform="matrix(1 0 0 1 245 120)" class="st3 st4">+execute()</text>
		</g>
	</g>
	<g transform="translate(-134,-46) scale(1,1)">
		<path class="st6" d="M292,183l-1-56"/>
	</g>
	<g transform="translate(-134,-46) scale(1,1)">
		<path class="st2" d="M295.4,137.1L291,127l-4,10.2"/>
	</g>
	<g transform="translate(-134,-46) scale(1,1)">
		<g>
			<path class="st2" d="M0,0"/>
			<text transform="matrix(1 0 0 1 302.5 157)" class="st3 st4">«call»</text>
		</g>
	</g>
	<g transform="translate(-134,-46) scale(1,1)">
		<rect x="639" y="359" class="st0" width="120.7" height="100"/>
	</g>
	<g transform="translate(-134,-46) scale(1,1)">
		<rect x="632" y="352" class="st1" width="120.7" height="100"/>
	</g>
	<g transform="translate(-134,-46) scale(1,1)">
		<path class="st2" d="M632,352h120.7v100H632V352z"/>
	</g>
	<g transform="translate(-134,-46) scale(1,1)">
		<path class="st2" d="M632,390h120.7"/>
	</g>
	<g transform="translate(-134,-46) scale(1,1)">
		<path class="st2" d="M632,443h120.7"/>
	</g>
	<g transform="translate(-134,-46) scale(1,1)">
		<g>
			<path class="st2" d="M0,0"/>
			<text transform="matrix(1 0 0 1 669.603 368)" class="st3 st4">«entity»</text>
		</g>
	</g>
	<g transform="translate(-134,-46) scale(1,1)">
		<g>
			<path d="M0,0"/>
			<text transform="matrix(1 0 0 1 645.5327 383)" class="st5 st4">WordleSession</text>
		</g>
	</g>
	<g transform="translate(-134,-46) scale(1,1)">
		<g>
			<path d="M0,0"/>
			<text transform="matrix(1 0 0 1 637 406)" class="st3 st4">-secretWord: String</text>
		</g>
	</g>
	<g transform="translate(-134,-46) scale(1,1)">
		<g>
			<path d="M0,0"/>
			<text transform="matrix(1 0 0 1 637 421)" class="st3 st4">-nMaxGuesses: int</text>
		</g>
	</g>
	<g transform="translate(-134,-46) scale(1,1)">
		<g>
			<path d="M0,0"/>
			<text transform="matrix(1 0 0 1 637 436)" class="st3 st4">-wordLength: int</text>
		</g>
	</g>
	<g transform="translate(-134,-46) scale(1,1)">
		<path class="st2" d="M692,453v42"/>
	</g>
	<g transform="translate(-134,-46) scale(1,1)">
		<path class="st2" d="M687.8,484.8L692,495l4.2-10.2"/>
	</g>
	<g transform="translate(-134,-46) scale(1,1)">
		<g>
			<path class="st2" d="M0,0"/>
			<text transform="matrix(1 0 0 1 705.1313 495)" class="st3 st4">-currentGame</text>
		</g>
	</g>
	<g transform="translate(-134,-46) scale(1,1)">
		<g>
			<path d="M0,0"/>
			<text transform="matrix(1 0 0 1 671.5327 490)" class="st3 st4">1</text>
		</g>
	</g>
	<g transform="translate(-134,-46) scale(1,1)">
		<path class="st2" d="M396,225h187"/>
	</g>
	<g transform="translate(-134,-46) scale(1,1)">
		<path class="st2" d="M572.8,229.2L583,225l-10.2-4.2"/>
	</g>
	<g transform="translate(-134,-46) scale(1,1)">
		<g>
			<path class="st2" d="M0,0"/>
			<text transform="matrix(1 0 0 1 429.5 216)" class="st3 st4">-PLAYER_CONTROLLER</text>
		</g>
	</g>
	<g transform="translate(-134,-46) scale(1,1)">
		<g>
			<path d="M0,0"/>
			<text transform="matrix(1 0 0 1 555.5 247)" class="st3 st4">1</text>
		</g>
	</g>
	<g transform="translate(-134,-46) scale(1,1)">
		<rect x="175" y="415" class="st0" width="86.8" height="57"/>
	</g>
	<g transform="translate(-134,-46) scale(1,1)">
		<rect x="168" y="408" class="st1" width="86.8" height="57"/>
	</g>
	<g transform="translate(-134,-46) scale(1,1)">
		<path class="st2" d="M168,408h86.8v57H168V408z"/>
	</g>
	<g transform="translate(-134,-46) scale(1,1)">
		<path class="st2" d="M168,446h86.8"/>
	</g>
	<g transform="translate(-134,-46) scale(1,1)">
		<path class="st2" d="M168,456h86.8"/>
	</g>
	<g transform="translate(-134,-46) scale(1,1)">
		<g>
			<path class="st2" d="M0,0"/>
			<text transform="matrix(1 0 0 1 177.064 424)" class="st3 st4">«boundary»</text>
		</g>
	</g>
	<g transform="translate(-134,-46) scale(1,1)">
		<g>
			<path d="M0,0"/>
			<text transform="matrix(1 0 0 1 172.5 439)" class="st5 st4">ParserToken</text>
		</g>
	</g>
	<g transform="translate(-134,-46) scale(1,1)">
		<path class="st6" d="M212,378l-1,29"/>
	</g>
	<g transform="translate(-134,-46) scale(1,1)">
		<path class="st2" d="M207.1,396.7L211,407l4.6-10"/>
	</g>
	<g transform="translate(-134,-46) scale(1,1)">
		<path class="st0" d="M682.6,74.5c0-6.4,5.1-11.5,11.5-11.5s11.5,5.1,11.5,11.5S700.4,86,694.1,86S682.6,80.9,682.6,74.5z"/>
	</g>
	<g transform="translate(-134,-46) scale(1,1)">
		<path class="st1" d="M675.6,67.5c0-6.4,5.1-11.5,11.5-11.5s11.5,5.1,11.5,11.5S693.4,79,687.1,79S675.6,73.9,675.6,67.5z"/>
	</g>
	<g transform="translate(-134,-46) scale(1,1)">
		<path class="st2" d="M675.6,67.5c0-6.4,5.1-11.5,11.5-11.5s11.5,5.1,11.5,11.5S693.4,79,687.1,79S675.6,73.9,675.6,67.5z"/>
	</g>
	<g transform="translate(-134,-46) scale(1,1)">
		<g>
			<path class="st2" d="M0,0"/>
			<text transform="matrix(1 0 0 1 636.5 97)" class="st5 st4">PlayerController</text>
		</g>
	</g>
	<g transform="translate(-134,-46) scale(1,1)">
		<path class="st2" d="M687,143V79"/>
	</g>
</g>
</svg>
