<svg version="1.1" xmlns="http://www.w3.org/2000/svg" xmlns:xlink="http://www.w3.org/1999/xlink" width="963" height="456"><defs/><g><text fill="#eeeeee" stroke="none" font-family="Arial" font-size="24px" font-style="normal" font-weight="normal" text-decoration="none" x="0" y="0">UNREGISTERED</text><text fill="#eeeeee" stroke="none" font-family="Arial" font-size="24px" font-style="normal" font-weight="normal" text-decoration="none" x="0" y="30">UNREGISTERED</text><text fill="#eeeeee" stroke="none" font-family="Arial" font-size="24px" font-style="normal" font-weight="normal" text-decoration="none" x="0" y="60">UNREGISTERED</text><text fill="#eeeeee" stroke="none" font-family="Arial" font-size="24px" font-style="normal" font-weight="normal" text-decoration="none" x="0" y="90">UNREGISTERED</text><text fill="#eeeeee" stroke="none" font-family="Arial" font-size="24px" font-style="normal" font-weight="normal" text-decoration="none" x="0" y="120">UNREGISTERED</text><text fill="#eeeeee" stroke="none" font-family="Arial" font-size="24px" font-style="normal" font-weight="normal" text-decoration="none" x="0" y="150">UNREGISTERED</text><text fill="#eeeeee" stroke="none" font-family="Arial" font-size="24px" font-style="normal" font-weight="normal" text-decoration="none" x="0" y="180">UNREGISTERED</text><text fill="#eeeeee" stroke="none" font-family="Arial" font-size="24px" font-style="normal" font-weight="normal" text-decoration="none" x="0" y="210">UNREGISTERED</text><text fill="#eeeeee" stroke="none" font-family="Arial" font-size="24px" font-style="normal" font-weight="normal" text-decoration="none" x="0" y="240">UNREGISTERED</text><text fill="#eeeeee" stroke="none" font-family="Arial" font-size="24px" font-style="normal" font-weight="normal" text-decoration="none" x="0" y="270">UNREGISTERED</text><text fill="#eeeeee" stroke="none" font-family="Arial" font-size="24px" font-style="normal" font-weight="normal" text-decoration="none" x="0" y="300">UNREGISTERED</text><text fill="#eeeeee" stroke="none" font-family="Arial" font-size="24px" font-style="normal" font-weight="normal" text-decoration="none" x="0" y="330">UNREGISTERED</text><text fill="#eeeeee" stroke="none" font-family="Arial" font-size="24px" font-style="normal" font-weight="normal" text-decoration="none" x="0" y="360">UNREGISTERED</text><text fill="#eeeeee" stroke="none" font-family="Arial" font-size="24px" font-style="normal" font-weight="normal" text-decoration="none" x="0" y="390">UNREGISTERED</text><text fill="#eeeeee" stroke="none" font-family="Arial" font-size="24px" font-style="normal" font-weight="normal" text-decoration="none" x="0" y="420">UNREGISTERED</text><text fill="#eeeeee" stroke="none" font-family="Arial" font-size="24px" font-style="normal" font-weight="normal" text-decoration="none" x="0" y="450">UNREGISTERED</text><text fill="#eeeeee" stroke="none" font-family="Arial" font-size="24px" font-style="normal" font-weight="normal" text-decoration="none" x="200" y="0">UNREGISTERED</text><text fill="#eeeeee" stroke="none" font-family="Arial" font-size="24px" font-style="normal" font-weight="normal" text-decoration="none" x="200" y="30">UNREGISTERED</text><text fill="#eeeeee" stroke="none" font-family="Arial" font-size="24px" font-style="normal" font-weight="normal" text-decoration="none" x="200" y="60">UNREGISTERED</text><text fill="#eeeeee" stroke="none" font-family="Arial" font-size="24px" font-style="normal" font-weight="normal" text-decoration="none" x="200" y="90">UNREGISTERED</text><text fill="#eeeeee" stroke="none" font-family="Arial" font-size="24px" font-style="normal" font-weight="normal" text-decoration="none" x="200" y="120">UNREGISTERED</text><text fill="#eeeeee" stroke="none" font-family="Arial" font-size="24px" font-style="normal" font-weight="normal" text-decoration="none" x="200" y="150">UNREGISTERED</text><text fill="#eeeeee" stroke="none" font-family="Arial" font-size="24px" font-style="normal" font-weight="normal" text-decoration="none" x="200" y="180">UNREGISTERED</text><text fill="#eeeeee" stroke="none" font-family="Arial" font-size="24px" font-style="normal" font-weight="normal" text-decoration="none" x="200" y="210">UNREGISTERED</text><text fill="#eeeeee" stroke="none" font-family="Arial" font-size="24px" font-style="normal" font-weight="normal" text-decoration="none" x="200" y="240">UNREGISTERED</text><text fill="#eeeeee" stroke="none" font-family="Arial" font-size="24px" font-style="normal" font-weight="normal" text-decoration="none" x="200" y="270">UNREGISTERED</text><text fill="#eeeeee" stroke="none" font-family="Arial" font-size="24px" font-style="normal" font-weight="normal" text-decoration="none" x="200" y="300">UNREGISTERED</text><text fill="#eeeeee" stroke="none" font-family="Arial" font-size="24px" font-style="normal" font-weight="normal" text-decoration="none" x="200" y="330">UNREGISTERED</text><text fill="#eeeeee" stroke="none" font-family="Arial" font-size="24px" font-style="normal" font-weight="normal" text-decoration="none" x="200" y="360">UNREGISTERED</text><text fill="#eeeeee" stroke="none" font-family="Arial" font-size="24px" font-style="normal" font-weight="normal" text-decoration="none" x="200" y="390">UNREGISTERED</text><text fill="#eeeeee" stroke="none" font-family="Arial" font-size="24px" font-style="normal" font-weight="normal" text-decoration="none" x="200" y="420">UNREGISTERED</text><text fill="#eeeeee" stroke="none" font-family="Arial" font-size="24px" font-style="normal" font-weight="normal" text-decoration="none" x="200" y="450">UNREGISTERED</text><text fill="#eeeeee" stroke="none" font-family="Arial" font-size="24px" font-style="normal" font-weight="normal" text-decoration="none" x="400" y="0">UNREGISTERED</text><text fill="#eeeeee" stroke="none" font-family="Arial" font-size="24px" font-style="normal" font-weight="normal" text-decoration="none" x="400" y="30">UNREGISTERED</text><text fill="#eeeeee" stroke="none" font-family="Arial" font-size="24px" font-style="normal" font-weight="normal" text-decoration="none" x="400" y="60">UNREGISTERED</text><text fill="#eeeeee" stroke="none" font-family="Arial" font-size="24px" font-style="normal" font-weight="normal" text-decoration="none" x="400" y="90">UNREGISTERED</text><text fill="#eeeeee" stroke="none" font-family="Arial" font-size="24px" font-style="normal" font-weight="normal" text-decoration="none" x="400" y="120">UNREGISTERED</text><text fill="#eeeeee" stroke="none" font-family="Arial" font-size="24px" font-style="normal" font-weight="normal" text-decoration="none" x="400" y="150">UNREGISTERED</text><text fill="#eeeeee" stroke="none" font-family="Arial" font-size="24px" font-style="normal" font-weight="normal" text-decoration="none" x="400" y="180">UNREGISTERED</text><text fill="#eeeeee" stroke="none" font-family="Arial" font-size="24px" font-style="normal" font-weight="normal" text-decoration="none" x="400" y="210">UNREGISTERED</text><text fill="#eeeeee" stroke="none" font-family="Arial" font-size="24px" font-style="normal" font-weight="normal" text-decoration="none" x="400" y="240">UNREGISTERED</text><text fill="#eeeeee" stroke="none" font-family="Arial" font-size="24px" font-style="normal" font-weight="normal" text-decoration="none" x="400" y="270">UNREGISTERED</text><text fill="#eeeeee" stroke="none" font-family="Arial" font-size="24px" font-style="normal" font-weight="normal" text-decoration="none" x="400" y="300">UNREGISTERED</text><text fill="#eeeeee" stroke="none" font-family="Arial" font-size="24px" font-style="normal" font-weight="normal" text-decoration="none" x="400" y="330">UNREGISTERED</text><text fill="#eeeeee" stroke="none" font-family="Arial" font-size="24px" font-style="normal" font-weight="normal" text-decoration="none" x="400" y="360">UNREGISTERED</text><text fill="#eeeeee" stroke="none" font-family="Arial" font-size="24px" font-style="normal" font-weight="normal" text-decoration="none" x="400" y="390">UNREGISTERED</text><text fill="#eeeeee" stroke="none" font-family="Arial" font-size="24px" font-style="normal" font-weight="normal" text-decoration="none" x="400" y="420">UNREGISTERED</text><text fill="#eeeeee" stroke="none" font-family="Arial" font-size="24px" font-style="normal" font-weight="normal" text-decoration="none" x="400" y="450">UNREGISTERED</text><text fill="#eeeeee" stroke="none" font-family="Arial" font-size="24px" font-style="normal" font-weight="normal" text-decoration="none" x="600" y="0">UNREGISTERED</text><text fill="#eeeeee" stroke="none" font-family="Arial" font-size="24px" font-style="normal" font-weight="normal" text-decoration="none" x="600" y="30">UNREGISTERED</text><text fill="#eeeeee" stroke="none" font-family="Arial" font-size="24px" font-style="normal" font-weight="normal" text-decoration="none" x="600" y="60">UNREGISTERED</text><text fill="#eeeeee" stroke="none" font-family="Arial" font-size="24px" font-style="normal" font-weight="normal" text-decoration="none" x="600" y="90">UNREGISTERED</text><text fill="#eeeeee" stroke="none" font-family="Arial" font-size="24px" font-style="normal" font-weight="normal" text-decoration="none" x="600" y="120">UNREGISTERED</text><text fill="#eeeeee" stroke="none" font-family="Arial" font-size="24px" font-style="normal" font-weight="normal" text-decoration="none" x="600" y="150">UNREGISTERED</text><text fill="#eeeeee" stroke="none" font-family="Arial" font-size="24px" font-style="normal" font-weight="normal" text-decoration="none" x="600" y="180">UNREGISTERED</text><text fill="#eeeeee" stroke="none" font-family="Arial" font-size="24px" font-style="normal" font-weight="normal" text-decoration="none" x="600" y="210">UNREGISTERED</text><text fill="#eeeeee" stroke="none" font-family="Arial" font-size="24px" font-style="normal" font-weight="normal" text-decoration="none" x="600" y="240">UNREGISTERED</text><text fill="#eeeeee" stroke="none" font-family="Arial" font-size="24px" font-style="normal" font-weight="normal" text-decoration="none" x="600" y="270">UNREGISTERED</text><text fill="#eeeeee" stroke="none" font-family="Arial" font-size="24px" font-style="normal" font-weight="normal" text-decoration="none" x="600" y="300">UNREGISTERED</text><text fill="#eeeeee" stroke="none" font-family="Arial" font-size="24px" font-style="normal" font-weight="normal" text-decoration="none" x="600" y="330">UNREGISTERED</text><text fill="#eeeeee" stroke="none" font-family="Arial" font-size="24px" font-style="normal" font-weight="normal" text-decoration="none" x="600" y="360">UNREGISTERED</text><text fill="#eeeeee" stroke="none" font-family="Arial" font-size="24px" font-style="normal" font-weight="normal" text-decoration="none" x="600" y="390">UNREGISTERED</text><text fill="#eeeeee" stroke="none" font-family="Arial" font-size="24px" font-style="normal" font-weight="normal" text-decoration="none" x="600" y="420">UNREGISTERED</text><text fill="#eeeeee" stroke="none" font-family="Arial" font-size="24px" font-style="normal" font-weight="normal" text-decoration="none" x="600" y="450">UNREGISTERED</text><text fill="#eeeeee" stroke="none" font-family="Arial" font-size="24px" font-style="normal" font-weight="normal" text-decoration="none" x="800" y="0">UNREGISTERED</text><text fill="#eeeeee" stroke="none" font-family="Arial" font-size="24px" font-style="normal" font-weight="normal" text-decoration="none" x="800" y="30">UNREGISTERED</text><text fill="#eeeeee" stroke="none" font-family="Arial" font-size="24px" font-style="normal" font-weight="normal" text-decoration="none" x="800" y="60">UNREGISTERED</text><text fill="#eeeeee" stroke="none" font-family="Arial" font-size="24px" font-style="normal" font-weight="normal" text-decoration="none" x="800" y="90">UNREGISTERED</text><text fill="#eeeeee" stroke="none" font-family="Arial" font-size="24px" font-style="normal" font-weight="normal" text-decoration="none" x="800" y="120">UNREGISTERED</text><text fill="#eeeeee" stroke="none" font-family="Arial" font-size="24px" font-style="normal" font-weight="normal" text-decoration="none" x="800" y="150">UNREGISTERED</text><text fill="#eeeeee" stroke="none" font-family="Arial" font-size="24px" font-style="normal" font-weight="normal" text-decoration="none" x="800" y="180">UNREGISTERED</text><text fill="#eeeeee" stroke="none" font-family="Arial" font-size="24px" font-style="normal" font-weight="normal" text-decoration="none" x="800" y="210">UNREGISTERED</text><text fill="#eeeeee" stroke="none" font-family="Arial" font-size="24px" font-style="normal" font-weight="normal" text-decoration="none" x="800" y="240">UNREGISTERED</text><text fill="#eeeeee" stroke="none" font-family="Arial" font-size="24px" font-style="normal" font-weight="normal" text-decoration="none" x="800" y="270">UNREGISTERED</text><text fill="#eeeeee" stroke="none" font-family="Arial" font-size="24px" font-style="normal" font-weight="normal" text-decoration="none" x="800" y="300">UNREGISTERED</text><text fill="#eeeeee" stroke="none" font-family="Arial" font-size="24px" font-style="normal" font-weight="normal" text-decoration="none" x="800" y="330">UNREGISTERED</text><text fill="#eeeeee" stroke="none" font-family="Arial" font-size="24px" font-style="normal" font-weight="normal" text-decoration="none" x="800" y="360">UNREGISTERED</text><text fill="#eeeeee" stroke="none" font-family="Arial" font-size="24px" font-style="normal" font-weight="normal" text-decoration="none" x="800" y="390">UNREGISTERED</text><text fill="#eeeeee" stroke="none" font-family="Arial" font-size="24px" font-style="normal" font-weight="normal" text-decoration="none" x="800" y="420">UNREGISTERED</text><text fill="#eeeeee" stroke="none" font-family="Arial" font-size="24px" font-style="normal" font-weight="normal" text-decoration="none" x="800" y="450">UNREGISTERED</text><g transform="translate(-142,-6) scale(1,1)"><rect fill="#C0C0C0" stroke="none" x="159" y="151" width="210.271484375" height="57" opacity="0.2"/></g><g transform="translate(-142,-6) scale(1,1)"><rect fill="#ffffff" stroke="none" x="152" y="144" width="210.271484375" height="57"/></g><g transform="translate(-142,-6) scale(1,1)"><path fill="none" stroke="#000000" d="M 152 144 L 362.271484375 144 L 362.271484375 201 L 152 201 L 152 144 Z Z" stroke-miterlimit="10"/></g><g transform="translate(-142,-6) scale(1,1)"><path fill="none" stroke="#000000" d="M 152 169 L 362.271484375 169" stroke-miterlimit="10"/></g><g transform="translate(-142,-6) scale(1,1)"><path fill="none" stroke="#000000" d="M 152 192 L 362.271484375 192" stroke-miterlimit="10"/></g><g transform="translate(-142,-6) scale(1,1)"><g><path fill="none" stroke="none"/><text fill="#000000" stroke="none" font-family="Arial" font-size="13px" font-style="normal" font-weight="bold" text-decoration="none" x="244.500732421875" y="162">App</text></g></g><g transform="translate(-142,-6) scale(1,1)"><g><path fill="none" stroke="none"/><text fill="#000000" stroke="none" font-family="Arial" font-size="13px" font-style="normal" font-weight="normal" text-decoration="none" x="157" y="185">-keyboard: Scanner</text><path fill="none" stroke="#000000" d="M 157 186.5 L 270.45166015625 186.5" stroke-miterlimit="10"/></g></g><g transform="translate(-142,-6) scale(1,1)"><rect fill="#C0C0C0" stroke="none" x="223" y="319" width="112" height="44" opacity="0.2"/></g><g transform="translate(-142,-6) scale(1,1)"><rect fill="#ffffff" stroke="none" x="216" y="312" width="112" height="44"/></g><g transform="translate(-142,-6) scale(1,1)"><path fill="none" stroke="#000000" d="M 216 312 L 328 312 L 328 356 L 216 356 L 216 312 Z Z" stroke-miterlimit="10"/></g><g transform="translate(-142,-6) scale(1,1)"><path fill="none" stroke="#000000" d="M 216 337 L 328 337" stroke-miterlimit="10"/></g><g transform="translate(-142,-6) scale(1,1)"><path fill="none" stroke="#000000" d="M 216 347 L 328 347" stroke-miterlimit="10"/></g><g transform="translate(-142,-6) scale(1,1)"><g><path fill="none" stroke="none"/><text fill="#000000" stroke="none" font-family="Arial" font-size="13px" font-style="normal" font-weight="bold" text-decoration="none" x="251.760498046875" y="330">Parser</text></g></g><g transform="translate(-142,-6) scale(1,1)"><rect fill="#C0C0C0" stroke="none" x="567" y="127" width="153.96142578125" height="104" opacity="0.2"/></g><g transform="translate(-142,-6) scale(1,1)"><rect fill="#ffffff" stroke="none" x="560" y="120" width="153.96142578125" height="104"/></g><g transform="translate(-142,-6) scale(1,1)"><path fill="none" stroke="#000000" d="M 560 120 L 713.96142578125 120 L 713.96142578125 224 L 560 224 L 560 120 Z Z" stroke-miterlimit="10"/></g><g transform="translate(-142,-6) scale(1,1)"><path fill="none" stroke="#000000" d="M 560 158 L 713.96142578125 158" stroke-miterlimit="10"/></g><g transform="translate(-142,-6) scale(1,1)"><path fill="none" stroke="#000000" d="M 560 181 L 713.96142578125 181" stroke-miterlimit="10"/></g><g transform="translate(-142,-6) scale(1,1)"><g><path fill="none" stroke="none"/><text fill="#000000" stroke="none" font-family="Arial" font-size="13px" font-style="normal" font-weight="normal" text-decoration="none" x="610.2412109375" y="136">«control»</text></g></g><g transform="translate(-142,-6) scale(1,1)"><g><path fill="none" stroke="none"/><text fill="#000000" stroke="none" font-family="Arial" font-size="13px" font-style="normal" font-weight="bold" text-decoration="none" x="564.5" y="151">WordlePlayerController</text></g></g><g transform="translate(-142,-6) scale(1,1)"><g><path fill="none" stroke="none"/><text fill="#000000" stroke="none" font-family="Arial" font-size="13px" font-style="normal" font-weight="normal" text-decoration="none" x="565" y="174">-session: WordleSession</text></g></g><g transform="translate(-142,-6) scale(1,1)"><g><path fill="none" stroke="none"/><text fill="#000000" stroke="none" font-family="Arial" font-size="13px" font-style="normal" font-weight="normal" text-decoration="none" x="565" y="197">+isGameRunning()</text><path fill="none" stroke="#000000" d="M 565 198.5 L 674.46533203125 198.5" stroke-miterlimit="10"/></g></g><g transform="translate(-142,-6) scale(1,1)"><g><path fill="none" stroke="none"/><text fill="#000000" stroke="none" font-family="Arial" font-size="13px" font-style="normal" font-weight="normal" text-decoration="none" x="565" y="212">+startGame()</text><path fill="none" stroke="#000000" d="M 565 213.5 L 641.93359375 213.5" stroke-miterlimit="10"/></g></g><g transform="translate(-142,-6) scale(1,1)"><rect fill="#C0C0C0" stroke="none" x="839" y="135" width="120.73779296875" height="85" opacity="0.2"/></g><g transform="translate(-142,-6) scale(1,1)"><rect fill="#ffffff" stroke="none" x="832" y="128" width="120.73779296875" height="85"/></g><g transform="translate(-142,-6) scale(1,1)"><path fill="none" stroke="#000000" d="M 832 128 L 952.73779296875 128 L 952.73779296875 213 L 832 213 L 832 128 Z Z" stroke-miterlimit="10"/></g><g transform="translate(-142,-6) scale(1,1)"><path fill="none" stroke="#000000" d="M 832 166 L 952.73779296875 166" stroke-miterlimit="10"/></g><g transform="translate(-142,-6) scale(1,1)"><path fill="none" stroke="#000000" d="M 832 204 L 952.73779296875 204" stroke-miterlimit="10"/></g><g transform="translate(-142,-6) scale(1,1)"><g><path fill="none" stroke="none"/><text fill="#000000" stroke="none" font-family="Arial" font-size="13px" font-style="normal" font-weight="normal" text-decoration="none" x="869.60302734375" y="144">«entity»</text></g></g><g transform="translate(-142,-6) scale(1,1)"><g><path fill="none" stroke="none"/><text fill="#000000" stroke="none" font-family="Arial" font-size="13px" font-style="normal" font-weight="bold" text-decoration="none" x="852.39453125" y="159">WordleGame</text></g></g><g transform="translate(-142,-6) scale(1,1)"><g><path fill="none" stroke="none"/><text fill="#000000" stroke="none" font-family="Arial" font-size="13px" font-style="normal" font-weight="normal" text-decoration="none" x="837" y="182">-secretWord: String</text></g></g><g transform="translate(-142,-6) scale(1,1)"><g><path fill="none" stroke="none"/><text fill="#000000" stroke="none" font-family="Arial" font-size="13px" font-style="normal" font-weight="normal" text-decoration="none" x="837" y="197">-gameBoard: int</text></g></g><g transform="translate(-142,-6) scale(1,1)"><rect fill="#C0C0C0" stroke="none" x="831" y="271" width="136" height="85" opacity="0.2"/></g><g transform="translate(-142,-6) scale(1,1)"><rect fill="#ffffff" stroke="none" x="824" y="264" width="136" height="85"/></g><g transform="translate(-142,-6) scale(1,1)"><path fill="none" stroke="#000000" d="M 824 264 L 960 264 L 960 349 L 824 349 L 824 264 Z Z" stroke-miterlimit="10"/></g><g transform="translate(-142,-6) scale(1,1)"><path fill="none" stroke="#000000" d="M 824 302 L 960 302" stroke-miterlimit="10"/></g><g transform="translate(-142,-6) scale(1,1)"><path fill="none" stroke="#000000" d="M 824 340 L 960 340" stroke-miterlimit="10"/></g><g transform="translate(-142,-6) scale(1,1)"><g><path fill="none" stroke="none"/><text fill="#000000" stroke="none" font-family="Arial" font-size="13px" font-style="normal" font-weight="normal" text-decoration="none" x="869.234130859375" y="280">«entity»</text></g></g><g transform="translate(-142,-6) scale(1,1)"><g><path fill="none" stroke="none"/><text fill="#000000" stroke="none" font-family="Arial" font-size="13px" font-style="normal" font-weight="bold" text-decoration="none" x="873.220458984375" y="295">Board</text></g></g><g transform="translate(-142,-6) scale(1,1)"><g><path fill="none" stroke="none"/><text fill="#000000" stroke="none" font-family="Arial" font-size="13px" font-style="normal" font-weight="normal" text-decoration="none" x="829" y="318">-firstEmptyIndex: int</text></g></g><g transform="translate(-142,-6) scale(1,1)"><g><path fill="none" stroke="none"/><text fill="#000000" stroke="none" font-family="Arial" font-size="13px" font-style="normal" font-weight="normal" text-decoration="none" x="829" y="333">-wordleLentgh: int</text></g></g><g transform="translate(-142,-6) scale(1,1)"><rect fill="#C0C0C0" stroke="none" x="375" y="311" width="113.3935546875" height="57" opacity="0.2"/></g><g transform="translate(-142,-6) scale(1,1)"><rect fill="#ffffff" stroke="none" x="368" y="304" width="113.3935546875" height="57"/></g><g transform="translate(-142,-6) scale(1,1)"><path fill="none" stroke="#000000" d="M 368 304 L 481.3935546875 304 L 481.3935546875 361 L 368 361 L 368 304 Z Z" stroke-miterlimit="10"/></g><g transform="translate(-142,-6) scale(1,1)"><path fill="none" stroke="#000000" d="M 368 329 L 481.3935546875 329" stroke-miterlimit="10"/></g><g transform="translate(-142,-6) scale(1,1)"><path fill="none" stroke="#000000" d="M 368 339 L 481.3935546875 339" stroke-miterlimit="10"/></g><g transform="translate(-142,-6) scale(1,1)"><g><path fill="none" stroke="none"/><text fill="#000000" stroke="none" font-family="Arial" font-size="13px" font-style="normal" font-weight="bold" text-decoration="none" x="403.746337890625" y="322">Printer</text></g></g><g transform="translate(-142,-6) scale(1,1)"><g><path fill="none" stroke="none"/><text fill="#000000" stroke="none" font-family="Arial" font-size="13px" font-style="normal" font-weight="normal" text-decoration="none" x="373" y="355">+printBoard()</text></g></g><g transform="translate(-142,-6) scale(1,1)"><rect fill="#C0C0C0" stroke="none" x="855" y="399" width="88" height="57" opacity="0.2"/></g><g transform="translate(-142,-6) scale(1,1)"><rect fill="#ffffff" stroke="none" x="848" y="392" width="88" height="57"/></g><g transform="translate(-142,-6) scale(1,1)"><path fill="none" stroke="#000000" d="M 848 392 L 936 392 L 936 449 L 848 449 L 848 392 Z Z" stroke-miterlimit="10"/></g><g transform="translate(-142,-6) scale(1,1)"><path fill="none" stroke="#000000" d="M 848 430 L 936 430" stroke-miterlimit="10"/></g><g transform="translate(-142,-6) scale(1,1)"><path fill="none" stroke="#000000" d="M 848 440 L 936 440" stroke-miterlimit="10"/></g><g transform="translate(-142,-6) scale(1,1)"><g><path fill="none" stroke="none"/><text fill="#000000" stroke="none" font-family="Arial" font-size="13px" font-style="normal" font-weight="normal" text-decoration="none" x="869.234130859375" y="408">«entity»</text></g></g><g transform="translate(-142,-6) scale(1,1)"><g><path fill="none" stroke="none"/><text fill="#000000" stroke="none" font-family="Arial" font-size="13px" font-style="normal" font-weight="bold" text-decoration="none" x="872.128662109375" y="423">Guess</text></g></g><g transform="translate(-142,-6) scale(1,1)"><path fill="none" stroke="#000000" d="M 288 202 L 394 303" stroke-miterlimit="10"/></g><g transform="translate(-142,-6) scale(1,1)"><path fill="none" stroke="#000000" d="M 383.7386389987397 299.03711337509964 L 394 303 L 389.54630605734616 292.94193804626514" stroke-miterlimit="10"/></g><g transform="translate(-142,-6) scale(1,1)"><g><path fill="none" stroke="none"/><text fill="#000000" stroke="none" font-family="Arial" font-size="13px" font-style="normal" font-weight="normal" text-decoration="none" x="396.64404296875" y="299">-console</text></g></g><g transform="translate(-142,-6) scale(1,1)"><g><path fill="none" stroke="none"/><text fill="#000000" stroke="none" font-family="Arial" font-size="13px" font-style="normal" font-weight="normal" text-decoration="none" x="367.5" y="298">1</text></g></g><g transform="translate(-142,-6) scale(1,1)"><path fill="none" stroke="#000000" d="M 260 202 L 270 311" stroke-miterlimit="10"/></g><g transform="translate(-142,-6) scale(1,1)"><path fill="none" stroke="#000000" d="M 264.879630164037 301.2644048593339 L 270 311 L 273.26345710965927 300.49524642395573" stroke-miterlimit="10"/></g><g transform="translate(-142,-6) scale(1,1)"><g><path fill="none" stroke="none"/><text fill="#000000" stroke="none" font-family="Arial" font-size="13px" font-style="normal" font-weight="normal" text-decoration="none" x="271.13134765625" y="299">-PARSER</text></g></g><g transform="translate(-142,-6) scale(1,1)"><g><path fill="none" stroke="none"/><text fill="#000000" stroke="none" font-family="Arial" font-size="13px" font-style="normal" font-weight="normal" text-decoration="none" x="243.5" y="301">1</text></g></g><g transform="translate(-142,-6) scale(1,1)"><path fill="none" stroke="#000000" d="M 715 171 L 831 170" stroke-miterlimit="10"/></g><g transform="translate(-142,-6) scale(1,1)"><path fill="none" stroke="#000000" d="M 820.8739903452937 174.29696735765992 L 831 170 L 820.8014151496582 165.8782446639353" stroke-miterlimit="10"/></g><g transform="translate(-142,-6) scale(1,1)"><g><path fill="none" stroke="none"/><text fill="#000000" stroke="none" font-family="Arial" font-size="13px" font-style="normal" font-weight="normal" text-decoration="none" x="736.13134765625" y="162">-currentGame</text></g></g><g transform="translate(-142,-6) scale(1,1)"><g><path fill="none" stroke="none"/><text fill="#000000" stroke="none" font-family="Arial" font-size="13px" font-style="normal" font-weight="normal" text-decoration="none" x="798.5" y="187">0..1</text></g></g><g transform="translate(-142,-6) scale(1,1)"><path fill="none" stroke="#000000" d="M 892 214 L 892 263" stroke-miterlimit="10"/></g><g transform="translate(-142,-6) scale(1,1)"><path fill="none" stroke="#000000" d="M 887.790482243984 252.83732514237585 L 892 263 L 896.209517756016 252.83732514237585" stroke-miterlimit="10"/></g><g transform="translate(-142,-6) scale(1,1)"><g><path fill="none" stroke="none"/><text fill="#000000" stroke="none" font-family="Arial" font-size="13px" font-style="normal" font-weight="normal" text-decoration="none" x="875.5" y="259">1</text></g></g><g transform="translate(-142,-6) scale(1,1)"><path fill="#ffffff" stroke="none" d="M 952 376 L 1084 376 L 1094 386 L 1094 451 L 952 451 L 952 376"/></g><g transform="translate(-142,-6) scale(1,1)"><path fill="none" stroke="#000000" d="M 952 376 L 1084 376 L 1094 386 L 1094 451 L 952 451 L 952 376 L 952 376" stroke-miterlimit="10"/></g><g transform="translate(-142,-6) scale(1,1)"><path fill="none" stroke="#000000" d="M 1084 376 L 1084 386 L 1094 386 L 1084 376" stroke-miterlimit="10"/></g><g transform="translate(-142,-6) scale(1,1)"><g><path fill="none" stroke="none"/><text fill="#000000" stroke="none" font-family="Arial" font-size="13px" font-style="normal" font-weight="normal" text-decoration="none" x="957" y="391">Viene creato un Array</text><text fill="#000000" stroke="none" font-family="Arial" font-size="13px" font-style="normal" font-weight="normal" text-decoration="none" x="957" y="404">di Guess vuoto (non</text><text fill="#000000" stroke="none" font-family="Arial" font-size="13px" font-style="normal" font-weight="normal" text-decoration="none" x="957" y="417">sono creati gli oggetti</text><text fill="#000000" stroke="none" font-family="Arial" font-size="13px" font-style="normal" font-weight="normal" text-decoration="none" x="957" y="430">di classe Guess)</text></g></g><g transform="translate(-142,-6) scale(1,1)"><path fill="none" stroke="#000000" d="M 892 350 L 892 391" stroke-miterlimit="10"/></g><g transform="translate(-142,-6) scale(1,1)"><path fill="none" stroke="#000000" d="M 887.790482243984 380.83732514237585 L 892 391 L 896.209517756016 380.83732514237585" stroke-miterlimit="10"/></g><g transform="translate(-142,-6) scale(1,1)"><path fill="none" stroke="#000000" d="M 892 214 L 892 263" stroke-miterlimit="10"/></g><g transform="translate(-142,-6) scale(1,1)"><path fill="none" stroke="#000000" d="M 887.790482243984 252.83732514237585 L 892 263 L 896.209517756016 252.83732514237585" stroke-miterlimit="10"/></g><g transform="translate(-142,-6) scale(1,1)"><g><path fill="none" stroke="none"/><text fill="#000000" stroke="none" font-family="Arial" font-size="13px" font-style="normal" font-weight="normal" text-decoration="none" x="902.13134765625" y="257">-gameBoard</text></g></g><g transform="translate(-142,-6) scale(1,1)"><path fill="none" stroke="#000000" d="M 363 172 L 559 172" stroke-miterlimit="10"/></g><g transform="translate(-142,-6) scale(1,1)"><path fill="none" stroke="#000000" d="M 548.8373251423759 176.209517756016 L 559 172 L 548.8373251423758 167.790482243984" stroke-miterlimit="10"/></g><g transform="translate(-142,-6) scale(1,1)"><g><path fill="none" stroke="none"/><text fill="#000000" stroke="none" font-family="Arial" font-size="13px" font-style="normal" font-weight="normal" text-decoration="none" x="401.287109375" y="170">-player_controller</text></g></g><g transform="translate(-142,-6) scale(1,1)"><g><path fill="none" stroke="none"/><text fill="#000000" stroke="none" font-family="Arial" font-size="13px" font-style="normal" font-weight="normal" text-decoration="none" x="533.5" y="189">1</text></g></g><g transform="translate(-142,-6) scale(1,1)"><rect fill="#C0C0C0" stroke="none" x="439" y="23" width="101.44091796875" height="70" opacity="0.2"/></g><g transform="translate(-142,-6) scale(1,1)"><rect fill="#ffffff" stroke="none" x="432" y="16" width="101.44091796875" height="70"/></g><g transform="translate(-142,-6) scale(1,1)"><path fill="none" stroke="#000000" d="M 432 16 L 533.44091796875 16 L 533.44091796875 86 L 432 86 L 432 16 Z Z" stroke-miterlimit="10"/></g><g transform="translate(-142,-6) scale(1,1)"><path fill="none" stroke="#000000" d="M 432 54 L 533.44091796875 54" stroke-miterlimit="10"/></g><g transform="translate(-142,-6) scale(1,1)"><path fill="none" stroke="#000000" d="M 432 64 L 533.44091796875 64" stroke-miterlimit="10"/></g><g transform="translate(-142,-6) scale(1,1)"><g><path fill="none" stroke="none"/><text fill="#000000" stroke="none" font-family="Arial" font-size="13px" font-style="normal" font-weight="normal" text-decoration="none" x="448.385986328125" y="32">«boundary»</text></g></g><g transform="translate(-142,-6) scale(1,1)"><g><path fill="none" stroke="none"/><text fill="#000000" stroke="none" font-family="Arial" font-size="13px" font-style="normal" font-weight="bold" text-decoration="none" x="436.5" y="47">App.Command</text></g></g><g transform="translate(-142,-6) scale(1,1)"><g><path fill="none" stroke="none"/><text fill="#000000" stroke="none" font-family="Arial" font-size="13px" font-style="normal" font-weight="normal" text-decoration="none" x="437" y="80">+execute()</text></g></g><g transform="translate(-142,-6) scale(1,1)"><path fill="none" stroke="#000000" d="M 311 143 L 431 78" stroke-miterlimit="10" stroke-dasharray="3"/></g><g transform="translate(-142,-6) scale(1,1)"><path fill="none" stroke="#000000" d="M 424.0689640098393 86.54170592464395 L 431 78 L 420.05911926849234 79.13891563292641" stroke-miterlimit="10"/></g><g transform="translate(-142,-6) scale(1,1)"><g><path fill="none" stroke="none"/><text fill="#000000" stroke="none" font-family="Arial" font-size="13px" font-style="normal" font-weight="normal" text-decoration="none" x="339.5" y="88">«call»</text></g></g></g></svg>