<svg version="1.1" xmlns="http://www.w3.org/2000/svg" xmlns:xlink="http://www.w3.org/1999/xlink" width="733.45263671875" height="412"><defs/><g><text fill="#eeeeee" stroke="none" font-family="Arial" font-size="24px" font-style="normal" font-weight="normal" text-decoration="none" x="0" y="0">UNREGISTERED</text><text fill="#eeeeee" stroke="none" font-family="Arial" font-size="24px" font-style="normal" font-weight="normal" text-decoration="none" x="0" y="30">UNREGISTERED</text><text fill="#eeeeee" stroke="none" font-family="Arial" font-size="24px" font-style="normal" font-weight="normal" text-decoration="none" x="0" y="60">UNREGISTERED</text><text fill="#eeeeee" stroke="none" font-family="Arial" font-size="24px" font-style="normal" font-weight="normal" text-decoration="none" x="0" y="90">UNREGISTERED</text><text fill="#eeeeee" stroke="none" font-family="Arial" font-size="24px" font-style="normal" font-weight="normal" text-decoration="none" x="0" y="120">UNREGISTERED</text><text fill="#eeeeee" stroke="none" font-family="Arial" font-size="24px" font-style="normal" font-weight="normal" text-decoration="none" x="0" y="150">UNREGISTERED</text><text fill="#eeeeee" stroke="none" font-family="Arial" font-size="24px" font-style="normal" font-weight="normal" text-decoration="none" x="0" y="180">UNREGISTERED</text><text fill="#eeeeee" stroke="none" font-family="Arial" font-size="24px" font-style="normal" font-weight="normal" text-decoration="none" x="0" y="210">UNREGISTERED</text><text fill="#eeeeee" stroke="none" font-family="Arial" font-size="24px" font-style="normal" font-weight="normal" text-decoration="none" x="0" y="240">UNREGISTERED</text><text fill="#eeeeee" stroke="none" font-family="Arial" font-size="24px" font-style="normal" font-weight="normal" text-decoration="none" x="0" y="270">UNREGISTERED</text><text fill="#eeeeee" stroke="none" font-family="Arial" font-size="24px" font-style="normal" font-weight="normal" text-decoration="none" x="0" y="300">UNREGISTERED</text><text fill="#eeeeee" stroke="none" font-family="Arial" font-size="24px" font-style="normal" font-weight="normal" text-decoration="none" x="0" y="330">UNREGISTERED</text><text fill="#eeeeee" stroke="none" font-family="Arial" font-size="24px" font-style="normal" font-weight="normal" text-decoration="none" x="0" y="360">UNREGISTERED</text><text fill="#eeeeee" stroke="none" font-family="Arial" font-size="24px" font-style="normal" font-weight="normal" text-decoration="none" x="0" y="390">UNREGISTERED</text><text fill="#eeeeee" stroke="none" font-family="Arial" font-size="24px" font-style="normal" font-weight="normal" text-decoration="none" x="200" y="0">UNREGISTERED</text><text fill="#eeeeee" stroke="none" font-family="Arial" font-size="24px" font-style="normal" font-weight="normal" text-decoration="none" x="200" y="30">UNREGISTERED</text><text fill="#eeeeee" stroke="none" font-family="Arial" font-size="24px" font-style="normal" font-weight="normal" text-decoration="none" x="200" y="60">UNREGISTERED</text><text fill="#eeeeee" stroke="none" font-family="Arial" font-size="24px" font-style="normal" font-weight="normal" text-decoration="none" x="200" y="90">UNREGISTERED</text><text fill="#eeeeee" stroke="none" font-family="Arial" font-size="24px" font-style="normal" font-weight="normal" text-decoration="none" x="200" y="120">UNREGISTERED</text><text fill="#eeeeee" stroke="none" font-family="Arial" font-size="24px" font-style="normal" font-weight="normal" text-decoration="none" x="200" y="150">UNREGISTERED</text><text fill="#eeeeee" stroke="none" font-family="Arial" font-size="24px" font-style="normal" font-weight="normal" text-decoration="none" x="200" y="180">UNREGISTERED</text><text fill="#eeeeee" stroke="none" font-family="Arial" font-size="24px" font-style="normal" font-weight="normal" text-decoration="none" x="200" y="210">UNREGISTERED</text><text fill="#eeeeee" stroke="none" font-family="Arial" font-size="24px" font-style="normal" font-weight="normal" text-decoration="none" x="200" y="240">UNREGISTERED</text><text fill="#eeeeee" stroke="none" font-family="Arial" font-size="24px" font-style="normal" font-weight="normal" text-decoration="none" x="200" y="270">UNREGISTERED</text><text fill="#eeeeee" stroke="none" font-family="Arial" font-size="24px" font-style="normal" font-weight="normal" text-decoration="none" x="200" y="300">UNREGISTERED</text><text fill="#eeeeee" stroke="none" font-family="Arial" font-size="24px" font-style="normal" font-weight="normal" text-decoration="none" x="200" y="330">UNREGISTERED</text><text fill="#eeeeee" stroke="none" font-family="Arial" font-size="24px" font-style="normal" font-weight="normal" text-decoration="none" x="200" y="360">UNREGISTERED</text><text fill="#eeeeee" stroke="none" font-family="Arial" font-size="24px" font-style="normal" font-weight="normal" text-decoration="none" x="200" y="390">UNREGISTERED</text><text fill="#eeeeee" stroke="none" font-family="Arial" font-size="24px" font-style="normal" font-weight="normal" text-decoration="none" x="400" y="0">UNREGISTERED</text><text fill="#eeeeee" stroke="none" font-family="Arial" font-size="24px" font-style="normal" font-weight="normal" text-decoration="none" x="400" y="30">UNREGISTERED</text><text fill="#eeeeee" stroke="none" font-family="Arial" font-size="24px" font-style="normal" font-weight="normal" text-decoration="none" x="400" y="60">UNREGISTERED</text><text fill="#eeeeee" stroke="none" font-family="Arial" font-size="24px" font-style="normal" font-weight="normal" text-decoration="none" x="400" y="90">UNREGISTERED</text><text fill="#eeeeee" stroke="none" font-family="Arial" font-size="24px" font-style="normal" font-weight="normal" text-decoration="none" x="400" y="120">UNREGISTERED</text><text fill="#eeeeee" stroke="none" font-family="Arial" font-size="24px" font-style="normal" font-weight="normal" text-decoration="none" x="400" y="150">UNREGISTERED</text><text fill="#eeeeee" stroke="none" font-family="Arial" font-size="24px" font-style="normal" font-weight="normal" text-decoration="none" x="400" y="180">UNREGISTERED</text><text fill="#eeeeee" stroke="none" font-family="Arial" font-size="24px" font-style="normal" font-weight="normal" text-decoration="none" x="400" y="210">UNREGISTERED</text><text fill="#eeeeee" stroke="none" font-family="Arial" font-size="24px" font-style="normal" font-weight="normal" text-decoration="none" x="400" y="240">UNREGISTERED</text><text fill="#eeeeee" stroke="none" font-family="Arial" font-size="24px" font-style="normal" font-weight="normal" text-decoration="none" x="400" y="270">UNREGISTERED</text><text fill="#eeeeee" stroke="none" font-family="Arial" font-size="24px" font-style="normal" font-weight="normal" text-decoration="none" x="400" y="300">UNREGISTERED</text><text fill="#eeeeee" stroke="none" font-family="Arial" font-size="24px" font-style="normal" font-weight="normal" text-decoration="none" x="400" y="330">UNREGISTERED</text><text fill="#eeeeee" stroke="none" font-family="Arial" font-size="24px" font-style="normal" font-weight="normal" text-decoration="none" x="400" y="360">UNREGISTERED</text><text fill="#eeeeee" stroke="none" font-family="Arial" font-size="24px" font-style="normal" font-weight="normal" text-decoration="none" x="400" y="390">UNREGISTERED</text><text fill="#eeeeee" stroke="none" font-family="Arial" font-size="24px" font-style="normal" font-weight="normal" text-decoration="none" x="600" y="0">UNREGISTERED</text><text fill="#eeeeee" stroke="none" font-family="Arial" font-size="24px" font-style="normal" font-weight="normal" text-decoration="none" x="600" y="30">UNREGISTERED</text><text fill="#eeeeee" stroke="none" font-family="Arial" font-size="24px" font-style="normal" font-weight="normal" text-decoration="none" x="600" y="60">UNREGISTERED</text><text fill="#eeeeee" stroke="none" font-family="Arial" font-size="24px" font-style="normal" font-weight="normal" text-decoration="none" x="600" y="90">UNREGISTERED</text><text fill="#eeeeee" stroke="none" font-family="Arial" font-size="24px" font-style="normal" font-weight="normal" text-decoration="none" x="600" y="120">UNREGISTERED</text><text fill="#eeeeee" stroke="none" font-family="Arial" font-size="24px" font-style="normal" font-weight="normal" text-decoration="none" x="600" y="150">UNREGISTERED</text><text fill="#eeeeee" stroke="none" font-family="Arial" font-size="24px" font-style="normal" font-weight="normal" text-decoration="none" x="600" y="180">UNREGISTERED</text><text fill="#eeeeee" stroke="none" font-family="Arial" font-size="24px" font-style="normal" font-weight="normal" text-decoration="none" x="600" y="210">UNREGISTERED</text><text fill="#eeeeee" stroke="none" font-family="Arial" font-size="24px" font-style="normal" font-weight="normal" text-decoration="none" x="600" y="240">UNREGISTERED</text><text fill="#eeeeee" stroke="none" font-family="Arial" font-size="24px" font-style="normal" font-weight="normal" text-decoration="none" x="600" y="270">UNREGISTERED</text><text fill="#eeeeee" stroke="none" font-family="Arial" font-size="24px" font-style="normal" font-weight="normal" text-decoration="none" x="600" y="300">UNREGISTERED</text><text fill="#eeeeee" stroke="none" font-family="Arial" font-size="24px" font-style="normal" font-weight="normal" text-decoration="none" x="600" y="330">UNREGISTERED</text><text fill="#eeeeee" stroke="none" font-family="Arial" font-size="24px" font-style="normal" font-weight="normal" text-decoration="none" x="600" y="360">UNREGISTERED</text><text fill="#eeeeee" stroke="none" font-family="Arial" font-size="24px" font-style="normal" font-weight="normal" text-decoration="none" x="600" y="390">UNREGISTERED</text><g transform="translate(-142,-30) scale(1,1)"><rect fill="#C0C0C0" stroke="none" x="159" y="151" width="202.69873046875" height="80" opacity="0.2"/></g><g transform="translate(-142,-30) scale(1,1)"><rect fill="#ffffff" stroke="none" x="152" y="144" width="202.69873046875" height="80"/></g><g transform="translate(-142,-30) scale(1,1)"><path fill="none" stroke="#000000" d="M 152 144 L 354.69873046875 144 L 354.69873046875 224 L 152 224 L 152 144 Z Z" stroke-miterlimit="10"/></g><g transform="translate(-142,-30) scale(1,1)"><path fill="none" stroke="#000000" d="M 152 182 L 354.69873046875 182" stroke-miterlimit="10"/></g><g transform="translate(-142,-30) scale(1,1)"><path fill="none" stroke="#000000" d="M 152 205 L 354.69873046875 205" stroke-miterlimit="10"/></g><g transform="translate(-142,-30) scale(1,1)"><g><path fill="none" stroke="none"/><text fill="#000000" stroke="none" font-family="Arial" font-size="13px" font-style="normal" font-weight="normal" text-decoration="none" x="219.014892578125" y="160">«boundary»</text></g></g><g transform="translate(-142,-30) scale(1,1)"><g><path fill="none" stroke="none"/><text fill="#000000" stroke="none" font-family="Arial" font-size="13px" font-style="normal" font-weight="bold" text-decoration="none" x="240.71435546875" y="175">App</text></g></g><g transform="translate(-142,-30) scale(1,1)"><g><path fill="none" stroke="none"/><text fill="#000000" stroke="none" font-family="Arial" font-size="13px" font-style="normal" font-weight="normal" text-decoration="none" x="157" y="198">-keyboard: Scanner</text><path fill="none" stroke="#000000" d="M 157 199.5 L 270.45166015625 199.5" stroke-miterlimit="10"/></g></g><g transform="translate(-142,-30) scale(1,1)"><rect fill="#C0C0C0" stroke="none" x="191" y="375" width="137.59716796875" height="57" opacity="0.2"/></g><g transform="translate(-142,-30) scale(1,1)"><rect fill="#ffffff" stroke="none" x="184" y="368" width="137.59716796875" height="57"/></g><g transform="translate(-142,-30) scale(1,1)"><path fill="none" stroke="#000000" d="M 184 368 L 321.59716796875 368 L 321.59716796875 425 L 184 425 L 184 368 Z Z" stroke-miterlimit="10"/></g><g transform="translate(-142,-30) scale(1,1)"><path fill="none" stroke="#000000" d="M 184 406 L 321.59716796875 406" stroke-miterlimit="10"/></g><g transform="translate(-142,-30) scale(1,1)"><path fill="none" stroke="#000000" d="M 184 416 L 321.59716796875 416" stroke-miterlimit="10"/></g><g transform="translate(-142,-30) scale(1,1)"><g><path fill="none" stroke="none"/><text fill="#000000" stroke="none" font-family="Arial" font-size="13px" font-style="normal" font-weight="normal" text-decoration="none" x="218.464111328125" y="384">«boundary»</text></g></g><g transform="translate(-142,-30) scale(1,1)"><g><path fill="none" stroke="none"/><text fill="#000000" stroke="none" font-family="Arial" font-size="13px" font-style="normal" font-weight="bold" text-decoration="none" x="232.55908203125" y="399">Parser</text></g></g><g transform="translate(-142,-30) scale(1,1)"><rect fill="#C0C0C0" stroke="none" x="391" y="375" width="137.99072265625" height="57" opacity="0.2"/></g><g transform="translate(-142,-30) scale(1,1)"><rect fill="#ffffff" stroke="none" x="384" y="368" width="137.99072265625" height="57"/></g><g transform="translate(-142,-30) scale(1,1)"><path fill="none" stroke="#000000" d="M 384 368 L 521.99072265625 368 L 521.99072265625 425 L 384 425 L 384 368 Z Z" stroke-miterlimit="10"/></g><g transform="translate(-142,-30) scale(1,1)"><path fill="none" stroke="#000000" d="M 384 406 L 521.99072265625 406" stroke-miterlimit="10"/></g><g transform="translate(-142,-30) scale(1,1)"><path fill="none" stroke="#000000" d="M 384 416 L 521.99072265625 416" stroke-miterlimit="10"/></g><g transform="translate(-142,-30) scale(1,1)"><g><path fill="none" stroke="none"/><text fill="#000000" stroke="none" font-family="Arial" font-size="13px" font-style="normal" font-weight="normal" text-decoration="none" x="418.660888671875" y="384">«boundary»</text></g></g><g transform="translate(-142,-30) scale(1,1)"><g><path fill="none" stroke="none"/><text fill="#000000" stroke="none" font-family="Arial" font-size="13px" font-style="normal" font-weight="bold" text-decoration="none" x="432.044921875" y="399">Printer</text></g></g><g transform="translate(-142,-30) scale(1,1)"><rect fill="#C0C0C0" stroke="none" x="687" y="135" width="184.21435546875" height="112" opacity="0.2"/></g><g transform="translate(-142,-30) scale(1,1)"><rect fill="#ffffff" stroke="none" x="680" y="128" width="184.21435546875" height="112"/></g><g transform="translate(-142,-30) scale(1,1)"><path fill="none" stroke="#000000" d="M 680 128 L 864.21435546875 128 L 864.21435546875 240 L 680 240 L 680 128 Z Z" stroke-miterlimit="10"/></g><g transform="translate(-142,-30) scale(1,1)"><path fill="none" stroke="#000000" d="M 680 166 L 864.21435546875 166" stroke-miterlimit="10"/></g><g transform="translate(-142,-30) scale(1,1)"><path fill="none" stroke="#000000" d="M 680 191 L 864.21435546875 191" stroke-miterlimit="10"/></g><g transform="translate(-142,-30) scale(1,1)"><g><path fill="none" stroke="none"/><text fill="#000000" stroke="none" font-family="Arial" font-size="13px" font-style="normal" font-weight="normal" text-decoration="none" x="745.36767578125" y="144">«control»</text></g></g><g transform="translate(-142,-30) scale(1,1)"><g><path fill="none" stroke="none"/><text fill="#000000" stroke="none" font-family="Arial" font-size="13px" font-style="normal" font-weight="bold" text-decoration="none" x="699.62646484375" y="159">WordlePlayerController</text></g></g><g transform="translate(-142,-30) scale(1,1)"><g><path fill="none" stroke="none"/><text fill="#000000" stroke="none" font-family="Arial" font-size="13px" font-style="normal" font-weight="normal" text-decoration="none" x="685" y="184">-session: WordleSession</text></g></g><g transform="translate(-142,-30) scale(1,1)"><g><path fill="none" stroke="none"/><text fill="#000000" stroke="none" font-family="Arial" font-size="13px" font-style="normal" font-weight="normal" text-decoration="none" x="685" y="207">+endGame()</text><path fill="none" stroke="#000000" d="M 685 208.5 L 758.3408203125 208.5" stroke-miterlimit="10"/></g></g><g transform="translate(-142,-30) scale(1,1)"><g><path fill="none" stroke="none"/><text fill="#000000" stroke="none" font-family="Arial" font-size="13px" font-style="normal" font-weight="normal" text-decoration="none" x="685" y="222">+isGameRunning()</text><path fill="none" stroke="#000000" d="M 685 223.5 L 794.46533203125 223.5" stroke-miterlimit="10"/></g></g><g transform="translate(-142,-30) scale(1,1)"><rect fill="#C0C0C0" stroke="none" x="687" y="351" width="184.21435546875" height="88" opacity="0.2"/></g><g transform="translate(-142,-30) scale(1,1)"><rect fill="#ffffff" stroke="none" x="680" y="344" width="184.21435546875" height="88"/></g><g transform="translate(-142,-30) scale(1,1)"><path fill="none" stroke="#000000" d="M 680 344 L 864.21435546875 344 L 864.21435546875 432 L 680 432 L 680 344 Z Z" stroke-miterlimit="10"/></g><g transform="translate(-142,-30) scale(1,1)"><path fill="none" stroke="#000000" d="M 680 382 L 864.21435546875 382" stroke-miterlimit="10"/></g><g transform="translate(-142,-30) scale(1,1)"><path fill="none" stroke="#000000" d="M 680 420 L 864.21435546875 420" stroke-miterlimit="10"/></g><g transform="translate(-142,-30) scale(1,1)"><g><path fill="none" stroke="none"/><text fill="#000000" stroke="none" font-family="Arial" font-size="13px" font-style="normal" font-weight="normal" text-decoration="none" x="749.34130859375" y="360">«entity»</text></g></g><g transform="translate(-142,-30) scale(1,1)"><g><path fill="none" stroke="none"/><text fill="#000000" stroke="none" font-family="Arial" font-size="13px" font-style="normal" font-weight="bold" text-decoration="none" x="732.1328125" y="375">WordleGame</text></g></g><g transform="translate(-142,-30) scale(1,1)"><g><path fill="none" stroke="none"/><text fill="#000000" stroke="none" font-family="Arial" font-size="13px" font-style="normal" font-weight="normal" text-decoration="none" x="685" y="398">-secretWord: String</text></g></g><g transform="translate(-142,-30) scale(1,1)"><g><path fill="none" stroke="none"/><text fill="#000000" stroke="none" font-family="Arial" font-size="13px" font-style="normal" font-weight="normal" text-decoration="none" x="685" y="413">-gameBoard: int</text></g></g><g transform="translate(-142,-30) scale(1,1)"><path fill="none" stroke="#000000" d="M 772 241 L 772 343" stroke-miterlimit="10"/></g><g transform="translate(-142,-30) scale(1,1)"><path fill="none" stroke="#000000" d="M 767.790482243984 332.83732514237585 L 772 343 L 776.209517756016 332.83732514237585" stroke-miterlimit="10"/></g><g transform="translate(-142,-30) scale(1,1)"><g><path fill="none" stroke="none"/><text fill="#000000" stroke="none" font-family="Arial" font-size="13px" font-style="normal" font-weight="normal" text-decoration="none" x="784.13134765625" y="339">-currentGame</text></g></g><g transform="translate(-142,-30) scale(1,1)"><g><path fill="none" stroke="none"/><text fill="#000000" stroke="none" font-family="Arial" font-size="13px" font-style="normal" font-weight="normal" text-decoration="none" x="726.5" y="339">0..1</text></g></g><g transform="translate(-142,-30) scale(1,1)"><path fill="none" stroke="#000000" d="M 291 225 L 425 367" stroke-miterlimit="10"/></g><g transform="translate(-142,-30) scale(1,1)"><path fill="none" stroke="#000000" d="M 414.9635553724216 362.49780284332724 L 425 367 L 421.0866960845581 356.71962780511393" stroke-miterlimit="10"/></g><g transform="translate(-142,-30) scale(1,1)"><g><path fill="none" stroke="none"/><text fill="#000000" stroke="none" font-family="Arial" font-size="13px" font-style="normal" font-weight="normal" text-decoration="none" x="264.13134765625" y="363">-PARSER</text></g></g><g transform="translate(-142,-30) scale(1,1)"><g><path fill="none" stroke="none"/><text fill="#000000" stroke="none" font-family="Arial" font-size="13px" font-style="normal" font-weight="normal" text-decoration="none" x="437.64404296875" y="363">-console</text></g></g><g transform="translate(-142,-30) scale(1,1)"><g><path fill="none" stroke="none"/><text fill="#000000" stroke="none" font-family="Arial" font-size="13px" font-style="normal" font-weight="normal" text-decoration="none" x="395.5" y="361">1</text></g></g><g transform="translate(-142,-30) scale(1,1)"><path fill="none" stroke="#000000" d="M 253 225 L 252 367" stroke-miterlimit="10"/></g><g transform="translate(-142,-30) scale(1,1)"><path fill="none" stroke="#000000" d="M 247.8621529803281 356.8079333772884 L 252 367 L 256.2809797361019 356.86722088965297" stroke-miterlimit="10"/></g><g transform="translate(-142,-30) scale(1,1)"><g><path fill="none" stroke="none"/><text fill="#000000" stroke="none" font-family="Arial" font-size="13px" font-style="normal" font-weight="normal" text-decoration="none" x="230.5" y="362">1</text></g></g><g transform="translate(-142,-30) scale(1,1)"><rect fill="#C0C0C0" stroke="none" x="527" y="47" width="108.0361328125" height="70" opacity="0.2"/></g><g transform="translate(-142,-30) scale(1,1)"><rect fill="#ffffff" stroke="none" x="520" y="40" width="108.0361328125" height="70"/></g><g transform="translate(-142,-30) scale(1,1)"><path fill="none" stroke="#000000" d="M 520 40 L 628.0361328125 40 L 628.0361328125 110 L 520 110 L 520 40 Z Z" stroke-miterlimit="10"/></g><g transform="translate(-142,-30) scale(1,1)"><path fill="none" stroke="#000000" d="M 520 78 L 628.0361328125 78" stroke-miterlimit="10"/></g><g transform="translate(-142,-30) scale(1,1)"><path fill="none" stroke="#000000" d="M 520 88 L 628.0361328125 88" stroke-miterlimit="10"/></g><g transform="translate(-142,-30) scale(1,1)"><g><path fill="none" stroke="none"/><text fill="#000000" stroke="none" font-family="Arial" font-size="13px" font-style="normal" font-weight="normal" text-decoration="none" x="539.68359375" y="56">«boundary»</text></g></g><g transform="translate(-142,-30) scale(1,1)"><g><path fill="none" stroke="none"/><text fill="#000000" stroke="none" font-family="Arial" font-size="13px" font-style="normal" font-weight="bold" text-decoration="none" x="527.797607421875" y="71">App.Command</text></g></g><g transform="translate(-142,-30) scale(1,1)"><g><path fill="none" stroke="none"/><text fill="#000000" stroke="none" font-family="Arial" font-size="13px" font-style="normal" font-weight="normal" text-decoration="none" x="525" y="104">+execute()</text></g></g><g transform="translate(-142,-30) scale(1,1)"><path fill="none" stroke="#000000" d="M 356 149 L 519 94" stroke-miterlimit="10" stroke-dasharray="3"/></g><g transform="translate(-142,-30) scale(1,1)"><path fill="none" stroke="#000000" d="M 510.71655960540016 101.23772168773515 L 519 94 L 508.0248810396854 93.26056521116236" stroke-miterlimit="10"/></g><g transform="translate(-142,-30) scale(1,1)"><g><path fill="none" stroke="none"/><text fill="#000000" stroke="none" font-family="Arial" font-size="13px" font-style="normal" font-weight="normal" text-decoration="none" x="415.5" y="113">«call»</text></g></g><g transform="translate(-142,-30) scale(1,1)"><path fill="none" stroke="#000000" d="M 356 184 L 679 184" stroke-miterlimit="10"/></g><g transform="translate(-142,-30) scale(1,1)"><path fill="none" stroke="#000000" d="M 668.8373251423759 188.209517756016 L 679 184 L 668.8373251423758 179.790482243984" stroke-miterlimit="10"/></g><g transform="translate(-142,-30) scale(1,1)"><g><path fill="none" stroke="none"/><text fill="#000000" stroke="none" font-family="Arial" font-size="13px" font-style="normal" font-weight="normal" text-decoration="none" x="457.287109375" y="178">-player_controller</text></g></g><g transform="translate(-142,-30) scale(1,1)"><g><path fill="none" stroke="none"/><text fill="#000000" stroke="none" font-family="Arial" font-size="13px" font-style="normal" font-weight="normal" text-decoration="none" x="654.5" y="201">1</text></g></g></g></svg>