<?xml version="1.0" encoding="utf-8"?>
<!-- Generator: Adobe Illustrator 24.0.0, SVG Export Plug-In . SVG Version: 6.00 Build 0)  -->
<svg version="1.1" id="Livello_1" xmlns="http://www.w3.org/2000/svg" xmlns:xlink="http://www.w3.org/1999/xlink" x="0px" y="0px"
	 viewBox="0 0 780.2 421" style="enable-background:new 0 0 780.2 421;" xml:space="preserve">
<style type="text/css">
	.st0{opacity:0.2;fill:#C0C0C0;enable-background:new    ;}
	.st1{fill:#FFFFFF;}
	.st2{fill:none;stroke:#000000;stroke-miterlimit:10;}
	.st3{font-family:'ArialMT';}
	.st4{font-size:13px;}
	.st5{font-family:'Arial-BoldMT';}
	.st6{fill:none;stroke:#000000;stroke-miterlimit:10;stroke-dasharray:3;}
</style>
<g>
	<g transform="translate(-118,-30) scale(1,1)">
		<rect x="215" y="167" class="st0" width="202.7" height="83"/>
	</g>
	<g transform="translate(-118,-30) scale(1,1)">
		<rect x="208" y="160" class="st1" width="202.7" height="83"/>
	</g>
	<g transform="translate(-118,-30) scale(1,1)">
		<path class="st2" d="M208,160h202.7v83H208V160z"/>
	</g>
	<g transform="translate(-118,-30) scale(1,1)">
		<path class="st2" d="M208,198h202.7"/>
	</g>
	<g transform="translate(-118,-30) scale(1,1)">
		<path class="st2" d="M208,221h202.7"/>
	</g>
	<g transform="translate(-118,-30) scale(1,1)">
		<g>
			<path class="st2" d="M0,0"/>
			<text transform="matrix(1 0 0 1 275.0149 176)" class="st3 st4">«boundary»</text>
		</g>
	</g>
	<g transform="translate(-118,-30) scale(1,1)">
		<g>
			<path d="M0,0"/>
			<text transform="matrix(1 0 0 1 296.7144 191)" class="st5 st4">App</text>
		</g>
	</g>
	<g transform="translate(-118,-30) scale(1,1)">
		<g>
			<path d="M0,0"/>
			<text transform="matrix(1 0 0 1 213 214)" class="st3 st4">-keyboard: Scanner</text>
			<path class="st2" d="M213,215.5h113.5"/>
		</g>
	</g>
	<g transform="translate(-118,-30) scale(1,1)">
		<rect x="247" y="311" class="st0" width="137.6" height="57"/>
	</g>
	<g transform="translate(-118,-30) scale(1,1)">
		<rect x="240" y="304" class="st1" width="137.6" height="57"/>
	</g>
	<g transform="translate(-118,-30) scale(1,1)">
		<path class="st2" d="M240,304h137.6v57H240V304z"/>
	</g>
	<g transform="translate(-118,-30) scale(1,1)">
		<path class="st2" d="M240,342h137.6"/>
	</g>
	<g transform="translate(-118,-30) scale(1,1)">
		<path class="st2" d="M240,352h137.6"/>
	</g>
	<g transform="translate(-118,-30) scale(1,1)">
		<g>
			<path class="st2" d="M0,0"/>
			<text transform="matrix(1 0 0 1 274.4641 320)" class="st3 st4">«boundary»</text>
		</g>
	</g>
	<g transform="translate(-118,-30) scale(1,1)">
		<g>
			<path d="M0,0"/>
			<text transform="matrix(1 0 0 1 288.5591 335)" class="st5 st4">Parser</text>
		</g>
	</g>
	<g transform="translate(-118,-30) scale(1,1)">
		<rect x="711" y="167" class="st0" width="184.2" height="72"/>
	</g>
	<g transform="translate(-118,-30) scale(1,1)">
		<rect x="704" y="160" class="st1" width="184.2" height="72"/>
	</g>
	<g transform="translate(-118,-30) scale(1,1)">
		<path class="st2" d="M704,160h184.2v72H704V160z"/>
	</g>
	<g transform="translate(-118,-30) scale(1,1)">
		<path class="st2" d="M704,198h184.2"/>
	</g>
	<g transform="translate(-118,-30) scale(1,1)">
		<path class="st2" d="M704,208h184.2"/>
	</g>
	<g transform="translate(-118,-30) scale(1,1)">
		<g>
			<path class="st2" d="M0,0"/>
			<text transform="matrix(1 0 0 1 769.3677 176)" class="st3 st4">«control»</text>
		</g>
	</g>
	<g transform="translate(-118,-30) scale(1,1)">
		<g>
			<path d="M0,0"/>
			<text transform="matrix(1 0 0 1 709.3188 191)" class="st5 st4">WordleWordsmithController</text>
		</g>
	</g>
	<g transform="translate(-118,-30) scale(1,1)">
		<g>
			<path d="M0,0"/>
			<text transform="matrix(1 0 0 1 709 224)" class="st3 st4">+setSecretWord()</text>
		</g>
	</g>
	<g transform="translate(-118,-30) scale(1,1)">
		<path class="st2" d="M309,244l-1,59"/>
	</g>
	<g transform="translate(-118,-30) scale(1,1)">
		<path class="st2" d="M304,292.8l4,10.2l4.4-10.1"/>
	</g>
	<g transform="translate(-118,-30) scale(1,1)">
		<g>
			<path class="st2" d="M0,0"/>
			<text transform="matrix(1 0 0 1 319.1313 299)" class="st3 st4">-PARSER</text>
		</g>
	</g>
	<g transform="translate(-118,-30) scale(1,1)">
		<g>
			<path d="M0,0"/>
			<text transform="matrix(1 0 0 1 291.5 298)" class="st3 st4">1</text>
		</g>
	</g>
	<g transform="translate(-118,-30) scale(1,1)">
		<rect x="439" y="311" class="st0" width="134.7" height="57"/>
	</g>
	<g transform="translate(-118,-30) scale(1,1)">
		<rect x="432" y="304" class="st1" width="134.7" height="57"/>
	</g>
	<g transform="translate(-118,-30) scale(1,1)">
		<path class="st2" d="M432,304h134.7v57H432V304z"/>
	</g>
	<g transform="translate(-118,-30) scale(1,1)">
		<path class="st2" d="M432,342h134.7"/>
	</g>
	<g transform="translate(-118,-30) scale(1,1)">
		<path class="st2" d="M432,352h134.7"/>
	</g>
	<g transform="translate(-118,-30) scale(1,1)">
		<g>
			<path class="st2" d="M0,0"/>
			<text transform="matrix(1 0 0 1 465.0295 320)" class="st3 st4">«boundary»</text>
		</g>
	</g>
	<g transform="translate(-118,-30) scale(1,1)">
		<g>
			<path d="M0,0"/>
			<text transform="matrix(1 0 0 1 456.5046 335)" class="st5 st4">WordlePrinter</text>
		</g>
	</g>
	<g transform="translate(-118,-30) scale(1,1)">
		<path class="st2" d="M371,244l86,59"/>
	</g>
	<g transform="translate(-118,-30) scale(1,1)">
		<path class="st2" d="M446.2,300.7L457,303l-6-9.2"/>
	</g>
	<g transform="translate(-118,-30) scale(1,1)">
		<g>
			<path class="st2" d="M0,0"/>
			<text transform="matrix(1 0 0 1 468.644 299)" class="st3 st4">-console</text>
		</g>
	</g>
	<g transform="translate(-118,-30) scale(1,1)">
		<g>
			<path d="M0,0"/>
			<text transform="matrix(1 0 0 1 423.5 298)" class="st3 st4">1</text>
		</g>
	</g>
	<g transform="translate(-118,-30) scale(1,1)">
		<path class="st2" d="M412,200l291-3"/>
	</g>
	<g transform="translate(-118,-30) scale(1,1)">
		<path class="st2" d="M692.9,201.3L703,197l-10.2-4.1"/>
	</g>
	<g transform="translate(-118,-30) scale(1,1)">
		<g>
			<path class="st2" d="M0,0"/>
			<text transform="matrix(1 0 0 1 512.1313 190)" class="st3 st4">-WORDSMITH_CONTROLLER</text>
		</g>
	</g>
	<g transform="translate(-118,-30) scale(1,1)">
		<g>
			<path d="M0,0"/>
			<text transform="matrix(1 0 0 1 677.5 214)" class="st3 st4">1</text>
		</g>
	</g>
	<g transform="translate(-118,-30) scale(1,1)">
		<rect x="455" y="47" class="st0" width="105.1" height="70"/>
	</g>
	<g transform="translate(-118,-30) scale(1,1)">
		<rect x="448" y="40" class="st1" width="105.1" height="70"/>
	</g>
	<g transform="translate(-118,-30) scale(1,1)">
		<path class="st2" d="M448,40h105.1v70H448V40z"/>
	</g>
	<g transform="translate(-118,-30) scale(1,1)">
		<path class="st2" d="M448,78h105.1"/>
	</g>
	<g transform="translate(-118,-30) scale(1,1)">
		<path class="st2" d="M448,88h105.1"/>
	</g>
	<g transform="translate(-118,-30) scale(1,1)">
		<g>
			<path class="st2" d="M0,0"/>
			<text transform="matrix(1 0 0 1 466.1919 56)" class="st3 st4">«boundary»</text>
		</g>
	</g>
	<g transform="translate(-118,-30) scale(1,1)">
		<g>
			<path d="M0,0"/>
			<text transform="matrix(1 0 0 1 454.3059 71)" class="st5 st4">App.Command</text>
		</g>
	</g>
	<g transform="translate(-118,-30) scale(1,1)">
		<g>
			<path d="M0,0"/>
			<text transform="matrix(1 0 0 1 453 104)" class="st3 st4">+execute()</text>
		</g>
	</g>
	<g transform="translate(-118,-30) scale(1,1)">
		<path class="st6" d="M373,159l74-49"/>
	</g>
	<g transform="translate(-118,-30) scale(1,1)">
		<path class="st2" d="M440.9,119.1l6.1-9.1l-10.8,2.1"/>
	</g>
	<g transform="translate(-118,-30) scale(1,1)">
		<g>
			<path class="st2" d="M0,0"/>
			<text transform="matrix(1 0 0 1 376.5 113)" class="st3 st4">«call»</text>
		</g>
	</g>
	<g transform="translate(-118,-30) scale(1,1)">
		<path class="st1" d="M128,64h205l10,10v53H128V64"/>
	</g>
	<g transform="translate(-118,-30) scale(1,1)">
		<path class="st2" d="M128,64h205l10,10v53H128V64L128,64"/>
	</g>
	<g transform="translate(-118,-30) scale(1,1)">
		<path class="st2" d="M333,64v10h10L333,64"/>
	</g>
	<g transform="translate(-118,-30) scale(1,1)">
		<g>
			<path class="st2" d="M0,0"/>
			<text transform="matrix(1 0 0 1 133 79)" class="st3 st4">gli attributi PARSER, CONSOLE e</text>
			<text transform="matrix(1 0 0 1 133 92)" class="st3 st4">WORDSMITH_CONTROLLER</text>
			<text transform="matrix(1 0 0 1 133 105)" class="st3 st4">sono statici</text>
		</g>
	</g>
	<g transform="translate(-118,-30) scale(1,1)">
		<rect x="271" y="391" class="st0" width="86.8" height="57"/>
	</g>
	<g transform="translate(-118,-30) scale(1,1)">
		<rect x="264" y="384" class="st1" width="86.8" height="57"/>
	</g>
	<g transform="translate(-118,-30) scale(1,1)">
		<path class="st2" d="M264,384h86.8v57H264V384z"/>
	</g>
	<g transform="translate(-118,-30) scale(1,1)">
		<path class="st2" d="M264,422h86.8"/>
	</g>
	<g transform="translate(-118,-30) scale(1,1)">
		<path class="st2" d="M264,432h86.8"/>
	</g>
	<g transform="translate(-118,-30) scale(1,1)">
		<g>
			<path class="st2" d="M0,0"/>
			<text transform="matrix(1 0 0 1 273.064 400)" class="st3 st4">«boundary»</text>
		</g>
	</g>
	<g transform="translate(-118,-30) scale(1,1)">
		<g>
			<path d="M0,0"/>
			<text transform="matrix(1 0 0 1 268.5 415)" class="st5 st4">ParserToken</text>
		</g>
	</g>
	<g transform="translate(-118,-30) scale(1,1)">
		<path class="st6" d="M308,362l-1,21"/>
	</g>
	<g transform="translate(-118,-30) scale(1,1)">
		<path class="st2" d="M303.3,372.6L307,383l4.7-10"/>
	</g>
	<g transform="translate(-118,-30) scale(1,1)">
		<path class="st0" d="M791.5,82.5c0-6.4,5.1-11.5,11.5-11.5s11.5,5.1,11.5,11.5S809.4,94,803,94S791.5,88.9,791.5,82.5z"/>
	</g>
	<g transform="translate(-118,-30) scale(1,1)">
		<path class="st1" d="M784.5,75.5c0-6.4,5.1-11.5,11.5-11.5s11.5,5.1,11.5,11.5S802.4,87,796,87S784.5,81.9,784.5,75.5z"/>
	</g>
	<g transform="translate(-118,-30) scale(1,1)">
		<path class="st2" d="M784.5,75.5c0-6.4,5.1-11.5,11.5-11.5s11.5,5.1,11.5,11.5S802.4,87,796,87S784.5,81.9,784.5,75.5z"/>
	</g>
	<g transform="translate(-118,-30) scale(1,1)">
		<g>
			<path class="st2" d="M0,0"/>
			<text transform="matrix(1 0 0 1 731.1206 105)" class="st5 st4">WordsmithController</text>
		</g>
	</g>
	<g transform="translate(-118,-30) scale(1,1)">
		<path class="st2" d="M796,159V87"/>
	</g>
</g>
</svg>
