<?xml version="1.0" encoding="utf-8"?>
<!-- Generator: Adobe Illustrator 24.0.0, SVG Export Plug-In . SVG Version: 6.00 Build 0)  -->
<svg version="1.1" id="Livello_1" xmlns="http://www.w3.org/2000/svg" xmlns:xlink="http://www.w3.org/1999/xlink" x="0px" y="0px"
	 viewBox="0 0 932 683" style="enable-background:new 0 0 932 683;" xml:space="preserve">
<style type="text/css">
	.st0{opacity:0.2;fill:#C0C0C0;enable-background:new    ;}
	.st1{fill:#FFFFFF;}
	.st2{fill:none;stroke:#000000;stroke-miterlimit:10;}
	.st3{font-family:'Arial-BoldMT';}
	.st4{font-size:13px;}
	.st5{fill:none;stroke:#000000;stroke-miterlimit:10;stroke-dasharray:3;}
	.st6{font-family:'ArialMT';}
</style>
<g>
	<g transform="translate(-46,-6) scale(1,1)">
		<rect x="215" y="47" class="st0" width="87.7" height="39"/>
	</g>
	<g transform="translate(-46,-6) scale(1,1)">
		<rect x="208" y="40" class="st1" width="87.7" height="39"/>
	</g>
	<g transform="translate(-46,-6) scale(1,1)">
		<path class="st2" d="M208,40h87.7v39H208V40z"/>
	</g>
	<g transform="translate(-46,-6) scale(1,1)">
		<g>
			<path class="st2" d="M0,0"/>
			<text transform="matrix(1 0 0 1 229.9255 58)" class="st3 st4">Wordle</text>
		</g>
	</g>
	<g transform="translate(-46,-6) scale(1,1)">
		<path class="st5" d="M252.5,80v592"/>
	</g>
	<g transform="translate(-46,-6) scale(1,1)">
		<rect x="647" y="195" class="st0" width="74.6" height="39"/>
	</g>
	<g transform="translate(-46,-6) scale(1,1)">
		<rect x="640" y="188" class="st1" width="74.6" height="39"/>
	</g>
	<g transform="translate(-46,-6) scale(1,1)">
		<path class="st2" d="M640,188h74.6v39H640V188z"/>
	</g>
	<g transform="translate(-46,-6) scale(1,1)">
		<g>
			<path class="st2" d="M0,0"/>
			<text transform="matrix(1 0 0 1 649.5 206)" class="st3 st4">g: Guess</text>
		</g>
	</g>
	<g transform="translate(-46,-6) scale(1,1)">
		<path class="st5" d="M678.5,228v444"/>
	</g>
	<g transform="translate(-46,-6) scale(1,1)">
		<rect x="543" y="47" class="st0" width="72.4" height="39"/>
	</g>
	<g transform="translate(-46,-6) scale(1,1)">
		<rect x="536" y="40" class="st1" width="72.4" height="39"/>
	</g>
	<g transform="translate(-46,-6) scale(1,1)">
		<path class="st2" d="M536,40h72.4v39H536V40z"/>
	</g>
	<g transform="translate(-46,-6) scale(1,1)">
		<g>
			<path class="st2" d="M0,0"/>
			<text transform="matrix(1 0 0 1 545.5 58)" class="st3 st4">b: Board</text>
		</g>
	</g>
	<g transform="translate(-46,-6) scale(1,1)">
		<path class="st5" d="M573.5,80v592"/>
	</g>
	<g transform="translate(-46,-6) scale(1,1)">
		<rect x="407" y="47" class="st0" width="103.3" height="39"/>
	</g>
	<g transform="translate(-46,-6) scale(1,1)">
		<rect x="400" y="40" class="st1" width="103.3" height="39"/>
	</g>
	<g transform="translate(-46,-6) scale(1,1)">
		<path class="st2" d="M400,40h103.3v39H400V40z"/>
	</g>
	<g transform="translate(-46,-6) scale(1,1)">
		<g>
			<path class="st2" d="M0,0"/>
			<text transform="matrix(1 0 0 1 409.5 58)" class="st3 st4">:WordleGame</text>
		</g>
	</g>
	<g transform="translate(-46,-6) scale(1,1)">
		<path class="st5" d="M452.5,80v592"/>
	</g>
	<g transform="translate(-46,-6) scale(1,1)">
		<rect x="807" y="275" class="st0" width="138.9" height="39"/>
	</g>
	<g transform="translate(-46,-6) scale(1,1)">
		<rect x="800" y="268" class="st1" width="138.9" height="39"/>
	</g>
	<g transform="translate(-46,-6) scale(1,1)">
		<path class="st2" d="M800,268h138.9v39H800V268z"/>
	</g>
	<g transform="translate(-46,-6) scale(1,1)">
		<g>
			<path class="st2" d="M0,0"/>
			<text transform="matrix(1 0 0 1 809.5 286)" class="st3 st4">letters[i]: LetterBox</text>
		</g>
	</g>
	<g transform="translate(-46,-6) scale(1,1)">
		<path class="st5" d="M870.5,308v364"/>
	</g>
	<g transform="translate(-46,-6) scale(1,1)">
		<path d="M72,127.5c0-3.9,3.1-7,7-7s7,3.1,7,7c0,3.9-3.1,7-7,7S72,131.4,72,127.5z"/>
	</g>
	<g transform="translate(-46,-6) scale(1,1)">
		<path class="st1" d="M88,368h100l10,10v65H88V368"/>
	</g>
	<g transform="translate(-46,-6) scale(1,1)">
		<path class="st2" d="M88,368h100l10,10v65H88V368L88,368"/>
	</g>
	<g transform="translate(-46,-6) scale(1,1)">
		<path class="st2" d="M188,368v10h10L188,368"/>
	</g>
	<g transform="translate(-46,-6) scale(1,1)">
		<g>
			<path class="st2" d="M0,0"/>
			<text transform="matrix(1 0 0 1 93 383)" class="st6 st4">il colore viene</text>
			<text transform="matrix(1 0 0 1 93 396)" class="st6 st4">determinato in</text>
			<text transform="matrix(1 0 0 1 93 409)" class="st6 st4">base al confronto</text>
			<text transform="matrix(1 0 0 1 93 421)" class="st6 st4">tra w e sw</text>
		</g>
	</g>
	<g transform="translate(-46,-6) scale(1,1)">
		<path class="st2" d="M86,128h159"/>
	</g>
	<g transform="translate(-46,-6) scale(1,1)">
		<path d="M234.8,132.2L245,128l-10.2-4.2"/>
	</g>
	<g transform="translate(-46,-6) scale(1,1)">
		<path class="st2" d="M234.8,132.2L245,128l-10.2-4.2V132.2"/>
	</g>
	<g transform="translate(-46,-6) scale(1,1)">
		<g>
			<path class="st2" d="M0,0"/>
			<text transform="matrix(1 0 0 1 129.1213 123)" class="st6 st4">1 : guess(w)</text>
		</g>
	</g>
	<g transform="translate(-46,-6) scale(1,1)">
		<rect x="245" y="128" class="st1" width="13" height="504"/>
	</g>
	<g transform="translate(-46,-6) scale(1,1)">
		<path class="st2" d="M245,128h13v504h-13V128z"/>
	</g>
	<g transform="translate(-46,-6) scale(1,1)">
		<path class="st2" d="M258,152h187"/>
	</g>
	<g transform="translate(-46,-6) scale(1,1)">
		<path d="M434.8,156.2L445,152l-10.2-4.2"/>
	</g>
	<g transform="translate(-46,-6) scale(1,1)">
		<path class="st2" d="M434.8,156.2L445,152l-10.2-4.2V156.2"/>
	</g>
	<g transform="translate(-46,-6) scale(1,1)">
		<g>
			<path class="st2" d="M0,0"/>
			<text transform="matrix(1 0 0 1 279.2004 147)" class="st6 st4">2 : sw = getSecretWord()</text>
		</g>
	</g>
	<g transform="translate(-46,-6) scale(1,1)">
		<rect x="445" y="152" class="st1" width="13" height="28"/>
	</g>
	<g transform="translate(-46,-6) scale(1,1)">
		<path class="st2" d="M445,152h13v28h-13V152z"/>
	</g>
	<g transform="translate(-46,-6) scale(1,1)">
		<path class="st5" d="M258,208h382"/>
	</g>
	<g transform="translate(-46,-6) scale(1,1)">
		<path class="st2" d="M629.8,212.2L640,208l-10.2-4.2"/>
	</g>
	<g transform="translate(-46,-6) scale(1,1)">
		<g>
			<path class="st2" d="M0,0"/>
			<text transform="matrix(1 0 0 1 298.5 202)" class="st6 st4">3 :</text>
		</g>
	</g>
	<g transform="translate(-46,-6) scale(1,1)">
		<g>
			<path d="M0,0"/>
			<text transform="matrix(1 0 0 1 322.5 201.5)" class="st6 st4">«create»</text>
		</g>
	</g>
	<g transform="translate(-46,-6) scale(1,1)">
		<path class="st5" d="M678,288h122"/>
	</g>
	<g transform="translate(-46,-6) scale(1,1)">
		<path class="st2" d="M789.8,292.2L800,288l-10.2-4.2"/>
	</g>
	<g transform="translate(-46,-6) scale(1,1)">
		<g>
			<path class="st2" d="M0,0"/>
			<text transform="matrix(1 0 0 1 697.5 282)" class="st6 st4">4 :</text>
		</g>
	</g>
	<g transform="translate(-46,-6) scale(1,1)">
		<g>
			<path d="M0,0"/>
			<text transform="matrix(1 0 0 1 722.5 282.5)" class="st6 st4">«create»</text>
		</g>
	</g>
	<g transform="translate(-46,-6) scale(1,1)">
		<path class="st2" d="M258,408h413"/>
	</g>
	<g transform="translate(-46,-6) scale(1,1)">
		<path d="M660.8,412.2L671,408l-10.2-4.2"/>
	</g>
	<g transform="translate(-46,-6) scale(1,1)">
		<path class="st2" d="M660.8,412.2L671,408l-10.2-4.2V412.2"/>
	</g>
	<g transform="translate(-46,-6) scale(1,1)">
		<g>
			<path class="st2" d="M0,0"/>
			<text transform="matrix(1 0 0 1 307.5127 402)" class="st6 st4">5 : setColor(i)</text>
		</g>
	</g>
	<g transform="translate(-46,-6) scale(1,1)">
		<rect x="671" y="408" class="st1" width="13" height="28"/>
	</g>
	<g transform="translate(-46,-6) scale(1,1)">
		<path class="st2" d="M671,408h13v28h-13V408z"/>
	</g>
	<g transform="translate(-46,-6) scale(1,1)">
		<path class="st2" d="M684,424h179"/>
	</g>
	<g transform="translate(-46,-6) scale(1,1)">
		<path d="M852.8,428.2L863,424l-10.2-4.2"/>
	</g>
	<g transform="translate(-46,-6) scale(1,1)">
		<path class="st2" d="M852.8,428.2L863,424l-10.2-4.2V428.2"/>
	</g>
	<g transform="translate(-46,-6) scale(1,1)">
		<g>
			<path class="st2" d="M0,0"/>
			<text transform="matrix(1 0 0 1 734.9568 419)" class="st6 st4">6 : setColor()</text>
		</g>
	</g>
	<g transform="translate(-46,-6) scale(1,1)">
		<rect x="863" y="424" class="st1" width="13" height="28"/>
	</g>
	<g transform="translate(-46,-6) scale(1,1)">
		<path class="st2" d="M863,424h13v28h-13V424z"/>
	</g>
	<g transform="translate(-46,-6) scale(1,1)">
		<path class="st2" d="M258,496h187"/>
	</g>
	<g transform="translate(-46,-6) scale(1,1)">
		<path d="M434.8,500.2L445,496l-10.2-4.2"/>
	</g>
	<g transform="translate(-46,-6) scale(1,1)">
		<path class="st2" d="M434.8,500.2L445,496l-10.2-4.2V500.2"/>
	</g>
	<g transform="translate(-46,-6) scale(1,1)">
		<g>
			<path class="st2" d="M0,0"/>
			<text transform="matrix(1 0 0 1 282.5 491)" class="st6 st4">7 : b = getGameBoard()</text>
		</g>
	</g>
	<g transform="translate(-46,-6) scale(1,1)">
		<rect x="445" y="496" class="st1" width="13" height="28"/>
	</g>
	<g transform="translate(-46,-6) scale(1,1)">
		<path class="st2" d="M445,496h13v28h-13V496z"/>
	</g>
	<g transform="translate(-46,-6) scale(1,1)">
		<path class="st2" d="M258,576h308"/>
	</g>
	<g transform="translate(-46,-6) scale(1,1)">
		<path d="M555.8,580.2L566,576l-10.2-4.2"/>
	</g>
	<g transform="translate(-46,-6) scale(1,1)">
		<path class="st2" d="M555.8,580.2L566,576l-10.2-4.2V580.2"/>
	</g>
	<g transform="translate(-46,-6) scale(1,1)">
		<g>
			<path class="st2" d="M0,0"/>
			<text transform="matrix(1 0 0 1 283.5 570)" class="st6 st4">8 : acceptNewGuess(g)</text>
		</g>
	</g>
	<g transform="translate(-46,-6) scale(1,1)">
		<rect x="566" y="576" class="st1" width="13" height="28"/>
	</g>
	<g transform="translate(-46,-6) scale(1,1)">
		<path class="st2" d="M566,576h13v28h-13V576z"/>
	</g>
	<g transform="translate(-46,-6) scale(1,1)">
		<path class="st2" d="M216,352h672v119H216V352"/>
	</g>
	<g transform="translate(-46,-6) scale(1,1)">
		<path class="st1" d="M216,352v22h154l11-11v-11H216"/>
	</g>
	<g transform="translate(-46,-6) scale(1,1)">
		<path class="st2" d="M216,352v22h154l11-11v-11H216L216,352"/>
	</g>
	<g transform="translate(-46,-6) scale(1,1)">
		<g>
			<path class="st2" d="M0,0"/>
			<text transform="matrix(1 0 0 1 251.5781 368)" class="st6 st4">[for each LetterBox]</text>
		</g>
	</g>
	<g transform="translate(-46,-6) scale(1,1)">
		<g>
			<path d="M0,0"/>
			<text transform="matrix(1 0 0 1 219.5718 368)" class="st3 st4">loop</text>
		</g>
	</g>
	<g transform="translate(-46,-6) scale(1,1)">
		<path class="st2" d="M648,240h295v88H648V240"/>
	</g>
	<g transform="translate(-46,-6) scale(1,1)">
		<path class="st1" d="M648,240v22h142.8l11-11v-11H648"/>
	</g>
	<g transform="translate(-46,-6) scale(1,1)">
		<path class="st2" d="M648,240v22h142.8l11-11v-11H648L648,240"/>
	</g>
	<g transform="translate(-46,-6) scale(1,1)">
		<g>
			<path class="st2" d="M0,0"/>
			<text transform="matrix(1 0 0 1 683.5781 256)" class="st6 st4">[0 &lt;= i &lt; w.length]</text>
		</g>
	</g>
	<g transform="translate(-46,-6) scale(1,1)">
		<g>
			<path d="M0,0"/>
			<text transform="matrix(1 0 0 1 651.5718 256)" class="st3 st4">loop</text>
		</g>
	</g>
	<g transform="translate(-46,-6) scale(1,1)">
		<path class="st2" d="M56,16h912v663H56V16"/>
	</g>
	<g transform="translate(-46,-6) scale(1,1)">
		<path class="st1" d="M56,16v22h71.6l11-11V16H56"/>
	</g>
	<g transform="translate(-46,-6) scale(1,1)">
		<path class="st2" d="M56,16v22h71.6l11-11V16H56L56,16"/>
	</g>
	<g transform="translate(-46,-6) scale(1,1)">
		<g>
			<path class="st2" d="M0,0"/>
			<text transform="matrix(1 0 0 1 87.96 30.5)" class="st6 st4">guess</text>
		</g>
	</g>
	<g transform="translate(-46,-6) scale(1,1)">
		<g>
			<path d="M0,0"/>
			<text transform="matrix(1 0 0 1 60.2795 30.5)" class="st3 st4">sd</text>
		</g>
	</g>
</g>
</svg>
