<?xml version="1.0" encoding="utf-8"?>
<!-- Generator: Adobe Illustrator 24.0.0, SVG Export Plug-In . SVG Version: 6.00 Build 0)  -->
<svg version="1.1" id="Livello_1" xmlns="http://www.w3.org/2000/svg" xmlns:xlink="http://www.w3.org/1999/xlink" x="0px" y="0px"
	 viewBox="0 0 382.4 377" style="enable-background:new 0 0 382.4 377;" xml:space="preserve">
<style type="text/css">
	.st0{opacity:0.2;fill:#C0C0C0;enable-background:new    ;}
	.st1{fill:#FFFFFF;}
	.st2{fill:none;stroke:#000000;stroke-miterlimit:10;}
	.st3{font-family:'Arial-BoldMT';}
	.st4{font-size:13px;}
	.st5{font-family:'ArialMT';}
</style>
<g>
	<g transform="translate(-6,-78) scale(1,1)">
		<rect x="255" y="95" class="st0" width="130.4" height="47"/>
	</g>
	<g transform="translate(-6,-78) scale(1,1)">
		<rect x="248" y="88" class="st1" width="130.4" height="47"/>
	</g>
	<g transform="translate(-6,-78) scale(1,1)">
		<path class="st2" d="M248,88h130.4v47H248V88z"/>
	</g>
	<g transform="translate(-6,-78) scale(1,1)">
		<path class="st2" d="M248,113h130.4"/>
	</g>
	<g transform="translate(-6,-78) scale(1,1)">
		<g>
			<path class="st2" d="M0,0"/>
			<text transform="matrix(1 0 0 1 252.5 106)" class="st3 st4">Matrice dei tentativi</text>
		</g>
	</g>
	<g transform="translate(-6,-78) scale(1,1)">
		<g>
			<path d="M0,0"/>
			<text transform="matrix(1 0 0 1 253 129)" class="st5 st4">tentativiMassimi</text>
		</g>
	</g>
	<g transform="translate(-6,-78) scale(1,1)">
		<rect x="287" y="215" class="st0" width="72.2" height="62"/>
	</g>
	<g transform="translate(-6,-78) scale(1,1)">
		<rect x="280" y="208" class="st1" width="72.2" height="62"/>
	</g>
	<g transform="translate(-6,-78) scale(1,1)">
		<path class="st2" d="M280,208h72.2v62H280V208z"/>
	</g>
	<g transform="translate(-6,-78) scale(1,1)">
		<path class="st2" d="M280,233h72.2"/>
	</g>
	<g transform="translate(-6,-78) scale(1,1)">
		<g>
			<path class="st2" d="M0,0"/>
			<text transform="matrix(1 0 0 1 287.7087 226)" class="st3 st4">Tentativo</text>
		</g>
	</g>
	<g transform="translate(-6,-78) scale(1,1)">
		<g>
			<path d="M0,0"/>
			<text transform="matrix(1 0 0 1 285 249)" class="st5 st4">vincente</text>
		</g>
	</g>
	<g transform="translate(-6,-78) scale(1,1)">
		<g>
			<path d="M0,0"/>
			<text transform="matrix(1 0 0 1 285 262.5)" class="st5 st4">numero</text>
		</g>
	</g>
	<g transform="translate(-6,-78) scale(1,1)">
		<rect x="287" y="375" class="st0" width="72.2" height="77"/>
	</g>
	<g transform="translate(-6,-78) scale(1,1)">
		<rect x="280" y="368" class="st1" width="72.2" height="77"/>
	</g>
	<g transform="translate(-6,-78) scale(1,1)">
		<path class="st2" d="M280,368h72.2v77H280V368z"/>
	</g>
	<g transform="translate(-6,-78) scale(1,1)">
		<path class="st2" d="M280,393h72.2"/>
	</g>
	<g transform="translate(-6,-78) scale(1,1)">
		<g>
			<path class="st2" d="M0,0"/>
			<text transform="matrix(1 0 0 1 293.3518 386)" class="st3 st4">Casella</text>
		</g>
	</g>
	<g transform="translate(-6,-78) scale(1,1)">
		<g>
			<path d="M0,0"/>
			<text transform="matrix(1 0 0 1 285 409)" class="st5 st4">posizione</text>
		</g>
	</g>
	<g transform="translate(-6,-78) scale(1,1)">
		<g>
			<path d="M0,0"/>
			<text transform="matrix(1 0 0 1 285 424)" class="st5 st4">lettera</text>
		</g>
	</g>
	<g transform="translate(-6,-78) scale(1,1)">
		<g>
			<path d="M0,0"/>
			<text transform="matrix(1 0 0 1 285 439)" class="st5 st4">colore</text>
		</g>
	</g>
	<g transform="translate(-6,-78) scale(1,1)">
		<path class="st2" d="M315,207l-1-71"/>
	</g>
	<g transform="translate(-6,-78) scale(1,1)">
		<path d="M318.4,146.1L314,136l-4.1,10.2l4.4,11.8"/>
	</g>
	<g transform="translate(-6,-78) scale(1,1)">
		<path class="st2" d="M318.4,146.1L314,136l-4.1,10.2l4.4,11.8L318.4,146.1"/>
	</g>
	<g transform="translate(-6,-78) scale(1,1)">
		<g>
			<path class="st2" d="M0,0"/>
			<text transform="matrix(1 0 0 1 318.5 194)" class="st5 st4">0..6</text>
		</g>
	</g>
	<g transform="translate(-6,-78) scale(1,1)">
		<path class="st2" d="M316,367v-96"/>
	</g>
	<g transform="translate(-6,-78) scale(1,1)">
		<path d="M320.2,281.2L316,271l-4.2,10.2L316,293"/>
	</g>
	<g transform="translate(-6,-78) scale(1,1)">
		<path class="st2" d="M320.2,281.2L316,271l-4.2,10.2L316,293L320.2,281.2"/>
	</g>
	<g transform="translate(-6,-78) scale(1,1)">
		<g>
			<path class="st2" d="M0,0"/>
			<text transform="matrix(1 0 0 1 326.7268 355)" class="st5 st4">5</text>
		</g>
	</g>
	<g transform="translate(-6,-78) scale(1,1)">
		<rect x="23" y="95" class="st0" width="98.3" height="47"/>
	</g>
	<g transform="translate(-6,-78) scale(1,1)">
		<rect x="16" y="88" class="st1" width="98.3" height="47"/>
	</g>
	<g transform="translate(-6,-78) scale(1,1)">
		<path class="st2" d="M16,88h98.3v47H16V88z"/>
	</g>
	<g transform="translate(-6,-78) scale(1,1)">
		<path class="st2" d="M16,113h98.3"/>
	</g>
	<g transform="translate(-6,-78) scale(1,1)">
		<g>
			<path class="st2" d="M0,0"/>
			<text transform="matrix(1 0 0 1 44.9004 106)" class="st3 st4">Partita</text>
		</g>
	</g>
	<g transform="translate(-6,-78) scale(1,1)">
		<g>
			<path d="M0,0"/>
			<text transform="matrix(1 0 0 1 21 129)" class="st5 st4">parolaSegreta</text>
		</g>
	</g>
	<g transform="translate(-6,-78) scale(1,1)">
		<path class="st2" d="M115,111h132"/>
	</g>
	<g transform="translate(-6,-78) scale(1,1)">
		<g>
			<path class="st2" d="M0,0"/>
			<text transform="matrix(1 0 0 1 151.2959 101)" class="st5 st4">giocata su</text>
		</g>
	</g>
	<g transform="translate(-6,-78) scale(1,1)">
		<g>
			<path d="M0,0"/>
			<text transform="matrix(1 0 0 1 132.5 128)" class="st5 st4">1</text>
		</g>
	</g>
	<g transform="translate(-6,-78) scale(1,1)">
		<g>
			<path d="M0,0"/>
			<text transform="matrix(1 0 0 1 221.5 128)" class="st5 st4">1</text>
		</g>
	</g>
</g>
</svg>
