<?xml version="1.0" encoding="utf-8"?>
<!-- Generator: Adobe Illustrator 24.0.0, SVG Export Plug-In . SVG Version: 6.00 Build 0)  -->
<svg version="1.1" id="Livello_1" xmlns="http://www.w3.org/2000/svg" xmlns:xlink="http://www.w3.org/1999/xlink" x="0px" y="0px"
	 viewBox="0 0 157.6 223" style="enable-background:new 0 0 157.6 223;" xml:space="preserve">
<style type="text/css">
	.st0{opacity:0.2;fill:#C0C0C0;enable-background:new    ;}
	.st1{fill:#FFFFFF;}
	.st2{fill:none;stroke:#000000;stroke-miterlimit:10;}
	.st3{font-family:'ArialMT';}
	.st4{font-size:13px;}
	.st5{font-family:'Arial-BoldMT';}
</style>
<g>
	<g transform="translate(-318,-126) scale(1,1)">
		<rect x="335" y="143" class="st0" width="137.6" height="203"/>
	</g>
	<g transform="translate(-318,-126) scale(1,1)">
		<rect x="328" y="136" class="st1" width="137.6" height="203"/>
	</g>
	<g transform="translate(-318,-126) scale(1,1)">
		<path class="st2" d="M328,136h137.6v203H328V136z"/>
	</g>
	<g transform="translate(-318,-126) scale(1,1)">
		<path class="st2" d="M328,174h137.6"/>
	</g>
	<g transform="translate(-318,-126) scale(1,1)">
		<path class="st2" d="M328,242h137.6"/>
	</g>
	<g transform="translate(-318,-126) scale(1,1)">
		<g>
			<path class="st2" d="M0,0"/>
			<text transform="matrix(1 0 0 1 362.4641 152)" class="st3 st4">«boundary»</text>
		</g>
	</g>
	<g transform="translate(-318,-126) scale(1,1)">
		<g>
			<path d="M0,0"/>
			<text transform="matrix(1 0 0 1 376.5591 167)" class="st5 st4">Parser</text>
		</g>
	</g>
	<g transform="translate(-318,-126) scale(1,1)">
		<g>
			<path d="M0,0"/>
			<text transform="matrix(1 0 0 1 333 190)" class="st3 st4">-input: String</text>
		</g>
	</g>
	<g transform="translate(-318,-126) scale(1,1)">
		<g>
			<path d="M0,0"/>
			<text transform="matrix(1 0 0 1 333 205)" class="st3 st4">-command: Command</text>
		</g>
	</g>
	<g transform="translate(-318,-126) scale(1,1)">
		<g>
			<path d="M0,0"/>
			<text transform="matrix(1 0 0 1 333 220)" class="st3 st4">-args: String[]</text>
		</g>
	</g>
	<g transform="translate(-318,-126) scale(1,1)">
		<g>
			<path d="M0,0"/>
			<text transform="matrix(1 0 0 1 333 235)" class="st3 st4">-tokens: String[]</text>
		</g>
	</g>
	<g transform="translate(-318,-126) scale(1,1)">
		<g>
			<path d="M0,0"/>
			<text transform="matrix(1 0 0 1 333 258)" class="st3 st4">+feed()</text>
		</g>
	</g>
	<g transform="translate(-318,-126) scale(1,1)">
		<g>
			<path d="M0,0"/>
			<text transform="matrix(1 0 0 1 333 273)" class="st3 st4">-tokenizeInput()</text>
		</g>
	</g>
	<g transform="translate(-318,-126) scale(1,1)">
		<g>
			<path d="M0,0"/>
			<text transform="matrix(1 0 0 1 333 288)" class="st3 st4">-extractCommand()</text>
		</g>
	</g>
	<g transform="translate(-318,-126) scale(1,1)">
		<g>
			<path d="M0,0"/>
			<text transform="matrix(1 0 0 1 333 303)" class="st3 st4">-extractArgs()</text>
		</g>
	</g>
	<g transform="translate(-318,-126) scale(1,1)">
		<g>
			<path d="M0,0"/>
			<text transform="matrix(1 0 0 1 333 318)" class="st3 st4">+getCommand()</text>
		</g>
	</g>
	<g transform="translate(-318,-126) scale(1,1)">
		<g>
			<path d="M0,0"/>
			<text transform="matrix(1 0 0 1 333 333)" class="st3 st4">+getArgs()</text>
		</g>
	</g>
</g>
</svg>
