<?xml version="1.0" encoding="utf-8"?>
<!-- Generator: Adobe Illustrator 24.0.0, SVG Export Plug-In . SVG Version: 6.00 Build 0)  -->
<svg version="1.1" id="Livello_1" xmlns="http://www.w3.org/2000/svg" xmlns:xlink="http://www.w3.org/1999/xlink" x="0px" y="0px"
	 viewBox="0 0 1060 556" style="enable-background:new 0 0 1060 556;" xml:space="preserve">
<style type="text/css">
	.st0{opacity:0.2;fill:#C0C0C0;enable-background:new    ;}
	.st1{fill:#FFFFFF;}
	.st2{fill:none;stroke:#000000;stroke-miterlimit:10;}
	.st3{font-family:'Arial-BoldMT';}
	.st4{font-size:13px;}
	.st5{fill:none;stroke:#000000;stroke-miterlimit:10;stroke-dasharray:3;}
	.st6{font-family:'ArialMT';}
</style>
<g>
	<g transform="translate(-70,10) scale(1,1)">
		<rect x="231" y="47" class="st0" width="87.7" height="39"/>
	</g>
	<g transform="translate(-70,10) scale(1,1)">
		<rect x="224" y="40" class="st1" width="87.7" height="39"/>
	</g>
	<g transform="translate(-70,10) scale(1,1)">
		<path class="st2" d="M224,40h87.7v39H224V40z"/>
	</g>
	<g transform="translate(-70,10) scale(1,1)">
		<g>
			<path class="st2" d="M0,0"/>
			<text transform="matrix(1 0 0 1 255.1995 58)" class="st3 st4">App</text>
		</g>
	</g>
	<g transform="translate(-70,10) scale(1,1)">
		<path class="st5" d="M268.5,80v440"/>
	</g>
	<g transform="translate(-70,10) scale(1,1)">
		<path class="st1" d="M133,47.3c0-3.5,2.9-6.3,6.4-6.3s6.4,2.8,6.4,6.3c0,3.5-2.9,6.3-6.4,6.3S133,50.8,133,47.3z"/>
	</g>
	<g transform="translate(-70,10) scale(1,1)">
		<path class="st2" d="M133,47.3c0-3.5,2.9-6.3,6.4-6.3s6.4,2.8,6.4,6.3c0,3.5-2.9,6.3-6.4,6.3S133,50.8,133,47.3z"/>
	</g>
	<g transform="translate(-70,10) scale(1,1)">
		<path class="st2" d="M139.4,53.6v12.8"/>
	</g>
	<g transform="translate(-70,10) scale(1,1)">
		<path class="st2" d="M132.6,58.4h13.6"/>
	</g>
	<g transform="translate(-70,10) scale(1,1)">
		<path class="st2" d="M139.4,66.4L129.9,79"/>
	</g>
	<g transform="translate(-70,10) scale(1,1)">
		<path class="st2" d="M139.4,66.4l9.5,12.6"/>
	</g>
	<g transform="translate(-70,10) scale(1,1)">
		<g>
			<path class="st2" d="M0,0"/>
			<text transform="matrix(1 0 0 1 111.5791 98)" class="st3 st4">Paroliere</text>
		</g>
	</g>
	<g transform="translate(-70,10) scale(1,1)">
		<path class="st5" d="M140.5,105v415"/>
	</g>
	<g transform="translate(-70,10) scale(1,1)">
		<rect x="783" y="47" class="st0" width="196.9" height="39"/>
	</g>
	<g transform="translate(-70,10) scale(1,1)">
		<rect x="776" y="40" class="st1" width="196.9" height="39"/>
	</g>
	<g transform="translate(-70,10) scale(1,1)">
		<path class="st2" d="M776,40h196.9v39H776V40z"/>
	</g>
	<g transform="translate(-70,10) scale(1,1)">
		<g>
			<path class="st2" d="M0,0"/>
			<text transform="matrix(1 0 0 1 785.5 58)" class="st3 st4">:WordleWordsmithController</text>
		</g>
	</g>
	<g transform="translate(-70,10) scale(1,1)">
		<path class="st5" d="M875.5,80v440"/>
	</g>
	<g transform="translate(-70,10) scale(1,1)">
		<rect x="991" y="47" class="st0" width="109" height="39"/>
	</g>
	<g transform="translate(-70,10) scale(1,1)">
		<rect x="984" y="40" class="st1" width="109" height="39"/>
	</g>
	<g transform="translate(-70,10) scale(1,1)">
		<path class="st2" d="M984,40h109v39H984V40z"/>
	</g>
	<g transform="translate(-70,10) scale(1,1)">
		<g>
			<path class="st2" d="M0,0"/>
			<text transform="matrix(1 0 0 1 993.5 58)" class="st3 st4">:WordlePrinter</text>
		</g>
	</g>
	<g transform="translate(-70,10) scale(1,1)">
		<path class="st5" d="M1039.5,80v440"/>
	</g>
	<g transform="translate(-70,10) scale(1,1)">
		<rect x="535" y="47" class="st0" width="87.7" height="39"/>
	</g>
	<g transform="translate(-70,10) scale(1,1)">
		<rect x="528" y="40" class="st1" width="87.7" height="39"/>
	</g>
	<g transform="translate(-70,10) scale(1,1)">
		<path class="st2" d="M528,40h87.7v39H528V40z"/>
	</g>
	<g transform="translate(-70,10) scale(1,1)">
		<g>
			<path class="st2" d="M0,0"/>
			<text transform="matrix(1 0 0 1 549.4304 58)" class="st3 st4">:Parser</text>
		</g>
	</g>
	<g transform="translate(-70,10) scale(1,1)">
		<path class="st5" d="M572.5,80v440"/>
	</g>
	<g transform="translate(-70,10) scale(1,1)">
		<rect x="335" y="47" class="st0" width="126.6" height="39"/>
	</g>
	<g transform="translate(-70,10) scale(1,1)">
		<rect x="328" y="40" class="st1" width="126.6" height="39"/>
	</g>
	<g transform="translate(-70,10) scale(1,1)">
		<path class="st2" d="M328,40h126.6v39H328V40z"/>
	</g>
	<g transform="translate(-70,10) scale(1,1)">
		<g>
			<path class="st2" d="M0,0"/>
			<text transform="matrix(1 0 0 1 337.5 58)" class="st3 st4">c :App.Command</text>
		</g>
	</g>
	<g transform="translate(-70,10) scale(1,1)">
		<path class="st5" d="M392.5,80v440"/>
	</g>
	<g transform="translate(-70,10) scale(1,1)">
		<rect x="655" y="200" class="st0" width="117" height="39"/>
	</g>
	<g transform="translate(-70,10) scale(1,1)">
		<rect x="648" y="193" class="st1" width="117" height="39"/>
	</g>
	<g transform="translate(-70,10) scale(1,1)">
		<path class="st2" d="M648,193h117v39H648V193z"/>
	</g>
	<g transform="translate(-70,10) scale(1,1)">
		<g>
			<path class="st2" d="M0,0"/>
			<text transform="matrix(1 0 0 1 657.5 211)" class="st3 st4">pt: ParserToken</text>
		</g>
	</g>
	<g transform="translate(-70,10) scale(1,1)">
		<path class="st5" d="M707.5,233v287"/>
	</g>
	<g transform="translate(-70,10) scale(1,1)">
		<path class="st2" d="M140,136h121"/>
	</g>
	<g transform="translate(-70,10) scale(1,1)">
		<path d="M250.8,140.2L261,136l-10.2-4.2"/>
	</g>
	<g transform="translate(-70,10) scale(1,1)">
		<path class="st2" d="M250.8,140.2L261,136l-10.2-4.2V140.2"/>
	</g>
	<g transform="translate(-70,10) scale(1,1)">
		<g>
			<path class="st2" d="M0,0"/>
			<text transform="matrix(1 0 0 1 143.6677 131)" class="st6 st4">1 : /nuova &lt;parola&gt;</text>
		</g>
	</g>
	<g transform="translate(-70,10) scale(1,1)">
		<rect x="261" y="136" class="st1" width="13" height="352"/>
	</g>
	<g transform="translate(-70,10) scale(1,1)">
		<path class="st2" d="M261,136h13v352h-13V136z"/>
	</g>
	<g transform="translate(-70,10) scale(1,1)">
		<path class="st2" d="M274,153h291"/>
	</g>
	<g transform="translate(-70,10) scale(1,1)">
		<path d="M554.8,157.2L565,153l-10.2-4.2"/>
	</g>
	<g transform="translate(-70,10) scale(1,1)">
		<path class="st2" d="M554.8,157.2L565,153l-10.2-4.2V157.2"/>
	</g>
	<g transform="translate(-70,10) scale(1,1)">
		<g>
			<path class="st2" d="M0,0"/>
			<text transform="matrix(1 0 0 1 403.5095 148)" class="st6 st4">2 : feed()</text>
		</g>
	</g>
	<g transform="translate(-70,10) scale(1,1)">
		<rect x="565" y="153" class="st1" width="13" height="28"/>
	</g>
	<g transform="translate(-70,10) scale(1,1)">
		<path class="st2" d="M565,153h13v28h-13V153z"/>
	</g>
	<g transform="translate(-70,10) scale(1,1)">
		<path class="st2" d="M274,200h291"/>
	</g>
	<g transform="translate(-70,10) scale(1,1)">
		<path d="M554.8,204.2L565,200l-10.2-4.2"/>
	</g>
	<g transform="translate(-70,10) scale(1,1)">
		<path class="st2" d="M554.8,204.2L565,200l-10.2-4.2V204.2"/>
	</g>
	<g transform="translate(-70,10) scale(1,1)">
		<g>
			<path class="st2" d="M0,0"/>
			<text transform="matrix(1 0 0 1 399.5 195)" class="st6 st4">3 : pt = getParserToken()</text>
		</g>
	</g>
	<g transform="translate(-70,10) scale(1,1)">
		<rect x="565" y="200" class="st1" width="13" height="28"/>
	</g>
	<g transform="translate(-70,10) scale(1,1)">
		<path class="st2" d="M565,200h13v28h-13V200z"/>
	</g>
	<g transform="translate(-70,10) scale(1,1)">
		<path class="st5" d="M578,213h70"/>
	</g>
	<g transform="translate(-70,10) scale(1,1)">
		<path class="st2" d="M637.8,217.2L648,213l-10.2-4.2"/>
	</g>
	<g transform="translate(-70,10) scale(1,1)">
		<g>
			<path class="st2" d="M0,0"/>
			<text transform="matrix(1 0 0 1 603.5 208)" class="st6 st4">4 :</text>
		</g>
	</g>
	<g transform="translate(-70,10) scale(1,1)">
		<g>
			<path d="M0,0"/>
			<text transform="matrix(1 0 0 1 587.5 192.5)" class="st6 st4">«create»</text>
		</g>
	</g>
	<g transform="translate(-70,10) scale(1,1)">
		<path class="st2" d="M274,256h426"/>
	</g>
	<g transform="translate(-70,10) scale(1,1)">
		<path d="M689.8,260.2L700,256l-10.2-4.2"/>
	</g>
	<g transform="translate(-70,10) scale(1,1)">
		<path class="st2" d="M689.8,260.2L700,256l-10.2-4.2V260.2"/>
	</g>
	<g transform="translate(-70,10) scale(1,1)">
		<g>
			<path class="st2" d="M0,0"/>
			<text transform="matrix(1 0 0 1 398.5 249)" class="st6 st4">5 : c = getCommand()</text>
		</g>
	</g>
	<g transform="translate(-70,10) scale(1,1)">
		<rect x="700" y="256" class="st1" width="13" height="28"/>
	</g>
	<g transform="translate(-70,10) scale(1,1)">
		<path class="st2" d="M700,256h13v28h-13V256z"/>
	</g>
	<g transform="translate(-70,10) scale(1,1)">
		<path class="st2" d="M274,300h426"/>
	</g>
	<g transform="translate(-70,10) scale(1,1)">
		<path d="M689.8,304.2L700,300l-10.2-4.2"/>
	</g>
	<g transform="translate(-70,10) scale(1,1)">
		<path class="st2" d="M689.8,304.2L700,300l-10.2-4.2V304.2"/>
	</g>
	<g transform="translate(-70,10) scale(1,1)">
		<g>
			<path class="st2" d="M0,0"/>
			<text transform="matrix(1 0 0 1 401.7595 296)" class="st6 st4">6 : args = getArgs()</text>
		</g>
	</g>
	<g transform="translate(-70,10) scale(1,1)">
		<rect x="700" y="300" class="st1" width="13" height="28"/>
	</g>
	<g transform="translate(-70,10) scale(1,1)">
		<path class="st2" d="M700,300h13v28h-13V300z"/>
	</g>
	<g transform="translate(-70,10) scale(1,1)">
		<path class="st2" d="M274,340h111"/>
	</g>
	<g transform="translate(-70,10) scale(1,1)">
		<path d="M374.8,344.2L385,340l-10.2-4.2"/>
	</g>
	<g transform="translate(-70,10) scale(1,1)">
		<path class="st2" d="M374.8,344.2L385,340l-10.2-4.2V344.2"/>
	</g>
	<g transform="translate(-70,10) scale(1,1)">
		<g>
			<path class="st2" d="M0,0"/>
			<text transform="matrix(1 0 0 1 279.8291 335)" class="st6 st4">7 : execute(args)</text>
		</g>
	</g>
	<g transform="translate(-70,10) scale(1,1)">
		<rect x="385" y="340" class="st1" width="13" height="116"/>
	</g>
	<g transform="translate(-70,10) scale(1,1)">
		<path class="st2" d="M385,340h13v116h-13V340z"/>
	</g>
	<g transform="translate(-70,10) scale(1,1)">
		<path class="st2" d="M398,368h470"/>
	</g>
	<g transform="translate(-70,10) scale(1,1)">
		<path d="M857.8,372.2L868,368l-10.2-4.2"/>
	</g>
	<g transform="translate(-70,10) scale(1,1)">
		<path class="st2" d="M857.8,372.2L868,368l-10.2-4.2V372.2"/>
	</g>
	<g transform="translate(-70,10) scale(1,1)">
		<g>
			<path class="st2" d="M0,0"/>
			<text transform="matrix(1 0 0 1 439.7412 361)" class="st6 st4">8 : setSecretWord(args[0])</text>
		</g>
	</g>
	<g transform="translate(-70,10) scale(1,1)">
		<rect x="868" y="368" class="st1" width="13" height="28"/>
	</g>
	<g transform="translate(-70,10) scale(1,1)">
		<path class="st2" d="M868,368h13v28h-13V368z"/>
	</g>
	<g transform="translate(-70,10) scale(1,1)">
		<path class="st2" d="M398,416h634"/>
	</g>
	<g transform="translate(-70,10) scale(1,1)">
		<path d="M1021.8,420.2l10.2-4.2l-10.2-4.2"/>
	</g>
	<g transform="translate(-70,10) scale(1,1)">
		<path class="st2" d="M1021.8,420.2l10.2-4.2l-10.2-4.2V420.2"/>
	</g>
	<g transform="translate(-70,10) scale(1,1)">
		<g>
			<path class="st2" d="M0,0"/>
			<text transform="matrix(1 0 0 1 447.8828 410)" class="st6 st4">9 : // stampa &quot;OK&quot;</text>
		</g>
	</g>
	<g transform="translate(-70,10) scale(1,1)">
		<rect x="1032" y="416" class="st1" width="13" height="28"/>
	</g>
	<g transform="translate(-70,10) scale(1,1)">
		<path class="st2" d="M1032,416h13v28h-13V416z"/>
	</g>
	<g transform="translate(-70,10) scale(1,1)">
		<path class="st2" d="M96,0h1024v536H96V0"/>
	</g>
	<g transform="translate(-70,10) scale(1,1)">
		<path class="st1" d="M96,0v22h254.5l11-11V0H96"/>
	</g>
	<g transform="translate(-70,10) scale(1,1)">
		<path class="st2" d="M96,0v22h254.5l11-11V0H96L96,0"/>
	</g>
	<g transform="translate(-70,10) scale(1,1)">
		<g>
			<path class="st2" d="M0,0"/>
			<text transform="matrix(1 0 0 1 127.96 16)" class="st6 st4">Impostazione manuale parola segreta</text>
		</g>
	</g>
	<g transform="translate(-70,10) scale(1,1)">
		<g>
			<path d="M0,0"/>
			<text transform="matrix(1 0 0 1 100.2795 14.5)" class="st3 st4">seq</text>
		</g>
	</g>
</g>
</svg>
