<svg version="1.1" xmlns="http://www.w3.org/2000/svg" xmlns:xlink="http://www.w3.org/1999/xlink" width="996" height="612"><defs/><g><text fill="#eeeeee" stroke="none" font-family="Arial" font-size="24px" font-style="normal" font-weight="normal" text-decoration="none" x="0" y="0">UNREGISTERED</text><text fill="#eeeeee" stroke="none" font-family="Arial" font-size="24px" font-style="normal" font-weight="normal" text-decoration="none" x="0" y="30">UNREGISTERED</text><text fill="#eeeeee" stroke="none" font-family="Arial" font-size="24px" font-style="normal" font-weight="normal" text-decoration="none" x="0" y="60">UNREGISTERED</text><text fill="#eeeeee" stroke="none" font-family="Arial" font-size="24px" font-style="normal" font-weight="normal" text-decoration="none" x="0" y="90">UNREGISTERED</text><text fill="#eeeeee" stroke="none" font-family="Arial" font-size="24px" font-style="normal" font-weight="normal" text-decoration="none" x="0" y="120">UNREGISTERED</text><text fill="#eeeeee" stroke="none" font-family="Arial" font-size="24px" font-style="normal" font-weight="normal" text-decoration="none" x="0" y="150">UNREGISTERED</text><text fill="#eeeeee" stroke="none" font-family="Arial" font-size="24px" font-style="normal" font-weight="normal" text-decoration="none" x="0" y="180">UNREGISTERED</text><text fill="#eeeeee" stroke="none" font-family="Arial" font-size="24px" font-style="normal" font-weight="normal" text-decoration="none" x="0" y="210">UNREGISTERED</text><text fill="#eeeeee" stroke="none" font-family="Arial" font-size="24px" font-style="normal" font-weight="normal" text-decoration="none" x="0" y="240">UNREGISTERED</text><text fill="#eeeeee" stroke="none" font-family="Arial" font-size="24px" font-style="normal" font-weight="normal" text-decoration="none" x="0" y="270">UNREGISTERED</text><text fill="#eeeeee" stroke="none" font-family="Arial" font-size="24px" font-style="normal" font-weight="normal" text-decoration="none" x="0" y="300">UNREGISTERED</text><text fill="#eeeeee" stroke="none" font-family="Arial" font-size="24px" font-style="normal" font-weight="normal" text-decoration="none" x="0" y="330">UNREGISTERED</text><text fill="#eeeeee" stroke="none" font-family="Arial" font-size="24px" font-style="normal" font-weight="normal" text-decoration="none" x="0" y="360">UNREGISTERED</text><text fill="#eeeeee" stroke="none" font-family="Arial" font-size="24px" font-style="normal" font-weight="normal" text-decoration="none" x="0" y="390">UNREGISTERED</text><text fill="#eeeeee" stroke="none" font-family="Arial" font-size="24px" font-style="normal" font-weight="normal" text-decoration="none" x="0" y="420">UNREGISTERED</text><text fill="#eeeeee" stroke="none" font-family="Arial" font-size="24px" font-style="normal" font-weight="normal" text-decoration="none" x="0" y="450">UNREGISTERED</text><text fill="#eeeeee" stroke="none" font-family="Arial" font-size="24px" font-style="normal" font-weight="normal" text-decoration="none" x="0" y="480">UNREGISTERED</text><text fill="#eeeeee" stroke="none" font-family="Arial" font-size="24px" font-style="normal" font-weight="normal" text-decoration="none" x="0" y="510">UNREGISTERED</text><text fill="#eeeeee" stroke="none" font-family="Arial" font-size="24px" font-style="normal" font-weight="normal" text-decoration="none" x="0" y="540">UNREGISTERED</text><text fill="#eeeeee" stroke="none" font-family="Arial" font-size="24px" font-style="normal" font-weight="normal" text-decoration="none" x="0" y="570">UNREGISTERED</text><text fill="#eeeeee" stroke="none" font-family="Arial" font-size="24px" font-style="normal" font-weight="normal" text-decoration="none" x="0" y="600">UNREGISTERED</text><text fill="#eeeeee" stroke="none" font-family="Arial" font-size="24px" font-style="normal" font-weight="normal" text-decoration="none" x="200" y="0">UNREGISTERED</text><text fill="#eeeeee" stroke="none" font-family="Arial" font-size="24px" font-style="normal" font-weight="normal" text-decoration="none" x="200" y="30">UNREGISTERED</text><text fill="#eeeeee" stroke="none" font-family="Arial" font-size="24px" font-style="normal" font-weight="normal" text-decoration="none" x="200" y="60">UNREGISTERED</text><text fill="#eeeeee" stroke="none" font-family="Arial" font-size="24px" font-style="normal" font-weight="normal" text-decoration="none" x="200" y="90">UNREGISTERED</text><text fill="#eeeeee" stroke="none" font-family="Arial" font-size="24px" font-style="normal" font-weight="normal" text-decoration="none" x="200" y="120">UNREGISTERED</text><text fill="#eeeeee" stroke="none" font-family="Arial" font-size="24px" font-style="normal" font-weight="normal" text-decoration="none" x="200" y="150">UNREGISTERED</text><text fill="#eeeeee" stroke="none" font-family="Arial" font-size="24px" font-style="normal" font-weight="normal" text-decoration="none" x="200" y="180">UNREGISTERED</text><text fill="#eeeeee" stroke="none" font-family="Arial" font-size="24px" font-style="normal" font-weight="normal" text-decoration="none" x="200" y="210">UNREGISTERED</text><text fill="#eeeeee" stroke="none" font-family="Arial" font-size="24px" font-style="normal" font-weight="normal" text-decoration="none" x="200" y="240">UNREGISTERED</text><text fill="#eeeeee" stroke="none" font-family="Arial" font-size="24px" font-style="normal" font-weight="normal" text-decoration="none" x="200" y="270">UNREGISTERED</text><text fill="#eeeeee" stroke="none" font-family="Arial" font-size="24px" font-style="normal" font-weight="normal" text-decoration="none" x="200" y="300">UNREGISTERED</text><text fill="#eeeeee" stroke="none" font-family="Arial" font-size="24px" font-style="normal" font-weight="normal" text-decoration="none" x="200" y="330">UNREGISTERED</text><text fill="#eeeeee" stroke="none" font-family="Arial" font-size="24px" font-style="normal" font-weight="normal" text-decoration="none" x="200" y="360">UNREGISTERED</text><text fill="#eeeeee" stroke="none" font-family="Arial" font-size="24px" font-style="normal" font-weight="normal" text-decoration="none" x="200" y="390">UNREGISTERED</text><text fill="#eeeeee" stroke="none" font-family="Arial" font-size="24px" font-style="normal" font-weight="normal" text-decoration="none" x="200" y="420">UNREGISTERED</text><text fill="#eeeeee" stroke="none" font-family="Arial" font-size="24px" font-style="normal" font-weight="normal" text-decoration="none" x="200" y="450">UNREGISTERED</text><text fill="#eeeeee" stroke="none" font-family="Arial" font-size="24px" font-style="normal" font-weight="normal" text-decoration="none" x="200" y="480">UNREGISTERED</text><text fill="#eeeeee" stroke="none" font-family="Arial" font-size="24px" font-style="normal" font-weight="normal" text-decoration="none" x="200" y="510">UNREGISTERED</text><text fill="#eeeeee" stroke="none" font-family="Arial" font-size="24px" font-style="normal" font-weight="normal" text-decoration="none" x="200" y="540">UNREGISTERED</text><text fill="#eeeeee" stroke="none" font-family="Arial" font-size="24px" font-style="normal" font-weight="normal" text-decoration="none" x="200" y="570">UNREGISTERED</text><text fill="#eeeeee" stroke="none" font-family="Arial" font-size="24px" font-style="normal" font-weight="normal" text-decoration="none" x="200" y="600">UNREGISTERED</text><text fill="#eeeeee" stroke="none" font-family="Arial" font-size="24px" font-style="normal" font-weight="normal" text-decoration="none" x="400" y="0">UNREGISTERED</text><text fill="#eeeeee" stroke="none" font-family="Arial" font-size="24px" font-style="normal" font-weight="normal" text-decoration="none" x="400" y="30">UNREGISTERED</text><text fill="#eeeeee" stroke="none" font-family="Arial" font-size="24px" font-style="normal" font-weight="normal" text-decoration="none" x="400" y="60">UNREGISTERED</text><text fill="#eeeeee" stroke="none" font-family="Arial" font-size="24px" font-style="normal" font-weight="normal" text-decoration="none" x="400" y="90">UNREGISTERED</text><text fill="#eeeeee" stroke="none" font-family="Arial" font-size="24px" font-style="normal" font-weight="normal" text-decoration="none" x="400" y="120">UNREGISTERED</text><text fill="#eeeeee" stroke="none" font-family="Arial" font-size="24px" font-style="normal" font-weight="normal" text-decoration="none" x="400" y="150">UNREGISTERED</text><text fill="#eeeeee" stroke="none" font-family="Arial" font-size="24px" font-style="normal" font-weight="normal" text-decoration="none" x="400" y="180">UNREGISTERED</text><text fill="#eeeeee" stroke="none" font-family="Arial" font-size="24px" font-style="normal" font-weight="normal" text-decoration="none" x="400" y="210">UNREGISTERED</text><text fill="#eeeeee" stroke="none" font-family="Arial" font-size="24px" font-style="normal" font-weight="normal" text-decoration="none" x="400" y="240">UNREGISTERED</text><text fill="#eeeeee" stroke="none" font-family="Arial" font-size="24px" font-style="normal" font-weight="normal" text-decoration="none" x="400" y="270">UNREGISTERED</text><text fill="#eeeeee" stroke="none" font-family="Arial" font-size="24px" font-style="normal" font-weight="normal" text-decoration="none" x="400" y="300">UNREGISTERED</text><text fill="#eeeeee" stroke="none" font-family="Arial" font-size="24px" font-style="normal" font-weight="normal" text-decoration="none" x="400" y="330">UNREGISTERED</text><text fill="#eeeeee" stroke="none" font-family="Arial" font-size="24px" font-style="normal" font-weight="normal" text-decoration="none" x="400" y="360">UNREGISTERED</text><text fill="#eeeeee" stroke="none" font-family="Arial" font-size="24px" font-style="normal" font-weight="normal" text-decoration="none" x="400" y="390">UNREGISTERED</text><text fill="#eeeeee" stroke="none" font-family="Arial" font-size="24px" font-style="normal" font-weight="normal" text-decoration="none" x="400" y="420">UNREGISTERED</text><text fill="#eeeeee" stroke="none" font-family="Arial" font-size="24px" font-style="normal" font-weight="normal" text-decoration="none" x="400" y="450">UNREGISTERED</text><text fill="#eeeeee" stroke="none" font-family="Arial" font-size="24px" font-style="normal" font-weight="normal" text-decoration="none" x="400" y="480">UNREGISTERED</text><text fill="#eeeeee" stroke="none" font-family="Arial" font-size="24px" font-style="normal" font-weight="normal" text-decoration="none" x="400" y="510">UNREGISTERED</text><text fill="#eeeeee" stroke="none" font-family="Arial" font-size="24px" font-style="normal" font-weight="normal" text-decoration="none" x="400" y="540">UNREGISTERED</text><text fill="#eeeeee" stroke="none" font-family="Arial" font-size="24px" font-style="normal" font-weight="normal" text-decoration="none" x="400" y="570">UNREGISTERED</text><text fill="#eeeeee" stroke="none" font-family="Arial" font-size="24px" font-style="normal" font-weight="normal" text-decoration="none" x="400" y="600">UNREGISTERED</text><text fill="#eeeeee" stroke="none" font-family="Arial" font-size="24px" font-style="normal" font-weight="normal" text-decoration="none" x="600" y="0">UNREGISTERED</text><text fill="#eeeeee" stroke="none" font-family="Arial" font-size="24px" font-style="normal" font-weight="normal" text-decoration="none" x="600" y="30">UNREGISTERED</text><text fill="#eeeeee" stroke="none" font-family="Arial" font-size="24px" font-style="normal" font-weight="normal" text-decoration="none" x="600" y="60">UNREGISTERED</text><text fill="#eeeeee" stroke="none" font-family="Arial" font-size="24px" font-style="normal" font-weight="normal" text-decoration="none" x="600" y="90">UNREGISTERED</text><text fill="#eeeeee" stroke="none" font-family="Arial" font-size="24px" font-style="normal" font-weight="normal" text-decoration="none" x="600" y="120">UNREGISTERED</text><text fill="#eeeeee" stroke="none" font-family="Arial" font-size="24px" font-style="normal" font-weight="normal" text-decoration="none" x="600" y="150">UNREGISTERED</text><text fill="#eeeeee" stroke="none" font-family="Arial" font-size="24px" font-style="normal" font-weight="normal" text-decoration="none" x="600" y="180">UNREGISTERED</text><text fill="#eeeeee" stroke="none" font-family="Arial" font-size="24px" font-style="normal" font-weight="normal" text-decoration="none" x="600" y="210">UNREGISTERED</text><text fill="#eeeeee" stroke="none" font-family="Arial" font-size="24px" font-style="normal" font-weight="normal" text-decoration="none" x="600" y="240">UNREGISTERED</text><text fill="#eeeeee" stroke="none" font-family="Arial" font-size="24px" font-style="normal" font-weight="normal" text-decoration="none" x="600" y="270">UNREGISTERED</text><text fill="#eeeeee" stroke="none" font-family="Arial" font-size="24px" font-style="normal" font-weight="normal" text-decoration="none" x="600" y="300">UNREGISTERED</text><text fill="#eeeeee" stroke="none" font-family="Arial" font-size="24px" font-style="normal" font-weight="normal" text-decoration="none" x="600" y="330">UNREGISTERED</text><text fill="#eeeeee" stroke="none" font-family="Arial" font-size="24px" font-style="normal" font-weight="normal" text-decoration="none" x="600" y="360">UNREGISTERED</text><text fill="#eeeeee" stroke="none" font-family="Arial" font-size="24px" font-style="normal" font-weight="normal" text-decoration="none" x="600" y="390">UNREGISTERED</text><text fill="#eeeeee" stroke="none" font-family="Arial" font-size="24px" font-style="normal" font-weight="normal" text-decoration="none" x="600" y="420">UNREGISTERED</text><text fill="#eeeeee" stroke="none" font-family="Arial" font-size="24px" font-style="normal" font-weight="normal" text-decoration="none" x="600" y="450">UNREGISTERED</text><text fill="#eeeeee" stroke="none" font-family="Arial" font-size="24px" font-style="normal" font-weight="normal" text-decoration="none" x="600" y="480">UNREGISTERED</text><text fill="#eeeeee" stroke="none" font-family="Arial" font-size="24px" font-style="normal" font-weight="normal" text-decoration="none" x="600" y="510">UNREGISTERED</text><text fill="#eeeeee" stroke="none" font-family="Arial" font-size="24px" font-style="normal" font-weight="normal" text-decoration="none" x="600" y="540">UNREGISTERED</text><text fill="#eeeeee" stroke="none" font-family="Arial" font-size="24px" font-style="normal" font-weight="normal" text-decoration="none" x="600" y="570">UNREGISTERED</text><text fill="#eeeeee" stroke="none" font-family="Arial" font-size="24px" font-style="normal" font-weight="normal" text-decoration="none" x="600" y="600">UNREGISTERED</text><text fill="#eeeeee" stroke="none" font-family="Arial" font-size="24px" font-style="normal" font-weight="normal" text-decoration="none" x="800" y="0">UNREGISTERED</text><text fill="#eeeeee" stroke="none" font-family="Arial" font-size="24px" font-style="normal" font-weight="normal" text-decoration="none" x="800" y="30">UNREGISTERED</text><text fill="#eeeeee" stroke="none" font-family="Arial" font-size="24px" font-style="normal" font-weight="normal" text-decoration="none" x="800" y="60">UNREGISTERED</text><text fill="#eeeeee" stroke="none" font-family="Arial" font-size="24px" font-style="normal" font-weight="normal" text-decoration="none" x="800" y="90">UNREGISTERED</text><text fill="#eeeeee" stroke="none" font-family="Arial" font-size="24px" font-style="normal" font-weight="normal" text-decoration="none" x="800" y="120">UNREGISTERED</text><text fill="#eeeeee" stroke="none" font-family="Arial" font-size="24px" font-style="normal" font-weight="normal" text-decoration="none" x="800" y="150">UNREGISTERED</text><text fill="#eeeeee" stroke="none" font-family="Arial" font-size="24px" font-style="normal" font-weight="normal" text-decoration="none" x="800" y="180">UNREGISTERED</text><text fill="#eeeeee" stroke="none" font-family="Arial" font-size="24px" font-style="normal" font-weight="normal" text-decoration="none" x="800" y="210">UNREGISTERED</text><text fill="#eeeeee" stroke="none" font-family="Arial" font-size="24px" font-style="normal" font-weight="normal" text-decoration="none" x="800" y="240">UNREGISTERED</text><text fill="#eeeeee" stroke="none" font-family="Arial" font-size="24px" font-style="normal" font-weight="normal" text-decoration="none" x="800" y="270">UNREGISTERED</text><text fill="#eeeeee" stroke="none" font-family="Arial" font-size="24px" font-style="normal" font-weight="normal" text-decoration="none" x="800" y="300">UNREGISTERED</text><text fill="#eeeeee" stroke="none" font-family="Arial" font-size="24px" font-style="normal" font-weight="normal" text-decoration="none" x="800" y="330">UNREGISTERED</text><text fill="#eeeeee" stroke="none" font-family="Arial" font-size="24px" font-style="normal" font-weight="normal" text-decoration="none" x="800" y="360">UNREGISTERED</text><text fill="#eeeeee" stroke="none" font-family="Arial" font-size="24px" font-style="normal" font-weight="normal" text-decoration="none" x="800" y="390">UNREGISTERED</text><text fill="#eeeeee" stroke="none" font-family="Arial" font-size="24px" font-style="normal" font-weight="normal" text-decoration="none" x="800" y="420">UNREGISTERED</text><text fill="#eeeeee" stroke="none" font-family="Arial" font-size="24px" font-style="normal" font-weight="normal" text-decoration="none" x="800" y="450">UNREGISTERED</text><text fill="#eeeeee" stroke="none" font-family="Arial" font-size="24px" font-style="normal" font-weight="normal" text-decoration="none" x="800" y="480">UNREGISTERED</text><text fill="#eeeeee" stroke="none" font-family="Arial" font-size="24px" font-style="normal" font-weight="normal" text-decoration="none" x="800" y="510">UNREGISTERED</text><text fill="#eeeeee" stroke="none" font-family="Arial" font-size="24px" font-style="normal" font-weight="normal" text-decoration="none" x="800" y="540">UNREGISTERED</text><text fill="#eeeeee" stroke="none" font-family="Arial" font-size="24px" font-style="normal" font-weight="normal" text-decoration="none" x="800" y="570">UNREGISTERED</text><text fill="#eeeeee" stroke="none" font-family="Arial" font-size="24px" font-style="normal" font-weight="normal" text-decoration="none" x="800" y="600">UNREGISTERED</text><g transform="translate(-254,2) scale(1,1)"><path fill="none" stroke="#000000" d="M 264 8 L 1240 8 L 1240 600 L 264 600 L 264 8" stroke-miterlimit="10"/></g><g transform="translate(-254,2) scale(1,1)"><path fill="#ffffff" stroke="none" d="M 264 8 L 264 30 L 402.8525390625 30 L 413.8525390625 19 L 413.8525390625 8 L 264 8"/></g><g transform="translate(-254,2) scale(1,1)"><path fill="none" stroke="#000000" d="M 264 8 L 264 30 L 402.8525390625 30 L 413.8525390625 19 L 413.8525390625 8 L 264 8 L 264 8" stroke-miterlimit="10"/></g><g transform="translate(-254,2) scale(1,1)"><g><path fill="none" stroke="none"/><text fill="#000000" stroke="none" font-family="Arial" font-size="13px" font-style="normal" font-weight="normal" text-decoration="none" x="288.72998046875" y="24">Inizio nuova partita</text></g></g><g transform="translate(-254,2) scale(1,1)"><g><path fill="none" stroke="none"/><text fill="#000000" stroke="none" font-family="Arial" font-size="13px" font-style="normal" font-weight="bold" text-decoration="none" x="268.279541015625" y="24">sd</text></g></g><g transform="translate(-254,2) scale(1,1)"><rect fill="#C0C0C0" stroke="none" x="423" y="47" width="71.736328125" height="39" opacity="0.2"/></g><g transform="translate(-254,2) scale(1,1)"><rect fill="#ffffff" stroke="none" x="416" y="40" width="71.736328125" height="39"/></g><g transform="translate(-254,2) scale(1,1)"><path fill="none" stroke="#000000" d="M 416 40 L 487.736328125 40 L 487.736328125 79 L 416 79 L 416 40 Z Z" stroke-miterlimit="10"/></g><g transform="translate(-254,2) scale(1,1)"><g><path fill="none" stroke="none"/><text fill="#000000" stroke="none" font-family="Arial" font-size="13px" font-style="normal" font-weight="bold" text-decoration="none" x="439.233154296875" y="58">App</text></g></g><g transform="translate(-254,2) scale(1,1)"><path fill="none" stroke="#000000" d="M 452.5 80 L 452.5 576" stroke-miterlimit="10" stroke-dasharray="3"/></g><g transform="translate(-254,2) scale(1,1)"><rect fill="#C0C0C0" stroke="none" x="567" y="47" width="71.736328125" height="39" opacity="0.2"/></g><g transform="translate(-254,2) scale(1,1)"><rect fill="#ffffff" stroke="none" x="560" y="40" width="71.736328125" height="39"/></g><g transform="translate(-254,2) scale(1,1)"><path fill="none" stroke="#000000" d="M 560 40 L 631.736328125 40 L 631.736328125 79 L 560 79 L 560 40 Z Z" stroke-miterlimit="10"/></g><g transform="translate(-254,2) scale(1,1)"><g><path fill="none" stroke="none"/><text fill="#000000" stroke="none" font-family="Arial" font-size="13px" font-style="normal" font-weight="bold" text-decoration="none" x="573.464111328125" y="58">:Parser</text></g></g><g transform="translate(-254,2) scale(1,1)"><path fill="none" stroke="#000000" d="M 596.5 80 L 596.5 576" stroke-miterlimit="10" stroke-dasharray="3"/></g><g transform="translate(-254,2) scale(1,1)"><path fill="#ffffff" stroke="none" d="M 342.3040633877841 47.3 C 342.3040633877841 43.82060576 345.1824651099659 41 348.733154296875 41 C 352.2838434837841 41 355.162245205966 43.82060576 355.162245205966 47.3 C 355.162245205966 50.779394239999995 352.2838434837841 53.6 348.733154296875 53.6 C 345.1824651099659 53.6 342.3040633877841 50.779394239999995 342.3040633877841 47.3 Z"/></g><g transform="translate(-254,2) scale(1,1)"><path fill="none" stroke="#000000" d="M 342.3040633877841 47.3 C 342.3040633877841 43.82060576 345.1824651099659 41 348.733154296875 41 C 352.2838434837841 41 355.162245205966 43.82060576 355.162245205966 47.3 C 355.162245205966 50.779394239999995 352.2838434837841 53.6 348.733154296875 53.6 C 345.1824651099659 53.6 342.3040633877841 50.779394239999995 342.3040633877841 47.3 Z" stroke-miterlimit="10"/></g><g transform="translate(-254,2) scale(1,1)"><path fill="none" stroke="#000000" d="M 348.733154296875 53.6 L 348.733154296875 66.4" stroke-miterlimit="10"/></g><g transform="translate(-254,2) scale(1,1)"><path fill="none" stroke="#000000" d="M 341.92588156960227 58.4 L 355.5404270241478 58.4" stroke-miterlimit="10"/></g><g transform="translate(-254,2) scale(1,1)"><path fill="none" stroke="#000000" d="M 348.733154296875 66.4 L 339.27860884232956 79" stroke-miterlimit="10"/></g><g transform="translate(-254,2) scale(1,1)"><path fill="none" stroke="#000000" d="M 348.733154296875 66.4 L 358.1876997514205 79" stroke-miterlimit="10"/></g><g transform="translate(-254,2) scale(1,1)"><g><path fill="none" stroke="none"/><text fill="#000000" stroke="none" font-family="Arial" font-size="13px" font-style="normal" font-weight="bold" text-decoration="none" x="315.50634765625" y="98">: giocatore</text></g></g><g transform="translate(-254,2) scale(1,1)"><path fill="none" stroke="#000000" d="M 349.5 105 L 349.5 576" stroke-miterlimit="10" stroke-dasharray="3"/></g><g transform="translate(-254,2) scale(1,1)"><rect fill="#C0C0C0" stroke="none" x="1015" y="387" width="71.736328125" height="39" opacity="0.2"/></g><g transform="translate(-254,2) scale(1,1)"><rect fill="#ffffff" stroke="none" x="1008" y="380" width="71.736328125" height="39"/></g><g transform="translate(-254,2) scale(1,1)"><path fill="none" stroke="#000000" d="M 1008 380 L 1079.736328125 380 L 1079.736328125 419 L 1008 419 L 1008 380 Z Z" stroke-miterlimit="10"/></g><g transform="translate(-254,2) scale(1,1)"><g><path fill="none" stroke="none"/><text fill="#000000" stroke="none" font-family="Arial" font-size="13px" font-style="normal" font-weight="bold" text-decoration="none" x="1022.924072265625" y="398">:Board</text></g></g><g transform="translate(-254,2) scale(1,1)"><path fill="none" stroke="#000000" d="M 1044.5 420 L 1044.5 576" stroke-miterlimit="10" stroke-dasharray="3"/></g><g transform="translate(-254,2) scale(1,1)"><rect fill="#C0C0C0" stroke="none" x="655" y="47" width="168.29052734375" height="39" opacity="0.2"/></g><g transform="translate(-254,2) scale(1,1)"><rect fill="#ffffff" stroke="none" x="648" y="40" width="168.29052734375" height="39"/></g><g transform="translate(-254,2) scale(1,1)"><path fill="none" stroke="#000000" d="M 648 40 L 816.29052734375 40 L 816.29052734375 79 L 648 79 L 648 40 Z Z" stroke-miterlimit="10"/></g><g transform="translate(-254,2) scale(1,1)"><g><path fill="none" stroke="none"/><text fill="#000000" stroke="none" font-family="Arial" font-size="13px" font-style="normal" font-weight="bold" text-decoration="none" x="657.5" y="58">:WordlePlayerController</text></g></g><g transform="translate(-254,2) scale(1,1)"><path fill="none" stroke="#000000" d="M 733.5 80 L 733.5 576" stroke-miterlimit="10" stroke-dasharray="3"/></g><g transform="translate(-254,2) scale(1,1)"><rect fill="#C0C0C0" stroke="none" x="855" y="315" width="103.27783203125" height="39" opacity="0.2"/></g><g transform="translate(-254,2) scale(1,1)"><rect fill="#ffffff" stroke="none" x="848" y="308" width="103.27783203125" height="39"/></g><g transform="translate(-254,2) scale(1,1)"><path fill="none" stroke="#000000" d="M 848 308 L 951.27783203125 308 L 951.27783203125 347 L 848 347 L 848 308 Z Z" stroke-miterlimit="10"/></g><g transform="translate(-254,2) scale(1,1)"><g><path fill="none" stroke="none"/><text fill="#000000" stroke="none" font-family="Arial" font-size="13px" font-style="normal" font-weight="bold" text-decoration="none" x="857.5" y="326">:WordleGame</text></g></g><g transform="translate(-254,2) scale(1,1)"><path fill="none" stroke="#000000" d="M 900.5 348 L 900.5 576" stroke-miterlimit="10" stroke-dasharray="3"/></g><g transform="translate(-254,2) scale(1,1)"><rect fill="#C0C0C0" stroke="none" x="1071" y="47" width="112.65966796875" height="39" opacity="0.2"/></g><g transform="translate(-254,2) scale(1,1)"><rect fill="#ffffff" stroke="none" x="1064" y="40" width="112.65966796875" height="39"/></g><g transform="translate(-254,2) scale(1,1)"><path fill="none" stroke="#000000" d="M 1064 40 L 1176.65966796875 40 L 1176.65966796875 79 L 1064 79 L 1064 40 Z Z" stroke-miterlimit="10"/></g><g transform="translate(-254,2) scale(1,1)"><g><path fill="none" stroke="none"/><text fill="#000000" stroke="none" font-family="Arial" font-size="13px" font-style="normal" font-weight="bold" text-decoration="none" x="1073.5" y="58">:WordlePrinter </text></g></g><g transform="translate(-254,2) scale(1,1)"><path fill="none" stroke="#000000" d="M 1121.5 80 L 1121.5 576" stroke-miterlimit="10" stroke-dasharray="3"/></g><g transform="translate(-254,2) scale(1,1)"><path fill="#ffffff" stroke="none" d="M 1136 456 L 1221 456 L 1231 466 L 1231 519 L 1136 519 L 1136 456"/></g><g transform="translate(-254,2) scale(1,1)"><path fill="none" stroke="#000000" d="M 1136 456 L 1221 456 L 1231 466 L 1231 519 L 1136 519 L 1136 456 L 1136 456" stroke-miterlimit="10"/></g><g transform="translate(-254,2) scale(1,1)"><path fill="none" stroke="#000000" d="M 1221 456 L 1221 466 L 1231 466 L 1221 456" stroke-miterlimit="10"/></g><g transform="translate(-254,2) scale(1,1)"><g><path fill="none" stroke="none"/><text fill="#000000" stroke="none" font-family="Arial" font-size="13px" font-style="normal" font-weight="normal" text-decoration="none" x="1141" y="471">consultare</text><text fill="#000000" stroke="none" font-family="Arial" font-size="13px" font-style="normal" font-weight="normal" text-decoration="none" x="1141" y="484">diagramma di</text><text fill="#000000" stroke="none" font-family="Arial" font-size="13px" font-style="normal" font-weight="normal" text-decoration="none" x="1141" y="494">sequenza</text><text fill="#000000" stroke="none" font-family="Arial" font-size="13px" font-style="normal" font-weight="normal" text-decoration="none" x="1141" y="510">"printBoard"</text></g></g><g transform="translate(-254,2) scale(1,1)"><path fill="none" stroke="#000000" d="M 349 124 L 445 124" stroke-miterlimit="10"/></g><g transform="translate(-254,2) scale(1,1)"><path fill="#000000" stroke="none" d="M 434.83732514237585 128.209517756016 L 445 124 L 434.83732514237585 119.79048224398402"/></g><g transform="translate(-254,2) scale(1,1)"><path fill="none" stroke="#000000" d="M 434.83732514237585 128.209517756016 L 445 124 L 434.83732514237585 119.79048224398402 L 434.83732514237585 128.209517756016" stroke-miterlimit="10"/></g><g transform="translate(-254,2) scale(1,1)"><g><path fill="none" stroke="none"/><text fill="#000000" stroke="none" font-family="Arial" font-size="13px" font-style="normal" font-weight="normal" text-decoration="none" x="370.14453125" y="119">1 : /gioca</text></g></g><g transform="translate(-254,2) scale(1,1)"><rect fill="#ffffff" stroke="none" x="445" y="124" width="13" height="436"/></g><g transform="translate(-254,2) scale(1,1)"><path fill="none" stroke="#000000" d="M 445 124 L 458 124 L 458 560 L 445 560 L 445 124 Z Z" stroke-miterlimit="10"/></g><g transform="translate(-254,2) scale(1,1)"><path fill="none" stroke="#000000" d="M 458 145 L 589 145" stroke-miterlimit="10"/></g><g transform="translate(-254,2) scale(1,1)"><path fill="#000000" stroke="none" d="M 578.8373251423759 149.209517756016 L 589 145 L 578.8373251423758 140.790482243984"/></g><g transform="translate(-254,2) scale(1,1)"><path fill="none" stroke="#000000" d="M 578.8373251423759 149.209517756016 L 589 145 L 578.8373251423758 140.790482243984 L 578.8373251423759 149.209517756016" stroke-miterlimit="10"/></g><g transform="translate(-254,2) scale(1,1)"><g><path fill="none" stroke="none"/><text fill="#000000" stroke="none" font-family="Arial" font-size="13px" font-style="normal" font-weight="normal" text-decoration="none" x="496.509521484375" y="140">2 : feed()</text></g></g><g transform="translate(-254,2) scale(1,1)"><rect fill="#ffffff" stroke="none" x="589" y="145" width="13" height="28"/></g><g transform="translate(-254,2) scale(1,1)"><path fill="none" stroke="#000000" d="M 589 145 L 602 145 L 602 173 L 589 173 L 589 145 Z Z" stroke-miterlimit="10"/></g><g transform="translate(-254,2) scale(1,1)"><path fill="none" stroke="#000000" d="M 458 192 L 589 192" stroke-miterlimit="10"/></g><g transform="translate(-254,2) scale(1,1)"><path fill="#000000" stroke="none" d="M 578.8373251423759 196.209517756016 L 589 192 L 578.8373251423758 187.790482243984"/></g><g transform="translate(-254,2) scale(1,1)"><path fill="none" stroke="#000000" d="M 578.8373251423759 196.209517756016 L 589 192 L 578.8373251423758 187.790482243984 L 578.8373251423759 196.209517756016" stroke-miterlimit="10"/></g><g transform="translate(-254,2) scale(1,1)"><g><path fill="none" stroke="none"/><text fill="#000000" stroke="none" font-family="Arial" font-size="13px" font-style="normal" font-weight="normal" text-decoration="none" x="470.5" y="187">3 : getCommand()</text></g></g><g transform="translate(-254,2) scale(1,1)"><rect fill="#ffffff" stroke="none" x="589" y="192" width="13" height="28"/></g><g transform="translate(-254,2) scale(1,1)"><path fill="none" stroke="#000000" d="M 589 192 L 602 192 L 602 220 L 589 220 L 589 192 Z Z" stroke-miterlimit="10"/></g><g transform="translate(-254,2) scale(1,1)"><path fill="none" stroke="#000000" d="M 458 248 L 488 248 L 488 268 L 465 268" stroke-miterlimit="10"/></g><g transform="translate(-254,2) scale(1,1)"><path fill="#000000" stroke="none" d="M 475.16267485762415 263.790482243984 L 465 268 L 475.16267485762415 272.209517756016"/></g><g transform="translate(-254,2) scale(1,1)"><path fill="none" stroke="#000000" d="M 475.16267485762415 263.790482243984 L 465 268 L 475.16267485762415 272.209517756016 L 475.16267485762415 263.790482243984" stroke-miterlimit="10"/></g><g transform="translate(-254,2) scale(1,1)"><g><path fill="none" stroke="none"/><text fill="#000000" stroke="none" font-family="Arial" font-size="13px" font-style="normal" font-weight="normal" text-decoration="none" x="471.5" y="243">4 : executeStart()</text></g></g><g transform="translate(-254,2) scale(1,1)"><rect fill="#ffffff" stroke="none" x="452" y="268" width="13" height="276"/></g><g transform="translate(-254,2) scale(1,1)"><path fill="none" stroke="#000000" d="M 452 268 L 465 268 L 465 544 L 452 544 L 452 268 Z Z" stroke-miterlimit="10"/></g><g transform="translate(-254,2) scale(1,1)"><path fill="none" stroke="#000000" d="M 465 312 L 726 312" stroke-miterlimit="10"/></g><g transform="translate(-254,2) scale(1,1)"><path fill="#000000" stroke="none" d="M 715.8373251423759 316.209517756016 L 726 312 L 715.8373251423758 307.790482243984"/></g><g transform="translate(-254,2) scale(1,1)"><path fill="none" stroke="#000000" d="M 715.8373251423759 316.209517756016 L 726 312 L 715.8373251423758 307.790482243984 L 715.8373251423759 316.209517756016" stroke-miterlimit="10"/></g><g transform="translate(-254,2) scale(1,1)"><g><path fill="none" stroke="none"/><text fill="#000000" stroke="none" font-family="Arial" font-size="13px" font-style="normal" font-weight="normal" text-decoration="none" x="503.5" y="306">5 : startGame()</text></g></g><g transform="translate(-254,2) scale(1,1)"><rect fill="#ffffff" stroke="none" x="726" y="312" width="13" height="128"/></g><g transform="translate(-254,2) scale(1,1)"><path fill="none" stroke="#000000" d="M 726 312 L 739 312 L 739 440 L 726 440 L 726 312 Z Z" stroke-miterlimit="10"/></g><g transform="translate(-254,2) scale(1,1)"><path fill="none" stroke="#000000" d="M 739 328 L 848 328" stroke-miterlimit="10" stroke-dasharray="3"/></g><g transform="translate(-254,2) scale(1,1)"><path fill="none" stroke="#000000" d="M 837.8373251423759 332.209517756016 L 848 328 L 837.8373251423758 323.790482243984" stroke-miterlimit="10"/></g><g transform="translate(-254,2) scale(1,1)"><g><path fill="none" stroke="none"/><text fill="#000000" stroke="none" font-family="Arial" font-size="13px" font-style="normal" font-weight="normal" text-decoration="none" x="763.84326171875" y="322">6 : </text></g></g><g transform="translate(-254,2) scale(1,1)"><g><path fill="none" stroke="none"/><text fill="#000000" stroke="none" font-family="Arial" font-size="13px" font-style="normal" font-weight="normal" text-decoration="none" x="786.5" y="322.5">«create»</text></g></g><g transform="translate(-254,2) scale(1,1)"><path fill="none" stroke="#000000" d="M 900 400 L 1008 400" stroke-miterlimit="10" stroke-dasharray="3"/></g><g transform="translate(-254,2) scale(1,1)"><path fill="none" stroke="#000000" d="M 997.8373251423759 404.209517756016 L 1008 400 L 997.8373251423758 395.790482243984" stroke-miterlimit="10"/></g><g transform="translate(-254,2) scale(1,1)"><g><path fill="none" stroke="none"/><text fill="#000000" stroke="none" font-family="Arial" font-size="13px" font-style="normal" font-weight="normal" text-decoration="none" x="914.93994140625" y="394">7 : </text></g></g><g transform="translate(-254,2) scale(1,1)"><g><path fill="none" stroke="none"/><text fill="#000000" stroke="none" font-family="Arial" font-size="13px" font-style="normal" font-weight="normal" text-decoration="none" x="934.5" y="394.5">«create»</text></g></g><g transform="translate(-254,2) scale(1,1)"><path fill="none" stroke="#000000" d="M 465 456 L 1114 456" stroke-miterlimit="10"/></g><g transform="translate(-254,2) scale(1,1)"><path fill="#000000" stroke="none" d="M 1103.837325142376 460.209517756016 L 1114 456 L 1103.837325142376 451.790482243984"/></g><g transform="translate(-254,2) scale(1,1)"><path fill="none" stroke="#000000" d="M 1103.837325142376 460.209517756016 L 1114 456 L 1103.837325142376 451.790482243984 L 1103.837325142376 460.209517756016" stroke-miterlimit="10"/></g><g transform="translate(-254,2) scale(1,1)"><g><path fill="none" stroke="none"/><text fill="#000000" stroke="none" font-family="Arial" font-size="13px" font-style="normal" font-weight="normal" text-decoration="none" x="486.582275390625" y="448">8 : printBoard()</text></g></g><g transform="translate(-254,2) scale(1,1)"><rect fill="#ffffff" stroke="none" x="1114" y="456" width="13" height="48"/></g><g transform="translate(-254,2) scale(1,1)"><path fill="none" stroke="#000000" d="M 1114 456 L 1127 456 L 1127 504 L 1114 504 L 1114 456 Z Z" stroke-miterlimit="10"/></g></g></svg>