<svg version="1.1" xmlns="http://www.w3.org/2000/svg" xmlns:xlink="http://www.w3.org/1999/xlink" width="996" height="580"><defs/><g><text fill="#eeeeee" stroke="none" font-family="Arial" font-size="24px" font-style="normal" font-weight="normal" text-decoration="none" x="0" y="0">UNREGISTERED</text><text fill="#eeeeee" stroke="none" font-family="Arial" font-size="24px" font-style="normal" font-weight="normal" text-decoration="none" x="0" y="30">UNREGISTERED</text><text fill="#eeeeee" stroke="none" font-family="Arial" font-size="24px" font-style="normal" font-weight="normal" text-decoration="none" x="0" y="60">UNREGISTERED</text><text fill="#eeeeee" stroke="none" font-family="Arial" font-size="24px" font-style="normal" font-weight="normal" text-decoration="none" x="0" y="90">UNREGISTERED</text><text fill="#eeeeee" stroke="none" font-family="Arial" font-size="24px" font-style="normal" font-weight="normal" text-decoration="none" x="0" y="120">UNREGISTERED</text><text fill="#eeeeee" stroke="none" font-family="Arial" font-size="24px" font-style="normal" font-weight="normal" text-decoration="none" x="0" y="150">UNREGISTERED</text><text fill="#eeeeee" stroke="none" font-family="Arial" font-size="24px" font-style="normal" font-weight="normal" text-decoration="none" x="0" y="180">UNREGISTERED</text><text fill="#eeeeee" stroke="none" font-family="Arial" font-size="24px" font-style="normal" font-weight="normal" text-decoration="none" x="0" y="210">UNREGISTERED</text><text fill="#eeeeee" stroke="none" font-family="Arial" font-size="24px" font-style="normal" font-weight="normal" text-decoration="none" x="0" y="240">UNREGISTERED</text><text fill="#eeeeee" stroke="none" font-family="Arial" font-size="24px" font-style="normal" font-weight="normal" text-decoration="none" x="0" y="270">UNREGISTERED</text><text fill="#eeeeee" stroke="none" font-family="Arial" font-size="24px" font-style="normal" font-weight="normal" text-decoration="none" x="0" y="300">UNREGISTERED</text><text fill="#eeeeee" stroke="none" font-family="Arial" font-size="24px" font-style="normal" font-weight="normal" text-decoration="none" x="0" y="330">UNREGISTERED</text><text fill="#eeeeee" stroke="none" font-family="Arial" font-size="24px" font-style="normal" font-weight="normal" text-decoration="none" x="0" y="360">UNREGISTERED</text><text fill="#eeeeee" stroke="none" font-family="Arial" font-size="24px" font-style="normal" font-weight="normal" text-decoration="none" x="0" y="390">UNREGISTERED</text><text fill="#eeeeee" stroke="none" font-family="Arial" font-size="24px" font-style="normal" font-weight="normal" text-decoration="none" x="0" y="420">UNREGISTERED</text><text fill="#eeeeee" stroke="none" font-family="Arial" font-size="24px" font-style="normal" font-weight="normal" text-decoration="none" x="0" y="450">UNREGISTERED</text><text fill="#eeeeee" stroke="none" font-family="Arial" font-size="24px" font-style="normal" font-weight="normal" text-decoration="none" x="0" y="480">UNREGISTERED</text><text fill="#eeeeee" stroke="none" font-family="Arial" font-size="24px" font-style="normal" font-weight="normal" text-decoration="none" x="0" y="510">UNREGISTERED</text><text fill="#eeeeee" stroke="none" font-family="Arial" font-size="24px" font-style="normal" font-weight="normal" text-decoration="none" x="0" y="540">UNREGISTERED</text><text fill="#eeeeee" stroke="none" font-family="Arial" font-size="24px" font-style="normal" font-weight="normal" text-decoration="none" x="0" y="570">UNREGISTERED</text><text fill="#eeeeee" stroke="none" font-family="Arial" font-size="24px" font-style="normal" font-weight="normal" text-decoration="none" x="200" y="0">UNREGISTERED</text><text fill="#eeeeee" stroke="none" font-family="Arial" font-size="24px" font-style="normal" font-weight="normal" text-decoration="none" x="200" y="30">UNREGISTERED</text><text fill="#eeeeee" stroke="none" font-family="Arial" font-size="24px" font-style="normal" font-weight="normal" text-decoration="none" x="200" y="60">UNREGISTERED</text><text fill="#eeeeee" stroke="none" font-family="Arial" font-size="24px" font-style="normal" font-weight="normal" text-decoration="none" x="200" y="90">UNREGISTERED</text><text fill="#eeeeee" stroke="none" font-family="Arial" font-size="24px" font-style="normal" font-weight="normal" text-decoration="none" x="200" y="120">UNREGISTERED</text><text fill="#eeeeee" stroke="none" font-family="Arial" font-size="24px" font-style="normal" font-weight="normal" text-decoration="none" x="200" y="150">UNREGISTERED</text><text fill="#eeeeee" stroke="none" font-family="Arial" font-size="24px" font-style="normal" font-weight="normal" text-decoration="none" x="200" y="180">UNREGISTERED</text><text fill="#eeeeee" stroke="none" font-family="Arial" font-size="24px" font-style="normal" font-weight="normal" text-decoration="none" x="200" y="210">UNREGISTERED</text><text fill="#eeeeee" stroke="none" font-family="Arial" font-size="24px" font-style="normal" font-weight="normal" text-decoration="none" x="200" y="240">UNREGISTERED</text><text fill="#eeeeee" stroke="none" font-family="Arial" font-size="24px" font-style="normal" font-weight="normal" text-decoration="none" x="200" y="270">UNREGISTERED</text><text fill="#eeeeee" stroke="none" font-family="Arial" font-size="24px" font-style="normal" font-weight="normal" text-decoration="none" x="200" y="300">UNREGISTERED</text><text fill="#eeeeee" stroke="none" font-family="Arial" font-size="24px" font-style="normal" font-weight="normal" text-decoration="none" x="200" y="330">UNREGISTERED</text><text fill="#eeeeee" stroke="none" font-family="Arial" font-size="24px" font-style="normal" font-weight="normal" text-decoration="none" x="200" y="360">UNREGISTERED</text><text fill="#eeeeee" stroke="none" font-family="Arial" font-size="24px" font-style="normal" font-weight="normal" text-decoration="none" x="200" y="390">UNREGISTERED</text><text fill="#eeeeee" stroke="none" font-family="Arial" font-size="24px" font-style="normal" font-weight="normal" text-decoration="none" x="200" y="420">UNREGISTERED</text><text fill="#eeeeee" stroke="none" font-family="Arial" font-size="24px" font-style="normal" font-weight="normal" text-decoration="none" x="200" y="450">UNREGISTERED</text><text fill="#eeeeee" stroke="none" font-family="Arial" font-size="24px" font-style="normal" font-weight="normal" text-decoration="none" x="200" y="480">UNREGISTERED</text><text fill="#eeeeee" stroke="none" font-family="Arial" font-size="24px" font-style="normal" font-weight="normal" text-decoration="none" x="200" y="510">UNREGISTERED</text><text fill="#eeeeee" stroke="none" font-family="Arial" font-size="24px" font-style="normal" font-weight="normal" text-decoration="none" x="200" y="540">UNREGISTERED</text><text fill="#eeeeee" stroke="none" font-family="Arial" font-size="24px" font-style="normal" font-weight="normal" text-decoration="none" x="200" y="570">UNREGISTERED</text><text fill="#eeeeee" stroke="none" font-family="Arial" font-size="24px" font-style="normal" font-weight="normal" text-decoration="none" x="400" y="0">UNREGISTERED</text><text fill="#eeeeee" stroke="none" font-family="Arial" font-size="24px" font-style="normal" font-weight="normal" text-decoration="none" x="400" y="30">UNREGISTERED</text><text fill="#eeeeee" stroke="none" font-family="Arial" font-size="24px" font-style="normal" font-weight="normal" text-decoration="none" x="400" y="60">UNREGISTERED</text><text fill="#eeeeee" stroke="none" font-family="Arial" font-size="24px" font-style="normal" font-weight="normal" text-decoration="none" x="400" y="90">UNREGISTERED</text><text fill="#eeeeee" stroke="none" font-family="Arial" font-size="24px" font-style="normal" font-weight="normal" text-decoration="none" x="400" y="120">UNREGISTERED</text><text fill="#eeeeee" stroke="none" font-family="Arial" font-size="24px" font-style="normal" font-weight="normal" text-decoration="none" x="400" y="150">UNREGISTERED</text><text fill="#eeeeee" stroke="none" font-family="Arial" font-size="24px" font-style="normal" font-weight="normal" text-decoration="none" x="400" y="180">UNREGISTERED</text><text fill="#eeeeee" stroke="none" font-family="Arial" font-size="24px" font-style="normal" font-weight="normal" text-decoration="none" x="400" y="210">UNREGISTERED</text><text fill="#eeeeee" stroke="none" font-family="Arial" font-size="24px" font-style="normal" font-weight="normal" text-decoration="none" x="400" y="240">UNREGISTERED</text><text fill="#eeeeee" stroke="none" font-family="Arial" font-size="24px" font-style="normal" font-weight="normal" text-decoration="none" x="400" y="270">UNREGISTERED</text><text fill="#eeeeee" stroke="none" font-family="Arial" font-size="24px" font-style="normal" font-weight="normal" text-decoration="none" x="400" y="300">UNREGISTERED</text><text fill="#eeeeee" stroke="none" font-family="Arial" font-size="24px" font-style="normal" font-weight="normal" text-decoration="none" x="400" y="330">UNREGISTERED</text><text fill="#eeeeee" stroke="none" font-family="Arial" font-size="24px" font-style="normal" font-weight="normal" text-decoration="none" x="400" y="360">UNREGISTERED</text><text fill="#eeeeee" stroke="none" font-family="Arial" font-size="24px" font-style="normal" font-weight="normal" text-decoration="none" x="400" y="390">UNREGISTERED</text><text fill="#eeeeee" stroke="none" font-family="Arial" font-size="24px" font-style="normal" font-weight="normal" text-decoration="none" x="400" y="420">UNREGISTERED</text><text fill="#eeeeee" stroke="none" font-family="Arial" font-size="24px" font-style="normal" font-weight="normal" text-decoration="none" x="400" y="450">UNREGISTERED</text><text fill="#eeeeee" stroke="none" font-family="Arial" font-size="24px" font-style="normal" font-weight="normal" text-decoration="none" x="400" y="480">UNREGISTERED</text><text fill="#eeeeee" stroke="none" font-family="Arial" font-size="24px" font-style="normal" font-weight="normal" text-decoration="none" x="400" y="510">UNREGISTERED</text><text fill="#eeeeee" stroke="none" font-family="Arial" font-size="24px" font-style="normal" font-weight="normal" text-decoration="none" x="400" y="540">UNREGISTERED</text><text fill="#eeeeee" stroke="none" font-family="Arial" font-size="24px" font-style="normal" font-weight="normal" text-decoration="none" x="400" y="570">UNREGISTERED</text><text fill="#eeeeee" stroke="none" font-family="Arial" font-size="24px" font-style="normal" font-weight="normal" text-decoration="none" x="600" y="0">UNREGISTERED</text><text fill="#eeeeee" stroke="none" font-family="Arial" font-size="24px" font-style="normal" font-weight="normal" text-decoration="none" x="600" y="30">UNREGISTERED</text><text fill="#eeeeee" stroke="none" font-family="Arial" font-size="24px" font-style="normal" font-weight="normal" text-decoration="none" x="600" y="60">UNREGISTERED</text><text fill="#eeeeee" stroke="none" font-family="Arial" font-size="24px" font-style="normal" font-weight="normal" text-decoration="none" x="600" y="90">UNREGISTERED</text><text fill="#eeeeee" stroke="none" font-family="Arial" font-size="24px" font-style="normal" font-weight="normal" text-decoration="none" x="600" y="120">UNREGISTERED</text><text fill="#eeeeee" stroke="none" font-family="Arial" font-size="24px" font-style="normal" font-weight="normal" text-decoration="none" x="600" y="150">UNREGISTERED</text><text fill="#eeeeee" stroke="none" font-family="Arial" font-size="24px" font-style="normal" font-weight="normal" text-decoration="none" x="600" y="180">UNREGISTERED</text><text fill="#eeeeee" stroke="none" font-family="Arial" font-size="24px" font-style="normal" font-weight="normal" text-decoration="none" x="600" y="210">UNREGISTERED</text><text fill="#eeeeee" stroke="none" font-family="Arial" font-size="24px" font-style="normal" font-weight="normal" text-decoration="none" x="600" y="240">UNREGISTERED</text><text fill="#eeeeee" stroke="none" font-family="Arial" font-size="24px" font-style="normal" font-weight="normal" text-decoration="none" x="600" y="270">UNREGISTERED</text><text fill="#eeeeee" stroke="none" font-family="Arial" font-size="24px" font-style="normal" font-weight="normal" text-decoration="none" x="600" y="300">UNREGISTERED</text><text fill="#eeeeee" stroke="none" font-family="Arial" font-size="24px" font-style="normal" font-weight="normal" text-decoration="none" x="600" y="330">UNREGISTERED</text><text fill="#eeeeee" stroke="none" font-family="Arial" font-size="24px" font-style="normal" font-weight="normal" text-decoration="none" x="600" y="360">UNREGISTERED</text><text fill="#eeeeee" stroke="none" font-family="Arial" font-size="24px" font-style="normal" font-weight="normal" text-decoration="none" x="600" y="390">UNREGISTERED</text><text fill="#eeeeee" stroke="none" font-family="Arial" font-size="24px" font-style="normal" font-weight="normal" text-decoration="none" x="600" y="420">UNREGISTERED</text><text fill="#eeeeee" stroke="none" font-family="Arial" font-size="24px" font-style="normal" font-weight="normal" text-decoration="none" x="600" y="450">UNREGISTERED</text><text fill="#eeeeee" stroke="none" font-family="Arial" font-size="24px" font-style="normal" font-weight="normal" text-decoration="none" x="600" y="480">UNREGISTERED</text><text fill="#eeeeee" stroke="none" font-family="Arial" font-size="24px" font-style="normal" font-weight="normal" text-decoration="none" x="600" y="510">UNREGISTERED</text><text fill="#eeeeee" stroke="none" font-family="Arial" font-size="24px" font-style="normal" font-weight="normal" text-decoration="none" x="600" y="540">UNREGISTERED</text><text fill="#eeeeee" stroke="none" font-family="Arial" font-size="24px" font-style="normal" font-weight="normal" text-decoration="none" x="600" y="570">UNREGISTERED</text><text fill="#eeeeee" stroke="none" font-family="Arial" font-size="24px" font-style="normal" font-weight="normal" text-decoration="none" x="800" y="0">UNREGISTERED</text><text fill="#eeeeee" stroke="none" font-family="Arial" font-size="24px" font-style="normal" font-weight="normal" text-decoration="none" x="800" y="30">UNREGISTERED</text><text fill="#eeeeee" stroke="none" font-family="Arial" font-size="24px" font-style="normal" font-weight="normal" text-decoration="none" x="800" y="60">UNREGISTERED</text><text fill="#eeeeee" stroke="none" font-family="Arial" font-size="24px" font-style="normal" font-weight="normal" text-decoration="none" x="800" y="90">UNREGISTERED</text><text fill="#eeeeee" stroke="none" font-family="Arial" font-size="24px" font-style="normal" font-weight="normal" text-decoration="none" x="800" y="120">UNREGISTERED</text><text fill="#eeeeee" stroke="none" font-family="Arial" font-size="24px" font-style="normal" font-weight="normal" text-decoration="none" x="800" y="150">UNREGISTERED</text><text fill="#eeeeee" stroke="none" font-family="Arial" font-size="24px" font-style="normal" font-weight="normal" text-decoration="none" x="800" y="180">UNREGISTERED</text><text fill="#eeeeee" stroke="none" font-family="Arial" font-size="24px" font-style="normal" font-weight="normal" text-decoration="none" x="800" y="210">UNREGISTERED</text><text fill="#eeeeee" stroke="none" font-family="Arial" font-size="24px" font-style="normal" font-weight="normal" text-decoration="none" x="800" y="240">UNREGISTERED</text><text fill="#eeeeee" stroke="none" font-family="Arial" font-size="24px" font-style="normal" font-weight="normal" text-decoration="none" x="800" y="270">UNREGISTERED</text><text fill="#eeeeee" stroke="none" font-family="Arial" font-size="24px" font-style="normal" font-weight="normal" text-decoration="none" x="800" y="300">UNREGISTERED</text><text fill="#eeeeee" stroke="none" font-family="Arial" font-size="24px" font-style="normal" font-weight="normal" text-decoration="none" x="800" y="330">UNREGISTERED</text><text fill="#eeeeee" stroke="none" font-family="Arial" font-size="24px" font-style="normal" font-weight="normal" text-decoration="none" x="800" y="360">UNREGISTERED</text><text fill="#eeeeee" stroke="none" font-family="Arial" font-size="24px" font-style="normal" font-weight="normal" text-decoration="none" x="800" y="390">UNREGISTERED</text><text fill="#eeeeee" stroke="none" font-family="Arial" font-size="24px" font-style="normal" font-weight="normal" text-decoration="none" x="800" y="420">UNREGISTERED</text><text fill="#eeeeee" stroke="none" font-family="Arial" font-size="24px" font-style="normal" font-weight="normal" text-decoration="none" x="800" y="450">UNREGISTERED</text><text fill="#eeeeee" stroke="none" font-family="Arial" font-size="24px" font-style="normal" font-weight="normal" text-decoration="none" x="800" y="480">UNREGISTERED</text><text fill="#eeeeee" stroke="none" font-family="Arial" font-size="24px" font-style="normal" font-weight="normal" text-decoration="none" x="800" y="510">UNREGISTERED</text><text fill="#eeeeee" stroke="none" font-family="Arial" font-size="24px" font-style="normal" font-weight="normal" text-decoration="none" x="800" y="540">UNREGISTERED</text><text fill="#eeeeee" stroke="none" font-family="Arial" font-size="24px" font-style="normal" font-weight="normal" text-decoration="none" x="800" y="570">UNREGISTERED</text><g transform="translate(-70,10) scale(1,1)"><rect fill="#C0C0C0" stroke="none" x="231" y="47" width="87.6689453125" height="39" opacity="0.2"/></g><g transform="translate(-70,10) scale(1,1)"><rect fill="#ffffff" stroke="none" x="224" y="40" width="87.6689453125" height="39"/></g><g transform="translate(-70,10) scale(1,1)"><path fill="none" stroke="#000000" d="M 224 40 L 311.6689453125 40 L 311.6689453125 79 L 224 79 L 224 40 Z Z" stroke-miterlimit="10"/></g><g transform="translate(-70,10) scale(1,1)"><g><path fill="none" stroke="none"/><text fill="#000000" stroke="none" font-family="Arial" font-size="13px" font-style="normal" font-weight="bold" text-decoration="none" x="255.199462890625" y="58">App</text></g></g><g transform="translate(-70,10) scale(1,1)"><path fill="none" stroke="#000000" d="M 268.5 80 L 268.5 520" stroke-miterlimit="10" stroke-dasharray="3"/></g><g transform="translate(-70,10) scale(1,1)"><path fill="#ffffff" stroke="none" d="M 132.9717879971591 47.3 C 132.9717879971591 43.82060576 135.8501897193409 41 139.40087890625 41 C 142.9515680931591 41 145.82996981534092 43.82060576 145.82996981534092 47.3 C 145.82996981534092 50.779394239999995 142.9515680931591 53.6 139.40087890625 53.6 C 135.8501897193409 53.6 132.9717879971591 50.779394239999995 132.9717879971591 47.3 Z"/></g><g transform="translate(-70,10) scale(1,1)"><path fill="none" stroke="#000000" d="M 132.9717879971591 47.3 C 132.9717879971591 43.82060576 135.8501897193409 41 139.40087890625 41 C 142.9515680931591 41 145.82996981534092 43.82060576 145.82996981534092 47.3 C 145.82996981534092 50.779394239999995 142.9515680931591 53.6 139.40087890625 53.6 C 135.8501897193409 53.6 132.9717879971591 50.779394239999995 132.9717879971591 47.3 Z" stroke-miterlimit="10"/></g><g transform="translate(-70,10) scale(1,1)"><path fill="none" stroke="#000000" d="M 139.40087890625 53.6 L 139.40087890625 66.4" stroke-miterlimit="10"/></g><g transform="translate(-70,10) scale(1,1)"><path fill="none" stroke="#000000" d="M 132.5936061789773 58.4 L 146.20815163352273 58.4" stroke-miterlimit="10"/></g><g transform="translate(-70,10) scale(1,1)"><path fill="none" stroke="#000000" d="M 139.40087890625 66.4 L 129.94633345170456 79" stroke-miterlimit="10"/></g><g transform="translate(-70,10) scale(1,1)"><path fill="none" stroke="#000000" d="M 139.40087890625 66.4 L 148.85542436079547 79" stroke-miterlimit="10"/></g><g transform="translate(-70,10) scale(1,1)"><g><path fill="none" stroke="none"/><text fill="#000000" stroke="none" font-family="Arial" font-size="13px" font-style="normal" font-weight="bold" text-decoration="none" x="111.5791015625" y="98">Paroliere</text></g></g><g transform="translate(-70,10) scale(1,1)"><path fill="none" stroke="#000000" d="M 140.5 105 L 140.5 520" stroke-miterlimit="10" stroke-dasharray="3"/></g><g transform="translate(-70,10) scale(1,1)"><rect fill="#C0C0C0" stroke="none" x="711" y="47" width="196.90576171875" height="39" opacity="0.2"/></g><g transform="translate(-70,10) scale(1,1)"><rect fill="#ffffff" stroke="none" x="704" y="40" width="196.90576171875" height="39"/></g><g transform="translate(-70,10) scale(1,1)"><path fill="none" stroke="#000000" d="M 704 40 L 900.90576171875 40 L 900.90576171875 79 L 704 79 L 704 40 Z Z" stroke-miterlimit="10"/></g><g transform="translate(-70,10) scale(1,1)"><g><path fill="none" stroke="none"/><text fill="#000000" stroke="none" font-family="Arial" font-size="13px" font-style="normal" font-weight="bold" text-decoration="none" x="713.5" y="58">:WordleWordsmithController</text></g></g><g transform="translate(-70,10) scale(1,1)"><path fill="none" stroke="#000000" d="M 803.5 80 L 803.5 520" stroke-miterlimit="10" stroke-dasharray="3"/></g><g transform="translate(-70,10) scale(1,1)"><rect fill="#C0C0C0" stroke="none" x="935" y="47" width="109.0478515625" height="39" opacity="0.2"/></g><g transform="translate(-70,10) scale(1,1)"><rect fill="#ffffff" stroke="none" x="928" y="40" width="109.0478515625" height="39"/></g><g transform="translate(-70,10) scale(1,1)"><path fill="none" stroke="#000000" d="M 928 40 L 1037.0478515625 40 L 1037.0478515625 79 L 928 79 L 928 40 Z Z" stroke-miterlimit="10"/></g><g transform="translate(-70,10) scale(1,1)"><g><path fill="none" stroke="none"/><text fill="#000000" stroke="none" font-family="Arial" font-size="13px" font-style="normal" font-weight="bold" text-decoration="none" x="937.5" y="58">:WordlePrinter</text></g></g><g transform="translate(-70,10) scale(1,1)"><path fill="none" stroke="#000000" d="M 983.5 80 L 983.5 520" stroke-miterlimit="10" stroke-dasharray="3"/></g><g transform="translate(-70,10) scale(1,1)"><rect fill="#C0C0C0" stroke="none" x="535" y="47" width="87.6689453125" height="39" opacity="0.2"/></g><g transform="translate(-70,10) scale(1,1)"><rect fill="#ffffff" stroke="none" x="528" y="40" width="87.6689453125" height="39"/></g><g transform="translate(-70,10) scale(1,1)"><path fill="none" stroke="#000000" d="M 528 40 L 615.6689453125 40 L 615.6689453125 79 L 528 79 L 528 40 Z Z" stroke-miterlimit="10"/></g><g transform="translate(-70,10) scale(1,1)"><g><path fill="none" stroke="none"/><text fill="#000000" stroke="none" font-family="Arial" font-size="13px" font-style="normal" font-weight="bold" text-decoration="none" x="549.430419921875" y="58">:Parser</text></g></g><g transform="translate(-70,10) scale(1,1)"><path fill="none" stroke="#000000" d="M 572.5 80 L 572.5 520" stroke-miterlimit="10" stroke-dasharray="3"/></g><g transform="translate(-70,10) scale(1,1)"><rect fill="#C0C0C0" stroke="none" x="335" y="47" width="126.61181640625" height="39" opacity="0.2"/></g><g transform="translate(-70,10) scale(1,1)"><rect fill="#ffffff" stroke="none" x="328" y="40" width="126.61181640625" height="39"/></g><g transform="translate(-70,10) scale(1,1)"><path fill="none" stroke="#000000" d="M 328 40 L 454.61181640625 40 L 454.61181640625 79 L 328 79 L 328 40 Z Z" stroke-miterlimit="10"/></g><g transform="translate(-70,10) scale(1,1)"><g><path fill="none" stroke="none"/><text fill="#000000" stroke="none" font-family="Arial" font-size="13px" font-style="normal" font-weight="bold" text-decoration="none" x="337.5" y="58">c :App.Command</text></g></g><g transform="translate(-70,10) scale(1,1)"><path fill="none" stroke="#000000" d="M 392.5 80 L 392.5 520" stroke-miterlimit="10" stroke-dasharray="3"/></g><g transform="translate(-70,10) scale(1,1)"><rect fill="#C0C0C0" stroke="none" x="655" y="200" width="117.0078125" height="39" opacity="0.2"/></g><g transform="translate(-70,10) scale(1,1)"><rect fill="#ffffff" stroke="none" x="648" y="193" width="117.0078125" height="39"/></g><g transform="translate(-70,10) scale(1,1)"><path fill="none" stroke="#000000" d="M 648 193 L 765.0078125 193 L 765.0078125 232 L 648 232 L 648 193 Z Z" stroke-miterlimit="10"/></g><g transform="translate(-70,10) scale(1,1)"><g><path fill="none" stroke="none"/><text fill="#000000" stroke="none" font-family="Arial" font-size="13px" font-style="normal" font-weight="bold" text-decoration="none" x="657.5" y="211">pt: ParserToken</text></g></g><g transform="translate(-70,10) scale(1,1)"><path fill="none" stroke="#000000" d="M 707.5 233 L 707.5 520" stroke-miterlimit="10" stroke-dasharray="3"/></g><g transform="translate(-70,10) scale(1,1)"><path fill="none" stroke="#000000" d="M 140 136 L 261 136" stroke-miterlimit="10"/></g><g transform="translate(-70,10) scale(1,1)"><path fill="#000000" stroke="none" d="M 250.83732514237585 140.209517756016 L 261 136 L 250.83732514237585 131.790482243984"/></g><g transform="translate(-70,10) scale(1,1)"><path fill="none" stroke="#000000" d="M 250.83732514237585 140.209517756016 L 261 136 L 250.83732514237585 131.790482243984 L 250.83732514237585 140.209517756016" stroke-miterlimit="10"/></g><g transform="translate(-70,10) scale(1,1)"><g><path fill="none" stroke="none"/><text fill="#000000" stroke="none" font-family="Arial" font-size="13px" font-style="normal" font-weight="normal" text-decoration="none" x="143.667724609375" y="131">1 : /nuova &lt;parola&gt;</text></g></g><g transform="translate(-70,10) scale(1,1)"><rect fill="#ffffff" stroke="none" x="261" y="136" width="13" height="352"/></g><g transform="translate(-70,10) scale(1,1)"><path fill="none" stroke="#000000" d="M 261 136 L 274 136 L 274 488 L 261 488 L 261 136 Z Z" stroke-miterlimit="10"/></g><g transform="translate(-70,10) scale(1,1)"><path fill="none" stroke="#000000" d="M 274 153 L 565 153" stroke-miterlimit="10"/></g><g transform="translate(-70,10) scale(1,1)"><path fill="#000000" stroke="none" d="M 554.8373251423759 157.209517756016 L 565 153 L 554.8373251423758 148.790482243984"/></g><g transform="translate(-70,10) scale(1,1)"><path fill="none" stroke="#000000" d="M 554.8373251423759 157.209517756016 L 565 153 L 554.8373251423758 148.790482243984 L 554.8373251423759 157.209517756016" stroke-miterlimit="10"/></g><g transform="translate(-70,10) scale(1,1)"><g><path fill="none" stroke="none"/><text fill="#000000" stroke="none" font-family="Arial" font-size="13px" font-style="normal" font-weight="normal" text-decoration="none" x="403.509521484375" y="148">2 : feed()</text></g></g><g transform="translate(-70,10) scale(1,1)"><rect fill="#ffffff" stroke="none" x="565" y="153" width="13" height="28"/></g><g transform="translate(-70,10) scale(1,1)"><path fill="none" stroke="#000000" d="M 565 153 L 578 153 L 578 181 L 565 181 L 565 153 Z Z" stroke-miterlimit="10"/></g><g transform="translate(-70,10) scale(1,1)"><path fill="none" stroke="#000000" d="M 274 200 L 565 200" stroke-miterlimit="10"/></g><g transform="translate(-70,10) scale(1,1)"><path fill="#000000" stroke="none" d="M 554.8373251423759 204.209517756016 L 565 200 L 554.8373251423758 195.790482243984"/></g><g transform="translate(-70,10) scale(1,1)"><path fill="none" stroke="#000000" d="M 554.8373251423759 204.209517756016 L 565 200 L 554.8373251423758 195.790482243984 L 554.8373251423759 204.209517756016" stroke-miterlimit="10"/></g><g transform="translate(-70,10) scale(1,1)"><g><path fill="none" stroke="none"/><text fill="#000000" stroke="none" font-family="Arial" font-size="13px" font-style="normal" font-weight="normal" text-decoration="none" x="399.5" y="195">3 : getParserToken()</text></g></g><g transform="translate(-70,10) scale(1,1)"><rect fill="#ffffff" stroke="none" x="565" y="200" width="13" height="28"/></g><g transform="translate(-70,10) scale(1,1)"><path fill="none" stroke="#000000" d="M 565 200 L 578 200 L 578 228 L 565 228 L 565 200 Z Z" stroke-miterlimit="10"/></g><g transform="translate(-70,10) scale(1,1)"><path fill="none" stroke="#000000" d="M 578 213 L 648 213" stroke-miterlimit="10" stroke-dasharray="3"/></g><g transform="translate(-70,10) scale(1,1)"><path fill="none" stroke="#000000" d="M 637.8373251423759 217.209517756016 L 648 213 L 637.8373251423758 208.790482243984" stroke-miterlimit="10"/></g><g transform="translate(-70,10) scale(1,1)"><g><path fill="none" stroke="none"/><text fill="#000000" stroke="none" font-family="Arial" font-size="13px" font-style="normal" font-weight="normal" text-decoration="none" x="603.5" y="208">4 : </text></g></g><g transform="translate(-70,10) scale(1,1)"><g><path fill="none" stroke="none"/><text fill="#000000" stroke="none" font-family="Arial" font-size="13px" font-style="normal" font-weight="normal" text-decoration="none" x="587.5" y="192.5">«create»</text></g></g><g transform="translate(-70,10) scale(1,1)"><path fill="none" stroke="#000000" d="M 274 256 L 700 256" stroke-miterlimit="10"/></g><g transform="translate(-70,10) scale(1,1)"><path fill="#000000" stroke="none" d="M 689.8373251423759 260.209517756016 L 700 256 L 689.8373251423758 251.790482243984"/></g><g transform="translate(-70,10) scale(1,1)"><path fill="none" stroke="#000000" d="M 689.8373251423759 260.209517756016 L 700 256 L 689.8373251423758 251.790482243984 L 689.8373251423759 260.209517756016" stroke-miterlimit="10"/></g><g transform="translate(-70,10) scale(1,1)"><g><path fill="none" stroke="none"/><text fill="#000000" stroke="none" font-family="Arial" font-size="13px" font-style="normal" font-weight="normal" text-decoration="none" x="398.5" y="249">5 : c = getCommand()</text></g></g><g transform="translate(-70,10) scale(1,1)"><rect fill="#ffffff" stroke="none" x="700" y="256" width="13" height="28"/></g><g transform="translate(-70,10) scale(1,1)"><path fill="none" stroke="#000000" d="M 700 256 L 713 256 L 713 284 L 700 284 L 700 256 Z Z" stroke-miterlimit="10"/></g><g transform="translate(-70,10) scale(1,1)"><path fill="none" stroke="#000000" d="M 274 300 L 700 300" stroke-miterlimit="10"/></g><g transform="translate(-70,10) scale(1,1)"><path fill="#000000" stroke="none" d="M 689.8373251423759 304.209517756016 L 700 300 L 689.8373251423758 295.790482243984"/></g><g transform="translate(-70,10) scale(1,1)"><path fill="none" stroke="#000000" d="M 689.8373251423759 304.209517756016 L 700 300 L 689.8373251423758 295.790482243984 L 689.8373251423759 304.209517756016" stroke-miterlimit="10"/></g><g transform="translate(-70,10) scale(1,1)"><g><path fill="none" stroke="none"/><text fill="#000000" stroke="none" font-family="Arial" font-size="13px" font-style="normal" font-weight="normal" text-decoration="none" x="401.759521484375" y="296">6 : args = getArgs()</text></g></g><g transform="translate(-70,10) scale(1,1)"><rect fill="#ffffff" stroke="none" x="700" y="300" width="13" height="28"/></g><g transform="translate(-70,10) scale(1,1)"><path fill="none" stroke="#000000" d="M 700 300 L 713 300 L 713 328 L 700 328 L 700 300 Z Z" stroke-miterlimit="10"/></g><g transform="translate(-70,10) scale(1,1)"><path fill="none" stroke="#000000" d="M 274 340 L 385 340" stroke-miterlimit="10"/></g><g transform="translate(-70,10) scale(1,1)"><path fill="#000000" stroke="none" d="M 374.83732514237585 344.209517756016 L 385 340 L 374.83732514237585 335.790482243984"/></g><g transform="translate(-70,10) scale(1,1)"><path fill="none" stroke="#000000" d="M 374.83732514237585 344.209517756016 L 385 340 L 374.83732514237585 335.790482243984 L 374.83732514237585 344.209517756016" stroke-miterlimit="10"/></g><g transform="translate(-70,10) scale(1,1)"><g><path fill="none" stroke="none"/><text fill="#000000" stroke="none" font-family="Arial" font-size="13px" font-style="normal" font-weight="normal" text-decoration="none" x="279.8291015625" y="335">7 : execute(args)</text></g></g><g transform="translate(-70,10) scale(1,1)"><rect fill="#ffffff" stroke="none" x="385" y="340" width="13" height="100"/></g><g transform="translate(-70,10) scale(1,1)"><path fill="none" stroke="#000000" d="M 385 340 L 398 340 L 398 440 L 385 440 L 385 340 Z Z" stroke-miterlimit="10"/></g><g transform="translate(-70,10) scale(1,1)"><path fill="none" stroke="#000000" d="M 398 368 L 796 368" stroke-miterlimit="10"/></g><g transform="translate(-70,10) scale(1,1)"><path fill="#000000" stroke="none" d="M 785.8373251423759 372.209517756016 L 796 368 L 785.8373251423758 363.790482243984"/></g><g transform="translate(-70,10) scale(1,1)"><path fill="none" stroke="#000000" d="M 785.8373251423759 372.209517756016 L 796 368 L 785.8373251423758 363.790482243984 L 785.8373251423759 372.209517756016" stroke-miterlimit="10"/></g><g transform="translate(-70,10) scale(1,1)"><g><path fill="none" stroke="none"/><text fill="#000000" stroke="none" font-family="Arial" font-size="13px" font-style="normal" font-weight="normal" text-decoration="none" x="403.7412109375" y="361">8 : setSecretWord(args[0])</text></g></g><g transform="translate(-70,10) scale(1,1)"><rect fill="#ffffff" stroke="none" x="796" y="368" width="13" height="28"/></g><g transform="translate(-70,10) scale(1,1)"><path fill="none" stroke="#000000" d="M 796 368 L 809 368 L 809 396 L 796 396 L 796 368 Z Z" stroke-miterlimit="10"/></g><g transform="translate(-70,10) scale(1,1)"><path fill="none" stroke="#000000" d="M 398 416 L 976 416" stroke-miterlimit="10"/></g><g transform="translate(-70,10) scale(1,1)"><path fill="#000000" stroke="none" d="M 965.8373251423759 420.209517756016 L 976 416 L 965.8373251423758 411.790482243984"/></g><g transform="translate(-70,10) scale(1,1)"><path fill="none" stroke="#000000" d="M 965.8373251423759 420.209517756016 L 976 416 L 965.8373251423758 411.790482243984 L 965.8373251423759 420.209517756016" stroke-miterlimit="10"/></g><g transform="translate(-70,10) scale(1,1)"><g><path fill="none" stroke="none"/><text fill="#000000" stroke="none" font-family="Arial" font-size="13px" font-style="normal" font-weight="normal" text-decoration="none" x="419.8828125" y="410">9 : // stampa "OK"</text></g></g><g transform="translate(-70,10) scale(1,1)"><rect fill="#ffffff" stroke="none" x="976" y="416" width="13" height="28"/></g><g transform="translate(-70,10) scale(1,1)"><path fill="none" stroke="#000000" d="M 976 416 L 989 416 L 989 444 L 976 444 L 976 416 Z Z" stroke-miterlimit="10"/></g><g transform="translate(-70,10) scale(1,1)"><path fill="none" stroke="#000000" d="M 96 0 L 1056 0 L 1056 560 L 96 560 L 96 0" stroke-miterlimit="10"/></g><g transform="translate(-70,10) scale(1,1)"><path fill="#ffffff" stroke="none" d="M 96 0 L 96 22 L 350.4814453125 22 L 361.4814453125 11 L 361.4814453125 0 L 96 0"/></g><g transform="translate(-70,10) scale(1,1)"><path fill="none" stroke="#000000" d="M 96 0 L 96 22 L 350.4814453125 22 L 361.4814453125 11 L 361.4814453125 0 L 96 0 L 96 0" stroke-miterlimit="10"/></g><g transform="translate(-70,10) scale(1,1)"><g><path fill="none" stroke="none"/><text fill="#000000" stroke="none" font-family="Arial" font-size="13px" font-style="normal" font-weight="normal" text-decoration="none" x="127.9599609375" y="16">Impostazione manuale parola segreta</text></g></g><g transform="translate(-70,10) scale(1,1)"><g><path fill="none" stroke="none"/><text fill="#000000" stroke="none" font-family="Arial" font-size="13px" font-style="normal" font-weight="bold" text-decoration="none" x="100.279541015625" y="14.5">seq</text></g></g></g></svg>