<?xml version="1.0" encoding="utf-8"?>
<!-- Generator: Adobe Illustrator 24.0.0, SVG Export Plug-In . SVG Version: 6.00 Build 0)  -->
<svg version="1.1" id="Livello_1" xmlns="http://www.w3.org/2000/svg" xmlns:xlink="http://www.w3.org/1999/xlink" x="0px" y="0px"
	 viewBox="0 0 924 628" style="enable-background:new 0 0 924 628;" xml:space="preserve">
<style type="text/css">
	.st0{opacity:0.2;fill:#C0C0C0;enable-background:new    ;}
	.st1{fill:#FFFFFF;}
	.st2{fill:none;stroke:#000000;stroke-miterlimit:10;}
	.st3{font-family:'Arial-BoldMT';}
	.st4{font-size:13px;}
	.st5{fill:none;stroke:#000000;stroke-miterlimit:10;stroke-dasharray:3;}
	.st6{font-family:'ArialMT';}
</style>
<g>
	<g transform="translate(-14,-6) scale(1,1)">
		<rect x="119" y="47" class="st0" width="168.3" height="39"/>
	</g>
	<g transform="translate(-14,-6) scale(1,1)">
		<rect x="112" y="40" class="st1" width="168.3" height="39"/>
	</g>
	<g transform="translate(-14,-6) scale(1,1)">
		<path class="st2" d="M112,40h168.3v39H112V40z"/>
	</g>
	<g transform="translate(-14,-6) scale(1,1)">
		<g>
			<path class="st2" d="M0,0"/>
			<text transform="matrix(1 0 0 1 121.5 58)" class="st3 st4">:WordlePlayerController</text>
		</g>
	</g>
	<g transform="translate(-14,-6) scale(1,1)">
		<path class="st5" d="M197.5,80v536"/>
	</g>
	<g transform="translate(-14,-6) scale(1,1)">
		<rect x="647" y="203" class="st0" width="74.6" height="39"/>
	</g>
	<g transform="translate(-14,-6) scale(1,1)">
		<rect x="640" y="196" class="st1" width="74.6" height="39"/>
	</g>
	<g transform="translate(-14,-6) scale(1,1)">
		<path class="st2" d="M640,196h74.6v39H640V196z"/>
	</g>
	<g transform="translate(-14,-6) scale(1,1)">
		<g>
			<path class="st2" d="M0,0"/>
			<text transform="matrix(1 0 0 1 649.5 214)" class="st3 st4">g: Guess</text>
		</g>
	</g>
	<g transform="translate(-14,-6) scale(1,1)">
		<path class="st5" d="M678.5,236v380"/>
	</g>
	<g transform="translate(-14,-6) scale(1,1)">
		<rect x="591" y="47" class="st0" width="72.4" height="39"/>
	</g>
	<g transform="translate(-14,-6) scale(1,1)">
		<rect x="584" y="40" class="st1" width="72.4" height="39"/>
	</g>
	<g transform="translate(-14,-6) scale(1,1)">
		<path class="st2" d="M584,40h72.4v39H584V40z"/>
	</g>
	<g transform="translate(-14,-6) scale(1,1)">
		<g>
			<path class="st2" d="M0,0"/>
			<text transform="matrix(1 0 0 1 593.5 58)" class="st3 st4">b: Board</text>
		</g>
	</g>
	<g transform="translate(-14,-6) scale(1,1)">
		<path class="st5" d="M621.5,80v536"/>
	</g>
	<g transform="translate(-14,-6) scale(1,1)">
		<rect x="335" y="47" class="st0" width="117" height="39"/>
	</g>
	<g transform="translate(-14,-6) scale(1,1)">
		<rect x="328" y="40" class="st1" width="117" height="39"/>
	</g>
	<g transform="translate(-14,-6) scale(1,1)">
		<path class="st2" d="M328,40h117v39H328V40z"/>
	</g>
	<g transform="translate(-14,-6) scale(1,1)">
		<g>
			<path class="st2" d="M0,0"/>
			<text transform="matrix(1 0 0 1 337.5 58)" class="st3 st4">:WordleSession</text>
		</g>
	</g>
	<g transform="translate(-14,-6) scale(1,1)">
		<path class="st5" d="M387.5,80v536"/>
	</g>
	<g transform="translate(-14,-6) scale(1,1)">
		<rect x="775" y="275" class="st0" width="138.9" height="39"/>
	</g>
	<g transform="translate(-14,-6) scale(1,1)">
		<rect x="768" y="268" class="st1" width="138.9" height="39"/>
	</g>
	<g transform="translate(-14,-6) scale(1,1)">
		<path class="st2" d="M768,268h138.9v39H768V268z"/>
	</g>
	<g transform="translate(-14,-6) scale(1,1)">
		<g>
			<path class="st2" d="M0,0"/>
			<text transform="matrix(1 0 0 1 777.5 286)" class="st3 st4">letters[i]: LetterBox</text>
		</g>
	</g>
	<g transform="translate(-14,-6) scale(1,1)">
		<path class="st5" d="M838.5,308v308"/>
	</g>
	<g transform="translate(-14,-6) scale(1,1)">
		<path d="M72,127.5c0-3.9,3.1-7,7-7s7,3.1,7,7c0,3.9-3.1,7-7,7S72,131.4,72,127.5z"/>
	</g>
	<g transform="translate(-14,-6) scale(1,1)">
		<path class="st1" d="M48,376h100l10,10v65H48V376"/>
	</g>
	<g transform="translate(-14,-6) scale(1,1)">
		<path class="st2" d="M48,376h100l10,10v65H48V376L48,376"/>
	</g>
	<g transform="translate(-14,-6) scale(1,1)">
		<path class="st2" d="M148,376v10h10L148,376"/>
	</g>
	<g transform="translate(-14,-6) scale(1,1)">
		<g>
			<path class="st2" d="M0,0"/>
			<text transform="matrix(1 0 0 1 53 391)" class="st6 st4">il colore viene</text>
			<text transform="matrix(1 0 0 1 53 404)" class="st6 st4">determinato in</text>
			<text transform="matrix(1 0 0 1 53 417)" class="st6 st4">base al confronto</text>
			<text transform="matrix(1 0 0 1 53 429)" class="st6 st4">tra w e sw</text>
		</g>
	</g>
	<g transform="translate(-14,-6) scale(1,1)">
		<rect x="463" y="47" class="st0" width="114.8" height="39"/>
	</g>
	<g transform="translate(-14,-6) scale(1,1)">
		<rect x="456" y="40" class="st1" width="114.8" height="39"/>
	</g>
	<g transform="translate(-14,-6) scale(1,1)">
		<path class="st2" d="M456,40h114.8v39H456V40z"/>
	</g>
	<g transform="translate(-14,-6) scale(1,1)">
		<g>
			<path class="st2" d="M0,0"/>
			<text transform="matrix(1 0 0 1 465.5 58)" class="st3 st4">g :WordleGame</text>
		</g>
	</g>
	<g transform="translate(-14,-6) scale(1,1)">
		<path class="st5" d="M514.5,80v536"/>
	</g>
	<g transform="translate(-14,-6) scale(1,1)">
		<path class="st2" d="M86,128h104"/>
	</g>
	<g transform="translate(-14,-6) scale(1,1)">
		<path d="M179.8,132.2L190,128l-10.2-4.2"/>
	</g>
	<g transform="translate(-14,-6) scale(1,1)">
		<path class="st2" d="M179.8,132.2L190,128l-10.2-4.2V132.2"/>
	</g>
	<g transform="translate(-14,-6) scale(1,1)">
		<g>
			<path class="st2" d="M0,0"/>
			<text transform="matrix(1 0 0 1 102.1213 123)" class="st6 st4">1 : guess(w)</text>
		</g>
	</g>
	<g transform="translate(-14,-6) scale(1,1)">
		<rect x="190" y="128" class="st1" width="13" height="464"/>
	</g>
	<g transform="translate(-14,-6) scale(1,1)">
		<path class="st2" d="M190,128h13v464h-13V128z"/>
	</g>
	<g transform="translate(-14,-6) scale(1,1)">
		<path class="st2" d="M203,136h177"/>
	</g>
	<g transform="translate(-14,-6) scale(1,1)">
		<path d="M369.8,140.2L380,136l-10.2-4.2"/>
	</g>
	<g transform="translate(-14,-6) scale(1,1)">
		<path class="st2" d="M369.8,140.2L380,136l-10.2-4.2V140.2"/>
	</g>
	<g transform="translate(-14,-6) scale(1,1)">
		<g>
			<path class="st2" d="M0,0"/>
			<text transform="matrix(1 0 0 1 218.5 131)" class="st6 st4">2 : g = getCurrentGame()</text>
		</g>
	</g>
	<g transform="translate(-14,-6) scale(1,1)">
		<rect x="380" y="136" class="st1" width="13" height="28"/>
	</g>
	<g transform="translate(-14,-6) scale(1,1)">
		<path class="st2" d="M380,136h13v28h-13V136z"/>
	</g>
	<g transform="translate(-14,-6) scale(1,1)">
		<path class="st2" d="M203,176h304"/>
	</g>
	<g transform="translate(-14,-6) scale(1,1)">
		<path d="M496.8,180.2L507,176l-10.2-4.2"/>
	</g>
	<g transform="translate(-14,-6) scale(1,1)">
		<path class="st2" d="M496.8,180.2L507,176l-10.2-4.2V180.2"/>
	</g>
	<g transform="translate(-14,-6) scale(1,1)">
		<g>
			<path class="st2" d="M0,0"/>
			<text transform="matrix(1 0 0 1 220.2004 170)" class="st6 st4">3 : sw = getSecretWord()</text>
		</g>
	</g>
	<g transform="translate(-14,-6) scale(1,1)">
		<rect x="507" y="176" class="st1" width="13" height="28"/>
	</g>
	<g transform="translate(-14,-6) scale(1,1)">
		<path class="st2" d="M507,176h13v28h-13V176z"/>
	</g>
	<g transform="translate(-14,-6) scale(1,1)">
		<path class="st5" d="M203,216h437"/>
	</g>
	<g transform="translate(-14,-6) scale(1,1)">
		<path class="st2" d="M629.8,220.2L640,216l-10.2-4.2"/>
	</g>
	<g transform="translate(-14,-6) scale(1,1)">
		<g>
			<path class="st2" d="M0,0"/>
			<text transform="matrix(1 0 0 1 270.5 210)" class="st6 st4">4 :</text>
		</g>
	</g>
	<g transform="translate(-14,-6) scale(1,1)">
		<g>
			<path d="M0,0"/>
			<text transform="matrix(1 0 0 1 294.5 209.5)" class="st6 st4">«create»</text>
		</g>
	</g>
	<g transform="translate(-14,-6) scale(1,1)">
		<path class="st5" d="M678,288h90"/>
	</g>
	<g transform="translate(-14,-6) scale(1,1)">
		<path class="st2" d="M757.8,292.2L768,288l-10.2-4.2"/>
	</g>
	<g transform="translate(-14,-6) scale(1,1)">
		<g>
			<path class="st2" d="M0,0"/>
			<text transform="matrix(1 0 0 1 681.5 282)" class="st6 st4">5 :</text>
		</g>
	</g>
	<g transform="translate(-14,-6) scale(1,1)">
		<g>
			<path d="M0,0"/>
			<text transform="matrix(1 0 0 1 706.5 282.5)" class="st6 st4">«create»</text>
		</g>
	</g>
	<g transform="translate(-14,-6) scale(1,1)">
		<path class="st2" d="M203,408h468"/>
	</g>
	<g transform="translate(-14,-6) scale(1,1)">
		<path d="M660.8,412.2L671,408l-10.2-4.2"/>
	</g>
	<g transform="translate(-14,-6) scale(1,1)">
		<path class="st2" d="M660.8,412.2L671,408l-10.2-4.2V412.2"/>
	</g>
	<g transform="translate(-14,-6) scale(1,1)">
		<g>
			<path class="st2" d="M0,0"/>
			<text transform="matrix(1 0 0 1 280.5127 402)" class="st6 st4">6 : setColor(i)</text>
		</g>
	</g>
	<g transform="translate(-14,-6) scale(1,1)">
		<rect x="671" y="408" class="st1" width="13" height="56"/>
	</g>
	<g transform="translate(-14,-6) scale(1,1)">
		<path class="st2" d="M671,408h13v56h-13V408z"/>
	</g>
	<g transform="translate(-14,-6) scale(1,1)">
		<path class="st2" d="M684,424h147"/>
	</g>
	<g transform="translate(-14,-6) scale(1,1)">
		<path d="M820.8,428.2L831,424l-10.2-4.2"/>
	</g>
	<g transform="translate(-14,-6) scale(1,1)">
		<path class="st2" d="M820.8,428.2L831,424l-10.2-4.2V428.2"/>
	</g>
	<g transform="translate(-14,-6) scale(1,1)">
		<g>
			<path class="st2" d="M0,0"/>
			<text transform="matrix(1 0 0 1 718.9568 419)" class="st6 st4">7 : setColor()</text>
		</g>
	</g>
	<g transform="translate(-14,-6) scale(1,1)">
		<rect x="831" y="424" class="st1" width="13" height="28"/>
	</g>
	<g transform="translate(-14,-6) scale(1,1)">
		<path class="st2" d="M831,424h13v28h-13V424z"/>
	</g>
	<g transform="translate(-14,-6) scale(1,1)">
		<path class="st2" d="M203,504h304"/>
	</g>
	<g transform="translate(-14,-6) scale(1,1)">
		<path d="M496.8,508.2L507,504l-10.2-4.2"/>
	</g>
	<g transform="translate(-14,-6) scale(1,1)">
		<path class="st2" d="M496.8,508.2L507,504l-10.2-4.2V508.2"/>
	</g>
	<g transform="translate(-14,-6) scale(1,1)">
		<g>
			<path class="st2" d="M0,0"/>
			<text transform="matrix(1 0 0 1 222.5 498)" class="st6 st4">8 : b = getGameBoard()</text>
		</g>
	</g>
	<g transform="translate(-14,-6) scale(1,1)">
		<rect x="507" y="504" class="st1" width="13" height="28"/>
	</g>
	<g transform="translate(-14,-6) scale(1,1)">
		<path class="st2" d="M507,504h13v28h-13V504z"/>
	</g>
	<g transform="translate(-14,-6) scale(1,1)">
		<path class="st2" d="M203,544h411"/>
	</g>
	<g transform="translate(-14,-6) scale(1,1)">
		<path d="M603.8,548.2L614,544l-10.2-4.2"/>
	</g>
	<g transform="translate(-14,-6) scale(1,1)">
		<path class="st2" d="M603.8,548.2L614,544l-10.2-4.2V548.2"/>
	</g>
	<g transform="translate(-14,-6) scale(1,1)">
		<g>
			<path class="st2" d="M0,0"/>
			<text transform="matrix(1 0 0 1 223.5 538)" class="st6 st4">9 : acceptNewGuess(g)</text>
		</g>
	</g>
	<g transform="translate(-14,-6) scale(1,1)">
		<rect x="614" y="544" class="st1" width="13" height="28"/>
	</g>
	<g transform="translate(-14,-6) scale(1,1)">
		<path class="st2" d="M614,544h13v28h-13V544z"/>
	</g>
	<g transform="translate(-14,-6) scale(1,1)">
		<path class="st2" d="M168,352h696v119H168V352"/>
	</g>
	<g transform="translate(-14,-6) scale(1,1)">
		<path class="st1" d="M168,352v22h154l11-11v-11H168"/>
	</g>
	<g transform="translate(-14,-6) scale(1,1)">
		<path class="st2" d="M168,352v22h154l11-11v-11H168L168,352"/>
	</g>
	<g transform="translate(-14,-6) scale(1,1)">
		<g>
			<path class="st2" d="M0,0"/>
			<text transform="matrix(1 0 0 1 203.5781 368)" class="st6 st4">[for each LetterBox]</text>
		</g>
	</g>
	<g transform="translate(-14,-6) scale(1,1)">
		<g>
			<path d="M0,0"/>
			<text transform="matrix(1 0 0 1 171.5718 368)" class="st3 st4">loop</text>
		</g>
	</g>
	<g transform="translate(-14,-6) scale(1,1)">
		<path class="st2" d="M656,240h256v88H656V240"/>
	</g>
	<g transform="translate(-14,-6) scale(1,1)">
		<path class="st1" d="M656,240v22h142.8l11-11v-11H656"/>
	</g>
	<g transform="translate(-14,-6) scale(1,1)">
		<path class="st2" d="M656,240v22h142.8l11-11v-11H656L656,240"/>
	</g>
	<g transform="translate(-14,-6) scale(1,1)">
		<g>
			<path class="st2" d="M0,0"/>
			<text transform="matrix(1 0 0 1 691.5781 256)" class="st6 st4">[0 &lt;= i &lt; w.length]</text>
		</g>
	</g>
	<g transform="translate(-14,-6) scale(1,1)">
		<g>
			<path d="M0,0"/>
			<text transform="matrix(1 0 0 1 659.5718 256)" class="st3 st4">loop</text>
		</g>
	</g>
	<g transform="translate(-14,-6) scale(1,1)">
		<path class="st2" d="M24,16h904v608H24V16"/>
	</g>
	<g transform="translate(-14,-6) scale(1,1)">
		<path class="st1" d="M24,16v22h71.6l11-11V16H24"/>
	</g>
	<g transform="translate(-14,-6) scale(1,1)">
		<path class="st2" d="M24,16v22h71.6l11-11V16H24L24,16"/>
	</g>
	<g transform="translate(-14,-6) scale(1,1)">
		<g>
			<path class="st2" d="M0,0"/>
			<text transform="matrix(1 0 0 1 55.96 30.5)" class="st6 st4">guess</text>
		</g>
	</g>
	<g transform="translate(-14,-6) scale(1,1)">
		<g>
			<path d="M0,0"/>
			<text transform="matrix(1 0 0 1 28.2795 30.5)" class="st3 st4">seq</text>
		</g>
	</g>
</g>
</svg>
