<svg version="1.1" xmlns="http://www.w3.org/2000/svg" xmlns:xlink="http://www.w3.org/1999/xlink" width="820" height="828"><defs/><g><text fill="#eeeeee" stroke="none" font-family="Arial" font-size="24px" font-style="normal" font-weight="normal" text-decoration="none" x="0" y="0">UNREGISTERED</text><text fill="#eeeeee" stroke="none" font-family="Arial" font-size="24px" font-style="normal" font-weight="normal" text-decoration="none" x="0" y="30">UNREGISTERED</text><text fill="#eeeeee" stroke="none" font-family="Arial" font-size="24px" font-style="normal" font-weight="normal" text-decoration="none" x="0" y="60">UNREGISTERED</text><text fill="#eeeeee" stroke="none" font-family="Arial" font-size="24px" font-style="normal" font-weight="normal" text-decoration="none" x="0" y="90">UNREGISTERED</text><text fill="#eeeeee" stroke="none" font-family="Arial" font-size="24px" font-style="normal" font-weight="normal" text-decoration="none" x="0" y="120">UNREGISTERED</text><text fill="#eeeeee" stroke="none" font-family="Arial" font-size="24px" font-style="normal" font-weight="normal" text-decoration="none" x="0" y="150">UNREGISTERED</text><text fill="#eeeeee" stroke="none" font-family="Arial" font-size="24px" font-style="normal" font-weight="normal" text-decoration="none" x="0" y="180">UNREGISTERED</text><text fill="#eeeeee" stroke="none" font-family="Arial" font-size="24px" font-style="normal" font-weight="normal" text-decoration="none" x="0" y="210">UNREGISTERED</text><text fill="#eeeeee" stroke="none" font-family="Arial" font-size="24px" font-style="normal" font-weight="normal" text-decoration="none" x="0" y="240">UNREGISTERED</text><text fill="#eeeeee" stroke="none" font-family="Arial" font-size="24px" font-style="normal" font-weight="normal" text-decoration="none" x="0" y="270">UNREGISTERED</text><text fill="#eeeeee" stroke="none" font-family="Arial" font-size="24px" font-style="normal" font-weight="normal" text-decoration="none" x="0" y="300">UNREGISTERED</text><text fill="#eeeeee" stroke="none" font-family="Arial" font-size="24px" font-style="normal" font-weight="normal" text-decoration="none" x="0" y="330">UNREGISTERED</text><text fill="#eeeeee" stroke="none" font-family="Arial" font-size="24px" font-style="normal" font-weight="normal" text-decoration="none" x="0" y="360">UNREGISTERED</text><text fill="#eeeeee" stroke="none" font-family="Arial" font-size="24px" font-style="normal" font-weight="normal" text-decoration="none" x="0" y="390">UNREGISTERED</text><text fill="#eeeeee" stroke="none" font-family="Arial" font-size="24px" font-style="normal" font-weight="normal" text-decoration="none" x="0" y="420">UNREGISTERED</text><text fill="#eeeeee" stroke="none" font-family="Arial" font-size="24px" font-style="normal" font-weight="normal" text-decoration="none" x="0" y="450">UNREGISTERED</text><text fill="#eeeeee" stroke="none" font-family="Arial" font-size="24px" font-style="normal" font-weight="normal" text-decoration="none" x="0" y="480">UNREGISTERED</text><text fill="#eeeeee" stroke="none" font-family="Arial" font-size="24px" font-style="normal" font-weight="normal" text-decoration="none" x="0" y="510">UNREGISTERED</text><text fill="#eeeeee" stroke="none" font-family="Arial" font-size="24px" font-style="normal" font-weight="normal" text-decoration="none" x="0" y="540">UNREGISTERED</text><text fill="#eeeeee" stroke="none" font-family="Arial" font-size="24px" font-style="normal" font-weight="normal" text-decoration="none" x="0" y="570">UNREGISTERED</text><text fill="#eeeeee" stroke="none" font-family="Arial" font-size="24px" font-style="normal" font-weight="normal" text-decoration="none" x="0" y="600">UNREGISTERED</text><text fill="#eeeeee" stroke="none" font-family="Arial" font-size="24px" font-style="normal" font-weight="normal" text-decoration="none" x="0" y="630">UNREGISTERED</text><text fill="#eeeeee" stroke="none" font-family="Arial" font-size="24px" font-style="normal" font-weight="normal" text-decoration="none" x="0" y="660">UNREGISTERED</text><text fill="#eeeeee" stroke="none" font-family="Arial" font-size="24px" font-style="normal" font-weight="normal" text-decoration="none" x="0" y="690">UNREGISTERED</text><text fill="#eeeeee" stroke="none" font-family="Arial" font-size="24px" font-style="normal" font-weight="normal" text-decoration="none" x="0" y="720">UNREGISTERED</text><text fill="#eeeeee" stroke="none" font-family="Arial" font-size="24px" font-style="normal" font-weight="normal" text-decoration="none" x="0" y="750">UNREGISTERED</text><text fill="#eeeeee" stroke="none" font-family="Arial" font-size="24px" font-style="normal" font-weight="normal" text-decoration="none" x="0" y="780">UNREGISTERED</text><text fill="#eeeeee" stroke="none" font-family="Arial" font-size="24px" font-style="normal" font-weight="normal" text-decoration="none" x="0" y="810">UNREGISTERED</text><text fill="#eeeeee" stroke="none" font-family="Arial" font-size="24px" font-style="normal" font-weight="normal" text-decoration="none" x="200" y="0">UNREGISTERED</text><text fill="#eeeeee" stroke="none" font-family="Arial" font-size="24px" font-style="normal" font-weight="normal" text-decoration="none" x="200" y="30">UNREGISTERED</text><text fill="#eeeeee" stroke="none" font-family="Arial" font-size="24px" font-style="normal" font-weight="normal" text-decoration="none" x="200" y="60">UNREGISTERED</text><text fill="#eeeeee" stroke="none" font-family="Arial" font-size="24px" font-style="normal" font-weight="normal" text-decoration="none" x="200" y="90">UNREGISTERED</text><text fill="#eeeeee" stroke="none" font-family="Arial" font-size="24px" font-style="normal" font-weight="normal" text-decoration="none" x="200" y="120">UNREGISTERED</text><text fill="#eeeeee" stroke="none" font-family="Arial" font-size="24px" font-style="normal" font-weight="normal" text-decoration="none" x="200" y="150">UNREGISTERED</text><text fill="#eeeeee" stroke="none" font-family="Arial" font-size="24px" font-style="normal" font-weight="normal" text-decoration="none" x="200" y="180">UNREGISTERED</text><text fill="#eeeeee" stroke="none" font-family="Arial" font-size="24px" font-style="normal" font-weight="normal" text-decoration="none" x="200" y="210">UNREGISTERED</text><text fill="#eeeeee" stroke="none" font-family="Arial" font-size="24px" font-style="normal" font-weight="normal" text-decoration="none" x="200" y="240">UNREGISTERED</text><text fill="#eeeeee" stroke="none" font-family="Arial" font-size="24px" font-style="normal" font-weight="normal" text-decoration="none" x="200" y="270">UNREGISTERED</text><text fill="#eeeeee" stroke="none" font-family="Arial" font-size="24px" font-style="normal" font-weight="normal" text-decoration="none" x="200" y="300">UNREGISTERED</text><text fill="#eeeeee" stroke="none" font-family="Arial" font-size="24px" font-style="normal" font-weight="normal" text-decoration="none" x="200" y="330">UNREGISTERED</text><text fill="#eeeeee" stroke="none" font-family="Arial" font-size="24px" font-style="normal" font-weight="normal" text-decoration="none" x="200" y="360">UNREGISTERED</text><text fill="#eeeeee" stroke="none" font-family="Arial" font-size="24px" font-style="normal" font-weight="normal" text-decoration="none" x="200" y="390">UNREGISTERED</text><text fill="#eeeeee" stroke="none" font-family="Arial" font-size="24px" font-style="normal" font-weight="normal" text-decoration="none" x="200" y="420">UNREGISTERED</text><text fill="#eeeeee" stroke="none" font-family="Arial" font-size="24px" font-style="normal" font-weight="normal" text-decoration="none" x="200" y="450">UNREGISTERED</text><text fill="#eeeeee" stroke="none" font-family="Arial" font-size="24px" font-style="normal" font-weight="normal" text-decoration="none" x="200" y="480">UNREGISTERED</text><text fill="#eeeeee" stroke="none" font-family="Arial" font-size="24px" font-style="normal" font-weight="normal" text-decoration="none" x="200" y="510">UNREGISTERED</text><text fill="#eeeeee" stroke="none" font-family="Arial" font-size="24px" font-style="normal" font-weight="normal" text-decoration="none" x="200" y="540">UNREGISTERED</text><text fill="#eeeeee" stroke="none" font-family="Arial" font-size="24px" font-style="normal" font-weight="normal" text-decoration="none" x="200" y="570">UNREGISTERED</text><text fill="#eeeeee" stroke="none" font-family="Arial" font-size="24px" font-style="normal" font-weight="normal" text-decoration="none" x="200" y="600">UNREGISTERED</text><text fill="#eeeeee" stroke="none" font-family="Arial" font-size="24px" font-style="normal" font-weight="normal" text-decoration="none" x="200" y="630">UNREGISTERED</text><text fill="#eeeeee" stroke="none" font-family="Arial" font-size="24px" font-style="normal" font-weight="normal" text-decoration="none" x="200" y="660">UNREGISTERED</text><text fill="#eeeeee" stroke="none" font-family="Arial" font-size="24px" font-style="normal" font-weight="normal" text-decoration="none" x="200" y="690">UNREGISTERED</text><text fill="#eeeeee" stroke="none" font-family="Arial" font-size="24px" font-style="normal" font-weight="normal" text-decoration="none" x="200" y="720">UNREGISTERED</text><text fill="#eeeeee" stroke="none" font-family="Arial" font-size="24px" font-style="normal" font-weight="normal" text-decoration="none" x="200" y="750">UNREGISTERED</text><text fill="#eeeeee" stroke="none" font-family="Arial" font-size="24px" font-style="normal" font-weight="normal" text-decoration="none" x="200" y="780">UNREGISTERED</text><text fill="#eeeeee" stroke="none" font-family="Arial" font-size="24px" font-style="normal" font-weight="normal" text-decoration="none" x="200" y="810">UNREGISTERED</text><text fill="#eeeeee" stroke="none" font-family="Arial" font-size="24px" font-style="normal" font-weight="normal" text-decoration="none" x="400" y="0">UNREGISTERED</text><text fill="#eeeeee" stroke="none" font-family="Arial" font-size="24px" font-style="normal" font-weight="normal" text-decoration="none" x="400" y="30">UNREGISTERED</text><text fill="#eeeeee" stroke="none" font-family="Arial" font-size="24px" font-style="normal" font-weight="normal" text-decoration="none" x="400" y="60">UNREGISTERED</text><text fill="#eeeeee" stroke="none" font-family="Arial" font-size="24px" font-style="normal" font-weight="normal" text-decoration="none" x="400" y="90">UNREGISTERED</text><text fill="#eeeeee" stroke="none" font-family="Arial" font-size="24px" font-style="normal" font-weight="normal" text-decoration="none" x="400" y="120">UNREGISTERED</text><text fill="#eeeeee" stroke="none" font-family="Arial" font-size="24px" font-style="normal" font-weight="normal" text-decoration="none" x="400" y="150">UNREGISTERED</text><text fill="#eeeeee" stroke="none" font-family="Arial" font-size="24px" font-style="normal" font-weight="normal" text-decoration="none" x="400" y="180">UNREGISTERED</text><text fill="#eeeeee" stroke="none" font-family="Arial" font-size="24px" font-style="normal" font-weight="normal" text-decoration="none" x="400" y="210">UNREGISTERED</text><text fill="#eeeeee" stroke="none" font-family="Arial" font-size="24px" font-style="normal" font-weight="normal" text-decoration="none" x="400" y="240">UNREGISTERED</text><text fill="#eeeeee" stroke="none" font-family="Arial" font-size="24px" font-style="normal" font-weight="normal" text-decoration="none" x="400" y="270">UNREGISTERED</text><text fill="#eeeeee" stroke="none" font-family="Arial" font-size="24px" font-style="normal" font-weight="normal" text-decoration="none" x="400" y="300">UNREGISTERED</text><text fill="#eeeeee" stroke="none" font-family="Arial" font-size="24px" font-style="normal" font-weight="normal" text-decoration="none" x="400" y="330">UNREGISTERED</text><text fill="#eeeeee" stroke="none" font-family="Arial" font-size="24px" font-style="normal" font-weight="normal" text-decoration="none" x="400" y="360">UNREGISTERED</text><text fill="#eeeeee" stroke="none" font-family="Arial" font-size="24px" font-style="normal" font-weight="normal" text-decoration="none" x="400" y="390">UNREGISTERED</text><text fill="#eeeeee" stroke="none" font-family="Arial" font-size="24px" font-style="normal" font-weight="normal" text-decoration="none" x="400" y="420">UNREGISTERED</text><text fill="#eeeeee" stroke="none" font-family="Arial" font-size="24px" font-style="normal" font-weight="normal" text-decoration="none" x="400" y="450">UNREGISTERED</text><text fill="#eeeeee" stroke="none" font-family="Arial" font-size="24px" font-style="normal" font-weight="normal" text-decoration="none" x="400" y="480">UNREGISTERED</text><text fill="#eeeeee" stroke="none" font-family="Arial" font-size="24px" font-style="normal" font-weight="normal" text-decoration="none" x="400" y="510">UNREGISTERED</text><text fill="#eeeeee" stroke="none" font-family="Arial" font-size="24px" font-style="normal" font-weight="normal" text-decoration="none" x="400" y="540">UNREGISTERED</text><text fill="#eeeeee" stroke="none" font-family="Arial" font-size="24px" font-style="normal" font-weight="normal" text-decoration="none" x="400" y="570">UNREGISTERED</text><text fill="#eeeeee" stroke="none" font-family="Arial" font-size="24px" font-style="normal" font-weight="normal" text-decoration="none" x="400" y="600">UNREGISTERED</text><text fill="#eeeeee" stroke="none" font-family="Arial" font-size="24px" font-style="normal" font-weight="normal" text-decoration="none" x="400" y="630">UNREGISTERED</text><text fill="#eeeeee" stroke="none" font-family="Arial" font-size="24px" font-style="normal" font-weight="normal" text-decoration="none" x="400" y="660">UNREGISTERED</text><text fill="#eeeeee" stroke="none" font-family="Arial" font-size="24px" font-style="normal" font-weight="normal" text-decoration="none" x="400" y="690">UNREGISTERED</text><text fill="#eeeeee" stroke="none" font-family="Arial" font-size="24px" font-style="normal" font-weight="normal" text-decoration="none" x="400" y="720">UNREGISTERED</text><text fill="#eeeeee" stroke="none" font-family="Arial" font-size="24px" font-style="normal" font-weight="normal" text-decoration="none" x="400" y="750">UNREGISTERED</text><text fill="#eeeeee" stroke="none" font-family="Arial" font-size="24px" font-style="normal" font-weight="normal" text-decoration="none" x="400" y="780">UNREGISTERED</text><text fill="#eeeeee" stroke="none" font-family="Arial" font-size="24px" font-style="normal" font-weight="normal" text-decoration="none" x="400" y="810">UNREGISTERED</text><text fill="#eeeeee" stroke="none" font-family="Arial" font-size="24px" font-style="normal" font-weight="normal" text-decoration="none" x="600" y="0">UNREGISTERED</text><text fill="#eeeeee" stroke="none" font-family="Arial" font-size="24px" font-style="normal" font-weight="normal" text-decoration="none" x="600" y="30">UNREGISTERED</text><text fill="#eeeeee" stroke="none" font-family="Arial" font-size="24px" font-style="normal" font-weight="normal" text-decoration="none" x="600" y="60">UNREGISTERED</text><text fill="#eeeeee" stroke="none" font-family="Arial" font-size="24px" font-style="normal" font-weight="normal" text-decoration="none" x="600" y="90">UNREGISTERED</text><text fill="#eeeeee" stroke="none" font-family="Arial" font-size="24px" font-style="normal" font-weight="normal" text-decoration="none" x="600" y="120">UNREGISTERED</text><text fill="#eeeeee" stroke="none" font-family="Arial" font-size="24px" font-style="normal" font-weight="normal" text-decoration="none" x="600" y="150">UNREGISTERED</text><text fill="#eeeeee" stroke="none" font-family="Arial" font-size="24px" font-style="normal" font-weight="normal" text-decoration="none" x="600" y="180">UNREGISTERED</text><text fill="#eeeeee" stroke="none" font-family="Arial" font-size="24px" font-style="normal" font-weight="normal" text-decoration="none" x="600" y="210">UNREGISTERED</text><text fill="#eeeeee" stroke="none" font-family="Arial" font-size="24px" font-style="normal" font-weight="normal" text-decoration="none" x="600" y="240">UNREGISTERED</text><text fill="#eeeeee" stroke="none" font-family="Arial" font-size="24px" font-style="normal" font-weight="normal" text-decoration="none" x="600" y="270">UNREGISTERED</text><text fill="#eeeeee" stroke="none" font-family="Arial" font-size="24px" font-style="normal" font-weight="normal" text-decoration="none" x="600" y="300">UNREGISTERED</text><text fill="#eeeeee" stroke="none" font-family="Arial" font-size="24px" font-style="normal" font-weight="normal" text-decoration="none" x="600" y="330">UNREGISTERED</text><text fill="#eeeeee" stroke="none" font-family="Arial" font-size="24px" font-style="normal" font-weight="normal" text-decoration="none" x="600" y="360">UNREGISTERED</text><text fill="#eeeeee" stroke="none" font-family="Arial" font-size="24px" font-style="normal" font-weight="normal" text-decoration="none" x="600" y="390">UNREGISTERED</text><text fill="#eeeeee" stroke="none" font-family="Arial" font-size="24px" font-style="normal" font-weight="normal" text-decoration="none" x="600" y="420">UNREGISTERED</text><text fill="#eeeeee" stroke="none" font-family="Arial" font-size="24px" font-style="normal" font-weight="normal" text-decoration="none" x="600" y="450">UNREGISTERED</text><text fill="#eeeeee" stroke="none" font-family="Arial" font-size="24px" font-style="normal" font-weight="normal" text-decoration="none" x="600" y="480">UNREGISTERED</text><text fill="#eeeeee" stroke="none" font-family="Arial" font-size="24px" font-style="normal" font-weight="normal" text-decoration="none" x="600" y="510">UNREGISTERED</text><text fill="#eeeeee" stroke="none" font-family="Arial" font-size="24px" font-style="normal" font-weight="normal" text-decoration="none" x="600" y="540">UNREGISTERED</text><text fill="#eeeeee" stroke="none" font-family="Arial" font-size="24px" font-style="normal" font-weight="normal" text-decoration="none" x="600" y="570">UNREGISTERED</text><text fill="#eeeeee" stroke="none" font-family="Arial" font-size="24px" font-style="normal" font-weight="normal" text-decoration="none" x="600" y="600">UNREGISTERED</text><text fill="#eeeeee" stroke="none" font-family="Arial" font-size="24px" font-style="normal" font-weight="normal" text-decoration="none" x="600" y="630">UNREGISTERED</text><text fill="#eeeeee" stroke="none" font-family="Arial" font-size="24px" font-style="normal" font-weight="normal" text-decoration="none" x="600" y="660">UNREGISTERED</text><text fill="#eeeeee" stroke="none" font-family="Arial" font-size="24px" font-style="normal" font-weight="normal" text-decoration="none" x="600" y="690">UNREGISTERED</text><text fill="#eeeeee" stroke="none" font-family="Arial" font-size="24px" font-style="normal" font-weight="normal" text-decoration="none" x="600" y="720">UNREGISTERED</text><text fill="#eeeeee" stroke="none" font-family="Arial" font-size="24px" font-style="normal" font-weight="normal" text-decoration="none" x="600" y="750">UNREGISTERED</text><text fill="#eeeeee" stroke="none" font-family="Arial" font-size="24px" font-style="normal" font-weight="normal" text-decoration="none" x="600" y="780">UNREGISTERED</text><text fill="#eeeeee" stroke="none" font-family="Arial" font-size="24px" font-style="normal" font-weight="normal" text-decoration="none" x="600" y="810">UNREGISTERED</text><text fill="#eeeeee" stroke="none" font-family="Arial" font-size="24px" font-style="normal" font-weight="normal" text-decoration="none" x="800" y="0">UNREGISTERED</text><text fill="#eeeeee" stroke="none" font-family="Arial" font-size="24px" font-style="normal" font-weight="normal" text-decoration="none" x="800" y="30">UNREGISTERED</text><text fill="#eeeeee" stroke="none" font-family="Arial" font-size="24px" font-style="normal" font-weight="normal" text-decoration="none" x="800" y="60">UNREGISTERED</text><text fill="#eeeeee" stroke="none" font-family="Arial" font-size="24px" font-style="normal" font-weight="normal" text-decoration="none" x="800" y="90">UNREGISTERED</text><text fill="#eeeeee" stroke="none" font-family="Arial" font-size="24px" font-style="normal" font-weight="normal" text-decoration="none" x="800" y="120">UNREGISTERED</text><text fill="#eeeeee" stroke="none" font-family="Arial" font-size="24px" font-style="normal" font-weight="normal" text-decoration="none" x="800" y="150">UNREGISTERED</text><text fill="#eeeeee" stroke="none" font-family="Arial" font-size="24px" font-style="normal" font-weight="normal" text-decoration="none" x="800" y="180">UNREGISTERED</text><text fill="#eeeeee" stroke="none" font-family="Arial" font-size="24px" font-style="normal" font-weight="normal" text-decoration="none" x="800" y="210">UNREGISTERED</text><text fill="#eeeeee" stroke="none" font-family="Arial" font-size="24px" font-style="normal" font-weight="normal" text-decoration="none" x="800" y="240">UNREGISTERED</text><text fill="#eeeeee" stroke="none" font-family="Arial" font-size="24px" font-style="normal" font-weight="normal" text-decoration="none" x="800" y="270">UNREGISTERED</text><text fill="#eeeeee" stroke="none" font-family="Arial" font-size="24px" font-style="normal" font-weight="normal" text-decoration="none" x="800" y="300">UNREGISTERED</text><text fill="#eeeeee" stroke="none" font-family="Arial" font-size="24px" font-style="normal" font-weight="normal" text-decoration="none" x="800" y="330">UNREGISTERED</text><text fill="#eeeeee" stroke="none" font-family="Arial" font-size="24px" font-style="normal" font-weight="normal" text-decoration="none" x="800" y="360">UNREGISTERED</text><text fill="#eeeeee" stroke="none" font-family="Arial" font-size="24px" font-style="normal" font-weight="normal" text-decoration="none" x="800" y="390">UNREGISTERED</text><text fill="#eeeeee" stroke="none" font-family="Arial" font-size="24px" font-style="normal" font-weight="normal" text-decoration="none" x="800" y="420">UNREGISTERED</text><text fill="#eeeeee" stroke="none" font-family="Arial" font-size="24px" font-style="normal" font-weight="normal" text-decoration="none" x="800" y="450">UNREGISTERED</text><text fill="#eeeeee" stroke="none" font-family="Arial" font-size="24px" font-style="normal" font-weight="normal" text-decoration="none" x="800" y="480">UNREGISTERED</text><text fill="#eeeeee" stroke="none" font-family="Arial" font-size="24px" font-style="normal" font-weight="normal" text-decoration="none" x="800" y="510">UNREGISTERED</text><text fill="#eeeeee" stroke="none" font-family="Arial" font-size="24px" font-style="normal" font-weight="normal" text-decoration="none" x="800" y="540">UNREGISTERED</text><text fill="#eeeeee" stroke="none" font-family="Arial" font-size="24px" font-style="normal" font-weight="normal" text-decoration="none" x="800" y="570">UNREGISTERED</text><text fill="#eeeeee" stroke="none" font-family="Arial" font-size="24px" font-style="normal" font-weight="normal" text-decoration="none" x="800" y="600">UNREGISTERED</text><text fill="#eeeeee" stroke="none" font-family="Arial" font-size="24px" font-style="normal" font-weight="normal" text-decoration="none" x="800" y="630">UNREGISTERED</text><text fill="#eeeeee" stroke="none" font-family="Arial" font-size="24px" font-style="normal" font-weight="normal" text-decoration="none" x="800" y="660">UNREGISTERED</text><text fill="#eeeeee" stroke="none" font-family="Arial" font-size="24px" font-style="normal" font-weight="normal" text-decoration="none" x="800" y="690">UNREGISTERED</text><text fill="#eeeeee" stroke="none" font-family="Arial" font-size="24px" font-style="normal" font-weight="normal" text-decoration="none" x="800" y="720">UNREGISTERED</text><text fill="#eeeeee" stroke="none" font-family="Arial" font-size="24px" font-style="normal" font-weight="normal" text-decoration="none" x="800" y="750">UNREGISTERED</text><text fill="#eeeeee" stroke="none" font-family="Arial" font-size="24px" font-style="normal" font-weight="normal" text-decoration="none" x="800" y="780">UNREGISTERED</text><text fill="#eeeeee" stroke="none" font-family="Arial" font-size="24px" font-style="normal" font-weight="normal" text-decoration="none" x="800" y="810">UNREGISTERED</text><g transform="translate(-462,-6) scale(1,1)"><rect fill="#C0C0C0" stroke="none" x="903" y="47" width="168.29052734375" height="39" opacity="0.2"/></g><g transform="translate(-462,-6) scale(1,1)"><rect fill="#ffffff" stroke="none" x="896" y="40" width="168.29052734375" height="39"/></g><g transform="translate(-462,-6) scale(1,1)"><path fill="none" stroke="#000000" d="M 896 40 L 1064.29052734375 40 L 1064.29052734375 79 L 896 79 L 896 40 Z Z" stroke-miterlimit="10"/></g><g transform="translate(-462,-6) scale(1,1)"><g><path fill="none" stroke="none"/><text fill="#000000" stroke="none" font-family="Arial" font-size="13px" font-style="normal" font-weight="bold" text-decoration="none" x="905.5" y="58">:WordlePlayerController</text></g></g><g transform="translate(-462,-6) scale(1,1)"><path fill="none" stroke="#000000" d="M 981.5 80 L 981.5 784" stroke-miterlimit="10" stroke-dasharray="3"/></g><g transform="translate(-462,-6) scale(1,1)"><rect fill="#C0C0C0" stroke="none" x="639" y="47" width="158.8896484375" height="39" opacity="0.2"/></g><g transform="translate(-462,-6) scale(1,1)"><rect fill="#ffffff" stroke="none" x="632" y="40" width="158.8896484375" height="39"/></g><g transform="translate(-462,-6) scale(1,1)"><path fill="none" stroke="#000000" d="M 632 40 L 790.8896484375 40 L 790.8896484375 79 L 632 79 L 632 40 Z Z" stroke-miterlimit="10"/></g><g transform="translate(-462,-6) scale(1,1)"><g><path fill="none" stroke="none"/><text fill="#000000" stroke="none" font-family="Arial" font-size="13px" font-style="normal" font-weight="bold" text-decoration="none" x="666.4208984375" y="58">:WordlePrinter</text></g></g><g transform="translate(-462,-6) scale(1,1)"><path fill="none" stroke="#000000" d="M 712.5 80 L 712.5 784" stroke-miterlimit="10" stroke-dasharray="3"/></g><g transform="translate(-462,-6) scale(1,1)"><path fill="#ffffff" stroke="none" d="M 984 160 L 1141 160 L 1151 170 L 1151 239 L 984 239 L 984 160"/></g><g transform="translate(-462,-6) scale(1,1)"><path fill="none" stroke="#000000" d="M 984 160 L 1141 160 L 1151 170 L 1151 239 L 984 239 L 984 160 L 984 160" stroke-miterlimit="10"/></g><g transform="translate(-462,-6) scale(1,1)"><path fill="none" stroke="#000000" d="M 1141 160 L 1141 170 L 1151 170 L 1141 160" stroke-miterlimit="10"/></g><g transform="translate(-462,-6) scale(1,1)"><g><path fill="none" stroke="none"/><text fill="#000000" stroke="none" font-family="Arial" font-size="13px" font-style="normal" font-weight="normal" text-decoration="none" x="989" y="175">si recuperano dalla classe</text><text fill="#000000" stroke="none" font-family="Arial" font-size="13px" font-style="normal" font-weight="normal" text-decoration="none" x="989" y="188">di controllo Wordle tutte le</text><text fill="#000000" stroke="none" font-family="Arial" font-size="13px" font-style="normal" font-weight="normal" text-decoration="none" x="989" y="201">informazioni per poter</text><text fill="#000000" stroke="none" font-family="Arial" font-size="13px" font-style="normal" font-weight="normal" text-decoration="none" x="989" y="214">stampare la matrice dei</text><text fill="#000000" stroke="none" font-family="Arial" font-size="13px" font-style="normal" font-weight="normal" text-decoration="none" x="989" y="227">tentativi</text></g></g><g transform="translate(-462,-6) scale(1,1)"><path fill="#000000" stroke="none" d="M 504 103.5 C 504 99.6340064 507.1340064 96.5 511 96.5 C 514.8659936 96.5 518 99.6340064 518 103.5 C 518 107.3659936 514.8659936 110.5 511 110.5 C 507.1340064 110.5 504 107.3659936 504 103.5 Z"/></g><g transform="translate(-462,-6) scale(1,1)"><path fill="none" stroke="#000000" d="M 518 104 L 705 104" stroke-miterlimit="10"/></g><g transform="translate(-462,-6) scale(1,1)"><path fill="#000000" stroke="none" d="M 694.8373251423759 108.20951775601598 L 705 104 L 694.8373251423758 99.79048224398402"/></g><g transform="translate(-462,-6) scale(1,1)"><path fill="none" stroke="#000000" d="M 694.8373251423759 108.20951775601598 L 705 104 L 694.8373251423758 99.79048224398402 L 694.8373251423759 108.20951775601598" stroke-miterlimit="10"/></g><g transform="translate(-462,-6) scale(1,1)"><g><path fill="none" stroke="none"/><text fill="#000000" stroke="none" font-family="Arial" font-size="13px" font-style="normal" font-weight="normal" text-decoration="none" x="567.5" y="99">1 : printBoard()</text></g></g><g transform="translate(-462,-6) scale(1,1)"><rect fill="#ffffff" stroke="none" x="705" y="104" width="13" height="656"/></g><g transform="translate(-462,-6) scale(1,1)"><path fill="none" stroke="#000000" d="M 705 104 L 718 104 L 718 760 L 705 760 L 705 104 Z Z" stroke-miterlimit="10"/></g><g transform="translate(-462,-6) scale(1,1)"><path fill="none" stroke="#000000" d="M 718 128 L 974 128" stroke-miterlimit="10"/></g><g transform="translate(-462,-6) scale(1,1)"><path fill="#000000" stroke="none" d="M 963.8373251423759 132.209517756016 L 974 128 L 963.8373251423758 123.79048224398402"/></g><g transform="translate(-462,-6) scale(1,1)"><path fill="none" stroke="#000000" d="M 963.8373251423759 132.209517756016 L 974 128 L 963.8373251423758 123.79048224398402 L 963.8373251423759 132.209517756016" stroke-miterlimit="10"/></g><g transform="translate(-462,-6) scale(1,1)"><g><path fill="none" stroke="none"/><text fill="#000000" stroke="none" font-family="Arial" font-size="13px" font-style="normal" font-weight="normal" text-decoration="none" x="758.5" y="123">2 : nRows = getMaxGuesses()</text></g></g><g transform="translate(-462,-6) scale(1,1)"><rect fill="#ffffff" stroke="none" x="974" y="128" width="13" height="28"/></g><g transform="translate(-462,-6) scale(1,1)"><path fill="none" stroke="#000000" d="M 974 128 L 987 128 L 987 156 L 974 156 L 974 128 Z Z" stroke-miterlimit="10"/></g><g transform="translate(-462,-6) scale(1,1)"><path fill="none" stroke="#000000" d="M 718 168 L 974 168" stroke-miterlimit="10"/></g><g transform="translate(-462,-6) scale(1,1)"><path fill="#000000" stroke="none" d="M 963.8373251423759 172.209517756016 L 974 168 L 963.8373251423758 163.790482243984"/></g><g transform="translate(-462,-6) scale(1,1)"><path fill="none" stroke="#000000" d="M 963.8373251423759 172.209517756016 L 974 168 L 963.8373251423758 163.790482243984 L 963.8373251423759 172.209517756016" stroke-miterlimit="10"/></g><g transform="translate(-462,-6) scale(1,1)"><g><path fill="none" stroke="none"/><text fill="#000000" stroke="none" font-family="Arial" font-size="13px" font-style="normal" font-weight="normal" text-decoration="none" x="750.5" y="162">3 : nColumns = getWordLength()</text></g></g><g transform="translate(-462,-6) scale(1,1)"><rect fill="#ffffff" stroke="none" x="974" y="168" width="13" height="28"/></g><g transform="translate(-462,-6) scale(1,1)"><path fill="none" stroke="#000000" d="M 974 168 L 987 168 L 987 196 L 974 196 L 974 168 Z Z" stroke-miterlimit="10"/></g><g transform="translate(-462,-6) scale(1,1)"><path fill="none" stroke="#000000" d="M 718 224 L 748 224 L 748 244 L 725 244" stroke-miterlimit="10"/></g><g transform="translate(-462,-6) scale(1,1)"><path fill="#000000" stroke="none" d="M 735.1626748576241 239.790482243984 L 725 244 L 735.1626748576241 248.209517756016"/></g><g transform="translate(-462,-6) scale(1,1)"><path fill="none" stroke="#000000" d="M 735.1626748576241 239.790482243984 L 725 244 L 735.1626748576241 248.209517756016 L 735.1626748576241 239.790482243984" stroke-miterlimit="10"/></g><g transform="translate(-462,-6) scale(1,1)"><g><path fill="none" stroke="none"/><text fill="#000000" stroke="none" font-family="Arial" font-size="13px" font-style="normal" font-weight="normal" text-decoration="none" x="757.5" y="235">4 : upperPart()(nColumns)</text></g></g><g transform="translate(-462,-6) scale(1,1)"><rect fill="#ffffff" stroke="none" x="712" y="244" width="13" height="28"/></g><g transform="translate(-462,-6) scale(1,1)"><path fill="none" stroke="#000000" d="M 712 244 L 725 244 L 725 272 L 712 272 L 712 244 Z Z" stroke-miterlimit="10"/></g><g transform="translate(-462,-6) scale(1,1)"><path fill="none" stroke="#000000" d="M 718 328 L 748 328 L 748 348 L 725 348" stroke-miterlimit="10"/></g><g transform="translate(-462,-6) scale(1,1)"><path fill="#000000" stroke="none" d="M 735.1626748576241 343.790482243984 L 725 348 L 735.1626748576241 352.209517756016"/></g><g transform="translate(-462,-6) scale(1,1)"><path fill="none" stroke="#000000" d="M 735.1626748576241 343.790482243984 L 725 348 L 735.1626748576241 352.209517756016 L 735.1626748576241 343.790482243984" stroke-miterlimit="10"/></g><g transform="translate(-462,-6) scale(1,1)"><g><path fill="none" stroke="none"/><text fill="#000000" stroke="none" font-family="Arial" font-size="13px" font-style="normal" font-weight="normal" text-decoration="none" x="747.141357421875" y="323">5 : guessSlice(i)</text></g></g><g transform="translate(-462,-6) scale(1,1)"><rect fill="#ffffff" stroke="none" x="712" y="348" width="13" height="180"/></g><g transform="translate(-462,-6) scale(1,1)"><path fill="none" stroke="#000000" d="M 712 348 L 725 348 L 725 528 L 712 528 L 712 348 Z Z" stroke-miterlimit="10"/></g><g transform="translate(-462,-6) scale(1,1)"><path fill="none" stroke="#000000" d="M 725 416 L 974 416" stroke-miterlimit="10"/></g><g transform="translate(-462,-6) scale(1,1)"><path fill="#000000" stroke="none" d="M 963.8373251423759 420.209517756016 L 974 416 L 963.8373251423758 411.790482243984"/></g><g transform="translate(-462,-6) scale(1,1)"><path fill="none" stroke="#000000" d="M 963.8373251423759 420.209517756016 L 974 416 L 963.8373251423758 411.790482243984 L 963.8373251423759 420.209517756016" stroke-miterlimit="10"/></g><g transform="translate(-462,-6) scale(1,1)"><g><path fill="none" stroke="none"/><text fill="#000000" stroke="none" font-family="Arial" font-size="13px" font-style="normal" font-weight="normal" text-decoration="none" x="790.81298828125" y="410">6 : getLetter(i, j)</text></g></g><g transform="translate(-462,-6) scale(1,1)"><rect fill="#ffffff" stroke="none" x="974" y="416" width="13" height="28"/></g><g transform="translate(-462,-6) scale(1,1)"><path fill="none" stroke="#000000" d="M 974 416 L 987 416 L 987 444 L 974 444 L 974 416 Z Z" stroke-miterlimit="10"/></g><g transform="translate(-462,-6) scale(1,1)"><path fill="none" stroke="#000000" d="M 725 456 L 974 456" stroke-miterlimit="10"/></g><g transform="translate(-462,-6) scale(1,1)"><path fill="#000000" stroke="none" d="M 963.8373251423759 460.209517756016 L 974 456 L 963.8373251423758 451.790482243984"/></g><g transform="translate(-462,-6) scale(1,1)"><path fill="none" stroke="#000000" d="M 963.8373251423759 460.209517756016 L 974 456 L 963.8373251423758 451.790482243984 L 963.8373251423759 460.209517756016" stroke-miterlimit="10"/></g><g transform="translate(-462,-6) scale(1,1)"><g><path fill="none" stroke="none"/><text fill="#000000" stroke="none" font-family="Arial" font-size="13px" font-style="normal" font-weight="normal" text-decoration="none" x="790.29541015625" y="450">7 : getColor(i, j)</text></g></g><g transform="translate(-462,-6) scale(1,1)"><rect fill="#ffffff" stroke="none" x="974" y="456" width="13" height="28"/></g><g transform="translate(-462,-6) scale(1,1)"><path fill="none" stroke="#000000" d="M 974 456 L 987 456 L 987 484 L 974 484 L 974 456 Z Z" stroke-miterlimit="10"/></g><g transform="translate(-462,-6) scale(1,1)"><path fill="none" stroke="#000000" d="M 718 536 L 748 536 L 748 556 L 725 556" stroke-miterlimit="10"/></g><g transform="translate(-462,-6) scale(1,1)"><path fill="#000000" stroke="none" d="M 735.1626748576241 551.790482243984 L 725 556 L 735.1626748576241 560.209517756016"/></g><g transform="translate(-462,-6) scale(1,1)"><path fill="none" stroke="#000000" d="M 735.1626748576241 551.790482243984 L 725 556 L 735.1626748576241 560.209517756016 L 735.1626748576241 551.790482243984" stroke-miterlimit="10"/></g><g transform="translate(-462,-6) scale(1,1)"><g><path fill="none" stroke="none"/><text fill="#000000" stroke="none" font-family="Arial" font-size="13px" font-style="normal" font-weight="normal" text-decoration="none" x="762.8291015625" y="547">8 : separatorSlice(nColumns)</text></g></g><g transform="translate(-462,-6) scale(1,1)"><rect fill="#ffffff" stroke="none" x="712" y="556" width="13" height="28"/></g><g transform="translate(-462,-6) scale(1,1)"><path fill="none" stroke="#000000" d="M 712 556 L 725 556 L 725 584 L 712 584 L 712 556 Z Z" stroke-miterlimit="10"/></g><g transform="translate(-462,-6) scale(1,1)"><path fill="none" stroke="#000000" d="M 718 616 L 748 616 L 748 636 L 725 636" stroke-miterlimit="10"/></g><g transform="translate(-462,-6) scale(1,1)"><path fill="#000000" stroke="none" d="M 735.1626748576241 631.790482243984 L 725 636 L 735.1626748576241 640.209517756016"/></g><g transform="translate(-462,-6) scale(1,1)"><path fill="none" stroke="#000000" d="M 735.1626748576241 631.790482243984 L 725 636 L 735.1626748576241 640.209517756016 L 735.1626748576241 631.790482243984" stroke-miterlimit="10"/></g><g transform="translate(-462,-6) scale(1,1)"><g><path fill="none" stroke="none"/><text fill="#000000" stroke="none" font-family="Arial" font-size="13px" font-style="normal" font-weight="normal" text-decoration="none" x="756.5" y="635">9 : guessSlice(nRows -1)</text></g></g><g transform="translate(-462,-6) scale(1,1)"><rect fill="#ffffff" stroke="none" x="712" y="636" width="13" height="28"/></g><g transform="translate(-462,-6) scale(1,1)"><path fill="none" stroke="#000000" d="M 712 636 L 725 636 L 725 664 L 712 664 L 712 636 Z Z" stroke-miterlimit="10"/></g><g transform="translate(-462,-6) scale(1,1)"><path fill="none" stroke="#000000" d="M 718 672 L 748 672 L 748 692 L 725 692" stroke-miterlimit="10"/></g><g transform="translate(-462,-6) scale(1,1)"><path fill="#000000" stroke="none" d="M 735.1626748576241 687.790482243984 L 725 692 L 735.1626748576241 696.209517756016"/></g><g transform="translate(-462,-6) scale(1,1)"><path fill="none" stroke="#000000" d="M 735.1626748576241 687.790482243984 L 725 692 L 735.1626748576241 696.209517756016 L 735.1626748576241 687.790482243984" stroke-miterlimit="10"/></g><g transform="translate(-462,-6) scale(1,1)"><g><path fill="none" stroke="none"/><text fill="#000000" stroke="none" font-family="Arial" font-size="13px" font-style="normal" font-weight="normal" text-decoration="none" x="756.5" y="691">10 : lowerPart()(nColumns)</text></g></g><g transform="translate(-462,-6) scale(1,1)"><rect fill="#ffffff" stroke="none" x="712" y="692" width="13" height="28"/></g><g transform="translate(-462,-6) scale(1,1)"><path fill="none" stroke="#000000" d="M 712 692 L 725 692 L 725 720 L 712 720 L 712 692 Z Z" stroke-miterlimit="10"/></g><g transform="translate(-462,-6) scale(1,1)"><path fill="none" stroke="#000000" d="M 624 280 L 1000 280 L 1000 600 L 624 600 L 624 280" stroke-miterlimit="10"/></g><g transform="translate(-462,-6) scale(1,1)"><path fill="#ffffff" stroke="none" d="M 624 280 L 624 302 L 758.87890625 302 L 769.87890625 291 L 769.87890625 280 L 624 280"/></g><g transform="translate(-462,-6) scale(1,1)"><path fill="none" stroke="#000000" d="M 624 280 L 624 302 L 758.87890625 302 L 769.87890625 291 L 769.87890625 280 L 624 280 L 624 280" stroke-miterlimit="10"/></g><g transform="translate(-462,-6) scale(1,1)"><g><path fill="none" stroke="none"/><text fill="#000000" stroke="none" font-family="Arial" font-size="13px" font-style="normal" font-weight="normal" text-decoration="none" x="659.578125" y="296">[0 &lt;= i &lt; nRows]</text></g></g><g transform="translate(-462,-6) scale(1,1)"><g><path fill="none" stroke="none"/><text fill="#000000" stroke="none" font-family="Arial" font-size="13px" font-style="normal" font-weight="bold" text-decoration="none" x="627.57177734375" y="296">loop</text></g></g><g transform="translate(-462,-6) scale(1,1)"><path fill="none" stroke="#000000" d="M 640 368 L 984 368 L 984 504 L 640 504 L 640 368" stroke-miterlimit="10"/></g><g transform="translate(-462,-6) scale(1,1)"><path fill="#ffffff" stroke="none" d="M 640 368 L 640 390 L 793.66796875 390 L 804.66796875 379 L 804.66796875 368 L 640 368"/></g><g transform="translate(-462,-6) scale(1,1)"><path fill="none" stroke="#000000" d="M 640 368 L 640 390 L 793.66796875 390 L 804.66796875 379 L 804.66796875 368 L 640 368 L 640 368" stroke-miterlimit="10"/></g><g transform="translate(-462,-6) scale(1,1)"><g><path fill="none" stroke="none"/><text fill="#000000" stroke="none" font-family="Arial" font-size="13px" font-style="normal" font-weight="normal" text-decoration="none" x="675.578125" y="384">[0 &lt;= j &lt; nColumns]</text></g></g><g transform="translate(-462,-6) scale(1,1)"><g><path fill="none" stroke="none"/><text fill="#000000" stroke="none" font-family="Arial" font-size="13px" font-style="normal" font-weight="bold" text-decoration="none" x="643.57177734375" y="384">loop</text></g></g><g transform="translate(-462,-6) scale(1,1)"><path fill="none" stroke="#000000" d="M 472 16 L 1272 16 L 1272 824 L 472 824 L 472 16" stroke-miterlimit="10"/></g><g transform="translate(-462,-6) scale(1,1)"><path fill="#ffffff" stroke="none" d="M 472 16 L 472 38 L 568.93896484375 38 L 579.93896484375 27 L 579.93896484375 16 L 472 16"/></g><g transform="translate(-462,-6) scale(1,1)"><path fill="none" stroke="#000000" d="M 472 16 L 472 38 L 568.93896484375 38 L 579.93896484375 27 L 579.93896484375 16 L 472 16 L 472 16" stroke-miterlimit="10"/></g><g transform="translate(-462,-6) scale(1,1)"><g><path fill="none" stroke="none"/><text fill="#000000" stroke="none" font-family="Arial" font-size="13px" font-style="normal" font-weight="normal" text-decoration="none" x="503.9599609375" y="32">printBoard</text></g></g><g transform="translate(-462,-6) scale(1,1)"><g><path fill="none" stroke="none"/><text fill="#000000" stroke="none" font-family="Arial" font-size="13px" font-style="normal" font-weight="bold" text-decoration="none" x="476.279541015625" y="30.5">seq</text></g></g></g></svg>