<svg version="1.1" xmlns="http://www.w3.org/2000/svg" xmlns:xlink="http://www.w3.org/1999/xlink" width="932" height="683"><defs/><g><text fill="#eeeeee" stroke="none" font-family="Arial" font-size="24px" font-style="normal" font-weight="normal" text-decoration="none" x="0" y="0">UNREGISTERED</text><text fill="#eeeeee" stroke="none" font-family="Arial" font-size="24px" font-style="normal" font-weight="normal" text-decoration="none" x="0" y="30">UNREGISTERED</text><text fill="#eeeeee" stroke="none" font-family="Arial" font-size="24px" font-style="normal" font-weight="normal" text-decoration="none" x="0" y="60">UNREGISTERED</text><text fill="#eeeeee" stroke="none" font-family="Arial" font-size="24px" font-style="normal" font-weight="normal" text-decoration="none" x="0" y="90">UNREGISTERED</text><text fill="#eeeeee" stroke="none" font-family="Arial" font-size="24px" font-style="normal" font-weight="normal" text-decoration="none" x="0" y="120">UNREGISTERED</text><text fill="#eeeeee" stroke="none" font-family="Arial" font-size="24px" font-style="normal" font-weight="normal" text-decoration="none" x="0" y="150">UNREGISTERED</text><text fill="#eeeeee" stroke="none" font-family="Arial" font-size="24px" font-style="normal" font-weight="normal" text-decoration="none" x="0" y="180">UNREGISTERED</text><text fill="#eeeeee" stroke="none" font-family="Arial" font-size="24px" font-style="normal" font-weight="normal" text-decoration="none" x="0" y="210">UNREGISTERED</text><text fill="#eeeeee" stroke="none" font-family="Arial" font-size="24px" font-style="normal" font-weight="normal" text-decoration="none" x="0" y="240">UNREGISTERED</text><text fill="#eeeeee" stroke="none" font-family="Arial" font-size="24px" font-style="normal" font-weight="normal" text-decoration="none" x="0" y="270">UNREGISTERED</text><text fill="#eeeeee" stroke="none" font-family="Arial" font-size="24px" font-style="normal" font-weight="normal" text-decoration="none" x="0" y="300">UNREGISTERED</text><text fill="#eeeeee" stroke="none" font-family="Arial" font-size="24px" font-style="normal" font-weight="normal" text-decoration="none" x="0" y="330">UNREGISTERED</text><text fill="#eeeeee" stroke="none" font-family="Arial" font-size="24px" font-style="normal" font-weight="normal" text-decoration="none" x="0" y="360">UNREGISTERED</text><text fill="#eeeeee" stroke="none" font-family="Arial" font-size="24px" font-style="normal" font-weight="normal" text-decoration="none" x="0" y="390">UNREGISTERED</text><text fill="#eeeeee" stroke="none" font-family="Arial" font-size="24px" font-style="normal" font-weight="normal" text-decoration="none" x="0" y="420">UNREGISTERED</text><text fill="#eeeeee" stroke="none" font-family="Arial" font-size="24px" font-style="normal" font-weight="normal" text-decoration="none" x="0" y="450">UNREGISTERED</text><text fill="#eeeeee" stroke="none" font-family="Arial" font-size="24px" font-style="normal" font-weight="normal" text-decoration="none" x="0" y="480">UNREGISTERED</text><text fill="#eeeeee" stroke="none" font-family="Arial" font-size="24px" font-style="normal" font-weight="normal" text-decoration="none" x="0" y="510">UNREGISTERED</text><text fill="#eeeeee" stroke="none" font-family="Arial" font-size="24px" font-style="normal" font-weight="normal" text-decoration="none" x="0" y="540">UNREGISTERED</text><text fill="#eeeeee" stroke="none" font-family="Arial" font-size="24px" font-style="normal" font-weight="normal" text-decoration="none" x="0" y="570">UNREGISTERED</text><text fill="#eeeeee" stroke="none" font-family="Arial" font-size="24px" font-style="normal" font-weight="normal" text-decoration="none" x="0" y="600">UNREGISTERED</text><text fill="#eeeeee" stroke="none" font-family="Arial" font-size="24px" font-style="normal" font-weight="normal" text-decoration="none" x="0" y="630">UNREGISTERED</text><text fill="#eeeeee" stroke="none" font-family="Arial" font-size="24px" font-style="normal" font-weight="normal" text-decoration="none" x="0" y="660">UNREGISTERED</text><text fill="#eeeeee" stroke="none" font-family="Arial" font-size="24px" font-style="normal" font-weight="normal" text-decoration="none" x="200" y="0">UNREGISTERED</text><text fill="#eeeeee" stroke="none" font-family="Arial" font-size="24px" font-style="normal" font-weight="normal" text-decoration="none" x="200" y="30">UNREGISTERED</text><text fill="#eeeeee" stroke="none" font-family="Arial" font-size="24px" font-style="normal" font-weight="normal" text-decoration="none" x="200" y="60">UNREGISTERED</text><text fill="#eeeeee" stroke="none" font-family="Arial" font-size="24px" font-style="normal" font-weight="normal" text-decoration="none" x="200" y="90">UNREGISTERED</text><text fill="#eeeeee" stroke="none" font-family="Arial" font-size="24px" font-style="normal" font-weight="normal" text-decoration="none" x="200" y="120">UNREGISTERED</text><text fill="#eeeeee" stroke="none" font-family="Arial" font-size="24px" font-style="normal" font-weight="normal" text-decoration="none" x="200" y="150">UNREGISTERED</text><text fill="#eeeeee" stroke="none" font-family="Arial" font-size="24px" font-style="normal" font-weight="normal" text-decoration="none" x="200" y="180">UNREGISTERED</text><text fill="#eeeeee" stroke="none" font-family="Arial" font-size="24px" font-style="normal" font-weight="normal" text-decoration="none" x="200" y="210">UNREGISTERED</text><text fill="#eeeeee" stroke="none" font-family="Arial" font-size="24px" font-style="normal" font-weight="normal" text-decoration="none" x="200" y="240">UNREGISTERED</text><text fill="#eeeeee" stroke="none" font-family="Arial" font-size="24px" font-style="normal" font-weight="normal" text-decoration="none" x="200" y="270">UNREGISTERED</text><text fill="#eeeeee" stroke="none" font-family="Arial" font-size="24px" font-style="normal" font-weight="normal" text-decoration="none" x="200" y="300">UNREGISTERED</text><text fill="#eeeeee" stroke="none" font-family="Arial" font-size="24px" font-style="normal" font-weight="normal" text-decoration="none" x="200" y="330">UNREGISTERED</text><text fill="#eeeeee" stroke="none" font-family="Arial" font-size="24px" font-style="normal" font-weight="normal" text-decoration="none" x="200" y="360">UNREGISTERED</text><text fill="#eeeeee" stroke="none" font-family="Arial" font-size="24px" font-style="normal" font-weight="normal" text-decoration="none" x="200" y="390">UNREGISTERED</text><text fill="#eeeeee" stroke="none" font-family="Arial" font-size="24px" font-style="normal" font-weight="normal" text-decoration="none" x="200" y="420">UNREGISTERED</text><text fill="#eeeeee" stroke="none" font-family="Arial" font-size="24px" font-style="normal" font-weight="normal" text-decoration="none" x="200" y="450">UNREGISTERED</text><text fill="#eeeeee" stroke="none" font-family="Arial" font-size="24px" font-style="normal" font-weight="normal" text-decoration="none" x="200" y="480">UNREGISTERED</text><text fill="#eeeeee" stroke="none" font-family="Arial" font-size="24px" font-style="normal" font-weight="normal" text-decoration="none" x="200" y="510">UNREGISTERED</text><text fill="#eeeeee" stroke="none" font-family="Arial" font-size="24px" font-style="normal" font-weight="normal" text-decoration="none" x="200" y="540">UNREGISTERED</text><text fill="#eeeeee" stroke="none" font-family="Arial" font-size="24px" font-style="normal" font-weight="normal" text-decoration="none" x="200" y="570">UNREGISTERED</text><text fill="#eeeeee" stroke="none" font-family="Arial" font-size="24px" font-style="normal" font-weight="normal" text-decoration="none" x="200" y="600">UNREGISTERED</text><text fill="#eeeeee" stroke="none" font-family="Arial" font-size="24px" font-style="normal" font-weight="normal" text-decoration="none" x="200" y="630">UNREGISTERED</text><text fill="#eeeeee" stroke="none" font-family="Arial" font-size="24px" font-style="normal" font-weight="normal" text-decoration="none" x="200" y="660">UNREGISTERED</text><text fill="#eeeeee" stroke="none" font-family="Arial" font-size="24px" font-style="normal" font-weight="normal" text-decoration="none" x="400" y="0">UNREGISTERED</text><text fill="#eeeeee" stroke="none" font-family="Arial" font-size="24px" font-style="normal" font-weight="normal" text-decoration="none" x="400" y="30">UNREGISTERED</text><text fill="#eeeeee" stroke="none" font-family="Arial" font-size="24px" font-style="normal" font-weight="normal" text-decoration="none" x="400" y="60">UNREGISTERED</text><text fill="#eeeeee" stroke="none" font-family="Arial" font-size="24px" font-style="normal" font-weight="normal" text-decoration="none" x="400" y="90">UNREGISTERED</text><text fill="#eeeeee" stroke="none" font-family="Arial" font-size="24px" font-style="normal" font-weight="normal" text-decoration="none" x="400" y="120">UNREGISTERED</text><text fill="#eeeeee" stroke="none" font-family="Arial" font-size="24px" font-style="normal" font-weight="normal" text-decoration="none" x="400" y="150">UNREGISTERED</text><text fill="#eeeeee" stroke="none" font-family="Arial" font-size="24px" font-style="normal" font-weight="normal" text-decoration="none" x="400" y="180">UNREGISTERED</text><text fill="#eeeeee" stroke="none" font-family="Arial" font-size="24px" font-style="normal" font-weight="normal" text-decoration="none" x="400" y="210">UNREGISTERED</text><text fill="#eeeeee" stroke="none" font-family="Arial" font-size="24px" font-style="normal" font-weight="normal" text-decoration="none" x="400" y="240">UNREGISTERED</text><text fill="#eeeeee" stroke="none" font-family="Arial" font-size="24px" font-style="normal" font-weight="normal" text-decoration="none" x="400" y="270">UNREGISTERED</text><text fill="#eeeeee" stroke="none" font-family="Arial" font-size="24px" font-style="normal" font-weight="normal" text-decoration="none" x="400" y="300">UNREGISTERED</text><text fill="#eeeeee" stroke="none" font-family="Arial" font-size="24px" font-style="normal" font-weight="normal" text-decoration="none" x="400" y="330">UNREGISTERED</text><text fill="#eeeeee" stroke="none" font-family="Arial" font-size="24px" font-style="normal" font-weight="normal" text-decoration="none" x="400" y="360">UNREGISTERED</text><text fill="#eeeeee" stroke="none" font-family="Arial" font-size="24px" font-style="normal" font-weight="normal" text-decoration="none" x="400" y="390">UNREGISTERED</text><text fill="#eeeeee" stroke="none" font-family="Arial" font-size="24px" font-style="normal" font-weight="normal" text-decoration="none" x="400" y="420">UNREGISTERED</text><text fill="#eeeeee" stroke="none" font-family="Arial" font-size="24px" font-style="normal" font-weight="normal" text-decoration="none" x="400" y="450">UNREGISTERED</text><text fill="#eeeeee" stroke="none" font-family="Arial" font-size="24px" font-style="normal" font-weight="normal" text-decoration="none" x="400" y="480">UNREGISTERED</text><text fill="#eeeeee" stroke="none" font-family="Arial" font-size="24px" font-style="normal" font-weight="normal" text-decoration="none" x="400" y="510">UNREGISTERED</text><text fill="#eeeeee" stroke="none" font-family="Arial" font-size="24px" font-style="normal" font-weight="normal" text-decoration="none" x="400" y="540">UNREGISTERED</text><text fill="#eeeeee" stroke="none" font-family="Arial" font-size="24px" font-style="normal" font-weight="normal" text-decoration="none" x="400" y="570">UNREGISTERED</text><text fill="#eeeeee" stroke="none" font-family="Arial" font-size="24px" font-style="normal" font-weight="normal" text-decoration="none" x="400" y="600">UNREGISTERED</text><text fill="#eeeeee" stroke="none" font-family="Arial" font-size="24px" font-style="normal" font-weight="normal" text-decoration="none" x="400" y="630">UNREGISTERED</text><text fill="#eeeeee" stroke="none" font-family="Arial" font-size="24px" font-style="normal" font-weight="normal" text-decoration="none" x="400" y="660">UNREGISTERED</text><text fill="#eeeeee" stroke="none" font-family="Arial" font-size="24px" font-style="normal" font-weight="normal" text-decoration="none" x="600" y="0">UNREGISTERED</text><text fill="#eeeeee" stroke="none" font-family="Arial" font-size="24px" font-style="normal" font-weight="normal" text-decoration="none" x="600" y="30">UNREGISTERED</text><text fill="#eeeeee" stroke="none" font-family="Arial" font-size="24px" font-style="normal" font-weight="normal" text-decoration="none" x="600" y="60">UNREGISTERED</text><text fill="#eeeeee" stroke="none" font-family="Arial" font-size="24px" font-style="normal" font-weight="normal" text-decoration="none" x="600" y="90">UNREGISTERED</text><text fill="#eeeeee" stroke="none" font-family="Arial" font-size="24px" font-style="normal" font-weight="normal" text-decoration="none" x="600" y="120">UNREGISTERED</text><text fill="#eeeeee" stroke="none" font-family="Arial" font-size="24px" font-style="normal" font-weight="normal" text-decoration="none" x="600" y="150">UNREGISTERED</text><text fill="#eeeeee" stroke="none" font-family="Arial" font-size="24px" font-style="normal" font-weight="normal" text-decoration="none" x="600" y="180">UNREGISTERED</text><text fill="#eeeeee" stroke="none" font-family="Arial" font-size="24px" font-style="normal" font-weight="normal" text-decoration="none" x="600" y="210">UNREGISTERED</text><text fill="#eeeeee" stroke="none" font-family="Arial" font-size="24px" font-style="normal" font-weight="normal" text-decoration="none" x="600" y="240">UNREGISTERED</text><text fill="#eeeeee" stroke="none" font-family="Arial" font-size="24px" font-style="normal" font-weight="normal" text-decoration="none" x="600" y="270">UNREGISTERED</text><text fill="#eeeeee" stroke="none" font-family="Arial" font-size="24px" font-style="normal" font-weight="normal" text-decoration="none" x="600" y="300">UNREGISTERED</text><text fill="#eeeeee" stroke="none" font-family="Arial" font-size="24px" font-style="normal" font-weight="normal" text-decoration="none" x="600" y="330">UNREGISTERED</text><text fill="#eeeeee" stroke="none" font-family="Arial" font-size="24px" font-style="normal" font-weight="normal" text-decoration="none" x="600" y="360">UNREGISTERED</text><text fill="#eeeeee" stroke="none" font-family="Arial" font-size="24px" font-style="normal" font-weight="normal" text-decoration="none" x="600" y="390">UNREGISTERED</text><text fill="#eeeeee" stroke="none" font-family="Arial" font-size="24px" font-style="normal" font-weight="normal" text-decoration="none" x="600" y="420">UNREGISTERED</text><text fill="#eeeeee" stroke="none" font-family="Arial" font-size="24px" font-style="normal" font-weight="normal" text-decoration="none" x="600" y="450">UNREGISTERED</text><text fill="#eeeeee" stroke="none" font-family="Arial" font-size="24px" font-style="normal" font-weight="normal" text-decoration="none" x="600" y="480">UNREGISTERED</text><text fill="#eeeeee" stroke="none" font-family="Arial" font-size="24px" font-style="normal" font-weight="normal" text-decoration="none" x="600" y="510">UNREGISTERED</text><text fill="#eeeeee" stroke="none" font-family="Arial" font-size="24px" font-style="normal" font-weight="normal" text-decoration="none" x="600" y="540">UNREGISTERED</text><text fill="#eeeeee" stroke="none" font-family="Arial" font-size="24px" font-style="normal" font-weight="normal" text-decoration="none" x="600" y="570">UNREGISTERED</text><text fill="#eeeeee" stroke="none" font-family="Arial" font-size="24px" font-style="normal" font-weight="normal" text-decoration="none" x="600" y="600">UNREGISTERED</text><text fill="#eeeeee" stroke="none" font-family="Arial" font-size="24px" font-style="normal" font-weight="normal" text-decoration="none" x="600" y="630">UNREGISTERED</text><text fill="#eeeeee" stroke="none" font-family="Arial" font-size="24px" font-style="normal" font-weight="normal" text-decoration="none" x="600" y="660">UNREGISTERED</text><text fill="#eeeeee" stroke="none" font-family="Arial" font-size="24px" font-style="normal" font-weight="normal" text-decoration="none" x="800" y="0">UNREGISTERED</text><text fill="#eeeeee" stroke="none" font-family="Arial" font-size="24px" font-style="normal" font-weight="normal" text-decoration="none" x="800" y="30">UNREGISTERED</text><text fill="#eeeeee" stroke="none" font-family="Arial" font-size="24px" font-style="normal" font-weight="normal" text-decoration="none" x="800" y="60">UNREGISTERED</text><text fill="#eeeeee" stroke="none" font-family="Arial" font-size="24px" font-style="normal" font-weight="normal" text-decoration="none" x="800" y="90">UNREGISTERED</text><text fill="#eeeeee" stroke="none" font-family="Arial" font-size="24px" font-style="normal" font-weight="normal" text-decoration="none" x="800" y="120">UNREGISTERED</text><text fill="#eeeeee" stroke="none" font-family="Arial" font-size="24px" font-style="normal" font-weight="normal" text-decoration="none" x="800" y="150">UNREGISTERED</text><text fill="#eeeeee" stroke="none" font-family="Arial" font-size="24px" font-style="normal" font-weight="normal" text-decoration="none" x="800" y="180">UNREGISTERED</text><text fill="#eeeeee" stroke="none" font-family="Arial" font-size="24px" font-style="normal" font-weight="normal" text-decoration="none" x="800" y="210">UNREGISTERED</text><text fill="#eeeeee" stroke="none" font-family="Arial" font-size="24px" font-style="normal" font-weight="normal" text-decoration="none" x="800" y="240">UNREGISTERED</text><text fill="#eeeeee" stroke="none" font-family="Arial" font-size="24px" font-style="normal" font-weight="normal" text-decoration="none" x="800" y="270">UNREGISTERED</text><text fill="#eeeeee" stroke="none" font-family="Arial" font-size="24px" font-style="normal" font-weight="normal" text-decoration="none" x="800" y="300">UNREGISTERED</text><text fill="#eeeeee" stroke="none" font-family="Arial" font-size="24px" font-style="normal" font-weight="normal" text-decoration="none" x="800" y="330">UNREGISTERED</text><text fill="#eeeeee" stroke="none" font-family="Arial" font-size="24px" font-style="normal" font-weight="normal" text-decoration="none" x="800" y="360">UNREGISTERED</text><text fill="#eeeeee" stroke="none" font-family="Arial" font-size="24px" font-style="normal" font-weight="normal" text-decoration="none" x="800" y="390">UNREGISTERED</text><text fill="#eeeeee" stroke="none" font-family="Arial" font-size="24px" font-style="normal" font-weight="normal" text-decoration="none" x="800" y="420">UNREGISTERED</text><text fill="#eeeeee" stroke="none" font-family="Arial" font-size="24px" font-style="normal" font-weight="normal" text-decoration="none" x="800" y="450">UNREGISTERED</text><text fill="#eeeeee" stroke="none" font-family="Arial" font-size="24px" font-style="normal" font-weight="normal" text-decoration="none" x="800" y="480">UNREGISTERED</text><text fill="#eeeeee" stroke="none" font-family="Arial" font-size="24px" font-style="normal" font-weight="normal" text-decoration="none" x="800" y="510">UNREGISTERED</text><text fill="#eeeeee" stroke="none" font-family="Arial" font-size="24px" font-style="normal" font-weight="normal" text-decoration="none" x="800" y="540">UNREGISTERED</text><text fill="#eeeeee" stroke="none" font-family="Arial" font-size="24px" font-style="normal" font-weight="normal" text-decoration="none" x="800" y="570">UNREGISTERED</text><text fill="#eeeeee" stroke="none" font-family="Arial" font-size="24px" font-style="normal" font-weight="normal" text-decoration="none" x="800" y="600">UNREGISTERED</text><text fill="#eeeeee" stroke="none" font-family="Arial" font-size="24px" font-style="normal" font-weight="normal" text-decoration="none" x="800" y="630">UNREGISTERED</text><text fill="#eeeeee" stroke="none" font-family="Arial" font-size="24px" font-style="normal" font-weight="normal" text-decoration="none" x="800" y="660">UNREGISTERED</text><g transform="translate(-46,-6) scale(1,1)"><rect fill="#C0C0C0" stroke="none" x="215" y="47" width="87.6689453125" height="39" opacity="0.2"/></g><g transform="translate(-46,-6) scale(1,1)"><rect fill="#ffffff" stroke="none" x="208" y="40" width="87.6689453125" height="39"/></g><g transform="translate(-46,-6) scale(1,1)"><path fill="none" stroke="#000000" d="M 208 40 L 295.6689453125 40 L 295.6689453125 79 L 208 79 L 208 40 Z Z" stroke-miterlimit="10"/></g><g transform="translate(-46,-6) scale(1,1)"><g><path fill="none" stroke="none"/><text fill="#000000" stroke="none" font-family="Arial" font-size="13px" font-style="normal" font-weight="bold" text-decoration="none" x="229.925537109375" y="58">Wordle</text></g></g><g transform="translate(-46,-6) scale(1,1)"><path fill="none" stroke="#000000" d="M 252.5 80 L 252.5 672" stroke-miterlimit="10" stroke-dasharray="3"/></g><g transform="translate(-46,-6) scale(1,1)"><rect fill="#C0C0C0" stroke="none" x="647" y="195" width="74.62451171875" height="39" opacity="0.2"/></g><g transform="translate(-46,-6) scale(1,1)"><rect fill="#ffffff" stroke="none" x="640" y="188" width="74.62451171875" height="39"/></g><g transform="translate(-46,-6) scale(1,1)"><path fill="none" stroke="#000000" d="M 640 188 L 714.62451171875 188 L 714.62451171875 227 L 640 227 L 640 188 Z Z" stroke-miterlimit="10"/></g><g transform="translate(-46,-6) scale(1,1)"><g><path fill="none" stroke="none"/><text fill="#000000" stroke="none" font-family="Arial" font-size="13px" font-style="normal" font-weight="bold" text-decoration="none" x="649.5" y="206">g: Guess</text></g></g><g transform="translate(-46,-6) scale(1,1)"><path fill="none" stroke="#000000" d="M 678.5 228 L 678.5 672" stroke-miterlimit="10" stroke-dasharray="3"/></g><g transform="translate(-46,-6) scale(1,1)"><rect fill="#C0C0C0" stroke="none" x="543" y="47" width="72.44091796875" height="39" opacity="0.2"/></g><g transform="translate(-46,-6) scale(1,1)"><rect fill="#ffffff" stroke="none" x="536" y="40" width="72.44091796875" height="39"/></g><g transform="translate(-46,-6) scale(1,1)"><path fill="none" stroke="#000000" d="M 536 40 L 608.44091796875 40 L 608.44091796875 79 L 536 79 L 536 40 Z Z" stroke-miterlimit="10"/></g><g transform="translate(-46,-6) scale(1,1)"><g><path fill="none" stroke="none"/><text fill="#000000" stroke="none" font-family="Arial" font-size="13px" font-style="normal" font-weight="bold" text-decoration="none" x="545.5" y="58">b: Board</text></g></g><g transform="translate(-46,-6) scale(1,1)"><path fill="none" stroke="#000000" d="M 573.5 80 L 573.5 672" stroke-miterlimit="10" stroke-dasharray="3"/></g><g transform="translate(-46,-6) scale(1,1)"><rect fill="#C0C0C0" stroke="none" x="407" y="47" width="103.27783203125" height="39" opacity="0.2"/></g><g transform="translate(-46,-6) scale(1,1)"><rect fill="#ffffff" stroke="none" x="400" y="40" width="103.27783203125" height="39"/></g><g transform="translate(-46,-6) scale(1,1)"><path fill="none" stroke="#000000" d="M 400 40 L 503.27783203125 40 L 503.27783203125 79 L 400 79 L 400 40 Z Z" stroke-miterlimit="10"/></g><g transform="translate(-46,-6) scale(1,1)"><g><path fill="none" stroke="none"/><text fill="#000000" stroke="none" font-family="Arial" font-size="13px" font-style="normal" font-weight="bold" text-decoration="none" x="409.5" y="58">:WordleGame</text></g></g><g transform="translate(-46,-6) scale(1,1)"><path fill="none" stroke="#000000" d="M 452.5 80 L 452.5 672" stroke-miterlimit="10" stroke-dasharray="3"/></g><g transform="translate(-46,-6) scale(1,1)"><rect fill="#C0C0C0" stroke="none" x="807" y="275" width="138.9072265625" height="39" opacity="0.2"/></g><g transform="translate(-46,-6) scale(1,1)"><rect fill="#ffffff" stroke="none" x="800" y="268" width="138.9072265625" height="39"/></g><g transform="translate(-46,-6) scale(1,1)"><path fill="none" stroke="#000000" d="M 800 268 L 938.9072265625 268 L 938.9072265625 307 L 800 307 L 800 268 Z Z" stroke-miterlimit="10"/></g><g transform="translate(-46,-6) scale(1,1)"><g><path fill="none" stroke="none"/><text fill="#000000" stroke="none" font-family="Arial" font-size="13px" font-style="normal" font-weight="bold" text-decoration="none" x="809.5" y="286">letters[i]: LetterBox</text></g></g><g transform="translate(-46,-6) scale(1,1)"><path fill="none" stroke="#000000" d="M 870.5 308 L 870.5 672" stroke-miterlimit="10" stroke-dasharray="3"/></g><g transform="translate(-46,-6) scale(1,1)"><path fill="#000000" stroke="none" d="M 72 127.5 C 72 123.6340064 75.1340064 120.5 79 120.5 C 82.8659936 120.5 86 123.6340064 86 127.5 C 86 131.3659936 82.8659936 134.5 79 134.5 C 75.1340064 134.5 72 131.3659936 72 127.5 Z"/></g><g transform="translate(-46,-6) scale(1,1)"><path fill="#ffffff" stroke="none" d="M 88 368 L 188 368 L 198 378 L 198 443 L 88 443 L 88 368"/></g><g transform="translate(-46,-6) scale(1,1)"><path fill="none" stroke="#000000" d="M 88 368 L 188 368 L 198 378 L 198 443 L 88 443 L 88 368 L 88 368" stroke-miterlimit="10"/></g><g transform="translate(-46,-6) scale(1,1)"><path fill="none" stroke="#000000" d="M 188 368 L 188 378 L 198 378 L 188 368" stroke-miterlimit="10"/></g><g transform="translate(-46,-6) scale(1,1)"><g><path fill="none" stroke="none"/><text fill="#000000" stroke="none" font-family="Arial" font-size="13px" font-style="normal" font-weight="normal" text-decoration="none" x="93" y="383">il colore viene</text><text fill="#000000" stroke="none" font-family="Arial" font-size="13px" font-style="normal" font-weight="normal" text-decoration="none" x="93" y="396">determinato in</text><text fill="#000000" stroke="none" font-family="Arial" font-size="13px" font-style="normal" font-weight="normal" text-decoration="none" x="93" y="409">base al confronto</text><text fill="#000000" stroke="none" font-family="Arial" font-size="13px" font-style="normal" font-weight="normal" text-decoration="none" x="93" y="421">tra w e sw</text></g></g><g transform="translate(-46,-6) scale(1,1)"><path fill="none" stroke="#000000" d="M 86 128 L 245 128" stroke-miterlimit="10"/></g><g transform="translate(-46,-6) scale(1,1)"><path fill="#000000" stroke="none" d="M 234.83732514237585 132.209517756016 L 245 128 L 234.83732514237585 123.79048224398402"/></g><g transform="translate(-46,-6) scale(1,1)"><path fill="none" stroke="#000000" d="M 234.83732514237585 132.209517756016 L 245 128 L 234.83732514237585 123.79048224398402 L 234.83732514237585 132.209517756016" stroke-miterlimit="10"/></g><g transform="translate(-46,-6) scale(1,1)"><g><path fill="none" stroke="none"/><text fill="#000000" stroke="none" font-family="Arial" font-size="13px" font-style="normal" font-weight="normal" text-decoration="none" x="129.121337890625" y="123">1 : guess(w)</text></g></g><g transform="translate(-46,-6) scale(1,1)"><rect fill="#ffffff" stroke="none" x="245" y="128" width="13" height="504"/></g><g transform="translate(-46,-6) scale(1,1)"><path fill="none" stroke="#000000" d="M 245 128 L 258 128 L 258 632 L 245 632 L 245 128 Z Z" stroke-miterlimit="10"/></g><g transform="translate(-46,-6) scale(1,1)"><path fill="none" stroke="#000000" d="M 258 152 L 445 152" stroke-miterlimit="10"/></g><g transform="translate(-46,-6) scale(1,1)"><path fill="#000000" stroke="none" d="M 434.83732514237585 156.209517756016 L 445 152 L 434.83732514237585 147.790482243984"/></g><g transform="translate(-46,-6) scale(1,1)"><path fill="none" stroke="#000000" d="M 434.83732514237585 156.209517756016 L 445 152 L 434.83732514237585 147.790482243984 L 434.83732514237585 156.209517756016" stroke-miterlimit="10"/></g><g transform="translate(-46,-6) scale(1,1)"><g><path fill="none" stroke="none"/><text fill="#000000" stroke="none" font-family="Arial" font-size="13px" font-style="normal" font-weight="normal" text-decoration="none" x="279.200439453125" y="147">2 : sw = getSecretWord()</text></g></g><g transform="translate(-46,-6) scale(1,1)"><rect fill="#ffffff" stroke="none" x="445" y="152" width="13" height="28"/></g><g transform="translate(-46,-6) scale(1,1)"><path fill="none" stroke="#000000" d="M 445 152 L 458 152 L 458 180 L 445 180 L 445 152 Z Z" stroke-miterlimit="10"/></g><g transform="translate(-46,-6) scale(1,1)"><path fill="none" stroke="#000000" d="M 258 208 L 640 208" stroke-miterlimit="10" stroke-dasharray="3"/></g><g transform="translate(-46,-6) scale(1,1)"><path fill="none" stroke="#000000" d="M 629.8373251423759 212.209517756016 L 640 208 L 629.8373251423758 203.790482243984" stroke-miterlimit="10"/></g><g transform="translate(-46,-6) scale(1,1)"><g><path fill="none" stroke="none"/><text fill="#000000" stroke="none" font-family="Arial" font-size="13px" font-style="normal" font-weight="normal" text-decoration="none" x="298.5" y="202">3 : </text></g></g><g transform="translate(-46,-6) scale(1,1)"><g><path fill="none" stroke="none"/><text fill="#000000" stroke="none" font-family="Arial" font-size="13px" font-style="normal" font-weight="normal" text-decoration="none" x="322.5" y="201.5">«create»</text></g></g><g transform="translate(-46,-6) scale(1,1)"><path fill="none" stroke="#000000" d="M 678 288 L 800 288" stroke-miterlimit="10" stroke-dasharray="3"/></g><g transform="translate(-46,-6) scale(1,1)"><path fill="none" stroke="#000000" d="M 789.8373251423759 292.209517756016 L 800 288 L 789.8373251423758 283.790482243984" stroke-miterlimit="10"/></g><g transform="translate(-46,-6) scale(1,1)"><g><path fill="none" stroke="none"/><text fill="#000000" stroke="none" font-family="Arial" font-size="13px" font-style="normal" font-weight="normal" text-decoration="none" x="697.5" y="282">4 : </text></g></g><g transform="translate(-46,-6) scale(1,1)"><g><path fill="none" stroke="none"/><text fill="#000000" stroke="none" font-family="Arial" font-size="13px" font-style="normal" font-weight="normal" text-decoration="none" x="722.5" y="282.5">«create»</text></g></g><g transform="translate(-46,-6) scale(1,1)"><path fill="none" stroke="#000000" d="M 258 408 L 671 408" stroke-miterlimit="10"/></g><g transform="translate(-46,-6) scale(1,1)"><path fill="#000000" stroke="none" d="M 660.8373251423759 412.209517756016 L 671 408 L 660.8373251423758 403.790482243984"/></g><g transform="translate(-46,-6) scale(1,1)"><path fill="none" stroke="#000000" d="M 660.8373251423759 412.209517756016 L 671 408 L 660.8373251423758 403.790482243984 L 660.8373251423759 412.209517756016" stroke-miterlimit="10"/></g><g transform="translate(-46,-6) scale(1,1)"><g><path fill="none" stroke="none"/><text fill="#000000" stroke="none" font-family="Arial" font-size="13px" font-style="normal" font-weight="normal" text-decoration="none" x="307.5126953125" y="402">5 : setColor(i)</text></g></g><g transform="translate(-46,-6) scale(1,1)"><rect fill="#ffffff" stroke="none" x="671" y="408" width="13" height="28"/></g><g transform="translate(-46,-6) scale(1,1)"><path fill="none" stroke="#000000" d="M 671 408 L 684 408 L 684 436 L 671 436 L 671 408 Z Z" stroke-miterlimit="10"/></g><g transform="translate(-46,-6) scale(1,1)"><path fill="none" stroke="#000000" d="M 684 424 L 863 424" stroke-miterlimit="10"/></g><g transform="translate(-46,-6) scale(1,1)"><path fill="#000000" stroke="none" d="M 852.8373251423759 428.209517756016 L 863 424 L 852.8373251423758 419.790482243984"/></g><g transform="translate(-46,-6) scale(1,1)"><path fill="none" stroke="#000000" d="M 852.8373251423759 428.209517756016 L 863 424 L 852.8373251423758 419.790482243984 L 852.8373251423759 428.209517756016" stroke-miterlimit="10"/></g><g transform="translate(-46,-6) scale(1,1)"><g><path fill="none" stroke="none"/><text fill="#000000" stroke="none" font-family="Arial" font-size="13px" font-style="normal" font-weight="normal" text-decoration="none" x="734.956787109375" y="419">6 : setColor()</text></g></g><g transform="translate(-46,-6) scale(1,1)"><rect fill="#ffffff" stroke="none" x="863" y="424" width="13" height="28"/></g><g transform="translate(-46,-6) scale(1,1)"><path fill="none" stroke="#000000" d="M 863 424 L 876 424 L 876 452 L 863 452 L 863 424 Z Z" stroke-miterlimit="10"/></g><g transform="translate(-46,-6) scale(1,1)"><path fill="none" stroke="#000000" d="M 258 496 L 445 496" stroke-miterlimit="10"/></g><g transform="translate(-46,-6) scale(1,1)"><path fill="#000000" stroke="none" d="M 434.83732514237585 500.209517756016 L 445 496 L 434.83732514237585 491.790482243984"/></g><g transform="translate(-46,-6) scale(1,1)"><path fill="none" stroke="#000000" d="M 434.83732514237585 500.209517756016 L 445 496 L 434.83732514237585 491.790482243984 L 434.83732514237585 500.209517756016" stroke-miterlimit="10"/></g><g transform="translate(-46,-6) scale(1,1)"><g><path fill="none" stroke="none"/><text fill="#000000" stroke="none" font-family="Arial" font-size="13px" font-style="normal" font-weight="normal" text-decoration="none" x="282.5" y="491">7 : b = getGameBoard()</text></g></g><g transform="translate(-46,-6) scale(1,1)"><rect fill="#ffffff" stroke="none" x="445" y="496" width="13" height="28"/></g><g transform="translate(-46,-6) scale(1,1)"><path fill="none" stroke="#000000" d="M 445 496 L 458 496 L 458 524 L 445 524 L 445 496 Z Z" stroke-miterlimit="10"/></g><g transform="translate(-46,-6) scale(1,1)"><path fill="none" stroke="#000000" d="M 258 576 L 566 576" stroke-miterlimit="10"/></g><g transform="translate(-46,-6) scale(1,1)"><path fill="#000000" stroke="none" d="M 555.8373251423759 580.209517756016 L 566 576 L 555.8373251423758 571.790482243984"/></g><g transform="translate(-46,-6) scale(1,1)"><path fill="none" stroke="#000000" d="M 555.8373251423759 580.209517756016 L 566 576 L 555.8373251423758 571.790482243984 L 555.8373251423759 580.209517756016" stroke-miterlimit="10"/></g><g transform="translate(-46,-6) scale(1,1)"><g><path fill="none" stroke="none"/><text fill="#000000" stroke="none" font-family="Arial" font-size="13px" font-style="normal" font-weight="normal" text-decoration="none" x="283.5" y="570">8 : acceptNewGuess(g)</text></g></g><g transform="translate(-46,-6) scale(1,1)"><rect fill="#ffffff" stroke="none" x="566" y="576" width="13" height="28"/></g><g transform="translate(-46,-6) scale(1,1)"><path fill="none" stroke="#000000" d="M 566 576 L 579 576 L 579 604 L 566 604 L 566 576 Z Z" stroke-miterlimit="10"/></g><g transform="translate(-46,-6) scale(1,1)"><path fill="none" stroke="#000000" d="M 216 352 L 888 352 L 888 471 L 216 471 L 216 352" stroke-miterlimit="10"/></g><g transform="translate(-46,-6) scale(1,1)"><path fill="#ffffff" stroke="none" d="M 216 352 L 216 374 L 370.02978515625 374 L 381.02978515625 363 L 381.02978515625 352 L 216 352"/></g><g transform="translate(-46,-6) scale(1,1)"><path fill="none" stroke="#000000" d="M 216 352 L 216 374 L 370.02978515625 374 L 381.02978515625 363 L 381.02978515625 352 L 216 352 L 216 352" stroke-miterlimit="10"/></g><g transform="translate(-46,-6) scale(1,1)"><g><path fill="none" stroke="none"/><text fill="#000000" stroke="none" font-family="Arial" font-size="13px" font-style="normal" font-weight="normal" text-decoration="none" x="251.578125" y="368">[for each LetterBox]</text></g></g><g transform="translate(-46,-6) scale(1,1)"><g><path fill="none" stroke="none"/><text fill="#000000" stroke="none" font-family="Arial" font-size="13px" font-style="normal" font-weight="bold" text-decoration="none" x="219.57177734375" y="368">loop</text></g></g><g transform="translate(-46,-6) scale(1,1)"><path fill="none" stroke="#000000" d="M 648 240 L 943 240 L 943 328 L 648 328 L 648 240" stroke-miterlimit="10"/></g><g transform="translate(-46,-6) scale(1,1)"><path fill="#ffffff" stroke="none" d="M 648 240 L 648 262 L 790.84521484375 262 L 801.84521484375 251 L 801.84521484375 240 L 648 240"/></g><g transform="translate(-46,-6) scale(1,1)"><path fill="none" stroke="#000000" d="M 648 240 L 648 262 L 790.84521484375 262 L 801.84521484375 251 L 801.84521484375 240 L 648 240 L 648 240" stroke-miterlimit="10"/></g><g transform="translate(-46,-6) scale(1,1)"><g><path fill="none" stroke="none"/><text fill="#000000" stroke="none" font-family="Arial" font-size="13px" font-style="normal" font-weight="normal" text-decoration="none" x="683.578125" y="256">[0 &lt;= i &lt; w.length]</text></g></g><g transform="translate(-46,-6) scale(1,1)"><g><path fill="none" stroke="none"/><text fill="#000000" stroke="none" font-family="Arial" font-size="13px" font-style="normal" font-weight="bold" text-decoration="none" x="651.57177734375" y="256">loop</text></g></g><g transform="translate(-46,-6) scale(1,1)"><path fill="none" stroke="#000000" d="M 56 16 L 968 16 L 968 679 L 56 679 L 56 16" stroke-miterlimit="10"/></g><g transform="translate(-46,-6) scale(1,1)"><path fill="#ffffff" stroke="none" d="M 56 16 L 56 38 L 127.64990234375 38 L 138.64990234375 27 L 138.64990234375 16 L 56 16"/></g><g transform="translate(-46,-6) scale(1,1)"><path fill="none" stroke="#000000" d="M 56 16 L 56 38 L 127.64990234375 38 L 138.64990234375 27 L 138.64990234375 16 L 56 16 L 56 16" stroke-miterlimit="10"/></g><g transform="translate(-46,-6) scale(1,1)"><g><path fill="none" stroke="none"/><text fill="#000000" stroke="none" font-family="Arial" font-size="13px" font-style="normal" font-weight="normal" text-decoration="none" x="87.9599609375" y="30.5">guess</text></g></g><g transform="translate(-46,-6) scale(1,1)"><g><path fill="none" stroke="none"/><text fill="#000000" stroke="none" font-family="Arial" font-size="13px" font-style="normal" font-weight="bold" text-decoration="none" x="60.279541015625" y="30.5">seq</text></g></g></g></svg>