<?xml version="1.0" encoding="utf-8"?>
<!-- Generator: Adobe Illustrator 24.0.0, SVG Export Plug-In . SVG Version: 6.00 Build 0)  -->
<svg version="1.1" id="Livello_1" xmlns="http://www.w3.org/2000/svg" xmlns:xlink="http://www.w3.org/1999/xlink" x="0px" y="0px"
	 viewBox="0 0 1012 748" style="enable-background:new 0 0 1012 748;" xml:space="preserve">
<style type="text/css">
	.st0{opacity:0.2;fill:#C0C0C0;enable-background:new    ;}
	.st1{fill:#FFFFFF;}
	.st2{fill:none;stroke:#000000;stroke-miterlimit:10;}
	.st3{font-family:'Arial-BoldMT';}
	.st4{font-size:13px;}
	.st5{fill:none;stroke:#000000;stroke-miterlimit:10;stroke-dasharray:3;}
	.st6{font-family:'ArialMT';}
</style>
<g>
	<g transform="translate(-102,10) scale(1,1)">
		<rect x="263" y="47" class="st0" width="87.7" height="39"/>
	</g>
	<g transform="translate(-102,10) scale(1,1)">
		<rect x="256" y="40" class="st1" width="87.7" height="39"/>
	</g>
	<g transform="translate(-102,10) scale(1,1)">
		<path class="st2" d="M256,40h87.7v39H256V40z"/>
	</g>
	<g transform="translate(-102,10) scale(1,1)">
		<g>
			<path class="st2" d="M0,0"/>
			<text transform="matrix(1 0 0 1 287.1995 58)" class="st3 st4">App</text>
		</g>
	</g>
	<g transform="translate(-102,10) scale(1,1)">
		<path class="st5" d="M300.5,80v632"/>
	</g>
	<g transform="translate(-102,10) scale(1,1)">
		<path class="st1" d="M165,47.3c0-3.5,2.9-6.3,6.4-6.3s6.4,2.8,6.4,6.3c0,3.5-2.9,6.3-6.4,6.3S165,50.8,165,47.3z"/>
	</g>
	<g transform="translate(-102,10) scale(1,1)">
		<path class="st2" d="M165,47.3c0-3.5,2.9-6.3,6.4-6.3s6.4,2.8,6.4,6.3c0,3.5-2.9,6.3-6.4,6.3S165,50.8,165,47.3z"/>
	</g>
	<g transform="translate(-102,10) scale(1,1)">
		<path class="st2" d="M171.4,53.6v12.8"/>
	</g>
	<g transform="translate(-102,10) scale(1,1)">
		<path class="st2" d="M164.6,58.4h13.6"/>
	</g>
	<g transform="translate(-102,10) scale(1,1)">
		<path class="st2" d="M171.4,66.4L161.9,79"/>
	</g>
	<g transform="translate(-102,10) scale(1,1)">
		<path class="st2" d="M171.4,66.4l9.5,12.6"/>
	</g>
	<g transform="translate(-102,10) scale(1,1)">
		<g>
			<path class="st2" d="M0,0"/>
			<text transform="matrix(1 0 0 1 141.0591 98)" class="st3 st4">Giocatore</text>
		</g>
	</g>
	<g transform="translate(-102,10) scale(1,1)">
		<path class="st5" d="M172.5,105v607"/>
	</g>
	<g transform="translate(-102,10) scale(1,1)">
		<rect x="935" y="47" class="st0" width="168.3" height="39"/>
	</g>
	<g transform="translate(-102,10) scale(1,1)">
		<rect x="928" y="40" class="st1" width="168.3" height="39"/>
	</g>
	<g transform="translate(-102,10) scale(1,1)">
		<path class="st2" d="M928,40h168.3v39H928V40z"/>
	</g>
	<g transform="translate(-102,10) scale(1,1)">
		<g>
			<path class="st2" d="M0,0"/>
			<text transform="matrix(1 0 0 1 937.5 58)" class="st3 st4">:WordlePlayerController</text>
		</g>
	</g>
	<g transform="translate(-102,10) scale(1,1)">
		<path class="st5" d="M1013.5,80v632"/>
	</g>
	<g transform="translate(-102,10) scale(1,1)">
		<rect x="727" y="47" class="st0" width="158.9" height="39"/>
	</g>
	<g transform="translate(-102,10) scale(1,1)">
		<rect x="720" y="40" class="st1" width="158.9" height="39"/>
	</g>
	<g transform="translate(-102,10) scale(1,1)">
		<path class="st2" d="M720,40h158.9v39H720V40z"/>
	</g>
	<g transform="translate(-102,10) scale(1,1)">
		<g>
			<path class="st2" d="M0,0"/>
			<text transform="matrix(1 0 0 1 754.4209 58)" class="st3 st4">:WordlePrinter</text>
		</g>
	</g>
	<g transform="translate(-102,10) scale(1,1)">
		<path class="st5" d="M800.5,80v632"/>
	</g>
	<g transform="translate(-102,10) scale(1,1)">
		<rect x="567" y="47" class="st0" width="87.7" height="39"/>
	</g>
	<g transform="translate(-102,10) scale(1,1)">
		<rect x="560" y="40" class="st1" width="87.7" height="39"/>
	</g>
	<g transform="translate(-102,10) scale(1,1)">
		<path class="st2" d="M560,40h87.7v39H560V40z"/>
	</g>
	<g transform="translate(-102,10) scale(1,1)">
		<g>
			<path class="st2" d="M0,0"/>
			<text transform="matrix(1 0 0 1 579.6245 58)" class="st3 st4">: Parser</text>
		</g>
	</g>
	<g transform="translate(-102,10) scale(1,1)">
		<path class="st5" d="M604.5,80v632"/>
	</g>
	<g transform="translate(-102,10) scale(1,1)">
		<path class="st1" d="M912,272h77l10,10v52h-87V272"/>
	</g>
	<g transform="translate(-102,10) scale(1,1)">
		<path class="st2" d="M912,272h77l10,10v52h-87V272L912,272"/>
	</g>
	<g transform="translate(-102,10) scale(1,1)">
		<path class="st2" d="M989,272v10h10L989,272"/>
	</g>
	<g transform="translate(-102,10) scale(1,1)">
		<g>
			<path class="st2" d="M0,0"/>
			<text transform="matrix(1 0 0 1 917 287)" class="st6 st4">consultare il</text>
			<text transform="matrix(1 0 0 1 917 300)" class="st6 st4">diagramma</text>
			<text transform="matrix(1 0 0 1 917 313)" class="st6 st4">&quot;guess&quot;</text>
		</g>
	</g>
	<g transform="translate(-102,10) scale(1,1)">
		<path class="st1" d="M816,368h77.2l10,10v52H816V368"/>
	</g>
	<g transform="translate(-102,10) scale(1,1)">
		<path class="st2" d="M816,368h77.2l10,10v52H816V368L816,368"/>
	</g>
	<g transform="translate(-102,10) scale(1,1)">
		<path class="st2" d="M893.2,368v10h10L893.2,368"/>
	</g>
	<g transform="translate(-102,10) scale(1,1)">
		<g>
			<path class="st2" d="M0,0"/>
			<text transform="matrix(1 0 0 1 821 383)" class="st6 st4">consultare il</text>
			<text transform="matrix(1 0 0 1 821 396)" class="st6 st4">diagramma</text>
			<text transform="matrix(1 0 0 1 821 409)" class="st6 st4">&quot;printBoard&quot;</text>
		</g>
	</g>
	<g transform="translate(-102,10) scale(1,1)">
		<rect x="679" y="179" class="st0" width="117" height="39"/>
	</g>
	<g transform="translate(-102,10) scale(1,1)">
		<rect x="672" y="172" class="st1" width="117" height="39"/>
	</g>
	<g transform="translate(-102,10) scale(1,1)">
		<path class="st2" d="M672,172h117v39H672V172z"/>
	</g>
	<g transform="translate(-102,10) scale(1,1)">
		<g>
			<path class="st2" d="M0,0"/>
			<text transform="matrix(1 0 0 1 681.5 190)" class="st3 st4">pt :ParserToken</text>
		</g>
	</g>
	<g transform="translate(-102,10) scale(1,1)">
		<path class="st5" d="M731.5,212v500"/>
	</g>
	<g transform="translate(-102,10) scale(1,1)">
		<rect x="375" y="47" class="st0" width="111.4" height="39"/>
	</g>
	<g transform="translate(-102,10) scale(1,1)">
		<rect x="368" y="40" class="st1" width="111.4" height="39"/>
	</g>
	<g transform="translate(-102,10) scale(1,1)">
		<path class="st2" d="M368,40h111.4v39H368V40z"/>
	</g>
	<g transform="translate(-102,10) scale(1,1)">
		<g>
			<path class="st2" d="M0,0"/>
			<text transform="matrix(1 0 0 1 377.5 58)" class="st3 st4">App.Command</text>
		</g>
	</g>
	<g transform="translate(-102,10) scale(1,1)">
		<path class="st5" d="M424.5,80v632"/>
	</g>
	<g transform="translate(-102,10) scale(1,1)">
		<path class="st2" d="M172,105h121"/>
	</g>
	<g transform="translate(-102,10) scale(1,1)">
		<path d="M282.8,109.2L293,105l-10.2-4.2"/>
	</g>
	<g transform="translate(-102,10) scale(1,1)">
		<path class="st2" d="M282.8,109.2L293,105l-10.2-4.2V109.2"/>
	</g>
	<g transform="translate(-102,10) scale(1,1)">
		<g>
			<path class="st2" d="M0,0"/>
			<text transform="matrix(1 0 0 1 206.9895 100)" class="st6 st4">1 : &lt;parola&gt;</text>
		</g>
	</g>
	<g transform="translate(-102,10) scale(1,1)">
		<rect x="293" y="105" class="st1" width="13" height="583"/>
	</g>
	<g transform="translate(-102,10) scale(1,1)">
		<path class="st2" d="M293,105h13v583h-13V105z"/>
	</g>
	<g transform="translate(-102,10) scale(1,1)">
		<path class="st2" d="M306,136h291"/>
	</g>
	<g transform="translate(-102,10) scale(1,1)">
		<path d="M586.8,140.2L597,136l-10.2-4.2"/>
	</g>
	<g transform="translate(-102,10) scale(1,1)">
		<path class="st2" d="M586.8,140.2L597,136l-10.2-4.2V140.2"/>
	</g>
	<g transform="translate(-102,10) scale(1,1)">
		<g>
			<path class="st2" d="M0,0"/>
			<text transform="matrix(1 0 0 1 492.1245 131)" class="st6 st4">2 : feed()</text>
		</g>
	</g>
	<g transform="translate(-102,10) scale(1,1)">
		<rect x="597" y="136" class="st1" width="13" height="28"/>
	</g>
	<g transform="translate(-102,10) scale(1,1)">
		<path class="st2" d="M597,136h13v28h-13V136z"/>
	</g>
	<g transform="translate(-102,10) scale(1,1)">
		<path class="st2" d="M306,176h291"/>
	</g>
	<g transform="translate(-102,10) scale(1,1)">
		<path d="M586.8,180.2L597,176l-10.2-4.2"/>
	</g>
	<g transform="translate(-102,10) scale(1,1)">
		<path class="st2" d="M586.8,180.2L597,176l-10.2-4.2V180.2"/>
	</g>
	<g transform="translate(-102,10) scale(1,1)">
		<g>
			<path class="st2" d="M0,0"/>
			<text transform="matrix(1 0 0 1 450.5 171)" class="st6 st4">3 : pt = getParserToken</text>
		</g>
	</g>
	<g transform="translate(-102,10) scale(1,1)">
		<rect x="597" y="176" class="st1" width="13" height="28"/>
	</g>
	<g transform="translate(-102,10) scale(1,1)">
		<path class="st2" d="M597,176h13v28h-13V176z"/>
	</g>
	<g transform="translate(-102,10) scale(1,1)">
		<path class="st5" d="M610,192h62"/>
	</g>
	<g transform="translate(-102,10) scale(1,1)">
		<path class="st2" d="M661.8,196.2L672,192l-10.2-4.2"/>
	</g>
	<g transform="translate(-102,10) scale(1,1)">
		<g>
			<path class="st2" d="M0,0"/>
			<text transform="matrix(1 0 0 1 631.5 187)" class="st6 st4">4 :</text>
		</g>
	</g>
	<g transform="translate(-102,10) scale(1,1)">
		<g>
			<path d="M0,0"/>
			<text transform="matrix(1 0 0 1 615.5 171.5)" class="st6 st4">«create»</text>
		</g>
	</g>
	<g transform="translate(-102,10) scale(1,1)">
		<path class="st2" d="M306,242h418"/>
	</g>
	<g transform="translate(-102,10) scale(1,1)">
		<path d="M713.8,246.2L724,242l-10.2-4.2"/>
	</g>
	<g transform="translate(-102,10) scale(1,1)">
		<path class="st2" d="M713.8,246.2L724,242l-10.2-4.2V246.2"/>
	</g>
	<g transform="translate(-102,10) scale(1,1)">
		<g>
			<path class="st2" d="M0,0"/>
			<text transform="matrix(1 0 0 1 466.5 235)" class="st6 st4">5 : c = getCommand()</text>
		</g>
	</g>
	<g transform="translate(-102,10) scale(1,1)">
		<rect x="724" y="242" class="st1" width="13" height="28"/>
	</g>
	<g transform="translate(-102,10) scale(1,1)">
		<path class="st2" d="M724,242h13v28h-13V242z"/>
	</g>
	<g transform="translate(-102,10) scale(1,1)">
		<path class="st2" d="M306,286h418"/>
	</g>
	<g transform="translate(-102,10) scale(1,1)">
		<path d="M713.8,290.2L724,286l-10.2-4.2"/>
	</g>
	<g transform="translate(-102,10) scale(1,1)">
		<path class="st2" d="M713.8,290.2L724,286l-10.2-4.2V290.2"/>
	</g>
	<g transform="translate(-102,10) scale(1,1)">
		<g>
			<path class="st2" d="M0,0"/>
			<text transform="matrix(1 0 0 1 467.5 283)" class="st6 st4">6 : args = getArgs()</text>
		</g>
	</g>
	<g transform="translate(-102,10) scale(1,1)">
		<rect x="724" y="286" class="st1" width="13" height="28"/>
	</g>
	<g transform="translate(-102,10) scale(1,1)">
		<path class="st2" d="M724,286h13v28h-13V286z"/>
	</g>
	<g transform="translate(-102,10) scale(1,1)">
		<path class="st2" d="M306,328h111"/>
	</g>
	<g transform="translate(-102,10) scale(1,1)">
		<path d="M406.8,332.2L417,328l-10.2-4.2"/>
	</g>
	<g transform="translate(-102,10) scale(1,1)">
		<path class="st2" d="M406.8,332.2L417,328l-10.2-4.2V332.2"/>
	</g>
	<g transform="translate(-102,10) scale(1,1)">
		<g>
			<path class="st2" d="M0,0"/>
			<text transform="matrix(1 0 0 1 312.5 323)" class="st6 st4">7 : execute(args)</text>
		</g>
	</g>
	<g transform="translate(-102,10) scale(1,1)">
		<rect x="417" y="328" class="st1" width="13" height="336"/>
	</g>
	<g transform="translate(-102,10) scale(1,1)">
		<path class="st2" d="M417,328h13v336h-13V328z"/>
	</g>
	<g transform="translate(-102,10) scale(1,1)">
		<path class="st2" d="M430,344h576"/>
	</g>
	<g transform="translate(-102,10) scale(1,1)">
		<path d="M995.8,348.2l10.2-4.2l-10.2-4.2"/>
	</g>
	<g transform="translate(-102,10) scale(1,1)">
		<path class="st2" d="M995.8,348.2l10.2-4.2l-10.2-4.2V348.2"/>
	</g>
	<g transform="translate(-102,10) scale(1,1)">
		<g>
			<path class="st2" d="M0,0"/>
			<text transform="matrix(1 0 0 1 437.7651 336)" class="st6 st4">8 : guess(args[0])</text>
		</g>
	</g>
	<g transform="translate(-102,10) scale(1,1)">
		<rect x="1006" y="344" class="st1" width="13" height="28"/>
	</g>
	<g transform="translate(-102,10) scale(1,1)">
		<path class="st2" d="M1006,344h13v28h-13V344z"/>
	</g>
	<g transform="translate(-102,10) scale(1,1)">
		<path class="st2" d="M430,392h363"/>
	</g>
	<g transform="translate(-102,10) scale(1,1)">
		<path d="M782.8,396.2L793,392l-10.2-4.2"/>
	</g>
	<g transform="translate(-102,10) scale(1,1)">
		<path class="st2" d="M782.8,396.2L793,392l-10.2-4.2V396.2"/>
	</g>
	<g transform="translate(-102,10) scale(1,1)">
		<g>
			<path class="st2" d="M0,0"/>
			<text transform="matrix(1 0 0 1 464.7803 384)" class="st6 st4">9 : printBoard()</text>
		</g>
	</g>
	<g transform="translate(-102,10) scale(1,1)">
		<rect x="793" y="392" class="st1" width="13" height="28"/>
	</g>
	<g transform="translate(-102,10) scale(1,1)">
		<path class="st2" d="M793,392h13v28h-13V392z"/>
	</g>
	<g transform="translate(-102,10) scale(1,1)">
		<path class="st2" d="M430,456h363"/>
	</g>
	<g transform="translate(-102,10) scale(1,1)">
		<path d="M782.8,460.2L793,456l-10.2-4.2"/>
	</g>
	<g transform="translate(-102,10) scale(1,1)">
		<path class="st2" d="M782.8,460.2L793,456l-10.2-4.2V460.2"/>
	</g>
	<g transform="translate(-102,10) scale(1,1)">
		<g>
			<path class="st2" d="M0,0"/>
			<text transform="matrix(1 0 0 1 450.5 450)" class="st6 st4">10 : printGuessResult()</text>
		</g>
	</g>
	<g transform="translate(-102,10) scale(1,1)">
		<rect x="793" y="456" class="st1" width="13" height="88"/>
	</g>
	<g transform="translate(-102,10) scale(1,1)">
		<path class="st2" d="M793,456h13v88h-13V456z"/>
	</g>
	<g transform="translate(-102,10) scale(1,1)">
		<path class="st2" d="M806,464h200"/>
	</g>
	<g transform="translate(-102,10) scale(1,1)">
		<path d="M995.8,468.2l10.2-4.2l-10.2-4.2"/>
	</g>
	<g transform="translate(-102,10) scale(1,1)">
		<path class="st2" d="M995.8,468.2l10.2-4.2l-10.2-4.2V468.2"/>
	</g>
	<g transform="translate(-102,10) scale(1,1)">
		<g>
			<path class="st2" d="M0,0"/>
			<text transform="matrix(1 0 0 1 842.9824 459)" class="st6 st4">11 : getGuessResult()</text>
		</g>
	</g>
	<g transform="translate(-102,10) scale(1,1)">
		<rect x="1006" y="464" class="st1" width="13" height="28"/>
	</g>
	<g transform="translate(-102,10) scale(1,1)">
		<path class="st2" d="M1006,464h13v28h-13V464z"/>
	</g>
	<g transform="translate(-102,10) scale(1,1)">
		<path class="st2" d="M806,504h200"/>
	</g>
	<g transform="translate(-102,10) scale(1,1)">
		<path d="M995.8,508.2l10.2-4.2l-10.2-4.2"/>
	</g>
	<g transform="translate(-102,10) scale(1,1)">
		<path class="st2" d="M995.8,508.2l10.2-4.2l-10.2-4.2V508.2"/>
	</g>
	<g transform="translate(-102,10) scale(1,1)">
		<g>
			<path class="st2" d="M0,0"/>
			<text transform="matrix(1 0 0 1 809.5 499)" class="st6 st4">12 : getNumRemainingGuesses()</text>
		</g>
	</g>
	<g transform="translate(-102,10) scale(1,1)">
		<rect x="1006" y="504" class="st1" width="13" height="28"/>
	</g>
	<g transform="translate(-102,10) scale(1,1)">
		<path class="st2" d="M1006,504h13v28h-13V504z"/>
	</g>
	<g transform="translate(-102,10) scale(1,1)">
		<path class="st2" d="M430,584h576"/>
	</g>
	<g transform="translate(-102,10) scale(1,1)">
		<path d="M995.8,588.2l10.2-4.2l-10.2-4.2"/>
	</g>
	<g transform="translate(-102,10) scale(1,1)">
		<path class="st2" d="M995.8,588.2l10.2-4.2l-10.2-4.2V588.2"/>
	</g>
	<g transform="translate(-102,10) scale(1,1)">
		<g>
			<path class="st2" d="M0,0"/>
			<text transform="matrix(1 0 0 1 827.5 579)" class="st6 st4">13 : endGame()</text>
		</g>
	</g>
	<g transform="translate(-102,10) scale(1,1)">
		<rect x="1006" y="584" class="st1" width="13" height="47"/>
	</g>
	<g transform="translate(-102,10) scale(1,1)">
		<path class="st2" d="M1006,584h13v47h-13V584z"/>
	</g>
	<g transform="translate(-102,10) scale(1,1)">
		<path class="st2" d="M392,552h640v104H392V552"/>
	</g>
	<g transform="translate(-102,10) scale(1,1)">
		<path class="st1" d="M392,552v22h257.4l11-11v-11H392"/>
	</g>
	<g transform="translate(-102,10) scale(1,1)">
		<path class="st2" d="M392,552v22h257.4l11-11v-11H392L392,552"/>
	</g>
	<g transform="translate(-102,10) scale(1,1)">
		<g>
			<path class="st2" d="M0,0"/>
			<text transform="matrix(1 0 0 1 421.0718 568)" class="st6 st4">[tentativi esauriti OR parola indovinata]</text>
		</g>
	</g>
	<g transform="translate(-102,10) scale(1,1)">
		<g>
			<path d="M0,0"/>
			<text transform="matrix(1 0 0 1 395.9304 567.5)" class="st3 st4">opt</text>
		</g>
	</g>
	<g transform="translate(-102,10) scale(1,1)">
		<path class="st2" d="M120,0h984v728H120V0"/>
	</g>
	<g transform="translate(-102,10) scale(1,1)">
		<path class="st1" d="M120,0v22h175.7l11-11V0H120"/>
	</g>
	<g transform="translate(-102,10) scale(1,1)">
		<path class="st2" d="M120,0v22h175.7l11-11V0H120L120,0"/>
	</g>
	<g transform="translate(-102,10) scale(1,1)">
		<g>
			<path class="st2" d="M0,0"/>
			<text transform="matrix(1 0 0 1 151.96 16)" class="st6 st4">Tentativo parola segreta</text>
		</g>
	</g>
	<g transform="translate(-102,10) scale(1,1)">
		<g>
			<path d="M0,0"/>
			<text transform="matrix(1 0 0 1 124.2795 14.5)" class="st3 st4">seq</text>
		</g>
	</g>
</g>
</svg>
