<?xml version="1.0" encoding="utf-8"?>
<!-- Generator: Adobe Illustrator 24.0.0, SVG Export Plug-In . SVG Version: 6.00 Build 0)  -->
<svg version="1.1" id="Livello_1" xmlns="http://www.w3.org/2000/svg" xmlns:xlink="http://www.w3.org/1999/xlink" x="0px" y="0px"
	 viewBox="0 0 716 796" style="enable-background:new 0 0 716 796;" xml:space="preserve">
<style type="text/css">
	.st0{opacity:0.2;fill:#C0C0C0;enable-background:new    ;}
	.st1{fill:#FFFFFF;}
	.st2{fill:none;stroke:#000000;stroke-miterlimit:10;}
	.st3{font-family:'Arial-BoldMT';}
	.st4{font-size:13px;}
	.st5{fill:none;stroke:#000000;stroke-miterlimit:10;stroke-dasharray:3;}
	.st6{font-family:'ArialMT';}
</style>
<g>
	<g transform="translate(-478,-14) scale(1,1)">
		<rect x="903" y="47" class="st0" width="168.3" height="39"/>
	</g>
	<g transform="translate(-478,-14) scale(1,1)">
		<rect x="896" y="40" class="st1" width="168.3" height="39"/>
	</g>
	<g transform="translate(-478,-14) scale(1,1)">
		<path class="st2" d="M896,40h168.3v39H896V40z"/>
	</g>
	<g transform="translate(-478,-14) scale(1,1)">
		<g>
			<path class="st2" d="M0,0"/>
			<text transform="matrix(1 0 0 1 905.5 58)" class="st3 st4">:WordlePlayerController</text>
		</g>
	</g>
	<g transform="translate(-478,-14) scale(1,1)">
		<path class="st5" d="M981.5,80v704"/>
	</g>
	<g transform="translate(-478,-14) scale(1,1)">
		<rect x="639" y="47" class="st0" width="158.9" height="39"/>
	</g>
	<g transform="translate(-478,-14) scale(1,1)">
		<rect x="632" y="40" class="st1" width="158.9" height="39"/>
	</g>
	<g transform="translate(-478,-14) scale(1,1)">
		<path class="st2" d="M632,40h158.9v39H632V40z"/>
	</g>
	<g transform="translate(-478,-14) scale(1,1)">
		<g>
			<path class="st2" d="M0,0"/>
			<text transform="matrix(1 0 0 1 666.4209 58)" class="st3 st4">:WordlePrinter</text>
		</g>
	</g>
	<g transform="translate(-478,-14) scale(1,1)">
		<path class="st5" d="M712.5,80v704"/>
	</g>
	<g transform="translate(-478,-14) scale(1,1)">
		<path class="st1" d="M1000,152h157l10,10v69h-167V152"/>
	</g>
	<g transform="translate(-478,-14) scale(1,1)">
		<path class="st2" d="M1000,152h157l10,10v69h-167V152L1000,152"/>
	</g>
	<g transform="translate(-478,-14) scale(1,1)">
		<path class="st2" d="M1157,152v10h10L1157,152"/>
	</g>
	<g transform="translate(-478,-14) scale(1,1)">
		<g>
			<path class="st2" d="M0,0"/>
			<text transform="matrix(1 0 0 1 1005 167)" class="st6 st4">si recuperano dalla classe</text>
			<text transform="matrix(1 0 0 1 1005 180)" class="st6 st4">di controllo tutte le</text>
			<text transform="matrix(1 0 0 1 1005 193)" class="st6 st4">informazioni per poter</text>
			<text transform="matrix(1 0 0 1 1005 206)" class="st6 st4">stampare la matrice dei</text>
			<text transform="matrix(1 0 0 1 1005 219)" class="st6 st4">tentativi</text>
		</g>
	</g>
	<g transform="translate(-478,-14) scale(1,1)">
		<path d="M504,103.5c0-3.9,3.1-7,7-7c3.9,0,7,3.1,7,7s-3.1,7-7,7C507.1,110.5,504,107.4,504,103.5z"/>
	</g>
	<g transform="translate(-478,-14) scale(1,1)">
		<path class="st2" d="M518,104h187"/>
	</g>
	<g transform="translate(-478,-14) scale(1,1)">
		<path d="M694.8,108.2L705,104l-10.2-4.2"/>
	</g>
	<g transform="translate(-478,-14) scale(1,1)">
		<path class="st2" d="M694.8,108.2L705,104l-10.2-4.2V108.2"/>
	</g>
	<g transform="translate(-478,-14) scale(1,1)">
		<g>
			<path class="st2" d="M0,0"/>
			<text transform="matrix(1 0 0 1 567.5 99)" class="st6 st4">1 : printBoard()</text>
		</g>
	</g>
	<g transform="translate(-478,-14) scale(1,1)">
		<rect x="705" y="104" class="st1" width="13" height="656"/>
	</g>
	<g transform="translate(-478,-14) scale(1,1)">
		<path class="st2" d="M705,104h13v656h-13V104z"/>
	</g>
	<g transform="translate(-478,-14) scale(1,1)">
		<path class="st2" d="M718,128h256"/>
	</g>
	<g transform="translate(-478,-14) scale(1,1)">
		<path d="M963.8,132.2L974,128l-10.2-4.2"/>
	</g>
	<g transform="translate(-478,-14) scale(1,1)">
		<path class="st2" d="M963.8,132.2L974,128l-10.2-4.2V132.2"/>
	</g>
	<g transform="translate(-478,-14) scale(1,1)">
		<g>
			<path class="st2" d="M0,0"/>
			<text transform="matrix(1 0 0 1 758.5 123)" class="st6 st4">2 : nRows = getMaxGuesses()</text>
		</g>
	</g>
	<g transform="translate(-478,-14) scale(1,1)">
		<rect x="974" y="128" class="st1" width="13" height="28"/>
	</g>
	<g transform="translate(-478,-14) scale(1,1)">
		<path class="st2" d="M974,128h13v28h-13V128z"/>
	</g>
	<g transform="translate(-478,-14) scale(1,1)">
		<path class="st2" d="M718,168h256"/>
	</g>
	<g transform="translate(-478,-14) scale(1,1)">
		<path d="M963.8,172.2L974,168l-10.2-4.2"/>
	</g>
	<g transform="translate(-478,-14) scale(1,1)">
		<path class="st2" d="M963.8,172.2L974,168l-10.2-4.2V172.2"/>
	</g>
	<g transform="translate(-478,-14) scale(1,1)">
		<g>
			<path class="st2" d="M0,0"/>
			<text transform="matrix(1 0 0 1 750.5 162)" class="st6 st4">3 : nColumns = getWordLength()</text>
		</g>
	</g>
	<g transform="translate(-478,-14) scale(1,1)">
		<rect x="974" y="168" class="st1" width="13" height="28"/>
	</g>
	<g transform="translate(-478,-14) scale(1,1)">
		<path class="st2" d="M974,168h13v28h-13V168z"/>
	</g>
	<g transform="translate(-478,-14) scale(1,1)">
		<path class="st2" d="M718,224h30v20h-23"/>
	</g>
	<g transform="translate(-478,-14) scale(1,1)">
		<path d="M735.2,239.8L725,244l10.2,4.2"/>
	</g>
	<g transform="translate(-478,-14) scale(1,1)">
		<path class="st2" d="M735.2,239.8L725,244l10.2,4.2V239.8"/>
	</g>
	<g transform="translate(-478,-14) scale(1,1)">
		<g>
			<path class="st2" d="M0,0"/>
			<text transform="matrix(1 0 0 1 761.8291 235)" class="st6 st4">4 : upperPart(nColumns)</text>
		</g>
	</g>
	<g transform="translate(-478,-14) scale(1,1)">
		<rect x="712" y="244" class="st1" width="13" height="28"/>
	</g>
	<g transform="translate(-478,-14) scale(1,1)">
		<path class="st2" d="M712,244h13v28h-13V244z"/>
	</g>
	<g transform="translate(-478,-14) scale(1,1)">
		<path class="st2" d="M718,328h30v20h-23"/>
	</g>
	<g transform="translate(-478,-14) scale(1,1)">
		<path d="M735.2,343.8L725,348l10.2,4.2"/>
	</g>
	<g transform="translate(-478,-14) scale(1,1)">
		<path class="st2" d="M735.2,343.8L725,348l10.2,4.2V343.8"/>
	</g>
	<g transform="translate(-478,-14) scale(1,1)">
		<g>
			<path class="st2" d="M0,0"/>
			<text transform="matrix(1 0 0 1 747.1414 323)" class="st6 st4">5 : guessSlice(i)</text>
		</g>
	</g>
	<g transform="translate(-478,-14) scale(1,1)">
		<rect x="712" y="348" class="st1" width="13" height="180"/>
	</g>
	<g transform="translate(-478,-14) scale(1,1)">
		<path class="st2" d="M712,348h13v180h-13V348z"/>
	</g>
	<g transform="translate(-478,-14) scale(1,1)">
		<path class="st2" d="M725,416h249"/>
	</g>
	<g transform="translate(-478,-14) scale(1,1)">
		<path d="M963.8,420.2L974,416l-10.2-4.2"/>
	</g>
	<g transform="translate(-478,-14) scale(1,1)">
		<path class="st2" d="M963.8,420.2L974,416l-10.2-4.2V420.2"/>
	</g>
	<g transform="translate(-478,-14) scale(1,1)">
		<g>
			<path class="st2" d="M0,0"/>
			<text transform="matrix(1 0 0 1 790.813 410)" class="st6 st4">6 : getLetter(i, j)</text>
		</g>
	</g>
	<g transform="translate(-478,-14) scale(1,1)">
		<rect x="974" y="416" class="st1" width="13" height="28"/>
	</g>
	<g transform="translate(-478,-14) scale(1,1)">
		<path class="st2" d="M974,416h13v28h-13V416z"/>
	</g>
	<g transform="translate(-478,-14) scale(1,1)">
		<path class="st2" d="M725,456h249"/>
	</g>
	<g transform="translate(-478,-14) scale(1,1)">
		<path d="M963.8,460.2L974,456l-10.2-4.2"/>
	</g>
	<g transform="translate(-478,-14) scale(1,1)">
		<path class="st2" d="M963.8,460.2L974,456l-10.2-4.2V460.2"/>
	</g>
	<g transform="translate(-478,-14) scale(1,1)">
		<g>
			<path class="st2" d="M0,0"/>
			<text transform="matrix(1 0 0 1 790.2954 450)" class="st6 st4">7 : getColor(i, j)</text>
		</g>
	</g>
	<g transform="translate(-478,-14) scale(1,1)">
		<rect x="974" y="456" class="st1" width="13" height="28"/>
	</g>
	<g transform="translate(-478,-14) scale(1,1)">
		<path class="st2" d="M974,456h13v28h-13V456z"/>
	</g>
	<g transform="translate(-478,-14) scale(1,1)">
		<path class="st2" d="M718,536h30v20h-23"/>
	</g>
	<g transform="translate(-478,-14) scale(1,1)">
		<path d="M735.2,551.8L725,556l10.2,4.2"/>
	</g>
	<g transform="translate(-478,-14) scale(1,1)">
		<path class="st2" d="M735.2,551.8L725,556l10.2,4.2V551.8"/>
	</g>
	<g transform="translate(-478,-14) scale(1,1)">
		<g>
			<path class="st2" d="M0,0"/>
			<text transform="matrix(1 0 0 1 762.8291 547)" class="st6 st4">8 : separatorSlice(nColumns)</text>
		</g>
	</g>
	<g transform="translate(-478,-14) scale(1,1)">
		<rect x="712" y="556" class="st1" width="13" height="28"/>
	</g>
	<g transform="translate(-478,-14) scale(1,1)">
		<path class="st2" d="M712,556h13v28h-13V556z"/>
	</g>
	<g transform="translate(-478,-14) scale(1,1)">
		<path class="st2" d="M718,616h30v20h-23"/>
	</g>
	<g transform="translate(-478,-14) scale(1,1)">
		<path d="M735.2,631.8L725,636l10.2,4.2"/>
	</g>
	<g transform="translate(-478,-14) scale(1,1)">
		<path class="st2" d="M735.2,631.8L725,636l10.2,4.2V631.8"/>
	</g>
	<g transform="translate(-478,-14) scale(1,1)">
		<g>
			<path class="st2" d="M0,0"/>
			<text transform="matrix(1 0 0 1 756.5 635)" class="st6 st4">9 : guessSlice(nRows -1)</text>
		</g>
	</g>
	<g transform="translate(-478,-14) scale(1,1)">
		<rect x="712" y="636" class="st1" width="13" height="28"/>
	</g>
	<g transform="translate(-478,-14) scale(1,1)">
		<path class="st2" d="M712,636h13v28h-13V636z"/>
	</g>
	<g transform="translate(-478,-14) scale(1,1)">
		<path class="st2" d="M718,672h30v20h-23"/>
	</g>
	<g transform="translate(-478,-14) scale(1,1)">
		<path d="M735.2,687.8L725,692l10.2,4.2"/>
	</g>
	<g transform="translate(-478,-14) scale(1,1)">
		<path class="st2" d="M735.2,687.8L725,692l10.2,4.2V687.8"/>
	</g>
	<g transform="translate(-478,-14) scale(1,1)">
		<g>
			<path class="st2" d="M0,0"/>
			<text transform="matrix(1 0 0 1 760.8291 691)" class="st6 st4">10 : lowerPart(nColumns)</text>
		</g>
	</g>
	<g transform="translate(-478,-14) scale(1,1)">
		<rect x="712" y="692" class="st1" width="13" height="28"/>
	</g>
	<g transform="translate(-478,-14) scale(1,1)">
		<path class="st2" d="M712,692h13v28h-13V692z"/>
	</g>
	<g transform="translate(-478,-14) scale(1,1)">
		<path class="st2" d="M624,280h392v320H624V280"/>
	</g>
	<g transform="translate(-478,-14) scale(1,1)">
		<path class="st1" d="M624,280v22h134.9l11-11v-11H624"/>
	</g>
	<g transform="translate(-478,-14) scale(1,1)">
		<path class="st2" d="M624,280v22h134.9l11-11v-11H624L624,280"/>
	</g>
	<g transform="translate(-478,-14) scale(1,1)">
		<g>
			<path class="st2" d="M0,0"/>
			<text transform="matrix(1 0 0 1 659.5781 296)" class="st6 st4">[0 &lt;= i &lt; nRows]</text>
		</g>
	</g>
	<g transform="translate(-478,-14) scale(1,1)">
		<g>
			<path d="M0,0"/>
			<text transform="matrix(1 0 0 1 627.5718 296)" class="st3 st4">loop</text>
		</g>
	</g>
	<g transform="translate(-478,-14) scale(1,1)">
		<path class="st2" d="M640,368h360v136H640V368"/>
	</g>
	<g transform="translate(-478,-14) scale(1,1)">
		<path class="st1" d="M640,368v22h153.7l11-11v-11H640"/>
	</g>
	<g transform="translate(-478,-14) scale(1,1)">
		<path class="st2" d="M640,368v22h153.7l11-11v-11H640L640,368"/>
	</g>
	<g transform="translate(-478,-14) scale(1,1)">
		<g>
			<path class="st2" d="M0,0"/>
			<text transform="matrix(1 0 0 1 675.5781 384)" class="st6 st4">[0 &lt;= j &lt; nColumns]</text>
		</g>
	</g>
	<g transform="translate(-478,-14) scale(1,1)">
		<g>
			<path d="M0,0"/>
			<text transform="matrix(1 0 0 1 643.5718 384)" class="st3 st4">loop</text>
		</g>
	</g>
	<g transform="translate(-478,-14) scale(1,1)">
		<path class="st2" d="M488,24h696v776H488V24"/>
	</g>
	<g transform="translate(-478,-14) scale(1,1)">
		<path class="st1" d="M488,24v22h96.9l11-11V24H488"/>
	</g>
	<g transform="translate(-478,-14) scale(1,1)">
		<path class="st2" d="M488,24v22h96.9l11-11V24H488L488,24"/>
	</g>
	<g transform="translate(-478,-14) scale(1,1)">
		<g>
			<path class="st2" d="M0,0"/>
			<text transform="matrix(1 0 0 1 519.96 40)" class="st6 st4">printBoard</text>
		</g>
	</g>
	<g transform="translate(-478,-14) scale(1,1)">
		<g>
			<path d="M0,0"/>
			<text transform="matrix(1 0 0 1 492.2795 38.5)" class="st3 st4">seq</text>
		</g>
	</g>
</g>
</svg>
