<?xml version="1.0" encoding="utf-8"?>
<!-- Generator: Adobe Illustrator 24.0.0, SVG Export Plug-In . SVG Version: 6.00 Build 0)  -->
<svg version="1.1" id="Livello_1" xmlns="http://www.w3.org/2000/svg" xmlns:xlink="http://www.w3.org/1999/xlink" x="0px" y="0px"
	 viewBox="0 0 1108 612" style="enable-background:new 0 0 1108 612;" xml:space="preserve">
<style type="text/css">
	.st0{fill:none;stroke:#000000;stroke-miterlimit:10;}
	.st1{fill:#FFFFFF;}
	.st2{font-family:'ArialMT';}
	.st3{font-size:13px;}
	.st4{font-family:'Arial-BoldMT';}
	.st5{opacity:0.2;fill:#C0C0C0;enable-background:new    ;}
	.st6{fill:none;stroke:#000000;stroke-miterlimit:10;stroke-dasharray:3;}
</style>
<g>
	<g transform="translate(-278,10) scale(1,1)">
		<path class="st0" d="M328,0h1048v592H328V0"/>
	</g>
	<g transform="translate(-278,10) scale(1,1)">
		<path class="st1" d="M328,0v22h138.9l11-11V0H328"/>
	</g>
	<g transform="translate(-278,10) scale(1,1)">
		<path class="st0" d="M328,0v22h138.9l11-11V0H328L328,0"/>
	</g>
	<g transform="translate(-278,10) scale(1,1)">
		<g>
			<path class="st0" d="M0,0"/>
			<text transform="matrix(1 0 0 1 352.73 16)" class="st2 st3">Inizio nuova partita</text>
		</g>
	</g>
	<g transform="translate(-278,10) scale(1,1)">
		<g>
			<path d="M0,0"/>
			<text transform="matrix(1 0 0 1 332.2795 16)" class="st4 st3">sd</text>
		</g>
	</g>
	<g transform="translate(-278,10) scale(1,1)">
		<rect x="423" y="47" class="st5" width="71.7" height="39"/>
	</g>
	<g transform="translate(-278,10) scale(1,1)">
		<rect x="416" y="40" class="st1" width="71.7" height="39"/>
	</g>
	<g transform="translate(-278,10) scale(1,1)">
		<path class="st0" d="M416,40h71.7v39H416V40z"/>
	</g>
	<g transform="translate(-278,10) scale(1,1)">
		<g>
			<path class="st0" d="M0,0"/>
			<text transform="matrix(1 0 0 1 439.2332 58)" class="st4 st3">App</text>
		</g>
	</g>
	<g transform="translate(-278,10) scale(1,1)">
		<path class="st6" d="M452.5,80v496"/>
	</g>
	<g transform="translate(-278,10) scale(1,1)">
		<rect x="679" y="47" class="st5" width="71.7" height="39"/>
	</g>
	<g transform="translate(-278,10) scale(1,1)">
		<rect x="672" y="40" class="st1" width="71.7" height="39"/>
	</g>
	<g transform="translate(-278,10) scale(1,1)">
		<path class="st0" d="M672,40h71.7v39H672V40z"/>
	</g>
	<g transform="translate(-278,10) scale(1,1)">
		<g>
			<path class="st0" d="M0,0"/>
			<text transform="matrix(1 0 0 1 685.4641 58)" class="st4 st3">:Parser</text>
		</g>
	</g>
	<g transform="translate(-278,10) scale(1,1)">
		<path class="st6" d="M708.5,80v496"/>
	</g>
	<g transform="translate(-278,10) scale(1,1)">
		<path class="st1" d="M358.3,47.3c0-3.5,2.9-6.3,6.4-6.3s6.4,2.8,6.4,6.3c0,3.5-2.9,6.3-6.4,6.3S358.3,50.8,358.3,47.3z"/>
	</g>
	<g transform="translate(-278,10) scale(1,1)">
		<path class="st0" d="M358.3,47.3c0-3.5,2.9-6.3,6.4-6.3s6.4,2.8,6.4,6.3c0,3.5-2.9,6.3-6.4,6.3S358.3,50.8,358.3,47.3z"/>
	</g>
	<g transform="translate(-278,10) scale(1,1)">
		<path class="st0" d="M364.7,53.6v12.8"/>
	</g>
	<g transform="translate(-278,10) scale(1,1)">
		<path class="st0" d="M357.9,58.4h13.6"/>
	</g>
	<g transform="translate(-278,10) scale(1,1)">
		<path class="st0" d="M364.7,66.4L355.3,79"/>
	</g>
	<g transform="translate(-278,10) scale(1,1)">
		<path class="st0" d="M364.7,66.4l9.5,12.6"/>
	</g>
	<g transform="translate(-278,10) scale(1,1)">
		<g>
			<path class="st0" d="M0,0"/>
			<text transform="matrix(1 0 0 1 334.3914 98)" class="st4 st3">GIocatore</text>
		</g>
	</g>
	<g transform="translate(-278,10) scale(1,1)">
		<path class="st6" d="M365.5,105v471"/>
	</g>
	<g transform="translate(-278,10) scale(1,1)">
		<rect x="1231" y="379" class="st5" width="71.7" height="39"/>
	</g>
	<g transform="translate(-278,10) scale(1,1)">
		<rect x="1224" y="372" class="st1" width="71.7" height="39"/>
	</g>
	<g transform="translate(-278,10) scale(1,1)">
		<path class="st0" d="M1224,372h71.7v39H1224V372z"/>
	</g>
	<g transform="translate(-278,10) scale(1,1)">
		<g>
			<path class="st0" d="M0,0"/>
			<text transform="matrix(1 0 0 1 1238.9241 390)" class="st4 st3">:Board</text>
		</g>
	</g>
	<g transform="translate(-278,10) scale(1,1)">
		<path class="st6" d="M1260.5,412v164"/>
	</g>
	<g transform="translate(-278,10) scale(1,1)">
		<rect x="975" y="47" class="st5" width="168.3" height="39"/>
	</g>
	<g transform="translate(-278,10) scale(1,1)">
		<rect x="968" y="40" class="st1" width="168.3" height="39"/>
	</g>
	<g transform="translate(-278,10) scale(1,1)">
		<path class="st0" d="M968,40h168.3v39H968V40z"/>
	</g>
	<g transform="translate(-278,10) scale(1,1)">
		<g>
			<path class="st0" d="M0,0"/>
			<text transform="matrix(1 0 0 1 977.5 58)" class="st4 st3">:WordlePlayerController</text>
		</g>
	</g>
	<g transform="translate(-278,10) scale(1,1)">
		<path class="st6" d="M1053.5,80v496"/>
	</g>
	<g transform="translate(-278,10) scale(1,1)">
		<rect x="1119" y="323" class="st5" width="114.8" height="39"/>
	</g>
	<g transform="translate(-278,10) scale(1,1)">
		<rect x="1112" y="316" class="st1" width="114.8" height="39"/>
	</g>
	<g transform="translate(-278,10) scale(1,1)">
		<path class="st0" d="M1112,316h114.8v39H1112V316z"/>
	</g>
	<g transform="translate(-278,10) scale(1,1)">
		<g>
			<path class="st0" d="M0,0"/>
			<text transform="matrix(1 0 0 1 1121.5 334)" class="st4 st3">g :WordleGame</text>
		</g>
	</g>
	<g transform="translate(-278,10) scale(1,1)">
		<path class="st6" d="M1170.5,356v220"/>
	</g>
	<g transform="translate(-278,10) scale(1,1)">
		<rect x="855" y="47" class="st5" width="112.7" height="39"/>
	</g>
	<g transform="translate(-278,10) scale(1,1)">
		<rect x="848" y="40" class="st1" width="112.7" height="39"/>
	</g>
	<g transform="translate(-278,10) scale(1,1)">
		<path class="st0" d="M848,40h112.7v39H848V40z"/>
	</g>
	<g transform="translate(-278,10) scale(1,1)">
		<g>
			<path class="st0" d="M0,0"/>
			<text transform="matrix(1 0 0 1 857.5 58)" class="st4 st3">:WordlePrinter</text>
		</g>
	</g>
	<g transform="translate(-278,10) scale(1,1)">
		<path class="st6" d="M905.5,80v496"/>
	</g>
	<g transform="translate(-278,10) scale(1,1)">
		<path class="st1" d="M920,432h85l10,10v53h-95V432"/>
	</g>
	<g transform="translate(-278,10) scale(1,1)">
		<path class="st0" d="M920,432h85l10,10v53h-95V432L920,432"/>
	</g>
	<g transform="translate(-278,10) scale(1,1)">
		<path class="st0" d="M1005,432v10h10L1005,432"/>
	</g>
	<g transform="translate(-278,10) scale(1,1)">
		<g>
			<path class="st0" d="M0,0"/>
			<text transform="matrix(1 0 0 1 925 447)" class="st2 st3">consultare</text>
			<text transform="matrix(1 0 0 1 925 460)" class="st2 st3">diagramma di</text>
			<text transform="matrix(1 0 0 1 925 470)" class="st2 st3">sequenza</text>
			<text transform="matrix(1 0 0 1 925 486)" class="st2 st3">&quot;printBoard&quot;</text>
		</g>
	</g>
	<g transform="translate(-278,10) scale(1,1)">
		<rect x="543" y="47" class="st5" width="126.6" height="39"/>
	</g>
	<g transform="translate(-278,10) scale(1,1)">
		<rect x="536" y="40" class="st1" width="126.6" height="39"/>
	</g>
	<g transform="translate(-278,10) scale(1,1)">
		<path class="st0" d="M536,40h126.6v39H536V40z"/>
	</g>
	<g transform="translate(-278,10) scale(1,1)">
		<g>
			<path class="st0" d="M0,0"/>
			<text transform="matrix(1 0 0 1 545.5 58)" class="st4 st3">c :App.Command</text>
		</g>
	</g>
	<g transform="translate(-278,10) scale(1,1)">
		<path class="st6" d="M600.5,80v496"/>
	</g>
	<g transform="translate(-278,10) scale(1,1)">
		<rect x="783" y="187" class="st5" width="117" height="39"/>
	</g>
	<g transform="translate(-278,10) scale(1,1)">
		<rect x="776" y="180" class="st1" width="117" height="39"/>
	</g>
	<g transform="translate(-278,10) scale(1,1)">
		<path class="st0" d="M776,180h117v39H776V180z"/>
	</g>
	<g transform="translate(-278,10) scale(1,1)">
		<g>
			<path class="st0" d="M0,0"/>
			<text transform="matrix(1 0 0 1 785.5 198)" class="st4 st3">pt: ParserToken</text>
		</g>
	</g>
	<g transform="translate(-278,10) scale(1,1)">
		<path class="st6" d="M835.5,220v356"/>
	</g>
	<g transform="translate(-278,10) scale(1,1)">
		<rect x="1255" y="47" class="st5" width="117" height="39"/>
	</g>
	<g transform="translate(-278,10) scale(1,1)">
		<rect x="1248" y="40" class="st1" width="117" height="39"/>
	</g>
	<g transform="translate(-278,10) scale(1,1)">
		<path class="st0" d="M1248,40h117v39h-117V40z"/>
	</g>
	<g transform="translate(-278,10) scale(1,1)">
		<g>
			<path class="st0" d="M0,0"/>
			<text transform="matrix(1 0 0 1 1257.5 58)" class="st4 st3">:WordleSession</text>
		</g>
	</g>
	<g transform="translate(-278,10) scale(1,1)">
		<path class="st6" d="M1307.5,80v496"/>
	</g>
	<g transform="translate(-278,10) scale(1,1)">
		<path class="st0" d="M365,124h80"/>
	</g>
	<g transform="translate(-278,10) scale(1,1)">
		<path d="M434.8,128.2L445,124l-10.2-4.2"/>
	</g>
	<g transform="translate(-278,10) scale(1,1)">
		<path class="st0" d="M434.8,128.2L445,124l-10.2-4.2V128.2"/>
	</g>
	<g transform="translate(-278,10) scale(1,1)">
		<g>
			<path class="st0" d="M0,0"/>
			<text transform="matrix(1 0 0 1 378.1445 119)" class="st2 st3">1 : /gioca</text>
		</g>
	</g>
	<g transform="translate(-278,10) scale(1,1)">
		<rect x="445" y="124" class="st1" width="13" height="436"/>
	</g>
	<g transform="translate(-278,10) scale(1,1)">
		<path class="st0" d="M445,124h13v436h-13V124z"/>
	</g>
	<g transform="translate(-278,10) scale(1,1)">
		<path class="st0" d="M458,145h243"/>
	</g>
	<g transform="translate(-278,10) scale(1,1)">
		<path d="M690.8,149.2L701,145l-10.2-4.2"/>
	</g>
	<g transform="translate(-278,10) scale(1,1)">
		<path class="st0" d="M690.8,149.2L701,145l-10.2-4.2V149.2"/>
	</g>
	<g transform="translate(-278,10) scale(1,1)">
		<g>
			<path class="st0" d="M0,0"/>
			<text transform="matrix(1 0 0 1 476.0095 138)" class="st2 st3">2 : feed()</text>
		</g>
	</g>
	<g transform="translate(-278,10) scale(1,1)">
		<rect x="701" y="145" class="st1" width="13" height="28"/>
	</g>
	<g transform="translate(-278,10) scale(1,1)">
		<path class="st0" d="M701,145h13v28h-13V145z"/>
	</g>
	<g transform="translate(-278,10) scale(1,1)">
		<path class="st0" d="M458,192h243"/>
	</g>
	<g transform="translate(-278,10) scale(1,1)">
		<path d="M690.8,196.2L701,192l-10.2-4.2"/>
	</g>
	<g transform="translate(-278,10) scale(1,1)">
		<path class="st0" d="M690.8,196.2L701,192l-10.2-4.2V196.2"/>
	</g>
	<g transform="translate(-278,10) scale(1,1)">
		<g>
			<path class="st0" d="M0,0"/>
			<text transform="matrix(1 0 0 1 467.5 186)" class="st2 st3">3 : pt = getParserToken()</text>
		</g>
	</g>
	<g transform="translate(-278,10) scale(1,1)">
		<rect x="701" y="192" class="st1" width="13" height="28"/>
	</g>
	<g transform="translate(-278,10) scale(1,1)">
		<path class="st0" d="M701,192h13v28h-13V192z"/>
	</g>
	<g transform="translate(-278,10) scale(1,1)">
		<path class="st6" d="M714,200h62"/>
	</g>
	<g transform="translate(-278,10) scale(1,1)">
		<path class="st0" d="M765.8,204.2L776,200l-10.2-4.2"/>
	</g>
	<g transform="translate(-278,10) scale(1,1)">
		<g>
			<path class="st0" d="M0,0"/>
			<text transform="matrix(1 0 0 1 730.5 178)" class="st2 st3">4 :</text>
		</g>
	</g>
	<g transform="translate(-278,10) scale(1,1)">
		<g>
			<path d="M0,0"/>
			<text transform="matrix(1 0 0 1 718.5 193.5)" class="st2 st3">«create»</text>
		</g>
	</g>
	<g transform="translate(-278,10) scale(1,1)">
		<path class="st0" d="M458,248h370"/>
	</g>
	<g transform="translate(-278,10) scale(1,1)">
		<path d="M817.8,252.2L828,248l-10.2-4.2"/>
	</g>
	<g transform="translate(-278,10) scale(1,1)">
		<path class="st0" d="M817.8,252.2L828,248l-10.2-4.2V252.2"/>
	</g>
	<g transform="translate(-278,10) scale(1,1)">
		<g>
			<path class="st0" d="M0,0"/>
			<text transform="matrix(1 0 0 1 474.5 242)" class="st2 st3">5 : c = getCommand()</text>
		</g>
	</g>
	<g transform="translate(-278,10) scale(1,1)">
		<rect x="828" y="248" class="st1" width="13" height="28"/>
	</g>
	<g transform="translate(-278,10) scale(1,1)">
		<path class="st0" d="M828,248h13v28h-13V248z"/>
	</g>
	<g transform="translate(-278,10) scale(1,1)">
		<path class="st0" d="M458,280h370"/>
	</g>
	<g transform="translate(-278,10) scale(1,1)">
		<path d="M817.8,284.2L828,280l-10.2-4.2"/>
	</g>
	<g transform="translate(-278,10) scale(1,1)">
		<path class="st0" d="M817.8,284.2L828,280l-10.2-4.2V284.2"/>
	</g>
	<g transform="translate(-278,10) scale(1,1)">
		<g>
			<path class="st0" d="M0,0"/>
			<text transform="matrix(1 0 0 1 475.5 274)" class="st2 st3">6 : args = getArgs()</text>
		</g>
	</g>
	<g transform="translate(-278,10) scale(1,1)">
		<rect x="828" y="280" class="st1" width="13" height="28"/>
	</g>
	<g transform="translate(-278,10) scale(1,1)">
		<path class="st0" d="M828,280h13v28h-13V280z"/>
	</g>
	<g transform="translate(-278,10) scale(1,1)">
		<path class="st0" d="M458,320h135"/>
	</g>
	<g transform="translate(-278,10) scale(1,1)">
		<path d="M582.8,324.2L593,320l-10.2-4.2"/>
	</g>
	<g transform="translate(-278,10) scale(1,1)">
		<path class="st0" d="M582.8,324.2L593,320l-10.2-4.2V324.2"/>
	</g>
	<g transform="translate(-278,10) scale(1,1)">
		<g>
			<path class="st0" d="M0,0"/>
			<text transform="matrix(1 0 0 1 476.5 315)" class="st2 st3">7 : execute(args)</text>
		</g>
	</g>
	<g transform="translate(-278,10) scale(1,1)">
		<rect x="593" y="320" class="st1" width="13" height="216"/>
	</g>
	<g transform="translate(-278,10) scale(1,1)">
		<path class="st0" d="M593,320h13v216h-13V320z"/>
	</g>
	<g transform="translate(-278,10) scale(1,1)">
		<path class="st0" d="M606,328h440"/>
	</g>
	<g transform="translate(-278,10) scale(1,1)">
		<path d="M1035.8,332.2l10.2-4.2l-10.2-4.2"/>
	</g>
	<g transform="translate(-278,10) scale(1,1)">
		<path class="st0" d="M1035.8,332.2l10.2-4.2l-10.2-4.2V332.2"/>
	</g>
	<g transform="translate(-278,10) scale(1,1)">
		<g>
			<path class="st0" d="M0,0"/>
			<text transform="matrix(1 0 0 1 615.5 322)" class="st2 st3">8 : startGame()</text>
		</g>
	</g>
	<g transform="translate(-278,10) scale(1,1)">
		<rect x="1046" y="328" class="st1" width="13" height="152"/>
	</g>
	<g transform="translate(-278,10) scale(1,1)">
		<path class="st0" d="M1046,328h13v152h-13V328z"/>
	</g>
	<g transform="translate(-278,10) scale(1,1)">
		<path class="st6" d="M1059,336h53"/>
	</g>
	<g transform="translate(-278,10) scale(1,1)">
		<path class="st0" d="M1101.8,340.2l10.2-4.2l-10.2-4.2"/>
	</g>
	<g transform="translate(-278,10) scale(1,1)">
		<g>
			<path class="st0" d="M0,0"/>
			<text transform="matrix(1 0 0 1 1074.8433 314)" class="st2 st3">9 :</text>
		</g>
	</g>
	<g transform="translate(-278,10) scale(1,1)">
		<g>
			<path d="M0,0"/>
			<text transform="matrix(1 0 0 1 1058.5 329.5)" class="st2 st3">«create»</text>
		</g>
	</g>
	<g transform="translate(-278,10) scale(1,1)">
		<path class="st6" d="M1170,392h54"/>
	</g>
	<g transform="translate(-278,10) scale(1,1)">
		<path class="st0" d="M1213.8,396.2l10.2-4.2l-10.2-4.2"/>
	</g>
	<g transform="translate(-278,10) scale(1,1)">
		<g>
			<path class="st0" d="M0,0"/>
			<text transform="matrix(1 0 0 1 1178.325 369)" class="st2 st3">10 :</text>
		</g>
	</g>
	<g transform="translate(-278,10) scale(1,1)">
		<g>
			<path d="M0,0"/>
			<text transform="matrix(1 0 0 1 1169.5 385.5)" class="st2 st3">«create»</text>
		</g>
	</g>
	<g transform="translate(-278,10) scale(1,1)">
		<path class="st0" d="M1059,440h241"/>
	</g>
	<g transform="translate(-278,10) scale(1,1)">
		<path d="M1289.8,444.2l10.2-4.2l-10.2-4.2"/>
	</g>
	<g transform="translate(-278,10) scale(1,1)">
		<path class="st0" d="M1289.8,444.2l10.2-4.2l-10.2-4.2V444.2"/>
	</g>
	<g transform="translate(-278,10) scale(1,1)">
		<g>
			<path class="st0" d="M0,0"/>
			<text transform="matrix(1 0 0 1 1070.5 432)" class="st2 st3">11 : setCurrentGame(g)</text>
		</g>
	</g>
	<g transform="translate(-278,10) scale(1,1)">
		<rect x="1300" y="440" class="st1" width="13" height="28"/>
	</g>
	<g transform="translate(-278,10) scale(1,1)">
		<path class="st0" d="M1300,440h13v28h-13V440z"/>
	</g>
	<g transform="translate(-278,10) scale(1,1)">
		<path class="st0" d="M606,496h292"/>
	</g>
	<g transform="translate(-278,10) scale(1,1)">
		<path d="M887.8,500.2L898,496l-10.2-4.2"/>
	</g>
	<g transform="translate(-278,10) scale(1,1)">
		<path class="st0" d="M887.8,500.2L898,496l-10.2-4.2V500.2"/>
	</g>
	<g transform="translate(-278,10) scale(1,1)">
		<g>
			<path class="st0" d="M0,0"/>
			<text transform="matrix(1 0 0 1 608.9673 488)" class="st2 st3">12 : printBoard()</text>
		</g>
	</g>
	<g transform="translate(-278,10) scale(1,1)">
		<rect x="898" y="496" class="st1" width="13" height="28"/>
	</g>
	<g transform="translate(-278,10) scale(1,1)">
		<path class="st0" d="M898,496h13v28h-13V496z"/>
	</g>
</g>
</svg>
